G04 #@! TF.GenerationSoftware,KiCad,Pcbnew,5.1.10-88a1d61d58~90~ubuntu20.04.1*
G04 #@! TF.CreationDate,2021-11-20T18:16:27-05:00*
G04 #@! TF.ProjectId,WiFiSTMBoard,57694669-5354-44d4-926f-6172642e6b69,rev?*
G04 #@! TF.SameCoordinates,Original*
G04 #@! TF.FileFunction,Copper,L2,Inr*
G04 #@! TF.FilePolarity,Positive*
%FSLAX46Y46*%
G04 Gerber Fmt 4.6, Leading zero omitted, Abs format (unit mm)*
G04 Created by KiCad (PCBNEW 5.1.10-88a1d61d58~90~ubuntu20.04.1) date 2021-11-20 18:16:27*
%MOMM*%
%LPD*%
G01*
G04 APERTURE LIST*
G04 #@! TA.AperFunction,ComponentPad*
%ADD10O,1.200000X1.800000*%
G04 #@! TD*
G04 #@! TA.AperFunction,ComponentPad*
%ADD11O,1.700000X1.700000*%
G04 #@! TD*
G04 #@! TA.AperFunction,ComponentPad*
%ADD12R,1.700000X1.700000*%
G04 #@! TD*
G04 #@! TA.AperFunction,ComponentPad*
%ADD13O,0.890000X1.550000*%
G04 #@! TD*
G04 #@! TA.AperFunction,ComponentPad*
%ADD14O,1.250000X0.950000*%
G04 #@! TD*
G04 #@! TA.AperFunction,ComponentPad*
%ADD15O,3.160000X4.100000*%
G04 #@! TD*
G04 #@! TA.AperFunction,ComponentPad*
%ADD16C,0.700000*%
G04 #@! TD*
G04 #@! TA.AperFunction,ComponentPad*
%ADD17C,4.400000*%
G04 #@! TD*
G04 #@! TA.AperFunction,ViaPad*
%ADD18C,0.800000*%
G04 #@! TD*
G04 #@! TA.AperFunction,Conductor*
%ADD19C,0.254000*%
G04 #@! TD*
G04 #@! TA.AperFunction,Conductor*
%ADD20C,0.100000*%
G04 #@! TD*
G04 APERTURE END LIST*
D10*
X121017800Y-132969000D03*
X119017800Y-132969000D03*
G04 #@! TA.AperFunction,ComponentPad*
G36*
G01*
X116417800Y-133619001D02*
X116417800Y-132318999D01*
G75*
G02*
X116667799Y-132069000I249999J0D01*
G01*
X117367801Y-132069000D01*
G75*
G02*
X117617800Y-132318999I0J-249999D01*
G01*
X117617800Y-133619001D01*
G75*
G02*
X117367801Y-133869000I-249999J0D01*
G01*
X116667799Y-133869000D01*
G75*
G02*
X116417800Y-133619001I0J249999D01*
G01*
G37*
G04 #@! TD.AperFunction*
X110553000Y-132969000D03*
X108553000Y-132969000D03*
G04 #@! TA.AperFunction,ComponentPad*
G36*
G01*
X105953000Y-133619001D02*
X105953000Y-132318999D01*
G75*
G02*
X106202999Y-132069000I249999J0D01*
G01*
X106903001Y-132069000D01*
G75*
G02*
X107153000Y-132318999I0J-249999D01*
G01*
X107153000Y-133619001D01*
G75*
G02*
X106903001Y-133869000I-249999J0D01*
G01*
X106202999Y-133869000D01*
G75*
G02*
X105953000Y-133619001I0J249999D01*
G01*
G37*
G04 #@! TD.AperFunction*
X99885000Y-132969000D03*
X97885000Y-132969000D03*
G04 #@! TA.AperFunction,ComponentPad*
G36*
G01*
X95285000Y-133619001D02*
X95285000Y-132318999D01*
G75*
G02*
X95534999Y-132069000I249999J0D01*
G01*
X96235001Y-132069000D01*
G75*
G02*
X96485000Y-132318999I0J-249999D01*
G01*
X96485000Y-133619001D01*
G75*
G02*
X96235001Y-133869000I-249999J0D01*
G01*
X95534999Y-133869000D01*
G75*
G02*
X95285000Y-133619001I0J249999D01*
G01*
G37*
G04 #@! TD.AperFunction*
D11*
X77250000Y-116130000D03*
X77250000Y-118670000D03*
X77250000Y-121210000D03*
D12*
X77250000Y-123750000D03*
D11*
X144780000Y-96520000D03*
X144780000Y-93980000D03*
X144780000Y-91440000D03*
D12*
X144780000Y-88900000D03*
D13*
X104475400Y-75992200D03*
X111475400Y-75992200D03*
D14*
X105475400Y-78692200D03*
X110475400Y-78692200D03*
D11*
X77250000Y-85600000D03*
X77250000Y-88140000D03*
X77250000Y-90680000D03*
X77250000Y-93220000D03*
X77250000Y-95760000D03*
X77250000Y-98300000D03*
X77250000Y-100840000D03*
X77250000Y-103380000D03*
X77250000Y-105920000D03*
X77250000Y-108460000D03*
D12*
X77250000Y-111000000D03*
D11*
X85344000Y-86868000D03*
X85344000Y-84328000D03*
X87884000Y-86868000D03*
X87884000Y-84328000D03*
X90424000Y-86868000D03*
X90424000Y-84328000D03*
X92964000Y-86868000D03*
X92964000Y-84328000D03*
X95504000Y-86868000D03*
D12*
X95504000Y-84328000D03*
D15*
X136802000Y-78994000D03*
G04 #@! TA.AperFunction,ComponentPad*
G36*
G01*
X131262000Y-80794000D02*
X131262000Y-77194000D01*
G75*
G02*
X131512000Y-76944000I250000J0D01*
G01*
X134172000Y-76944000D01*
G75*
G02*
X134422000Y-77194000I0J-250000D01*
G01*
X134422000Y-80794000D01*
G75*
G02*
X134172000Y-81044000I-250000J0D01*
G01*
X131512000Y-81044000D01*
G75*
G02*
X131262000Y-80794000I0J250000D01*
G01*
G37*
G04 #@! TD.AperFunction*
D11*
X86360000Y-99060000D03*
X88900000Y-99060000D03*
D12*
X91440000Y-99060000D03*
D16*
X146166726Y-76333274D03*
X145000000Y-75850000D03*
X143833274Y-76333274D03*
X143350000Y-77500000D03*
X143833274Y-78666726D03*
X145000000Y-79150000D03*
X146166726Y-78666726D03*
X146650000Y-77500000D03*
D17*
X145000000Y-77500000D03*
D16*
X78666726Y-133833274D03*
X77500000Y-133350000D03*
X76333274Y-133833274D03*
X75850000Y-135000000D03*
X76333274Y-136166726D03*
X77500000Y-136650000D03*
X78666726Y-136166726D03*
X79150000Y-135000000D03*
D17*
X77500000Y-135000000D03*
D16*
X78666726Y-76333274D03*
X77500000Y-75850000D03*
X76333274Y-76333274D03*
X75850000Y-77500000D03*
X76333274Y-78666726D03*
X77500000Y-79150000D03*
X78666726Y-78666726D03*
X79150000Y-77500000D03*
D17*
X77500000Y-77500000D03*
D16*
X146166726Y-133833274D03*
X145000000Y-133350000D03*
X143833274Y-133833274D03*
X143350000Y-135000000D03*
X143833274Y-136166726D03*
X145000000Y-136650000D03*
X146166726Y-136166726D03*
X146650000Y-135000000D03*
D17*
X145000000Y-135000000D03*
D18*
X116000000Y-101600000D03*
X128100000Y-85200000D03*
X128700000Y-90700000D03*
X101600000Y-117800000D03*
X101100000Y-115200000D03*
X107200000Y-103500000D03*
X111300000Y-104000000D03*
X101100000Y-112700000D03*
X123000000Y-119000000D03*
X119600000Y-119000000D03*
X110000000Y-118900000D03*
X108500000Y-119400000D03*
X107800000Y-81400000D03*
X116100000Y-97200000D03*
X105900000Y-80300000D03*
X121700000Y-79400000D03*
X146300000Y-117600000D03*
X146100000Y-125100000D03*
X145100000Y-124300000D03*
X134200000Y-125400000D03*
X146000000Y-109600000D03*
X146200000Y-102500000D03*
X135400000Y-100400000D03*
X144200000Y-100500000D03*
X144800000Y-108100000D03*
X134000000Y-109100000D03*
X134300000Y-117300000D03*
X145100000Y-116600000D03*
X119500000Y-84700000D03*
X115700000Y-86500000D03*
X83000000Y-120100000D03*
X83900000Y-119600000D03*
X94700000Y-119700000D03*
X132700000Y-132500000D03*
X132100000Y-124300000D03*
X130700000Y-116900000D03*
X110100000Y-115700000D03*
X114000000Y-118700000D03*
X132900000Y-100800000D03*
X124100000Y-98700000D03*
X104000000Y-81500000D03*
X125000000Y-85100000D03*
X100700000Y-110900000D03*
X110000000Y-108600000D03*
X111300000Y-117000000D03*
X106100000Y-114900000D03*
X103600000Y-114300000D03*
X103700000Y-98800000D03*
X97900000Y-113000000D03*
X112300000Y-101300000D03*
X103300000Y-112200006D03*
X102051817Y-110951813D03*
X97400000Y-103299992D03*
X104367088Y-102432912D03*
X81788000Y-86360000D03*
X82042000Y-80264000D03*
X101854000Y-81534000D03*
X105156000Y-98552000D03*
X108458000Y-105918000D03*
X96300000Y-124400000D03*
X107700000Y-108500000D03*
X117856000Y-80518000D03*
X115316000Y-80518000D03*
X114808000Y-77724000D03*
X109728000Y-77724000D03*
X128270000Y-79248000D03*
X123952000Y-83820000D03*
X120396000Y-83820000D03*
X111113600Y-112682261D03*
X107000000Y-124500000D03*
X95504000Y-88900000D03*
X103378004Y-90932000D03*
X121412000Y-102870000D03*
X116000000Y-104250000D03*
X106100000Y-106400000D03*
X90400000Y-103600000D03*
X103750000Y-89000000D03*
X106000000Y-91250000D03*
X114300000Y-109982000D03*
X125984000Y-110490000D03*
X133858000Y-114046000D03*
X117856000Y-112776000D03*
X132842000Y-121158000D03*
X111252000Y-108712000D03*
X133604000Y-106680000D03*
X114822414Y-107273600D03*
X105805331Y-109055331D03*
X93500000Y-113000000D03*
X101750000Y-116000000D03*
X106000000Y-105250000D03*
D19*
X147308218Y-74093386D02*
X147604697Y-74182898D01*
X147878140Y-74328291D01*
X148118141Y-74524031D01*
X148315547Y-74762653D01*
X148462843Y-75035073D01*
X148554425Y-75330926D01*
X148590000Y-75669400D01*
X148590001Y-136717711D01*
X148556614Y-137058218D01*
X148467103Y-137354694D01*
X148321709Y-137628141D01*
X148125970Y-137868140D01*
X147887350Y-138065544D01*
X147614926Y-138212843D01*
X147319074Y-138304425D01*
X146980600Y-138340000D01*
X75282279Y-138340000D01*
X74941782Y-138306614D01*
X74645306Y-138217103D01*
X74371859Y-138071709D01*
X74131860Y-137875970D01*
X73934456Y-137637350D01*
X73787157Y-137364926D01*
X73695575Y-137069074D01*
X73687241Y-136989775D01*
X75689830Y-136989775D01*
X75929976Y-137377018D01*
X76423877Y-137637641D01*
X76959133Y-137796901D01*
X77515174Y-137848678D01*
X78070632Y-137790981D01*
X78604161Y-137626028D01*
X79070024Y-137377018D01*
X79310170Y-136989775D01*
X143189830Y-136989775D01*
X143429976Y-137377018D01*
X143923877Y-137637641D01*
X144459133Y-137796901D01*
X145015174Y-137848678D01*
X145570632Y-137790981D01*
X146104161Y-137626028D01*
X146570024Y-137377018D01*
X146810170Y-136989775D01*
X145000000Y-135179605D01*
X143189830Y-136989775D01*
X79310170Y-136989775D01*
X77500000Y-135179605D01*
X75689830Y-136989775D01*
X73687241Y-136989775D01*
X73660000Y-136730600D01*
X73660000Y-135015174D01*
X74651322Y-135015174D01*
X74709019Y-135570632D01*
X74873972Y-136104161D01*
X75122982Y-136570024D01*
X75510225Y-136810170D01*
X77320395Y-135000000D01*
X77679605Y-135000000D01*
X79489775Y-136810170D01*
X79877018Y-136570024D01*
X80137641Y-136076123D01*
X80296901Y-135540867D01*
X80345852Y-135015174D01*
X142151322Y-135015174D01*
X142209019Y-135570632D01*
X142373972Y-136104161D01*
X142622982Y-136570024D01*
X143010225Y-136810170D01*
X144820395Y-135000000D01*
X145179605Y-135000000D01*
X146989775Y-136810170D01*
X147377018Y-136570024D01*
X147637641Y-136076123D01*
X147796901Y-135540867D01*
X147848678Y-134984826D01*
X147790981Y-134429368D01*
X147626028Y-133895839D01*
X147377018Y-133429976D01*
X146989775Y-133189830D01*
X145179605Y-135000000D01*
X144820395Y-135000000D01*
X143010225Y-133189830D01*
X142622982Y-133429976D01*
X142362359Y-133923877D01*
X142203099Y-134459133D01*
X142151322Y-135015174D01*
X80345852Y-135015174D01*
X80348678Y-134984826D01*
X80290981Y-134429368D01*
X80126028Y-133895839D01*
X80111683Y-133869000D01*
X94646928Y-133869000D01*
X94659188Y-133993482D01*
X94695498Y-134113180D01*
X94754463Y-134223494D01*
X94833815Y-134320185D01*
X94930506Y-134399537D01*
X95040820Y-134458502D01*
X95160518Y-134494812D01*
X95285000Y-134507072D01*
X95599250Y-134504000D01*
X95758000Y-134345250D01*
X95758000Y-133096000D01*
X94808750Y-133096000D01*
X94650000Y-133254750D01*
X94646928Y-133869000D01*
X80111683Y-133869000D01*
X79877018Y-133429976D01*
X79489775Y-133189830D01*
X77679605Y-135000000D01*
X77320395Y-135000000D01*
X75510225Y-133189830D01*
X75122982Y-133429976D01*
X74862359Y-133923877D01*
X74703099Y-134459133D01*
X74651322Y-135015174D01*
X73660000Y-135015174D01*
X73660000Y-133010225D01*
X75689830Y-133010225D01*
X77500000Y-134820395D01*
X79310170Y-133010225D01*
X79070024Y-132622982D01*
X78576123Y-132362359D01*
X78040867Y-132203099D01*
X77484826Y-132151322D01*
X76929368Y-132209019D01*
X76395839Y-132373972D01*
X75929976Y-132622982D01*
X75689830Y-133010225D01*
X73660000Y-133010225D01*
X73660000Y-132069000D01*
X94646928Y-132069000D01*
X94650000Y-132683250D01*
X94808750Y-132842000D01*
X95758000Y-132842000D01*
X95758000Y-131592750D01*
X96012000Y-131592750D01*
X96012000Y-132842000D01*
X96032000Y-132842000D01*
X96032000Y-133096000D01*
X96012000Y-133096000D01*
X96012000Y-134345250D01*
X96170750Y-134504000D01*
X96485000Y-134507072D01*
X96609482Y-134494812D01*
X96729180Y-134458502D01*
X96839494Y-134399537D01*
X96936185Y-134320185D01*
X97015537Y-134223494D01*
X97041692Y-134174563D01*
X97195552Y-134300833D01*
X97410100Y-134415511D01*
X97642899Y-134486130D01*
X97885000Y-134509975D01*
X98127102Y-134486130D01*
X98359901Y-134415511D01*
X98574449Y-134300833D01*
X98762502Y-134146502D01*
X98885001Y-133997237D01*
X99007499Y-134146502D01*
X99195552Y-134300833D01*
X99410100Y-134415511D01*
X99642899Y-134486130D01*
X99885000Y-134509975D01*
X100127102Y-134486130D01*
X100359901Y-134415511D01*
X100574449Y-134300833D01*
X100762502Y-134146502D01*
X100916833Y-133958449D01*
X100964644Y-133869000D01*
X105314928Y-133869000D01*
X105327188Y-133993482D01*
X105363498Y-134113180D01*
X105422463Y-134223494D01*
X105501815Y-134320185D01*
X105598506Y-134399537D01*
X105708820Y-134458502D01*
X105828518Y-134494812D01*
X105953000Y-134507072D01*
X106267250Y-134504000D01*
X106426000Y-134345250D01*
X106426000Y-133096000D01*
X105476750Y-133096000D01*
X105318000Y-133254750D01*
X105314928Y-133869000D01*
X100964644Y-133869000D01*
X101031511Y-133743901D01*
X101102130Y-133511101D01*
X101120000Y-133329664D01*
X101120000Y-132608335D01*
X101102130Y-132426898D01*
X101031511Y-132194099D01*
X100964645Y-132069000D01*
X105314928Y-132069000D01*
X105318000Y-132683250D01*
X105476750Y-132842000D01*
X106426000Y-132842000D01*
X106426000Y-131592750D01*
X106680000Y-131592750D01*
X106680000Y-132842000D01*
X106700000Y-132842000D01*
X106700000Y-133096000D01*
X106680000Y-133096000D01*
X106680000Y-134345250D01*
X106838750Y-134504000D01*
X107153000Y-134507072D01*
X107277482Y-134494812D01*
X107397180Y-134458502D01*
X107507494Y-134399537D01*
X107604185Y-134320185D01*
X107683537Y-134223494D01*
X107709692Y-134174563D01*
X107863552Y-134300833D01*
X108078100Y-134415511D01*
X108310899Y-134486130D01*
X108553000Y-134509975D01*
X108795102Y-134486130D01*
X109027901Y-134415511D01*
X109242449Y-134300833D01*
X109430502Y-134146502D01*
X109553001Y-133997237D01*
X109675499Y-134146502D01*
X109863552Y-134300833D01*
X110078100Y-134415511D01*
X110310899Y-134486130D01*
X110553000Y-134509975D01*
X110795102Y-134486130D01*
X111027901Y-134415511D01*
X111242449Y-134300833D01*
X111430502Y-134146502D01*
X111584833Y-133958449D01*
X111632644Y-133869000D01*
X115779728Y-133869000D01*
X115791988Y-133993482D01*
X115828298Y-134113180D01*
X115887263Y-134223494D01*
X115966615Y-134320185D01*
X116063306Y-134399537D01*
X116173620Y-134458502D01*
X116293318Y-134494812D01*
X116417800Y-134507072D01*
X116732050Y-134504000D01*
X116890800Y-134345250D01*
X116890800Y-133096000D01*
X115941550Y-133096000D01*
X115782800Y-133254750D01*
X115779728Y-133869000D01*
X111632644Y-133869000D01*
X111699511Y-133743901D01*
X111770130Y-133511101D01*
X111788000Y-133329664D01*
X111788000Y-132608335D01*
X111770130Y-132426898D01*
X111699511Y-132194099D01*
X111632645Y-132069000D01*
X115779728Y-132069000D01*
X115782800Y-132683250D01*
X115941550Y-132842000D01*
X116890800Y-132842000D01*
X116890800Y-131592750D01*
X117144800Y-131592750D01*
X117144800Y-132842000D01*
X117164800Y-132842000D01*
X117164800Y-133096000D01*
X117144800Y-133096000D01*
X117144800Y-134345250D01*
X117303550Y-134504000D01*
X117617800Y-134507072D01*
X117742282Y-134494812D01*
X117861980Y-134458502D01*
X117972294Y-134399537D01*
X118068985Y-134320185D01*
X118148337Y-134223494D01*
X118174492Y-134174563D01*
X118328352Y-134300833D01*
X118542900Y-134415511D01*
X118775699Y-134486130D01*
X119017800Y-134509975D01*
X119259902Y-134486130D01*
X119492701Y-134415511D01*
X119707249Y-134300833D01*
X119895302Y-134146502D01*
X120017801Y-133997237D01*
X120140299Y-134146502D01*
X120328352Y-134300833D01*
X120542900Y-134415511D01*
X120775699Y-134486130D01*
X121017800Y-134509975D01*
X121259902Y-134486130D01*
X121492701Y-134415511D01*
X121707249Y-134300833D01*
X121895302Y-134146502D01*
X122049633Y-133958449D01*
X122164311Y-133743901D01*
X122234930Y-133511101D01*
X122252800Y-133329664D01*
X122252800Y-132608335D01*
X122234930Y-132426898D01*
X122226183Y-132398061D01*
X131665000Y-132398061D01*
X131665000Y-132601939D01*
X131704774Y-132801898D01*
X131782795Y-132990256D01*
X131896063Y-133159774D01*
X132040226Y-133303937D01*
X132209744Y-133417205D01*
X132398102Y-133495226D01*
X132598061Y-133535000D01*
X132801939Y-133535000D01*
X133001898Y-133495226D01*
X133190256Y-133417205D01*
X133359774Y-133303937D01*
X133503937Y-133159774D01*
X133603862Y-133010225D01*
X143189830Y-133010225D01*
X145000000Y-134820395D01*
X146810170Y-133010225D01*
X146570024Y-132622982D01*
X146076123Y-132362359D01*
X145540867Y-132203099D01*
X144984826Y-132151322D01*
X144429368Y-132209019D01*
X143895839Y-132373972D01*
X143429976Y-132622982D01*
X143189830Y-133010225D01*
X133603862Y-133010225D01*
X133617205Y-132990256D01*
X133695226Y-132801898D01*
X133735000Y-132601939D01*
X133735000Y-132398061D01*
X133695226Y-132198102D01*
X133617205Y-132009744D01*
X133503937Y-131840226D01*
X133359774Y-131696063D01*
X133190256Y-131582795D01*
X133001898Y-131504774D01*
X132801939Y-131465000D01*
X132598061Y-131465000D01*
X132398102Y-131504774D01*
X132209744Y-131582795D01*
X132040226Y-131696063D01*
X131896063Y-131840226D01*
X131782795Y-132009744D01*
X131704774Y-132198102D01*
X131665000Y-132398061D01*
X122226183Y-132398061D01*
X122164311Y-132194099D01*
X122049633Y-131979551D01*
X121895302Y-131791498D01*
X121707248Y-131637167D01*
X121492700Y-131522489D01*
X121259901Y-131451870D01*
X121017800Y-131428025D01*
X120775698Y-131451870D01*
X120542899Y-131522489D01*
X120328351Y-131637167D01*
X120140298Y-131791498D01*
X120017800Y-131940763D01*
X119895302Y-131791498D01*
X119707248Y-131637167D01*
X119492700Y-131522489D01*
X119259901Y-131451870D01*
X119017800Y-131428025D01*
X118775698Y-131451870D01*
X118542899Y-131522489D01*
X118328351Y-131637167D01*
X118174491Y-131763436D01*
X118148337Y-131714506D01*
X118068985Y-131617815D01*
X117972294Y-131538463D01*
X117861980Y-131479498D01*
X117742282Y-131443188D01*
X117617800Y-131430928D01*
X117303550Y-131434000D01*
X117144800Y-131592750D01*
X116890800Y-131592750D01*
X116732050Y-131434000D01*
X116417800Y-131430928D01*
X116293318Y-131443188D01*
X116173620Y-131479498D01*
X116063306Y-131538463D01*
X115966615Y-131617815D01*
X115887263Y-131714506D01*
X115828298Y-131824820D01*
X115791988Y-131944518D01*
X115779728Y-132069000D01*
X111632645Y-132069000D01*
X111584833Y-131979551D01*
X111430502Y-131791498D01*
X111242448Y-131637167D01*
X111027900Y-131522489D01*
X110795101Y-131451870D01*
X110553000Y-131428025D01*
X110310898Y-131451870D01*
X110078099Y-131522489D01*
X109863551Y-131637167D01*
X109675498Y-131791498D01*
X109553000Y-131940763D01*
X109430502Y-131791498D01*
X109242448Y-131637167D01*
X109027900Y-131522489D01*
X108795101Y-131451870D01*
X108553000Y-131428025D01*
X108310898Y-131451870D01*
X108078099Y-131522489D01*
X107863551Y-131637167D01*
X107709691Y-131763436D01*
X107683537Y-131714506D01*
X107604185Y-131617815D01*
X107507494Y-131538463D01*
X107397180Y-131479498D01*
X107277482Y-131443188D01*
X107153000Y-131430928D01*
X106838750Y-131434000D01*
X106680000Y-131592750D01*
X106426000Y-131592750D01*
X106267250Y-131434000D01*
X105953000Y-131430928D01*
X105828518Y-131443188D01*
X105708820Y-131479498D01*
X105598506Y-131538463D01*
X105501815Y-131617815D01*
X105422463Y-131714506D01*
X105363498Y-131824820D01*
X105327188Y-131944518D01*
X105314928Y-132069000D01*
X100964645Y-132069000D01*
X100916833Y-131979551D01*
X100762502Y-131791498D01*
X100574448Y-131637167D01*
X100359900Y-131522489D01*
X100127101Y-131451870D01*
X99885000Y-131428025D01*
X99642898Y-131451870D01*
X99410099Y-131522489D01*
X99195551Y-131637167D01*
X99007498Y-131791498D01*
X98885000Y-131940763D01*
X98762502Y-131791498D01*
X98574448Y-131637167D01*
X98359900Y-131522489D01*
X98127101Y-131451870D01*
X97885000Y-131428025D01*
X97642898Y-131451870D01*
X97410099Y-131522489D01*
X97195551Y-131637167D01*
X97041691Y-131763436D01*
X97015537Y-131714506D01*
X96936185Y-131617815D01*
X96839494Y-131538463D01*
X96729180Y-131479498D01*
X96609482Y-131443188D01*
X96485000Y-131430928D01*
X96170750Y-131434000D01*
X96012000Y-131592750D01*
X95758000Y-131592750D01*
X95599250Y-131434000D01*
X95285000Y-131430928D01*
X95160518Y-131443188D01*
X95040820Y-131479498D01*
X94930506Y-131538463D01*
X94833815Y-131617815D01*
X94754463Y-131714506D01*
X94695498Y-131824820D01*
X94659188Y-131944518D01*
X94646928Y-132069000D01*
X73660000Y-132069000D01*
X73660000Y-124600000D01*
X75761928Y-124600000D01*
X75774188Y-124724482D01*
X75810498Y-124844180D01*
X75869463Y-124954494D01*
X75948815Y-125051185D01*
X76045506Y-125130537D01*
X76155820Y-125189502D01*
X76275518Y-125225812D01*
X76400000Y-125238072D01*
X76964250Y-125235000D01*
X77123000Y-125076250D01*
X77123000Y-123877000D01*
X77377000Y-123877000D01*
X77377000Y-125076250D01*
X77535750Y-125235000D01*
X78100000Y-125238072D01*
X78224482Y-125225812D01*
X78344180Y-125189502D01*
X78454494Y-125130537D01*
X78551185Y-125051185D01*
X78630537Y-124954494D01*
X78689502Y-124844180D01*
X78725812Y-124724482D01*
X78738072Y-124600000D01*
X78736429Y-124298061D01*
X95265000Y-124298061D01*
X95265000Y-124501939D01*
X95304774Y-124701898D01*
X95382795Y-124890256D01*
X95496063Y-125059774D01*
X95640226Y-125203937D01*
X95809744Y-125317205D01*
X95998102Y-125395226D01*
X96198061Y-125435000D01*
X96401939Y-125435000D01*
X96601898Y-125395226D01*
X96790256Y-125317205D01*
X96959774Y-125203937D01*
X97103937Y-125059774D01*
X97217205Y-124890256D01*
X97295226Y-124701898D01*
X97335000Y-124501939D01*
X97335000Y-124398061D01*
X105965000Y-124398061D01*
X105965000Y-124601939D01*
X106004774Y-124801898D01*
X106082795Y-124990256D01*
X106196063Y-125159774D01*
X106340226Y-125303937D01*
X106509744Y-125417205D01*
X106698102Y-125495226D01*
X106898061Y-125535000D01*
X107101939Y-125535000D01*
X107301898Y-125495226D01*
X107490256Y-125417205D01*
X107659774Y-125303937D01*
X107803937Y-125159774D01*
X107917205Y-124990256D01*
X107995226Y-124801898D01*
X108035000Y-124601939D01*
X108035000Y-124398061D01*
X107995226Y-124198102D01*
X107995210Y-124198061D01*
X131065000Y-124198061D01*
X131065000Y-124401939D01*
X131104774Y-124601898D01*
X131182795Y-124790256D01*
X131296063Y-124959774D01*
X131440226Y-125103937D01*
X131609744Y-125217205D01*
X131798102Y-125295226D01*
X131998061Y-125335000D01*
X132201939Y-125335000D01*
X132401898Y-125295226D01*
X132590256Y-125217205D01*
X132759774Y-125103937D01*
X132903937Y-124959774D01*
X133017205Y-124790256D01*
X133095226Y-124601898D01*
X133135000Y-124401939D01*
X133135000Y-124198061D01*
X133095226Y-123998102D01*
X133017205Y-123809744D01*
X132903937Y-123640226D01*
X132759774Y-123496063D01*
X132590256Y-123382795D01*
X132401898Y-123304774D01*
X132201939Y-123265000D01*
X131998061Y-123265000D01*
X131798102Y-123304774D01*
X131609744Y-123382795D01*
X131440226Y-123496063D01*
X131296063Y-123640226D01*
X131182795Y-123809744D01*
X131104774Y-123998102D01*
X131065000Y-124198061D01*
X107995210Y-124198061D01*
X107917205Y-124009744D01*
X107803937Y-123840226D01*
X107659774Y-123696063D01*
X107490256Y-123582795D01*
X107301898Y-123504774D01*
X107101939Y-123465000D01*
X106898061Y-123465000D01*
X106698102Y-123504774D01*
X106509744Y-123582795D01*
X106340226Y-123696063D01*
X106196063Y-123840226D01*
X106082795Y-124009744D01*
X106004774Y-124198102D01*
X105965000Y-124398061D01*
X97335000Y-124398061D01*
X97335000Y-124298061D01*
X97295226Y-124098102D01*
X97217205Y-123909744D01*
X97103937Y-123740226D01*
X96959774Y-123596063D01*
X96790256Y-123482795D01*
X96601898Y-123404774D01*
X96401939Y-123365000D01*
X96198061Y-123365000D01*
X95998102Y-123404774D01*
X95809744Y-123482795D01*
X95640226Y-123596063D01*
X95496063Y-123740226D01*
X95382795Y-123909744D01*
X95304774Y-124098102D01*
X95265000Y-124298061D01*
X78736429Y-124298061D01*
X78735000Y-124035750D01*
X78576250Y-123877000D01*
X77377000Y-123877000D01*
X77123000Y-123877000D01*
X75923750Y-123877000D01*
X75765000Y-124035750D01*
X75761928Y-124600000D01*
X73660000Y-124600000D01*
X73660000Y-122900000D01*
X75761928Y-122900000D01*
X75765000Y-123464250D01*
X75923750Y-123623000D01*
X77123000Y-123623000D01*
X77123000Y-123603000D01*
X77377000Y-123603000D01*
X77377000Y-123623000D01*
X78576250Y-123623000D01*
X78735000Y-123464250D01*
X78738072Y-122900000D01*
X78725812Y-122775518D01*
X78689502Y-122655820D01*
X78630537Y-122545506D01*
X78551185Y-122448815D01*
X78454494Y-122369463D01*
X78344180Y-122310498D01*
X78271620Y-122288487D01*
X78403475Y-122156632D01*
X78565990Y-121913411D01*
X78677932Y-121643158D01*
X78735000Y-121356260D01*
X78735000Y-121063740D01*
X78733473Y-121056061D01*
X131807000Y-121056061D01*
X131807000Y-121259939D01*
X131846774Y-121459898D01*
X131924795Y-121648256D01*
X132038063Y-121817774D01*
X132182226Y-121961937D01*
X132351744Y-122075205D01*
X132540102Y-122153226D01*
X132740061Y-122193000D01*
X132943939Y-122193000D01*
X133143898Y-122153226D01*
X133332256Y-122075205D01*
X133501774Y-121961937D01*
X133645937Y-121817774D01*
X133759205Y-121648256D01*
X133837226Y-121459898D01*
X133877000Y-121259939D01*
X133877000Y-121056061D01*
X133837226Y-120856102D01*
X133759205Y-120667744D01*
X133645937Y-120498226D01*
X133501774Y-120354063D01*
X133332256Y-120240795D01*
X133143898Y-120162774D01*
X132943939Y-120123000D01*
X132740061Y-120123000D01*
X132540102Y-120162774D01*
X132351744Y-120240795D01*
X132182226Y-120354063D01*
X132038063Y-120498226D01*
X131924795Y-120667744D01*
X131846774Y-120856102D01*
X131807000Y-121056061D01*
X78733473Y-121056061D01*
X78677932Y-120776842D01*
X78565990Y-120506589D01*
X78403475Y-120263368D01*
X78196632Y-120056525D01*
X78022240Y-119940000D01*
X78196632Y-119823475D01*
X78403475Y-119616632D01*
X78565990Y-119373411D01*
X78677932Y-119103158D01*
X78735000Y-118816260D01*
X78735000Y-118598061D01*
X112965000Y-118598061D01*
X112965000Y-118801939D01*
X113004774Y-119001898D01*
X113082795Y-119190256D01*
X113196063Y-119359774D01*
X113340226Y-119503937D01*
X113509744Y-119617205D01*
X113698102Y-119695226D01*
X113898061Y-119735000D01*
X114101939Y-119735000D01*
X114301898Y-119695226D01*
X114490256Y-119617205D01*
X114659774Y-119503937D01*
X114803937Y-119359774D01*
X114917205Y-119190256D01*
X114995226Y-119001898D01*
X115035000Y-118801939D01*
X115035000Y-118598061D01*
X114995226Y-118398102D01*
X114917205Y-118209744D01*
X114803937Y-118040226D01*
X114659774Y-117896063D01*
X114490256Y-117782795D01*
X114301898Y-117704774D01*
X114101939Y-117665000D01*
X113898061Y-117665000D01*
X113698102Y-117704774D01*
X113509744Y-117782795D01*
X113340226Y-117896063D01*
X113196063Y-118040226D01*
X113082795Y-118209744D01*
X113004774Y-118398102D01*
X112965000Y-118598061D01*
X78735000Y-118598061D01*
X78735000Y-118523740D01*
X78677932Y-118236842D01*
X78565990Y-117966589D01*
X78403475Y-117723368D01*
X78196632Y-117516525D01*
X78022240Y-117400000D01*
X78196632Y-117283475D01*
X78403475Y-117076632D01*
X78565990Y-116833411D01*
X78677932Y-116563158D01*
X78735000Y-116276260D01*
X78735000Y-115983740D01*
X78717958Y-115898061D01*
X100715000Y-115898061D01*
X100715000Y-116101939D01*
X100754774Y-116301898D01*
X100832795Y-116490256D01*
X100946063Y-116659774D01*
X101090226Y-116803937D01*
X101259744Y-116917205D01*
X101448102Y-116995226D01*
X101648061Y-117035000D01*
X101851939Y-117035000D01*
X102051898Y-116995226D01*
X102240256Y-116917205D01*
X102409774Y-116803937D01*
X102415650Y-116798061D01*
X129665000Y-116798061D01*
X129665000Y-117001939D01*
X129704774Y-117201898D01*
X129782795Y-117390256D01*
X129896063Y-117559774D01*
X130040226Y-117703937D01*
X130209744Y-117817205D01*
X130398102Y-117895226D01*
X130598061Y-117935000D01*
X130801939Y-117935000D01*
X131001898Y-117895226D01*
X131190256Y-117817205D01*
X131359774Y-117703937D01*
X131503937Y-117559774D01*
X131617205Y-117390256D01*
X131695226Y-117201898D01*
X131735000Y-117001939D01*
X131735000Y-116798061D01*
X131695226Y-116598102D01*
X131617205Y-116409744D01*
X131503937Y-116240226D01*
X131359774Y-116096063D01*
X131190256Y-115982795D01*
X131001898Y-115904774D01*
X130801939Y-115865000D01*
X130598061Y-115865000D01*
X130398102Y-115904774D01*
X130209744Y-115982795D01*
X130040226Y-116096063D01*
X129896063Y-116240226D01*
X129782795Y-116409744D01*
X129704774Y-116598102D01*
X129665000Y-116798061D01*
X102415650Y-116798061D01*
X102553937Y-116659774D01*
X102667205Y-116490256D01*
X102745226Y-116301898D01*
X102785000Y-116101939D01*
X102785000Y-115898061D01*
X102745226Y-115698102D01*
X102667205Y-115509744D01*
X102553937Y-115340226D01*
X102409774Y-115196063D01*
X102240256Y-115082795D01*
X102051898Y-115004774D01*
X101851939Y-114965000D01*
X101648061Y-114965000D01*
X101448102Y-115004774D01*
X101259744Y-115082795D01*
X101090226Y-115196063D01*
X100946063Y-115340226D01*
X100832795Y-115509744D01*
X100754774Y-115698102D01*
X100715000Y-115898061D01*
X78717958Y-115898061D01*
X78677932Y-115696842D01*
X78565990Y-115426589D01*
X78403475Y-115183368D01*
X78196632Y-114976525D01*
X77953411Y-114814010D01*
X77683158Y-114702068D01*
X77396260Y-114645000D01*
X77103740Y-114645000D01*
X76816842Y-114702068D01*
X76546589Y-114814010D01*
X76303368Y-114976525D01*
X76096525Y-115183368D01*
X75934010Y-115426589D01*
X75822068Y-115696842D01*
X75765000Y-115983740D01*
X75765000Y-116276260D01*
X75822068Y-116563158D01*
X75934010Y-116833411D01*
X76096525Y-117076632D01*
X76303368Y-117283475D01*
X76477760Y-117400000D01*
X76303368Y-117516525D01*
X76096525Y-117723368D01*
X75934010Y-117966589D01*
X75822068Y-118236842D01*
X75765000Y-118523740D01*
X75765000Y-118816260D01*
X75822068Y-119103158D01*
X75934010Y-119373411D01*
X76096525Y-119616632D01*
X76303368Y-119823475D01*
X76477760Y-119940000D01*
X76303368Y-120056525D01*
X76096525Y-120263368D01*
X75934010Y-120506589D01*
X75822068Y-120776842D01*
X75765000Y-121063740D01*
X75765000Y-121356260D01*
X75822068Y-121643158D01*
X75934010Y-121913411D01*
X76096525Y-122156632D01*
X76228380Y-122288487D01*
X76155820Y-122310498D01*
X76045506Y-122369463D01*
X75948815Y-122448815D01*
X75869463Y-122545506D01*
X75810498Y-122655820D01*
X75774188Y-122775518D01*
X75761928Y-122900000D01*
X73660000Y-122900000D01*
X73660000Y-112898061D01*
X92465000Y-112898061D01*
X92465000Y-113101939D01*
X92504774Y-113301898D01*
X92582795Y-113490256D01*
X92696063Y-113659774D01*
X92840226Y-113803937D01*
X93009744Y-113917205D01*
X93198102Y-113995226D01*
X93398061Y-114035000D01*
X93601939Y-114035000D01*
X93801898Y-113995226D01*
X93990256Y-113917205D01*
X94159774Y-113803937D01*
X94303937Y-113659774D01*
X94417205Y-113490256D01*
X94495226Y-113301898D01*
X94535000Y-113101939D01*
X94535000Y-112898061D01*
X96865000Y-112898061D01*
X96865000Y-113101939D01*
X96904774Y-113301898D01*
X96982795Y-113490256D01*
X97096063Y-113659774D01*
X97240226Y-113803937D01*
X97409744Y-113917205D01*
X97598102Y-113995226D01*
X97798061Y-114035000D01*
X98001939Y-114035000D01*
X98201898Y-113995226D01*
X98325420Y-113944061D01*
X132823000Y-113944061D01*
X132823000Y-114147939D01*
X132862774Y-114347898D01*
X132940795Y-114536256D01*
X133054063Y-114705774D01*
X133198226Y-114849937D01*
X133367744Y-114963205D01*
X133556102Y-115041226D01*
X133756061Y-115081000D01*
X133959939Y-115081000D01*
X134159898Y-115041226D01*
X134348256Y-114963205D01*
X134517774Y-114849937D01*
X134661937Y-114705774D01*
X134775205Y-114536256D01*
X134853226Y-114347898D01*
X134893000Y-114147939D01*
X134893000Y-113944061D01*
X134853226Y-113744102D01*
X134775205Y-113555744D01*
X134661937Y-113386226D01*
X134517774Y-113242063D01*
X134348256Y-113128795D01*
X134159898Y-113050774D01*
X133959939Y-113011000D01*
X133756061Y-113011000D01*
X133556102Y-113050774D01*
X133367744Y-113128795D01*
X133198226Y-113242063D01*
X133054063Y-113386226D01*
X132940795Y-113555744D01*
X132862774Y-113744102D01*
X132823000Y-113944061D01*
X98325420Y-113944061D01*
X98390256Y-113917205D01*
X98559774Y-113803937D01*
X98703937Y-113659774D01*
X98817205Y-113490256D01*
X98895226Y-113301898D01*
X98935000Y-113101939D01*
X98935000Y-112898061D01*
X98895226Y-112698102D01*
X98853788Y-112598061D01*
X100065000Y-112598061D01*
X100065000Y-112801939D01*
X100104774Y-113001898D01*
X100182795Y-113190256D01*
X100296063Y-113359774D01*
X100440226Y-113503937D01*
X100609744Y-113617205D01*
X100798102Y-113695226D01*
X100998061Y-113735000D01*
X101201939Y-113735000D01*
X101401898Y-113695226D01*
X101590256Y-113617205D01*
X101759774Y-113503937D01*
X101903937Y-113359774D01*
X102017205Y-113190256D01*
X102095226Y-113001898D01*
X102135000Y-112801939D01*
X102135000Y-112598061D01*
X102095226Y-112398102D01*
X102017205Y-112209744D01*
X101903937Y-112040226D01*
X101825854Y-111962143D01*
X101949878Y-111986813D01*
X102153756Y-111986813D01*
X102292624Y-111959191D01*
X102265000Y-112098067D01*
X102265000Y-112301945D01*
X102304774Y-112501904D01*
X102382795Y-112690262D01*
X102496063Y-112859780D01*
X102640226Y-113003943D01*
X102809744Y-113117211D01*
X102998102Y-113195232D01*
X103198061Y-113235006D01*
X103401939Y-113235006D01*
X103601898Y-113195232D01*
X103790256Y-113117211D01*
X103959774Y-113003943D01*
X104103937Y-112859780D01*
X104217205Y-112690262D01*
X104262743Y-112580322D01*
X110078600Y-112580322D01*
X110078600Y-112784200D01*
X110118374Y-112984159D01*
X110196395Y-113172517D01*
X110309663Y-113342035D01*
X110453826Y-113486198D01*
X110623344Y-113599466D01*
X110811702Y-113677487D01*
X111011661Y-113717261D01*
X111215539Y-113717261D01*
X111415498Y-113677487D01*
X111603856Y-113599466D01*
X111773374Y-113486198D01*
X111917537Y-113342035D01*
X112030805Y-113172517D01*
X112108826Y-112984159D01*
X112148600Y-112784200D01*
X112148600Y-112674061D01*
X116821000Y-112674061D01*
X116821000Y-112877939D01*
X116860774Y-113077898D01*
X116938795Y-113266256D01*
X117052063Y-113435774D01*
X117196226Y-113579937D01*
X117365744Y-113693205D01*
X117554102Y-113771226D01*
X117754061Y-113811000D01*
X117957939Y-113811000D01*
X118157898Y-113771226D01*
X118346256Y-113693205D01*
X118515774Y-113579937D01*
X118659937Y-113435774D01*
X118773205Y-113266256D01*
X118851226Y-113077898D01*
X118891000Y-112877939D01*
X118891000Y-112674061D01*
X118851226Y-112474102D01*
X118773205Y-112285744D01*
X118659937Y-112116226D01*
X118515774Y-111972063D01*
X118346256Y-111858795D01*
X118157898Y-111780774D01*
X117957939Y-111741000D01*
X117754061Y-111741000D01*
X117554102Y-111780774D01*
X117365744Y-111858795D01*
X117196226Y-111972063D01*
X117052063Y-112116226D01*
X116938795Y-112285744D01*
X116860774Y-112474102D01*
X116821000Y-112674061D01*
X112148600Y-112674061D01*
X112148600Y-112580322D01*
X112108826Y-112380363D01*
X112030805Y-112192005D01*
X111917537Y-112022487D01*
X111773374Y-111878324D01*
X111603856Y-111765056D01*
X111415498Y-111687035D01*
X111215539Y-111647261D01*
X111011661Y-111647261D01*
X110811702Y-111687035D01*
X110623344Y-111765056D01*
X110453826Y-111878324D01*
X110309663Y-112022487D01*
X110196395Y-112192005D01*
X110118374Y-112380363D01*
X110078600Y-112580322D01*
X104262743Y-112580322D01*
X104295226Y-112501904D01*
X104335000Y-112301945D01*
X104335000Y-112098067D01*
X104295226Y-111898108D01*
X104217205Y-111709750D01*
X104103937Y-111540232D01*
X103959774Y-111396069D01*
X103790256Y-111282801D01*
X103601898Y-111204780D01*
X103401939Y-111165006D01*
X103198061Y-111165006D01*
X103059193Y-111192628D01*
X103086817Y-111053752D01*
X103086817Y-110849874D01*
X103047043Y-110649915D01*
X102969022Y-110461557D01*
X102855754Y-110292039D01*
X102711591Y-110147876D01*
X102542073Y-110034608D01*
X102353715Y-109956587D01*
X102153756Y-109916813D01*
X101949878Y-109916813D01*
X101749919Y-109956587D01*
X101561561Y-110034608D01*
X101392043Y-110147876D01*
X101247880Y-110292039D01*
X101134612Y-110461557D01*
X101056591Y-110649915D01*
X101016817Y-110849874D01*
X101016817Y-111053752D01*
X101056591Y-111253711D01*
X101134612Y-111442069D01*
X101247880Y-111611587D01*
X101325963Y-111689670D01*
X101201939Y-111665000D01*
X100998061Y-111665000D01*
X100798102Y-111704774D01*
X100609744Y-111782795D01*
X100440226Y-111896063D01*
X100296063Y-112040226D01*
X100182795Y-112209744D01*
X100104774Y-112398102D01*
X100065000Y-112598061D01*
X98853788Y-112598061D01*
X98817205Y-112509744D01*
X98703937Y-112340226D01*
X98559774Y-112196063D01*
X98390256Y-112082795D01*
X98201898Y-112004774D01*
X98001939Y-111965000D01*
X97798061Y-111965000D01*
X97598102Y-112004774D01*
X97409744Y-112082795D01*
X97240226Y-112196063D01*
X97096063Y-112340226D01*
X96982795Y-112509744D01*
X96904774Y-112698102D01*
X96865000Y-112898061D01*
X94535000Y-112898061D01*
X94495226Y-112698102D01*
X94417205Y-112509744D01*
X94303937Y-112340226D01*
X94159774Y-112196063D01*
X93990256Y-112082795D01*
X93801898Y-112004774D01*
X93601939Y-111965000D01*
X93398061Y-111965000D01*
X93198102Y-112004774D01*
X93009744Y-112082795D01*
X92840226Y-112196063D01*
X92696063Y-112340226D01*
X92582795Y-112509744D01*
X92504774Y-112698102D01*
X92465000Y-112898061D01*
X73660000Y-112898061D01*
X73660000Y-110150000D01*
X75761928Y-110150000D01*
X75761928Y-111850000D01*
X75774188Y-111974482D01*
X75810498Y-112094180D01*
X75869463Y-112204494D01*
X75948815Y-112301185D01*
X76045506Y-112380537D01*
X76155820Y-112439502D01*
X76275518Y-112475812D01*
X76400000Y-112488072D01*
X78100000Y-112488072D01*
X78224482Y-112475812D01*
X78344180Y-112439502D01*
X78454494Y-112380537D01*
X78551185Y-112301185D01*
X78630537Y-112204494D01*
X78689502Y-112094180D01*
X78725812Y-111974482D01*
X78738072Y-111850000D01*
X78738072Y-110150000D01*
X78725812Y-110025518D01*
X78689502Y-109905820D01*
X78630537Y-109795506D01*
X78551185Y-109698815D01*
X78454494Y-109619463D01*
X78344180Y-109560498D01*
X78271620Y-109538487D01*
X78403475Y-109406632D01*
X78565990Y-109163411D01*
X78652982Y-108953392D01*
X104770331Y-108953392D01*
X104770331Y-109157270D01*
X104810105Y-109357229D01*
X104888126Y-109545587D01*
X105001394Y-109715105D01*
X105145557Y-109859268D01*
X105315075Y-109972536D01*
X105503433Y-110050557D01*
X105703392Y-110090331D01*
X105907270Y-110090331D01*
X106107229Y-110050557D01*
X106295587Y-109972536D01*
X106433985Y-109880061D01*
X113265000Y-109880061D01*
X113265000Y-110083939D01*
X113304774Y-110283898D01*
X113382795Y-110472256D01*
X113496063Y-110641774D01*
X113640226Y-110785937D01*
X113809744Y-110899205D01*
X113998102Y-110977226D01*
X114198061Y-111017000D01*
X114401939Y-111017000D01*
X114601898Y-110977226D01*
X114790256Y-110899205D01*
X114959774Y-110785937D01*
X115103937Y-110641774D01*
X115217205Y-110472256D01*
X115252079Y-110388061D01*
X124949000Y-110388061D01*
X124949000Y-110591939D01*
X124988774Y-110791898D01*
X125066795Y-110980256D01*
X125180063Y-111149774D01*
X125324226Y-111293937D01*
X125493744Y-111407205D01*
X125682102Y-111485226D01*
X125882061Y-111525000D01*
X126085939Y-111525000D01*
X126285898Y-111485226D01*
X126474256Y-111407205D01*
X126643774Y-111293937D01*
X126787937Y-111149774D01*
X126901205Y-110980256D01*
X126979226Y-110791898D01*
X127019000Y-110591939D01*
X127019000Y-110388061D01*
X126979226Y-110188102D01*
X126901205Y-109999744D01*
X126787937Y-109830226D01*
X126643774Y-109686063D01*
X126474256Y-109572795D01*
X126285898Y-109494774D01*
X126085939Y-109455000D01*
X125882061Y-109455000D01*
X125682102Y-109494774D01*
X125493744Y-109572795D01*
X125324226Y-109686063D01*
X125180063Y-109830226D01*
X125066795Y-109999744D01*
X124988774Y-110188102D01*
X124949000Y-110388061D01*
X115252079Y-110388061D01*
X115295226Y-110283898D01*
X115335000Y-110083939D01*
X115335000Y-109880061D01*
X115295226Y-109680102D01*
X115217205Y-109491744D01*
X115103937Y-109322226D01*
X114959774Y-109178063D01*
X114790256Y-109064795D01*
X114601898Y-108986774D01*
X114401939Y-108947000D01*
X114198061Y-108947000D01*
X113998102Y-108986774D01*
X113809744Y-109064795D01*
X113640226Y-109178063D01*
X113496063Y-109322226D01*
X113382795Y-109491744D01*
X113304774Y-109680102D01*
X113265000Y-109880061D01*
X106433985Y-109880061D01*
X106465105Y-109859268D01*
X106609268Y-109715105D01*
X106722536Y-109545587D01*
X106800557Y-109357229D01*
X106840331Y-109157270D01*
X106840331Y-109076365D01*
X106896063Y-109159774D01*
X107040226Y-109303937D01*
X107209744Y-109417205D01*
X107398102Y-109495226D01*
X107598061Y-109535000D01*
X107801939Y-109535000D01*
X108001898Y-109495226D01*
X108190256Y-109417205D01*
X108359774Y-109303937D01*
X108503937Y-109159774D01*
X108617205Y-108990256D01*
X108695226Y-108801898D01*
X108733384Y-108610061D01*
X110217000Y-108610061D01*
X110217000Y-108813939D01*
X110256774Y-109013898D01*
X110334795Y-109202256D01*
X110448063Y-109371774D01*
X110592226Y-109515937D01*
X110761744Y-109629205D01*
X110950102Y-109707226D01*
X111150061Y-109747000D01*
X111353939Y-109747000D01*
X111553898Y-109707226D01*
X111742256Y-109629205D01*
X111911774Y-109515937D01*
X112055937Y-109371774D01*
X112169205Y-109202256D01*
X112247226Y-109013898D01*
X112287000Y-108813939D01*
X112287000Y-108610061D01*
X112247226Y-108410102D01*
X112169205Y-108221744D01*
X112055937Y-108052226D01*
X111911774Y-107908063D01*
X111742256Y-107794795D01*
X111553898Y-107716774D01*
X111353939Y-107677000D01*
X111150061Y-107677000D01*
X110950102Y-107716774D01*
X110761744Y-107794795D01*
X110592226Y-107908063D01*
X110448063Y-108052226D01*
X110334795Y-108221744D01*
X110256774Y-108410102D01*
X110217000Y-108610061D01*
X108733384Y-108610061D01*
X108735000Y-108601939D01*
X108735000Y-108398061D01*
X108695226Y-108198102D01*
X108617205Y-108009744D01*
X108503937Y-107840226D01*
X108359774Y-107696063D01*
X108190256Y-107582795D01*
X108001898Y-107504774D01*
X107801939Y-107465000D01*
X107598061Y-107465000D01*
X107398102Y-107504774D01*
X107209744Y-107582795D01*
X107040226Y-107696063D01*
X106896063Y-107840226D01*
X106782795Y-108009744D01*
X106704774Y-108198102D01*
X106665000Y-108398061D01*
X106665000Y-108478966D01*
X106609268Y-108395557D01*
X106465105Y-108251394D01*
X106295587Y-108138126D01*
X106107229Y-108060105D01*
X105907270Y-108020331D01*
X105703392Y-108020331D01*
X105503433Y-108060105D01*
X105315075Y-108138126D01*
X105145557Y-108251394D01*
X105001394Y-108395557D01*
X104888126Y-108565075D01*
X104810105Y-108753433D01*
X104770331Y-108953392D01*
X78652982Y-108953392D01*
X78677932Y-108893158D01*
X78735000Y-108606260D01*
X78735000Y-108313740D01*
X78677932Y-108026842D01*
X78565990Y-107756589D01*
X78403475Y-107513368D01*
X78196632Y-107306525D01*
X78022240Y-107190000D01*
X78196632Y-107073475D01*
X78403475Y-106866632D01*
X78565990Y-106623411D01*
X78677932Y-106353158D01*
X78735000Y-106066260D01*
X78735000Y-105773740D01*
X78677932Y-105486842D01*
X78565990Y-105216589D01*
X78520202Y-105148061D01*
X104965000Y-105148061D01*
X104965000Y-105351939D01*
X105004774Y-105551898D01*
X105082795Y-105740256D01*
X105189419Y-105899830D01*
X105182795Y-105909744D01*
X105104774Y-106098102D01*
X105065000Y-106298061D01*
X105065000Y-106501939D01*
X105104774Y-106701898D01*
X105182795Y-106890256D01*
X105296063Y-107059774D01*
X105440226Y-107203937D01*
X105609744Y-107317205D01*
X105798102Y-107395226D01*
X105998061Y-107435000D01*
X106201939Y-107435000D01*
X106401898Y-107395226D01*
X106590256Y-107317205D01*
X106759774Y-107203937D01*
X106792050Y-107171661D01*
X113787414Y-107171661D01*
X113787414Y-107375539D01*
X113827188Y-107575498D01*
X113905209Y-107763856D01*
X114018477Y-107933374D01*
X114162640Y-108077537D01*
X114332158Y-108190805D01*
X114520516Y-108268826D01*
X114720475Y-108308600D01*
X114924353Y-108308600D01*
X115124312Y-108268826D01*
X115312670Y-108190805D01*
X115482188Y-108077537D01*
X115626351Y-107933374D01*
X115739619Y-107763856D01*
X115817640Y-107575498D01*
X115857414Y-107375539D01*
X115857414Y-107171661D01*
X115817640Y-106971702D01*
X115739619Y-106783344D01*
X115626351Y-106613826D01*
X115590586Y-106578061D01*
X132569000Y-106578061D01*
X132569000Y-106781939D01*
X132608774Y-106981898D01*
X132686795Y-107170256D01*
X132800063Y-107339774D01*
X132944226Y-107483937D01*
X133113744Y-107597205D01*
X133302102Y-107675226D01*
X133502061Y-107715000D01*
X133705939Y-107715000D01*
X133905898Y-107675226D01*
X134094256Y-107597205D01*
X134263774Y-107483937D01*
X134407937Y-107339774D01*
X134521205Y-107170256D01*
X134599226Y-106981898D01*
X134639000Y-106781939D01*
X134639000Y-106578061D01*
X134599226Y-106378102D01*
X134521205Y-106189744D01*
X134407937Y-106020226D01*
X134263774Y-105876063D01*
X134094256Y-105762795D01*
X133905898Y-105684774D01*
X133705939Y-105645000D01*
X133502061Y-105645000D01*
X133302102Y-105684774D01*
X133113744Y-105762795D01*
X132944226Y-105876063D01*
X132800063Y-106020226D01*
X132686795Y-106189744D01*
X132608774Y-106378102D01*
X132569000Y-106578061D01*
X115590586Y-106578061D01*
X115482188Y-106469663D01*
X115312670Y-106356395D01*
X115124312Y-106278374D01*
X114924353Y-106238600D01*
X114720475Y-106238600D01*
X114520516Y-106278374D01*
X114332158Y-106356395D01*
X114162640Y-106469663D01*
X114018477Y-106613826D01*
X113905209Y-106783344D01*
X113827188Y-106971702D01*
X113787414Y-107171661D01*
X106792050Y-107171661D01*
X106903937Y-107059774D01*
X107017205Y-106890256D01*
X107095226Y-106701898D01*
X107135000Y-106501939D01*
X107135000Y-106298061D01*
X107095226Y-106098102D01*
X107017205Y-105909744D01*
X106954608Y-105816061D01*
X107423000Y-105816061D01*
X107423000Y-106019939D01*
X107462774Y-106219898D01*
X107540795Y-106408256D01*
X107654063Y-106577774D01*
X107798226Y-106721937D01*
X107967744Y-106835205D01*
X108156102Y-106913226D01*
X108356061Y-106953000D01*
X108559939Y-106953000D01*
X108759898Y-106913226D01*
X108948256Y-106835205D01*
X109117774Y-106721937D01*
X109261937Y-106577774D01*
X109375205Y-106408256D01*
X109453226Y-106219898D01*
X109493000Y-106019939D01*
X109493000Y-105816061D01*
X109453226Y-105616102D01*
X109375205Y-105427744D01*
X109261937Y-105258226D01*
X109117774Y-105114063D01*
X108948256Y-105000795D01*
X108759898Y-104922774D01*
X108559939Y-104883000D01*
X108356061Y-104883000D01*
X108156102Y-104922774D01*
X107967744Y-105000795D01*
X107798226Y-105114063D01*
X107654063Y-105258226D01*
X107540795Y-105427744D01*
X107462774Y-105616102D01*
X107423000Y-105816061D01*
X106954608Y-105816061D01*
X106910581Y-105750170D01*
X106917205Y-105740256D01*
X106995226Y-105551898D01*
X107035000Y-105351939D01*
X107035000Y-105148061D01*
X106995226Y-104948102D01*
X106917205Y-104759744D01*
X106803937Y-104590226D01*
X106659774Y-104446063D01*
X106490256Y-104332795D01*
X106301898Y-104254774D01*
X106101939Y-104215000D01*
X105898061Y-104215000D01*
X105698102Y-104254774D01*
X105509744Y-104332795D01*
X105340226Y-104446063D01*
X105196063Y-104590226D01*
X105082795Y-104759744D01*
X105004774Y-104948102D01*
X104965000Y-105148061D01*
X78520202Y-105148061D01*
X78403475Y-104973368D01*
X78196632Y-104766525D01*
X78022240Y-104650000D01*
X78196632Y-104533475D01*
X78403475Y-104326632D01*
X78565990Y-104083411D01*
X78677932Y-103813158D01*
X78735000Y-103526260D01*
X78735000Y-103498061D01*
X89365000Y-103498061D01*
X89365000Y-103701939D01*
X89404774Y-103901898D01*
X89482795Y-104090256D01*
X89596063Y-104259774D01*
X89740226Y-104403937D01*
X89909744Y-104517205D01*
X90098102Y-104595226D01*
X90298061Y-104635000D01*
X90501939Y-104635000D01*
X90701898Y-104595226D01*
X90890256Y-104517205D01*
X91059774Y-104403937D01*
X91203937Y-104259774D01*
X91317205Y-104090256D01*
X91395226Y-103901898D01*
X91435000Y-103701939D01*
X91435000Y-103498061D01*
X91395226Y-103298102D01*
X91353785Y-103198053D01*
X96365000Y-103198053D01*
X96365000Y-103401931D01*
X96404774Y-103601890D01*
X96482795Y-103790248D01*
X96596063Y-103959766D01*
X96740226Y-104103929D01*
X96909744Y-104217197D01*
X97098102Y-104295218D01*
X97298061Y-104334992D01*
X97501939Y-104334992D01*
X97701898Y-104295218D01*
X97890256Y-104217197D01*
X97993725Y-104148061D01*
X114965000Y-104148061D01*
X114965000Y-104351939D01*
X115004774Y-104551898D01*
X115082795Y-104740256D01*
X115196063Y-104909774D01*
X115340226Y-105053937D01*
X115509744Y-105167205D01*
X115698102Y-105245226D01*
X115898061Y-105285000D01*
X116101939Y-105285000D01*
X116301898Y-105245226D01*
X116490256Y-105167205D01*
X116659774Y-105053937D01*
X116803937Y-104909774D01*
X116917205Y-104740256D01*
X116995226Y-104551898D01*
X117035000Y-104351939D01*
X117035000Y-104148061D01*
X116995226Y-103948102D01*
X116917205Y-103759744D01*
X116803937Y-103590226D01*
X116659774Y-103446063D01*
X116490256Y-103332795D01*
X116301898Y-103254774D01*
X116101939Y-103215000D01*
X115898061Y-103215000D01*
X115698102Y-103254774D01*
X115509744Y-103332795D01*
X115340226Y-103446063D01*
X115196063Y-103590226D01*
X115082795Y-103759744D01*
X115004774Y-103948102D01*
X114965000Y-104148061D01*
X97993725Y-104148061D01*
X98059774Y-104103929D01*
X98203937Y-103959766D01*
X98317205Y-103790248D01*
X98395226Y-103601890D01*
X98435000Y-103401931D01*
X98435000Y-103198053D01*
X98395226Y-102998094D01*
X98317205Y-102809736D01*
X98203937Y-102640218D01*
X98059774Y-102496055D01*
X97890256Y-102382787D01*
X97765167Y-102330973D01*
X103332088Y-102330973D01*
X103332088Y-102534851D01*
X103371862Y-102734810D01*
X103449883Y-102923168D01*
X103563151Y-103092686D01*
X103707314Y-103236849D01*
X103876832Y-103350117D01*
X104065190Y-103428138D01*
X104265149Y-103467912D01*
X104469027Y-103467912D01*
X104668986Y-103428138D01*
X104857344Y-103350117D01*
X105026862Y-103236849D01*
X105171025Y-103092686D01*
X105284293Y-102923168D01*
X105348540Y-102768061D01*
X120377000Y-102768061D01*
X120377000Y-102971939D01*
X120416774Y-103171898D01*
X120494795Y-103360256D01*
X120608063Y-103529774D01*
X120752226Y-103673937D01*
X120921744Y-103787205D01*
X121110102Y-103865226D01*
X121310061Y-103905000D01*
X121513939Y-103905000D01*
X121713898Y-103865226D01*
X121902256Y-103787205D01*
X122071774Y-103673937D01*
X122215937Y-103529774D01*
X122329205Y-103360256D01*
X122407226Y-103171898D01*
X122447000Y-102971939D01*
X122447000Y-102768061D01*
X122407226Y-102568102D01*
X122329205Y-102379744D01*
X122215937Y-102210226D01*
X122071774Y-102066063D01*
X121902256Y-101952795D01*
X121713898Y-101874774D01*
X121513939Y-101835000D01*
X121310061Y-101835000D01*
X121110102Y-101874774D01*
X120921744Y-101952795D01*
X120752226Y-102066063D01*
X120608063Y-102210226D01*
X120494795Y-102379744D01*
X120416774Y-102568102D01*
X120377000Y-102768061D01*
X105348540Y-102768061D01*
X105362314Y-102734810D01*
X105402088Y-102534851D01*
X105402088Y-102330973D01*
X105362314Y-102131014D01*
X105284293Y-101942656D01*
X105171025Y-101773138D01*
X105026862Y-101628975D01*
X104857344Y-101515707D01*
X104668986Y-101437686D01*
X104469027Y-101397912D01*
X104265149Y-101397912D01*
X104065190Y-101437686D01*
X103876832Y-101515707D01*
X103707314Y-101628975D01*
X103563151Y-101773138D01*
X103449883Y-101942656D01*
X103371862Y-102131014D01*
X103332088Y-102330973D01*
X97765167Y-102330973D01*
X97701898Y-102304766D01*
X97501939Y-102264992D01*
X97298061Y-102264992D01*
X97098102Y-102304766D01*
X96909744Y-102382787D01*
X96740226Y-102496055D01*
X96596063Y-102640218D01*
X96482795Y-102809736D01*
X96404774Y-102998094D01*
X96365000Y-103198053D01*
X91353785Y-103198053D01*
X91317205Y-103109744D01*
X91203937Y-102940226D01*
X91059774Y-102796063D01*
X90890256Y-102682795D01*
X90701898Y-102604774D01*
X90501939Y-102565000D01*
X90298061Y-102565000D01*
X90098102Y-102604774D01*
X89909744Y-102682795D01*
X89740226Y-102796063D01*
X89596063Y-102940226D01*
X89482795Y-103109744D01*
X89404774Y-103298102D01*
X89365000Y-103498061D01*
X78735000Y-103498061D01*
X78735000Y-103233740D01*
X78677932Y-102946842D01*
X78565990Y-102676589D01*
X78403475Y-102433368D01*
X78196632Y-102226525D01*
X78022240Y-102110000D01*
X78196632Y-101993475D01*
X78403475Y-101786632D01*
X78565990Y-101543411D01*
X78677932Y-101273158D01*
X78692869Y-101198061D01*
X111265000Y-101198061D01*
X111265000Y-101401939D01*
X111304774Y-101601898D01*
X111382795Y-101790256D01*
X111496063Y-101959774D01*
X111640226Y-102103937D01*
X111809744Y-102217205D01*
X111998102Y-102295226D01*
X112198061Y-102335000D01*
X112401939Y-102335000D01*
X112601898Y-102295226D01*
X112790256Y-102217205D01*
X112959774Y-102103937D01*
X113103937Y-101959774D01*
X113217205Y-101790256D01*
X113295226Y-101601898D01*
X113335000Y-101401939D01*
X113335000Y-101198061D01*
X113295226Y-100998102D01*
X113217205Y-100809744D01*
X113142582Y-100698061D01*
X131865000Y-100698061D01*
X131865000Y-100901939D01*
X131904774Y-101101898D01*
X131982795Y-101290256D01*
X132096063Y-101459774D01*
X132240226Y-101603937D01*
X132409744Y-101717205D01*
X132598102Y-101795226D01*
X132798061Y-101835000D01*
X133001939Y-101835000D01*
X133201898Y-101795226D01*
X133390256Y-101717205D01*
X133559774Y-101603937D01*
X133703937Y-101459774D01*
X133817205Y-101290256D01*
X133895226Y-101101898D01*
X133935000Y-100901939D01*
X133935000Y-100698061D01*
X133895226Y-100498102D01*
X133817205Y-100309744D01*
X133703937Y-100140226D01*
X133559774Y-99996063D01*
X133390256Y-99882795D01*
X133201898Y-99804774D01*
X133001939Y-99765000D01*
X132798061Y-99765000D01*
X132598102Y-99804774D01*
X132409744Y-99882795D01*
X132240226Y-99996063D01*
X132096063Y-100140226D01*
X131982795Y-100309744D01*
X131904774Y-100498102D01*
X131865000Y-100698061D01*
X113142582Y-100698061D01*
X113103937Y-100640226D01*
X112959774Y-100496063D01*
X112790256Y-100382795D01*
X112601898Y-100304774D01*
X112401939Y-100265000D01*
X112198061Y-100265000D01*
X111998102Y-100304774D01*
X111809744Y-100382795D01*
X111640226Y-100496063D01*
X111496063Y-100640226D01*
X111382795Y-100809744D01*
X111304774Y-100998102D01*
X111265000Y-101198061D01*
X78692869Y-101198061D01*
X78735000Y-100986260D01*
X78735000Y-100693740D01*
X78677932Y-100406842D01*
X78565990Y-100136589D01*
X78403475Y-99893368D01*
X78196632Y-99686525D01*
X78022240Y-99570000D01*
X78196632Y-99453475D01*
X78233216Y-99416891D01*
X84918519Y-99416891D01*
X85015843Y-99691252D01*
X85164822Y-99941355D01*
X85359731Y-100157588D01*
X85593080Y-100331641D01*
X85855901Y-100456825D01*
X86003110Y-100501476D01*
X86233000Y-100380155D01*
X86233000Y-99187000D01*
X85039186Y-99187000D01*
X84918519Y-99416891D01*
X78233216Y-99416891D01*
X78403475Y-99246632D01*
X78565990Y-99003411D01*
X78677932Y-98733158D01*
X78683909Y-98703109D01*
X84918519Y-98703109D01*
X85039186Y-98933000D01*
X86233000Y-98933000D01*
X86233000Y-97739845D01*
X86487000Y-97739845D01*
X86487000Y-98933000D01*
X86507000Y-98933000D01*
X86507000Y-99187000D01*
X86487000Y-99187000D01*
X86487000Y-100380155D01*
X86716890Y-100501476D01*
X86864099Y-100456825D01*
X87126920Y-100331641D01*
X87360269Y-100157588D01*
X87555178Y-99941355D01*
X87624805Y-99824466D01*
X87746525Y-100006632D01*
X87953368Y-100213475D01*
X88196589Y-100375990D01*
X88466842Y-100487932D01*
X88753740Y-100545000D01*
X89046260Y-100545000D01*
X89333158Y-100487932D01*
X89603411Y-100375990D01*
X89846632Y-100213475D01*
X89978487Y-100081620D01*
X90000498Y-100154180D01*
X90059463Y-100264494D01*
X90138815Y-100361185D01*
X90235506Y-100440537D01*
X90345820Y-100499502D01*
X90465518Y-100535812D01*
X90590000Y-100548072D01*
X92290000Y-100548072D01*
X92414482Y-100535812D01*
X92534180Y-100499502D01*
X92644494Y-100440537D01*
X92741185Y-100361185D01*
X92820537Y-100264494D01*
X92879502Y-100154180D01*
X92915812Y-100034482D01*
X92928072Y-99910000D01*
X92928072Y-98450061D01*
X104121000Y-98450061D01*
X104121000Y-98653939D01*
X104160774Y-98853898D01*
X104238795Y-99042256D01*
X104352063Y-99211774D01*
X104496226Y-99355937D01*
X104665744Y-99469205D01*
X104854102Y-99547226D01*
X105054061Y-99587000D01*
X105257939Y-99587000D01*
X105457898Y-99547226D01*
X105646256Y-99469205D01*
X105815774Y-99355937D01*
X105959937Y-99211774D01*
X106073205Y-99042256D01*
X106151226Y-98853898D01*
X106191000Y-98653939D01*
X106191000Y-98598061D01*
X123065000Y-98598061D01*
X123065000Y-98801939D01*
X123104774Y-99001898D01*
X123182795Y-99190256D01*
X123296063Y-99359774D01*
X123440226Y-99503937D01*
X123609744Y-99617205D01*
X123798102Y-99695226D01*
X123998061Y-99735000D01*
X124201939Y-99735000D01*
X124401898Y-99695226D01*
X124590256Y-99617205D01*
X124759774Y-99503937D01*
X124903937Y-99359774D01*
X125017205Y-99190256D01*
X125095226Y-99001898D01*
X125135000Y-98801939D01*
X125135000Y-98598061D01*
X125095226Y-98398102D01*
X125017205Y-98209744D01*
X124903937Y-98040226D01*
X124759774Y-97896063D01*
X124590256Y-97782795D01*
X124401898Y-97704774D01*
X124201939Y-97665000D01*
X123998061Y-97665000D01*
X123798102Y-97704774D01*
X123609744Y-97782795D01*
X123440226Y-97896063D01*
X123296063Y-98040226D01*
X123182795Y-98209744D01*
X123104774Y-98398102D01*
X123065000Y-98598061D01*
X106191000Y-98598061D01*
X106191000Y-98450061D01*
X106151226Y-98250102D01*
X106073205Y-98061744D01*
X105959937Y-97892226D01*
X105815774Y-97748063D01*
X105646256Y-97634795D01*
X105457898Y-97556774D01*
X105257939Y-97517000D01*
X105054061Y-97517000D01*
X104854102Y-97556774D01*
X104665744Y-97634795D01*
X104496226Y-97748063D01*
X104352063Y-97892226D01*
X104238795Y-98061744D01*
X104160774Y-98250102D01*
X104121000Y-98450061D01*
X92928072Y-98450061D01*
X92928072Y-98210000D01*
X92915812Y-98085518D01*
X92879502Y-97965820D01*
X92820537Y-97855506D01*
X92741185Y-97758815D01*
X92644494Y-97679463D01*
X92534180Y-97620498D01*
X92414482Y-97584188D01*
X92290000Y-97571928D01*
X90590000Y-97571928D01*
X90465518Y-97584188D01*
X90345820Y-97620498D01*
X90235506Y-97679463D01*
X90138815Y-97758815D01*
X90059463Y-97855506D01*
X90000498Y-97965820D01*
X89978487Y-98038380D01*
X89846632Y-97906525D01*
X89603411Y-97744010D01*
X89333158Y-97632068D01*
X89046260Y-97575000D01*
X88753740Y-97575000D01*
X88466842Y-97632068D01*
X88196589Y-97744010D01*
X87953368Y-97906525D01*
X87746525Y-98113368D01*
X87624805Y-98295534D01*
X87555178Y-98178645D01*
X87360269Y-97962412D01*
X87126920Y-97788359D01*
X86864099Y-97663175D01*
X86716890Y-97618524D01*
X86487000Y-97739845D01*
X86233000Y-97739845D01*
X86003110Y-97618524D01*
X85855901Y-97663175D01*
X85593080Y-97788359D01*
X85359731Y-97962412D01*
X85164822Y-98178645D01*
X85015843Y-98428748D01*
X84918519Y-98703109D01*
X78683909Y-98703109D01*
X78735000Y-98446260D01*
X78735000Y-98153740D01*
X78677932Y-97866842D01*
X78565990Y-97596589D01*
X78403475Y-97353368D01*
X78196632Y-97146525D01*
X78022240Y-97030000D01*
X78196632Y-96913475D01*
X78403475Y-96706632D01*
X78565990Y-96463411D01*
X78677932Y-96193158D01*
X78735000Y-95906260D01*
X78735000Y-95613740D01*
X78677932Y-95326842D01*
X78565990Y-95056589D01*
X78403475Y-94813368D01*
X78196632Y-94606525D01*
X78014466Y-94484805D01*
X78131355Y-94415178D01*
X78347588Y-94220269D01*
X78521641Y-93986920D01*
X78646825Y-93724099D01*
X78691476Y-93576890D01*
X78570155Y-93347000D01*
X77377000Y-93347000D01*
X77377000Y-93367000D01*
X77123000Y-93367000D01*
X77123000Y-93347000D01*
X75929845Y-93347000D01*
X75808524Y-93576890D01*
X75853175Y-93724099D01*
X75978359Y-93986920D01*
X76152412Y-94220269D01*
X76368645Y-94415178D01*
X76485534Y-94484805D01*
X76303368Y-94606525D01*
X76096525Y-94813368D01*
X75934010Y-95056589D01*
X75822068Y-95326842D01*
X75765000Y-95613740D01*
X75765000Y-95906260D01*
X75822068Y-96193158D01*
X75934010Y-96463411D01*
X76096525Y-96706632D01*
X76303368Y-96913475D01*
X76477760Y-97030000D01*
X76303368Y-97146525D01*
X76096525Y-97353368D01*
X75934010Y-97596589D01*
X75822068Y-97866842D01*
X75765000Y-98153740D01*
X75765000Y-98446260D01*
X75822068Y-98733158D01*
X75934010Y-99003411D01*
X76096525Y-99246632D01*
X76303368Y-99453475D01*
X76477760Y-99570000D01*
X76303368Y-99686525D01*
X76096525Y-99893368D01*
X75934010Y-100136589D01*
X75822068Y-100406842D01*
X75765000Y-100693740D01*
X75765000Y-100986260D01*
X75822068Y-101273158D01*
X75934010Y-101543411D01*
X76096525Y-101786632D01*
X76303368Y-101993475D01*
X76477760Y-102110000D01*
X76303368Y-102226525D01*
X76096525Y-102433368D01*
X75934010Y-102676589D01*
X75822068Y-102946842D01*
X75765000Y-103233740D01*
X75765000Y-103526260D01*
X75822068Y-103813158D01*
X75934010Y-104083411D01*
X76096525Y-104326632D01*
X76303368Y-104533475D01*
X76477760Y-104650000D01*
X76303368Y-104766525D01*
X76096525Y-104973368D01*
X75934010Y-105216589D01*
X75822068Y-105486842D01*
X75765000Y-105773740D01*
X75765000Y-106066260D01*
X75822068Y-106353158D01*
X75934010Y-106623411D01*
X76096525Y-106866632D01*
X76303368Y-107073475D01*
X76477760Y-107190000D01*
X76303368Y-107306525D01*
X76096525Y-107513368D01*
X75934010Y-107756589D01*
X75822068Y-108026842D01*
X75765000Y-108313740D01*
X75765000Y-108606260D01*
X75822068Y-108893158D01*
X75934010Y-109163411D01*
X76096525Y-109406632D01*
X76228380Y-109538487D01*
X76155820Y-109560498D01*
X76045506Y-109619463D01*
X75948815Y-109698815D01*
X75869463Y-109795506D01*
X75810498Y-109905820D01*
X75774188Y-110025518D01*
X75761928Y-110150000D01*
X73660000Y-110150000D01*
X73660000Y-91036890D01*
X75808524Y-91036890D01*
X75853175Y-91184099D01*
X75978359Y-91446920D01*
X76152412Y-91680269D01*
X76368645Y-91875178D01*
X76494255Y-91950000D01*
X76368645Y-92024822D01*
X76152412Y-92219731D01*
X75978359Y-92453080D01*
X75853175Y-92715901D01*
X75808524Y-92863110D01*
X75929845Y-93093000D01*
X77123000Y-93093000D01*
X77123000Y-90807000D01*
X77377000Y-90807000D01*
X77377000Y-93093000D01*
X78570155Y-93093000D01*
X78691476Y-92863110D01*
X78646825Y-92715901D01*
X78521641Y-92453080D01*
X78347588Y-92219731D01*
X78131355Y-92024822D01*
X78005745Y-91950000D01*
X78131355Y-91875178D01*
X78347588Y-91680269D01*
X78521641Y-91446920D01*
X78646825Y-91184099D01*
X78691476Y-91036890D01*
X78582326Y-90830061D01*
X102343004Y-90830061D01*
X102343004Y-91033939D01*
X102382778Y-91233898D01*
X102460799Y-91422256D01*
X102574067Y-91591774D01*
X102718230Y-91735937D01*
X102887748Y-91849205D01*
X103076106Y-91927226D01*
X103276065Y-91967000D01*
X103479943Y-91967000D01*
X103679902Y-91927226D01*
X103868260Y-91849205D01*
X104037778Y-91735937D01*
X104181941Y-91591774D01*
X104295209Y-91422256D01*
X104373230Y-91233898D01*
X104390303Y-91148061D01*
X104965000Y-91148061D01*
X104965000Y-91351939D01*
X105004774Y-91551898D01*
X105082795Y-91740256D01*
X105196063Y-91909774D01*
X105340226Y-92053937D01*
X105509744Y-92167205D01*
X105698102Y-92245226D01*
X105898061Y-92285000D01*
X106101939Y-92285000D01*
X106301898Y-92245226D01*
X106490256Y-92167205D01*
X106659774Y-92053937D01*
X106803937Y-91909774D01*
X106917205Y-91740256D01*
X106995226Y-91551898D01*
X107035000Y-91351939D01*
X107035000Y-91148061D01*
X106995226Y-90948102D01*
X106917205Y-90759744D01*
X106803937Y-90590226D01*
X106659774Y-90446063D01*
X106490256Y-90332795D01*
X106301898Y-90254774D01*
X106101939Y-90215000D01*
X105898061Y-90215000D01*
X105698102Y-90254774D01*
X105509744Y-90332795D01*
X105340226Y-90446063D01*
X105196063Y-90590226D01*
X105082795Y-90759744D01*
X105004774Y-90948102D01*
X104965000Y-91148061D01*
X104390303Y-91148061D01*
X104413004Y-91033939D01*
X104413004Y-90830061D01*
X104373230Y-90630102D01*
X104295209Y-90441744D01*
X104181941Y-90272226D01*
X104037778Y-90128063D01*
X103887818Y-90027863D01*
X104051898Y-89995226D01*
X104240256Y-89917205D01*
X104409774Y-89803937D01*
X104463711Y-89750000D01*
X143291928Y-89750000D01*
X143304188Y-89874482D01*
X143340498Y-89994180D01*
X143399463Y-90104494D01*
X143478815Y-90201185D01*
X143575506Y-90280537D01*
X143685820Y-90339502D01*
X143758380Y-90361513D01*
X143626525Y-90493368D01*
X143464010Y-90736589D01*
X143352068Y-91006842D01*
X143295000Y-91293740D01*
X143295000Y-91586260D01*
X143352068Y-91873158D01*
X143464010Y-92143411D01*
X143626525Y-92386632D01*
X143833368Y-92593475D01*
X144007760Y-92710000D01*
X143833368Y-92826525D01*
X143626525Y-93033368D01*
X143464010Y-93276589D01*
X143352068Y-93546842D01*
X143295000Y-93833740D01*
X143295000Y-94126260D01*
X143352068Y-94413158D01*
X143464010Y-94683411D01*
X143626525Y-94926632D01*
X143833368Y-95133475D01*
X144007760Y-95250000D01*
X143833368Y-95366525D01*
X143626525Y-95573368D01*
X143464010Y-95816589D01*
X143352068Y-96086842D01*
X143295000Y-96373740D01*
X143295000Y-96666260D01*
X143352068Y-96953158D01*
X143464010Y-97223411D01*
X143626525Y-97466632D01*
X143833368Y-97673475D01*
X144076589Y-97835990D01*
X144346842Y-97947932D01*
X144633740Y-98005000D01*
X144926260Y-98005000D01*
X145213158Y-97947932D01*
X145483411Y-97835990D01*
X145726632Y-97673475D01*
X145933475Y-97466632D01*
X146095990Y-97223411D01*
X146207932Y-96953158D01*
X146265000Y-96666260D01*
X146265000Y-96373740D01*
X146207932Y-96086842D01*
X146095990Y-95816589D01*
X145933475Y-95573368D01*
X145726632Y-95366525D01*
X145552240Y-95250000D01*
X145726632Y-95133475D01*
X145933475Y-94926632D01*
X146095990Y-94683411D01*
X146207932Y-94413158D01*
X146265000Y-94126260D01*
X146265000Y-93833740D01*
X146207932Y-93546842D01*
X146095990Y-93276589D01*
X145933475Y-93033368D01*
X145726632Y-92826525D01*
X145552240Y-92710000D01*
X145726632Y-92593475D01*
X145933475Y-92386632D01*
X146095990Y-92143411D01*
X146207932Y-91873158D01*
X146265000Y-91586260D01*
X146265000Y-91293740D01*
X146207932Y-91006842D01*
X146095990Y-90736589D01*
X145933475Y-90493368D01*
X145801620Y-90361513D01*
X145874180Y-90339502D01*
X145984494Y-90280537D01*
X146081185Y-90201185D01*
X146160537Y-90104494D01*
X146219502Y-89994180D01*
X146255812Y-89874482D01*
X146268072Y-89750000D01*
X146265000Y-89185750D01*
X146106250Y-89027000D01*
X144907000Y-89027000D01*
X144907000Y-89047000D01*
X144653000Y-89047000D01*
X144653000Y-89027000D01*
X143453750Y-89027000D01*
X143295000Y-89185750D01*
X143291928Y-89750000D01*
X104463711Y-89750000D01*
X104553937Y-89659774D01*
X104667205Y-89490256D01*
X104745226Y-89301898D01*
X104785000Y-89101939D01*
X104785000Y-88898061D01*
X104745226Y-88698102D01*
X104667205Y-88509744D01*
X104553937Y-88340226D01*
X104409774Y-88196063D01*
X104240256Y-88082795D01*
X104161083Y-88050000D01*
X143291928Y-88050000D01*
X143295000Y-88614250D01*
X143453750Y-88773000D01*
X144653000Y-88773000D01*
X144653000Y-87573750D01*
X144907000Y-87573750D01*
X144907000Y-88773000D01*
X146106250Y-88773000D01*
X146265000Y-88614250D01*
X146268072Y-88050000D01*
X146255812Y-87925518D01*
X146219502Y-87805820D01*
X146160537Y-87695506D01*
X146081185Y-87598815D01*
X145984494Y-87519463D01*
X145874180Y-87460498D01*
X145754482Y-87424188D01*
X145630000Y-87411928D01*
X145065750Y-87415000D01*
X144907000Y-87573750D01*
X144653000Y-87573750D01*
X144494250Y-87415000D01*
X143930000Y-87411928D01*
X143805518Y-87424188D01*
X143685820Y-87460498D01*
X143575506Y-87519463D01*
X143478815Y-87598815D01*
X143399463Y-87695506D01*
X143340498Y-87805820D01*
X143304188Y-87925518D01*
X143291928Y-88050000D01*
X104161083Y-88050000D01*
X104051898Y-88004774D01*
X103851939Y-87965000D01*
X103648061Y-87965000D01*
X103448102Y-88004774D01*
X103259744Y-88082795D01*
X103090226Y-88196063D01*
X102946063Y-88340226D01*
X102832795Y-88509744D01*
X102754774Y-88698102D01*
X102715000Y-88898061D01*
X102715000Y-89101939D01*
X102754774Y-89301898D01*
X102832795Y-89490256D01*
X102946063Y-89659774D01*
X103090226Y-89803937D01*
X103240186Y-89904137D01*
X103076106Y-89936774D01*
X102887748Y-90014795D01*
X102718230Y-90128063D01*
X102574067Y-90272226D01*
X102460799Y-90441744D01*
X102382778Y-90630102D01*
X102343004Y-90830061D01*
X78582326Y-90830061D01*
X78570155Y-90807000D01*
X77377000Y-90807000D01*
X77123000Y-90807000D01*
X75929845Y-90807000D01*
X75808524Y-91036890D01*
X73660000Y-91036890D01*
X73660000Y-85453740D01*
X75765000Y-85453740D01*
X75765000Y-85746260D01*
X75822068Y-86033158D01*
X75934010Y-86303411D01*
X76096525Y-86546632D01*
X76303368Y-86753475D01*
X76477760Y-86870000D01*
X76303368Y-86986525D01*
X76096525Y-87193368D01*
X75934010Y-87436589D01*
X75822068Y-87706842D01*
X75765000Y-87993740D01*
X75765000Y-88286260D01*
X75822068Y-88573158D01*
X75934010Y-88843411D01*
X76096525Y-89086632D01*
X76303368Y-89293475D01*
X76485534Y-89415195D01*
X76368645Y-89484822D01*
X76152412Y-89679731D01*
X75978359Y-89913080D01*
X75853175Y-90175901D01*
X75808524Y-90323110D01*
X75929845Y-90553000D01*
X77123000Y-90553000D01*
X77123000Y-90533000D01*
X77377000Y-90533000D01*
X77377000Y-90553000D01*
X78570155Y-90553000D01*
X78691476Y-90323110D01*
X78646825Y-90175901D01*
X78521641Y-89913080D01*
X78347588Y-89679731D01*
X78131355Y-89484822D01*
X78014466Y-89415195D01*
X78196632Y-89293475D01*
X78403475Y-89086632D01*
X78565990Y-88843411D01*
X78677932Y-88573158D01*
X78735000Y-88286260D01*
X78735000Y-87993740D01*
X78677932Y-87706842D01*
X78565990Y-87436589D01*
X78403475Y-87193368D01*
X78196632Y-86986525D01*
X78022240Y-86870000D01*
X78196632Y-86753475D01*
X78403475Y-86546632D01*
X78565990Y-86303411D01*
X78584774Y-86258061D01*
X80753000Y-86258061D01*
X80753000Y-86461939D01*
X80792774Y-86661898D01*
X80870795Y-86850256D01*
X80984063Y-87019774D01*
X81128226Y-87163937D01*
X81297744Y-87277205D01*
X81486102Y-87355226D01*
X81686061Y-87395000D01*
X81889939Y-87395000D01*
X82089898Y-87355226D01*
X82278256Y-87277205D01*
X82447774Y-87163937D01*
X82591937Y-87019774D01*
X82705205Y-86850256D01*
X82758438Y-86721740D01*
X83859000Y-86721740D01*
X83859000Y-87014260D01*
X83916068Y-87301158D01*
X84028010Y-87571411D01*
X84190525Y-87814632D01*
X84397368Y-88021475D01*
X84640589Y-88183990D01*
X84910842Y-88295932D01*
X85197740Y-88353000D01*
X85490260Y-88353000D01*
X85777158Y-88295932D01*
X86047411Y-88183990D01*
X86290632Y-88021475D01*
X86497475Y-87814632D01*
X86614000Y-87640240D01*
X86730525Y-87814632D01*
X86937368Y-88021475D01*
X87180589Y-88183990D01*
X87450842Y-88295932D01*
X87737740Y-88353000D01*
X88030260Y-88353000D01*
X88317158Y-88295932D01*
X88587411Y-88183990D01*
X88830632Y-88021475D01*
X89037475Y-87814632D01*
X89154000Y-87640240D01*
X89270525Y-87814632D01*
X89477368Y-88021475D01*
X89720589Y-88183990D01*
X89990842Y-88295932D01*
X90277740Y-88353000D01*
X90570260Y-88353000D01*
X90857158Y-88295932D01*
X91127411Y-88183990D01*
X91370632Y-88021475D01*
X91577475Y-87814632D01*
X91694000Y-87640240D01*
X91810525Y-87814632D01*
X92017368Y-88021475D01*
X92260589Y-88183990D01*
X92530842Y-88295932D01*
X92817740Y-88353000D01*
X93110260Y-88353000D01*
X93397158Y-88295932D01*
X93667411Y-88183990D01*
X93910632Y-88021475D01*
X94117475Y-87814632D01*
X94234000Y-87640240D01*
X94350525Y-87814632D01*
X94557368Y-88021475D01*
X94774039Y-88166250D01*
X94700063Y-88240226D01*
X94586795Y-88409744D01*
X94508774Y-88598102D01*
X94469000Y-88798061D01*
X94469000Y-89001939D01*
X94508774Y-89201898D01*
X94586795Y-89390256D01*
X94700063Y-89559774D01*
X94844226Y-89703937D01*
X95013744Y-89817205D01*
X95202102Y-89895226D01*
X95402061Y-89935000D01*
X95605939Y-89935000D01*
X95805898Y-89895226D01*
X95994256Y-89817205D01*
X96163774Y-89703937D01*
X96307937Y-89559774D01*
X96421205Y-89390256D01*
X96499226Y-89201898D01*
X96539000Y-89001939D01*
X96539000Y-88798061D01*
X96499226Y-88598102D01*
X96421205Y-88409744D01*
X96307937Y-88240226D01*
X96233961Y-88166250D01*
X96450632Y-88021475D01*
X96657475Y-87814632D01*
X96819990Y-87571411D01*
X96931932Y-87301158D01*
X96989000Y-87014260D01*
X96989000Y-86721740D01*
X96931932Y-86434842D01*
X96916697Y-86398061D01*
X114665000Y-86398061D01*
X114665000Y-86601939D01*
X114704774Y-86801898D01*
X114782795Y-86990256D01*
X114896063Y-87159774D01*
X115040226Y-87303937D01*
X115209744Y-87417205D01*
X115398102Y-87495226D01*
X115598061Y-87535000D01*
X115801939Y-87535000D01*
X116001898Y-87495226D01*
X116190256Y-87417205D01*
X116359774Y-87303937D01*
X116503937Y-87159774D01*
X116617205Y-86990256D01*
X116695226Y-86801898D01*
X116735000Y-86601939D01*
X116735000Y-86398061D01*
X116695226Y-86198102D01*
X116617205Y-86009744D01*
X116503937Y-85840226D01*
X116359774Y-85696063D01*
X116190256Y-85582795D01*
X116001898Y-85504774D01*
X115801939Y-85465000D01*
X115598061Y-85465000D01*
X115398102Y-85504774D01*
X115209744Y-85582795D01*
X115040226Y-85696063D01*
X114896063Y-85840226D01*
X114782795Y-86009744D01*
X114704774Y-86198102D01*
X114665000Y-86398061D01*
X96916697Y-86398061D01*
X96819990Y-86164589D01*
X96657475Y-85921368D01*
X96525620Y-85789513D01*
X96598180Y-85767502D01*
X96708494Y-85708537D01*
X96805185Y-85629185D01*
X96884537Y-85532494D01*
X96943502Y-85422180D01*
X96979812Y-85302482D01*
X96992072Y-85178000D01*
X96992072Y-83718061D01*
X119361000Y-83718061D01*
X119361000Y-83921939D01*
X119400774Y-84121898D01*
X119478795Y-84310256D01*
X119592063Y-84479774D01*
X119736226Y-84623937D01*
X119905744Y-84737205D01*
X120094102Y-84815226D01*
X120294061Y-84855000D01*
X120497939Y-84855000D01*
X120697898Y-84815226D01*
X120886256Y-84737205D01*
X121055774Y-84623937D01*
X121199937Y-84479774D01*
X121313205Y-84310256D01*
X121391226Y-84121898D01*
X121431000Y-83921939D01*
X121431000Y-83718061D01*
X122917000Y-83718061D01*
X122917000Y-83921939D01*
X122956774Y-84121898D01*
X123034795Y-84310256D01*
X123148063Y-84479774D01*
X123292226Y-84623937D01*
X123461744Y-84737205D01*
X123650102Y-84815226D01*
X123850061Y-84855000D01*
X123993456Y-84855000D01*
X123965000Y-84998061D01*
X123965000Y-85201939D01*
X124004774Y-85401898D01*
X124082795Y-85590256D01*
X124196063Y-85759774D01*
X124340226Y-85903937D01*
X124509744Y-86017205D01*
X124698102Y-86095226D01*
X124898061Y-86135000D01*
X125101939Y-86135000D01*
X125301898Y-86095226D01*
X125490256Y-86017205D01*
X125659774Y-85903937D01*
X125803937Y-85759774D01*
X125917205Y-85590256D01*
X125995226Y-85401898D01*
X126035000Y-85201939D01*
X126035000Y-84998061D01*
X125995226Y-84798102D01*
X125917205Y-84609744D01*
X125803937Y-84440226D01*
X125659774Y-84296063D01*
X125490256Y-84182795D01*
X125301898Y-84104774D01*
X125101939Y-84065000D01*
X124958544Y-84065000D01*
X124987000Y-83921939D01*
X124987000Y-83718061D01*
X124947226Y-83518102D01*
X124869205Y-83329744D01*
X124755937Y-83160226D01*
X124611774Y-83016063D01*
X124442256Y-82902795D01*
X124253898Y-82824774D01*
X124053939Y-82785000D01*
X123850061Y-82785000D01*
X123650102Y-82824774D01*
X123461744Y-82902795D01*
X123292226Y-83016063D01*
X123148063Y-83160226D01*
X123034795Y-83329744D01*
X122956774Y-83518102D01*
X122917000Y-83718061D01*
X121431000Y-83718061D01*
X121391226Y-83518102D01*
X121313205Y-83329744D01*
X121199937Y-83160226D01*
X121055774Y-83016063D01*
X120886256Y-82902795D01*
X120697898Y-82824774D01*
X120497939Y-82785000D01*
X120294061Y-82785000D01*
X120094102Y-82824774D01*
X119905744Y-82902795D01*
X119736226Y-83016063D01*
X119592063Y-83160226D01*
X119478795Y-83329744D01*
X119400774Y-83518102D01*
X119361000Y-83718061D01*
X96992072Y-83718061D01*
X96992072Y-83478000D01*
X96979812Y-83353518D01*
X96943502Y-83233820D01*
X96884537Y-83123506D01*
X96805185Y-83026815D01*
X96708494Y-82947463D01*
X96598180Y-82888498D01*
X96478482Y-82852188D01*
X96354000Y-82839928D01*
X94654000Y-82839928D01*
X94529518Y-82852188D01*
X94409820Y-82888498D01*
X94299506Y-82947463D01*
X94202815Y-83026815D01*
X94123463Y-83123506D01*
X94064498Y-83233820D01*
X94040034Y-83314466D01*
X93964269Y-83230412D01*
X93730920Y-83056359D01*
X93468099Y-82931175D01*
X93320890Y-82886524D01*
X93091000Y-83007845D01*
X93091000Y-84201000D01*
X93111000Y-84201000D01*
X93111000Y-84455000D01*
X93091000Y-84455000D01*
X93091000Y-84475000D01*
X92837000Y-84475000D01*
X92837000Y-84455000D01*
X90551000Y-84455000D01*
X90551000Y-84475000D01*
X90297000Y-84475000D01*
X90297000Y-84455000D01*
X90277000Y-84455000D01*
X90277000Y-84201000D01*
X90297000Y-84201000D01*
X90297000Y-83007845D01*
X90551000Y-83007845D01*
X90551000Y-84201000D01*
X92837000Y-84201000D01*
X92837000Y-83007845D01*
X92607110Y-82886524D01*
X92459901Y-82931175D01*
X92197080Y-83056359D01*
X91963731Y-83230412D01*
X91768822Y-83446645D01*
X91694000Y-83572255D01*
X91619178Y-83446645D01*
X91424269Y-83230412D01*
X91190920Y-83056359D01*
X90928099Y-82931175D01*
X90780890Y-82886524D01*
X90551000Y-83007845D01*
X90297000Y-83007845D01*
X90067110Y-82886524D01*
X89919901Y-82931175D01*
X89657080Y-83056359D01*
X89423731Y-83230412D01*
X89228822Y-83446645D01*
X89159195Y-83563534D01*
X89037475Y-83381368D01*
X88830632Y-83174525D01*
X88587411Y-83012010D01*
X88317158Y-82900068D01*
X88030260Y-82843000D01*
X87737740Y-82843000D01*
X87450842Y-82900068D01*
X87180589Y-83012010D01*
X86937368Y-83174525D01*
X86730525Y-83381368D01*
X86608805Y-83563534D01*
X86539178Y-83446645D01*
X86344269Y-83230412D01*
X86110920Y-83056359D01*
X85848099Y-82931175D01*
X85700890Y-82886524D01*
X85471000Y-83007845D01*
X85471000Y-84201000D01*
X85491000Y-84201000D01*
X85491000Y-84455000D01*
X85471000Y-84455000D01*
X85471000Y-84475000D01*
X85217000Y-84475000D01*
X85217000Y-84455000D01*
X84023186Y-84455000D01*
X83902519Y-84684891D01*
X83999843Y-84959252D01*
X84148822Y-85209355D01*
X84343731Y-85425588D01*
X84573406Y-85596900D01*
X84397368Y-85714525D01*
X84190525Y-85921368D01*
X84028010Y-86164589D01*
X83916068Y-86434842D01*
X83859000Y-86721740D01*
X82758438Y-86721740D01*
X82783226Y-86661898D01*
X82823000Y-86461939D01*
X82823000Y-86258061D01*
X82783226Y-86058102D01*
X82705205Y-85869744D01*
X82591937Y-85700226D01*
X82447774Y-85556063D01*
X82278256Y-85442795D01*
X82089898Y-85364774D01*
X81889939Y-85325000D01*
X81686061Y-85325000D01*
X81486102Y-85364774D01*
X81297744Y-85442795D01*
X81128226Y-85556063D01*
X80984063Y-85700226D01*
X80870795Y-85869744D01*
X80792774Y-86058102D01*
X80753000Y-86258061D01*
X78584774Y-86258061D01*
X78677932Y-86033158D01*
X78735000Y-85746260D01*
X78735000Y-85453740D01*
X78677932Y-85166842D01*
X78565990Y-84896589D01*
X78403475Y-84653368D01*
X78196632Y-84446525D01*
X77953411Y-84284010D01*
X77683158Y-84172068D01*
X77396260Y-84115000D01*
X77103740Y-84115000D01*
X76816842Y-84172068D01*
X76546589Y-84284010D01*
X76303368Y-84446525D01*
X76096525Y-84653368D01*
X75934010Y-84896589D01*
X75822068Y-85166842D01*
X75765000Y-85453740D01*
X73660000Y-85453740D01*
X73660000Y-83971109D01*
X83902519Y-83971109D01*
X84023186Y-84201000D01*
X85217000Y-84201000D01*
X85217000Y-83007845D01*
X84987110Y-82886524D01*
X84839901Y-82931175D01*
X84577080Y-83056359D01*
X84343731Y-83230412D01*
X84148822Y-83446645D01*
X83999843Y-83696748D01*
X83902519Y-83971109D01*
X73660000Y-83971109D01*
X73660000Y-81432061D01*
X100819000Y-81432061D01*
X100819000Y-81635939D01*
X100858774Y-81835898D01*
X100936795Y-82024256D01*
X101050063Y-82193774D01*
X101194226Y-82337937D01*
X101363744Y-82451205D01*
X101552102Y-82529226D01*
X101752061Y-82569000D01*
X101955939Y-82569000D01*
X102155898Y-82529226D01*
X102344256Y-82451205D01*
X102513774Y-82337937D01*
X102657937Y-82193774D01*
X102771205Y-82024256D01*
X102849226Y-81835898D01*
X102889000Y-81635939D01*
X102889000Y-81432061D01*
X102882238Y-81398061D01*
X102965000Y-81398061D01*
X102965000Y-81601939D01*
X103004774Y-81801898D01*
X103082795Y-81990256D01*
X103196063Y-82159774D01*
X103340226Y-82303937D01*
X103509744Y-82417205D01*
X103698102Y-82495226D01*
X103898061Y-82535000D01*
X104101939Y-82535000D01*
X104301898Y-82495226D01*
X104490256Y-82417205D01*
X104659774Y-82303937D01*
X104803937Y-82159774D01*
X104917205Y-81990256D01*
X104995226Y-81801898D01*
X105035000Y-81601939D01*
X105035000Y-81398061D01*
X104995226Y-81198102D01*
X104917205Y-81009744D01*
X104803937Y-80840226D01*
X104659774Y-80696063D01*
X104490256Y-80582795D01*
X104301898Y-80504774D01*
X104101939Y-80465000D01*
X103898061Y-80465000D01*
X103698102Y-80504774D01*
X103509744Y-80582795D01*
X103340226Y-80696063D01*
X103196063Y-80840226D01*
X103082795Y-81009744D01*
X103004774Y-81198102D01*
X102965000Y-81398061D01*
X102882238Y-81398061D01*
X102849226Y-81232102D01*
X102771205Y-81043744D01*
X102657937Y-80874226D01*
X102513774Y-80730063D01*
X102344256Y-80616795D01*
X102155898Y-80538774D01*
X101955939Y-80499000D01*
X101752061Y-80499000D01*
X101552102Y-80538774D01*
X101363744Y-80616795D01*
X101194226Y-80730063D01*
X101050063Y-80874226D01*
X100936795Y-81043744D01*
X100858774Y-81232102D01*
X100819000Y-81432061D01*
X73660000Y-81432061D01*
X73660000Y-79489775D01*
X75689830Y-79489775D01*
X75929976Y-79877018D01*
X76423877Y-80137641D01*
X76959133Y-80296901D01*
X77515174Y-80348678D01*
X78070632Y-80290981D01*
X78487614Y-80162061D01*
X81007000Y-80162061D01*
X81007000Y-80365939D01*
X81046774Y-80565898D01*
X81124795Y-80754256D01*
X81238063Y-80923774D01*
X81382226Y-81067937D01*
X81551744Y-81181205D01*
X81740102Y-81259226D01*
X81940061Y-81299000D01*
X82143939Y-81299000D01*
X82343898Y-81259226D01*
X82532256Y-81181205D01*
X82701774Y-81067937D01*
X82845937Y-80923774D01*
X82959205Y-80754256D01*
X83037226Y-80565898D01*
X83067030Y-80416061D01*
X114281000Y-80416061D01*
X114281000Y-80619939D01*
X114320774Y-80819898D01*
X114398795Y-81008256D01*
X114512063Y-81177774D01*
X114656226Y-81321937D01*
X114825744Y-81435205D01*
X115014102Y-81513226D01*
X115214061Y-81553000D01*
X115417939Y-81553000D01*
X115617898Y-81513226D01*
X115806256Y-81435205D01*
X115975774Y-81321937D01*
X116119937Y-81177774D01*
X116233205Y-81008256D01*
X116311226Y-80819898D01*
X116351000Y-80619939D01*
X116351000Y-80416061D01*
X116821000Y-80416061D01*
X116821000Y-80619939D01*
X116860774Y-80819898D01*
X116938795Y-81008256D01*
X117052063Y-81177774D01*
X117196226Y-81321937D01*
X117365744Y-81435205D01*
X117554102Y-81513226D01*
X117754061Y-81553000D01*
X117957939Y-81553000D01*
X118157898Y-81513226D01*
X118346256Y-81435205D01*
X118515774Y-81321937D01*
X118659937Y-81177774D01*
X118773205Y-81008256D01*
X118851226Y-80819898D01*
X118891000Y-80619939D01*
X118891000Y-80416061D01*
X118851226Y-80216102D01*
X118773205Y-80027744D01*
X118659937Y-79858226D01*
X118515774Y-79714063D01*
X118346256Y-79600795D01*
X118157898Y-79522774D01*
X117957939Y-79483000D01*
X117754061Y-79483000D01*
X117554102Y-79522774D01*
X117365744Y-79600795D01*
X117196226Y-79714063D01*
X117052063Y-79858226D01*
X116938795Y-80027744D01*
X116860774Y-80216102D01*
X116821000Y-80416061D01*
X116351000Y-80416061D01*
X116311226Y-80216102D01*
X116233205Y-80027744D01*
X116119937Y-79858226D01*
X115975774Y-79714063D01*
X115806256Y-79600795D01*
X115617898Y-79522774D01*
X115417939Y-79483000D01*
X115214061Y-79483000D01*
X115014102Y-79522774D01*
X114825744Y-79600795D01*
X114656226Y-79714063D01*
X114512063Y-79858226D01*
X114398795Y-80027744D01*
X114320774Y-80216102D01*
X114281000Y-80416061D01*
X83067030Y-80416061D01*
X83077000Y-80365939D01*
X83077000Y-80162061D01*
X83037226Y-79962102D01*
X82959205Y-79773744D01*
X82845937Y-79604226D01*
X82701774Y-79460063D01*
X82532256Y-79346795D01*
X82343898Y-79268774D01*
X82143939Y-79229000D01*
X81940061Y-79229000D01*
X81740102Y-79268774D01*
X81551744Y-79346795D01*
X81382226Y-79460063D01*
X81238063Y-79604226D01*
X81124795Y-79773744D01*
X81046774Y-79962102D01*
X81007000Y-80162061D01*
X78487614Y-80162061D01*
X78604161Y-80126028D01*
X79070024Y-79877018D01*
X79310170Y-79489775D01*
X77500000Y-77679605D01*
X75689830Y-79489775D01*
X73660000Y-79489775D01*
X73660000Y-77515174D01*
X74651322Y-77515174D01*
X74709019Y-78070632D01*
X74873972Y-78604161D01*
X75122982Y-79070024D01*
X75510225Y-79310170D01*
X77320395Y-77500000D01*
X77679605Y-77500000D01*
X79489775Y-79310170D01*
X79877018Y-79070024D01*
X80076389Y-78692200D01*
X104210030Y-78692200D01*
X104231462Y-78909798D01*
X104294932Y-79119034D01*
X104398004Y-79311866D01*
X104536714Y-79480886D01*
X104705734Y-79619596D01*
X104898566Y-79722668D01*
X105107802Y-79786138D01*
X105270879Y-79802200D01*
X105679921Y-79802200D01*
X105842998Y-79786138D01*
X106052234Y-79722668D01*
X106245066Y-79619596D01*
X106414086Y-79480886D01*
X106552796Y-79311866D01*
X106655868Y-79119034D01*
X106719338Y-78909798D01*
X106740770Y-78692200D01*
X106719338Y-78474602D01*
X106655868Y-78265366D01*
X106552796Y-78072534D01*
X106414086Y-77903514D01*
X106245066Y-77764804D01*
X106052234Y-77661732D01*
X105921455Y-77622061D01*
X108693000Y-77622061D01*
X108693000Y-77825939D01*
X108732774Y-78025898D01*
X108810795Y-78214256D01*
X108924063Y-78383774D01*
X109068226Y-78527937D01*
X109216454Y-78626979D01*
X109210030Y-78692200D01*
X109231462Y-78909798D01*
X109294932Y-79119034D01*
X109398004Y-79311866D01*
X109536714Y-79480886D01*
X109705734Y-79619596D01*
X109898566Y-79722668D01*
X110107802Y-79786138D01*
X110270879Y-79802200D01*
X110679921Y-79802200D01*
X110842998Y-79786138D01*
X111052234Y-79722668D01*
X111245066Y-79619596D01*
X111414086Y-79480886D01*
X111552796Y-79311866D01*
X111641421Y-79146061D01*
X127235000Y-79146061D01*
X127235000Y-79349939D01*
X127274774Y-79549898D01*
X127352795Y-79738256D01*
X127466063Y-79907774D01*
X127610226Y-80051937D01*
X127779744Y-80165205D01*
X127968102Y-80243226D01*
X128168061Y-80283000D01*
X128371939Y-80283000D01*
X128571898Y-80243226D01*
X128760256Y-80165205D01*
X128929774Y-80051937D01*
X129073937Y-79907774D01*
X129187205Y-79738256D01*
X129265226Y-79549898D01*
X129305000Y-79349939D01*
X129305000Y-79146061D01*
X129265226Y-78946102D01*
X129187205Y-78757744D01*
X129073937Y-78588226D01*
X128929774Y-78444063D01*
X128760256Y-78330795D01*
X128571898Y-78252774D01*
X128371939Y-78213000D01*
X128168061Y-78213000D01*
X127968102Y-78252774D01*
X127779744Y-78330795D01*
X127610226Y-78444063D01*
X127466063Y-78588226D01*
X127352795Y-78757744D01*
X127274774Y-78946102D01*
X127235000Y-79146061D01*
X111641421Y-79146061D01*
X111655868Y-79119034D01*
X111719338Y-78909798D01*
X111740770Y-78692200D01*
X111719338Y-78474602D01*
X111655868Y-78265366D01*
X111552796Y-78072534D01*
X111414086Y-77903514D01*
X111245066Y-77764804D01*
X111052234Y-77661732D01*
X110921455Y-77622061D01*
X113773000Y-77622061D01*
X113773000Y-77825939D01*
X113812774Y-78025898D01*
X113890795Y-78214256D01*
X114004063Y-78383774D01*
X114148226Y-78527937D01*
X114317744Y-78641205D01*
X114506102Y-78719226D01*
X114706061Y-78759000D01*
X114909939Y-78759000D01*
X115109898Y-78719226D01*
X115298256Y-78641205D01*
X115467774Y-78527937D01*
X115611937Y-78383774D01*
X115725205Y-78214256D01*
X115803226Y-78025898D01*
X115843000Y-77825939D01*
X115843000Y-77622061D01*
X115803226Y-77422102D01*
X115725205Y-77233744D01*
X115698649Y-77194000D01*
X130623928Y-77194000D01*
X130623928Y-80794000D01*
X130640992Y-80967254D01*
X130691528Y-81133850D01*
X130773595Y-81287386D01*
X130884038Y-81421962D01*
X131018614Y-81532405D01*
X131172150Y-81614472D01*
X131338746Y-81665008D01*
X131512000Y-81682072D01*
X134172000Y-81682072D01*
X134345254Y-81665008D01*
X134511850Y-81614472D01*
X134665386Y-81532405D01*
X134799962Y-81421962D01*
X134910405Y-81287386D01*
X134992472Y-81133850D01*
X135043008Y-80967254D01*
X135056700Y-80828238D01*
X135325562Y-81120044D01*
X135677009Y-81376262D01*
X136071689Y-81558993D01*
X136330631Y-81628263D01*
X136675000Y-81516324D01*
X136675000Y-79121000D01*
X136929000Y-79121000D01*
X136929000Y-81516324D01*
X137273369Y-81628263D01*
X137532311Y-81558993D01*
X137926991Y-81376262D01*
X138278438Y-81120044D01*
X138573147Y-80800185D01*
X138799792Y-80428977D01*
X138949663Y-80020685D01*
X139017000Y-79591000D01*
X139017000Y-79489775D01*
X143189830Y-79489775D01*
X143429976Y-79877018D01*
X143923877Y-80137641D01*
X144459133Y-80296901D01*
X145015174Y-80348678D01*
X145570632Y-80290981D01*
X146104161Y-80126028D01*
X146570024Y-79877018D01*
X146810170Y-79489775D01*
X145000000Y-77679605D01*
X143189830Y-79489775D01*
X139017000Y-79489775D01*
X139017000Y-79121000D01*
X136929000Y-79121000D01*
X136675000Y-79121000D01*
X136655000Y-79121000D01*
X136655000Y-78867000D01*
X136675000Y-78867000D01*
X136675000Y-76471676D01*
X136929000Y-76471676D01*
X136929000Y-78867000D01*
X139017000Y-78867000D01*
X139017000Y-78397000D01*
X138949663Y-77967315D01*
X138799792Y-77559023D01*
X138773020Y-77515174D01*
X142151322Y-77515174D01*
X142209019Y-78070632D01*
X142373972Y-78604161D01*
X142622982Y-79070024D01*
X143010225Y-79310170D01*
X144820395Y-77500000D01*
X145179605Y-77500000D01*
X146989775Y-79310170D01*
X147377018Y-79070024D01*
X147637641Y-78576123D01*
X147796901Y-78040867D01*
X147848678Y-77484826D01*
X147790981Y-76929368D01*
X147626028Y-76395839D01*
X147377018Y-75929976D01*
X146989775Y-75689830D01*
X145179605Y-77500000D01*
X144820395Y-77500000D01*
X143010225Y-75689830D01*
X142622982Y-75929976D01*
X142362359Y-76423877D01*
X142203099Y-76959133D01*
X142151322Y-77515174D01*
X138773020Y-77515174D01*
X138573147Y-77187815D01*
X138278438Y-76867956D01*
X137926991Y-76611738D01*
X137532311Y-76429007D01*
X137273369Y-76359737D01*
X136929000Y-76471676D01*
X136675000Y-76471676D01*
X136330631Y-76359737D01*
X136071689Y-76429007D01*
X135677009Y-76611738D01*
X135325562Y-76867956D01*
X135056700Y-77159762D01*
X135043008Y-77020746D01*
X134992472Y-76854150D01*
X134910405Y-76700614D01*
X134799962Y-76566038D01*
X134665386Y-76455595D01*
X134511850Y-76373528D01*
X134345254Y-76322992D01*
X134172000Y-76305928D01*
X131512000Y-76305928D01*
X131338746Y-76322992D01*
X131172150Y-76373528D01*
X131018614Y-76455595D01*
X130884038Y-76566038D01*
X130773595Y-76700614D01*
X130691528Y-76854150D01*
X130640992Y-77020746D01*
X130623928Y-77194000D01*
X115698649Y-77194000D01*
X115611937Y-77064226D01*
X115467774Y-76920063D01*
X115298256Y-76806795D01*
X115109898Y-76728774D01*
X114909939Y-76689000D01*
X114706061Y-76689000D01*
X114506102Y-76728774D01*
X114317744Y-76806795D01*
X114148226Y-76920063D01*
X114004063Y-77064226D01*
X113890795Y-77233744D01*
X113812774Y-77422102D01*
X113773000Y-77622061D01*
X110921455Y-77622061D01*
X110842998Y-77598262D01*
X110756573Y-77589750D01*
X110723226Y-77422102D01*
X110645205Y-77233744D01*
X110531937Y-77064226D01*
X110387774Y-76920063D01*
X110218256Y-76806795D01*
X110029898Y-76728774D01*
X109829939Y-76689000D01*
X109626061Y-76689000D01*
X109426102Y-76728774D01*
X109237744Y-76806795D01*
X109068226Y-76920063D01*
X108924063Y-77064226D01*
X108810795Y-77233744D01*
X108732774Y-77422102D01*
X108693000Y-77622061D01*
X105921455Y-77622061D01*
X105842998Y-77598262D01*
X105679921Y-77582200D01*
X105270879Y-77582200D01*
X105107802Y-77598262D01*
X104898566Y-77661732D01*
X104705734Y-77764804D01*
X104536714Y-77903514D01*
X104398004Y-78072534D01*
X104294932Y-78265366D01*
X104231462Y-78474602D01*
X104210030Y-78692200D01*
X80076389Y-78692200D01*
X80137641Y-78576123D01*
X80296901Y-78040867D01*
X80348678Y-77484826D01*
X80290981Y-76929368D01*
X80126028Y-76395839D01*
X79877018Y-75929976D01*
X79489775Y-75689830D01*
X77679605Y-77500000D01*
X77320395Y-77500000D01*
X75510225Y-75689830D01*
X75122982Y-75929976D01*
X74862359Y-76423877D01*
X74703099Y-76959133D01*
X74651322Y-77515174D01*
X73660000Y-77515174D01*
X73660000Y-75682279D01*
X73676870Y-75510225D01*
X75689830Y-75510225D01*
X77500000Y-77320395D01*
X79211246Y-75609149D01*
X103395400Y-75609149D01*
X103395400Y-76375250D01*
X103411027Y-76533916D01*
X103472783Y-76737497D01*
X103573068Y-76925119D01*
X103708030Y-77089570D01*
X103872481Y-77224532D01*
X104060102Y-77324817D01*
X104263683Y-77386573D01*
X104475400Y-77407425D01*
X104687116Y-77386573D01*
X104890697Y-77324817D01*
X105078319Y-77224532D01*
X105242770Y-77089570D01*
X105377732Y-76925119D01*
X105478017Y-76737498D01*
X105539773Y-76533917D01*
X105555400Y-76375251D01*
X105555400Y-75609150D01*
X105555400Y-75609149D01*
X110395400Y-75609149D01*
X110395400Y-76375250D01*
X110411027Y-76533916D01*
X110472783Y-76737497D01*
X110573068Y-76925119D01*
X110708030Y-77089570D01*
X110872481Y-77224532D01*
X111060102Y-77324817D01*
X111263683Y-77386573D01*
X111475400Y-77407425D01*
X111687116Y-77386573D01*
X111890697Y-77324817D01*
X112078319Y-77224532D01*
X112242770Y-77089570D01*
X112377732Y-76925119D01*
X112478017Y-76737498D01*
X112539773Y-76533917D01*
X112555400Y-76375251D01*
X112555400Y-75609150D01*
X112545657Y-75510225D01*
X143189830Y-75510225D01*
X145000000Y-77320395D01*
X146810170Y-75510225D01*
X146570024Y-75122982D01*
X146076123Y-74862359D01*
X145540867Y-74703099D01*
X144984826Y-74651322D01*
X144429368Y-74709019D01*
X143895839Y-74873972D01*
X143429976Y-75122982D01*
X143189830Y-75510225D01*
X112545657Y-75510225D01*
X112539773Y-75450484D01*
X112478017Y-75246902D01*
X112377732Y-75059281D01*
X112242770Y-74894830D01*
X112078319Y-74759868D01*
X111890698Y-74659583D01*
X111687117Y-74597827D01*
X111475400Y-74576975D01*
X111263684Y-74597827D01*
X111060103Y-74659583D01*
X110872482Y-74759868D01*
X110708031Y-74894830D01*
X110573069Y-75059281D01*
X110472784Y-75246902D01*
X110411027Y-75450483D01*
X110395400Y-75609149D01*
X105555400Y-75609149D01*
X105539773Y-75450484D01*
X105478017Y-75246902D01*
X105377732Y-75059281D01*
X105242770Y-74894830D01*
X105078319Y-74759868D01*
X104890698Y-74659583D01*
X104687117Y-74597827D01*
X104475400Y-74576975D01*
X104263684Y-74597827D01*
X104060103Y-74659583D01*
X103872482Y-74759868D01*
X103708031Y-74894830D01*
X103573069Y-75059281D01*
X103472784Y-75246902D01*
X103411027Y-75450483D01*
X103395400Y-75609149D01*
X79211246Y-75609149D01*
X79310170Y-75510225D01*
X79070024Y-75122982D01*
X78576123Y-74862359D01*
X78040867Y-74703099D01*
X77484826Y-74651322D01*
X76929368Y-74709019D01*
X76395839Y-74873972D01*
X75929976Y-75122982D01*
X75689830Y-75510225D01*
X73676870Y-75510225D01*
X73693386Y-75341782D01*
X73782898Y-75045303D01*
X73928291Y-74771860D01*
X74124031Y-74531859D01*
X74362653Y-74334453D01*
X74635073Y-74187157D01*
X74930926Y-74095575D01*
X75269400Y-74060000D01*
X146967721Y-74060000D01*
X147308218Y-74093386D01*
G04 #@! TA.AperFunction,Conductor*
D20*
G36*
X147308218Y-74093386D02*
G01*
X147604697Y-74182898D01*
X147878140Y-74328291D01*
X148118141Y-74524031D01*
X148315547Y-74762653D01*
X148462843Y-75035073D01*
X148554425Y-75330926D01*
X148590000Y-75669400D01*
X148590001Y-136717711D01*
X148556614Y-137058218D01*
X148467103Y-137354694D01*
X148321709Y-137628141D01*
X148125970Y-137868140D01*
X147887350Y-138065544D01*
X147614926Y-138212843D01*
X147319074Y-138304425D01*
X146980600Y-138340000D01*
X75282279Y-138340000D01*
X74941782Y-138306614D01*
X74645306Y-138217103D01*
X74371859Y-138071709D01*
X74131860Y-137875970D01*
X73934456Y-137637350D01*
X73787157Y-137364926D01*
X73695575Y-137069074D01*
X73687241Y-136989775D01*
X75689830Y-136989775D01*
X75929976Y-137377018D01*
X76423877Y-137637641D01*
X76959133Y-137796901D01*
X77515174Y-137848678D01*
X78070632Y-137790981D01*
X78604161Y-137626028D01*
X79070024Y-137377018D01*
X79310170Y-136989775D01*
X143189830Y-136989775D01*
X143429976Y-137377018D01*
X143923877Y-137637641D01*
X144459133Y-137796901D01*
X145015174Y-137848678D01*
X145570632Y-137790981D01*
X146104161Y-137626028D01*
X146570024Y-137377018D01*
X146810170Y-136989775D01*
X145000000Y-135179605D01*
X143189830Y-136989775D01*
X79310170Y-136989775D01*
X77500000Y-135179605D01*
X75689830Y-136989775D01*
X73687241Y-136989775D01*
X73660000Y-136730600D01*
X73660000Y-135015174D01*
X74651322Y-135015174D01*
X74709019Y-135570632D01*
X74873972Y-136104161D01*
X75122982Y-136570024D01*
X75510225Y-136810170D01*
X77320395Y-135000000D01*
X77679605Y-135000000D01*
X79489775Y-136810170D01*
X79877018Y-136570024D01*
X80137641Y-136076123D01*
X80296901Y-135540867D01*
X80345852Y-135015174D01*
X142151322Y-135015174D01*
X142209019Y-135570632D01*
X142373972Y-136104161D01*
X142622982Y-136570024D01*
X143010225Y-136810170D01*
X144820395Y-135000000D01*
X145179605Y-135000000D01*
X146989775Y-136810170D01*
X147377018Y-136570024D01*
X147637641Y-136076123D01*
X147796901Y-135540867D01*
X147848678Y-134984826D01*
X147790981Y-134429368D01*
X147626028Y-133895839D01*
X147377018Y-133429976D01*
X146989775Y-133189830D01*
X145179605Y-135000000D01*
X144820395Y-135000000D01*
X143010225Y-133189830D01*
X142622982Y-133429976D01*
X142362359Y-133923877D01*
X142203099Y-134459133D01*
X142151322Y-135015174D01*
X80345852Y-135015174D01*
X80348678Y-134984826D01*
X80290981Y-134429368D01*
X80126028Y-133895839D01*
X80111683Y-133869000D01*
X94646928Y-133869000D01*
X94659188Y-133993482D01*
X94695498Y-134113180D01*
X94754463Y-134223494D01*
X94833815Y-134320185D01*
X94930506Y-134399537D01*
X95040820Y-134458502D01*
X95160518Y-134494812D01*
X95285000Y-134507072D01*
X95599250Y-134504000D01*
X95758000Y-134345250D01*
X95758000Y-133096000D01*
X94808750Y-133096000D01*
X94650000Y-133254750D01*
X94646928Y-133869000D01*
X80111683Y-133869000D01*
X79877018Y-133429976D01*
X79489775Y-133189830D01*
X77679605Y-135000000D01*
X77320395Y-135000000D01*
X75510225Y-133189830D01*
X75122982Y-133429976D01*
X74862359Y-133923877D01*
X74703099Y-134459133D01*
X74651322Y-135015174D01*
X73660000Y-135015174D01*
X73660000Y-133010225D01*
X75689830Y-133010225D01*
X77500000Y-134820395D01*
X79310170Y-133010225D01*
X79070024Y-132622982D01*
X78576123Y-132362359D01*
X78040867Y-132203099D01*
X77484826Y-132151322D01*
X76929368Y-132209019D01*
X76395839Y-132373972D01*
X75929976Y-132622982D01*
X75689830Y-133010225D01*
X73660000Y-133010225D01*
X73660000Y-132069000D01*
X94646928Y-132069000D01*
X94650000Y-132683250D01*
X94808750Y-132842000D01*
X95758000Y-132842000D01*
X95758000Y-131592750D01*
X96012000Y-131592750D01*
X96012000Y-132842000D01*
X96032000Y-132842000D01*
X96032000Y-133096000D01*
X96012000Y-133096000D01*
X96012000Y-134345250D01*
X96170750Y-134504000D01*
X96485000Y-134507072D01*
X96609482Y-134494812D01*
X96729180Y-134458502D01*
X96839494Y-134399537D01*
X96936185Y-134320185D01*
X97015537Y-134223494D01*
X97041692Y-134174563D01*
X97195552Y-134300833D01*
X97410100Y-134415511D01*
X97642899Y-134486130D01*
X97885000Y-134509975D01*
X98127102Y-134486130D01*
X98359901Y-134415511D01*
X98574449Y-134300833D01*
X98762502Y-134146502D01*
X98885001Y-133997237D01*
X99007499Y-134146502D01*
X99195552Y-134300833D01*
X99410100Y-134415511D01*
X99642899Y-134486130D01*
X99885000Y-134509975D01*
X100127102Y-134486130D01*
X100359901Y-134415511D01*
X100574449Y-134300833D01*
X100762502Y-134146502D01*
X100916833Y-133958449D01*
X100964644Y-133869000D01*
X105314928Y-133869000D01*
X105327188Y-133993482D01*
X105363498Y-134113180D01*
X105422463Y-134223494D01*
X105501815Y-134320185D01*
X105598506Y-134399537D01*
X105708820Y-134458502D01*
X105828518Y-134494812D01*
X105953000Y-134507072D01*
X106267250Y-134504000D01*
X106426000Y-134345250D01*
X106426000Y-133096000D01*
X105476750Y-133096000D01*
X105318000Y-133254750D01*
X105314928Y-133869000D01*
X100964644Y-133869000D01*
X101031511Y-133743901D01*
X101102130Y-133511101D01*
X101120000Y-133329664D01*
X101120000Y-132608335D01*
X101102130Y-132426898D01*
X101031511Y-132194099D01*
X100964645Y-132069000D01*
X105314928Y-132069000D01*
X105318000Y-132683250D01*
X105476750Y-132842000D01*
X106426000Y-132842000D01*
X106426000Y-131592750D01*
X106680000Y-131592750D01*
X106680000Y-132842000D01*
X106700000Y-132842000D01*
X106700000Y-133096000D01*
X106680000Y-133096000D01*
X106680000Y-134345250D01*
X106838750Y-134504000D01*
X107153000Y-134507072D01*
X107277482Y-134494812D01*
X107397180Y-134458502D01*
X107507494Y-134399537D01*
X107604185Y-134320185D01*
X107683537Y-134223494D01*
X107709692Y-134174563D01*
X107863552Y-134300833D01*
X108078100Y-134415511D01*
X108310899Y-134486130D01*
X108553000Y-134509975D01*
X108795102Y-134486130D01*
X109027901Y-134415511D01*
X109242449Y-134300833D01*
X109430502Y-134146502D01*
X109553001Y-133997237D01*
X109675499Y-134146502D01*
X109863552Y-134300833D01*
X110078100Y-134415511D01*
X110310899Y-134486130D01*
X110553000Y-134509975D01*
X110795102Y-134486130D01*
X111027901Y-134415511D01*
X111242449Y-134300833D01*
X111430502Y-134146502D01*
X111584833Y-133958449D01*
X111632644Y-133869000D01*
X115779728Y-133869000D01*
X115791988Y-133993482D01*
X115828298Y-134113180D01*
X115887263Y-134223494D01*
X115966615Y-134320185D01*
X116063306Y-134399537D01*
X116173620Y-134458502D01*
X116293318Y-134494812D01*
X116417800Y-134507072D01*
X116732050Y-134504000D01*
X116890800Y-134345250D01*
X116890800Y-133096000D01*
X115941550Y-133096000D01*
X115782800Y-133254750D01*
X115779728Y-133869000D01*
X111632644Y-133869000D01*
X111699511Y-133743901D01*
X111770130Y-133511101D01*
X111788000Y-133329664D01*
X111788000Y-132608335D01*
X111770130Y-132426898D01*
X111699511Y-132194099D01*
X111632645Y-132069000D01*
X115779728Y-132069000D01*
X115782800Y-132683250D01*
X115941550Y-132842000D01*
X116890800Y-132842000D01*
X116890800Y-131592750D01*
X117144800Y-131592750D01*
X117144800Y-132842000D01*
X117164800Y-132842000D01*
X117164800Y-133096000D01*
X117144800Y-133096000D01*
X117144800Y-134345250D01*
X117303550Y-134504000D01*
X117617800Y-134507072D01*
X117742282Y-134494812D01*
X117861980Y-134458502D01*
X117972294Y-134399537D01*
X118068985Y-134320185D01*
X118148337Y-134223494D01*
X118174492Y-134174563D01*
X118328352Y-134300833D01*
X118542900Y-134415511D01*
X118775699Y-134486130D01*
X119017800Y-134509975D01*
X119259902Y-134486130D01*
X119492701Y-134415511D01*
X119707249Y-134300833D01*
X119895302Y-134146502D01*
X120017801Y-133997237D01*
X120140299Y-134146502D01*
X120328352Y-134300833D01*
X120542900Y-134415511D01*
X120775699Y-134486130D01*
X121017800Y-134509975D01*
X121259902Y-134486130D01*
X121492701Y-134415511D01*
X121707249Y-134300833D01*
X121895302Y-134146502D01*
X122049633Y-133958449D01*
X122164311Y-133743901D01*
X122234930Y-133511101D01*
X122252800Y-133329664D01*
X122252800Y-132608335D01*
X122234930Y-132426898D01*
X122226183Y-132398061D01*
X131665000Y-132398061D01*
X131665000Y-132601939D01*
X131704774Y-132801898D01*
X131782795Y-132990256D01*
X131896063Y-133159774D01*
X132040226Y-133303937D01*
X132209744Y-133417205D01*
X132398102Y-133495226D01*
X132598061Y-133535000D01*
X132801939Y-133535000D01*
X133001898Y-133495226D01*
X133190256Y-133417205D01*
X133359774Y-133303937D01*
X133503937Y-133159774D01*
X133603862Y-133010225D01*
X143189830Y-133010225D01*
X145000000Y-134820395D01*
X146810170Y-133010225D01*
X146570024Y-132622982D01*
X146076123Y-132362359D01*
X145540867Y-132203099D01*
X144984826Y-132151322D01*
X144429368Y-132209019D01*
X143895839Y-132373972D01*
X143429976Y-132622982D01*
X143189830Y-133010225D01*
X133603862Y-133010225D01*
X133617205Y-132990256D01*
X133695226Y-132801898D01*
X133735000Y-132601939D01*
X133735000Y-132398061D01*
X133695226Y-132198102D01*
X133617205Y-132009744D01*
X133503937Y-131840226D01*
X133359774Y-131696063D01*
X133190256Y-131582795D01*
X133001898Y-131504774D01*
X132801939Y-131465000D01*
X132598061Y-131465000D01*
X132398102Y-131504774D01*
X132209744Y-131582795D01*
X132040226Y-131696063D01*
X131896063Y-131840226D01*
X131782795Y-132009744D01*
X131704774Y-132198102D01*
X131665000Y-132398061D01*
X122226183Y-132398061D01*
X122164311Y-132194099D01*
X122049633Y-131979551D01*
X121895302Y-131791498D01*
X121707248Y-131637167D01*
X121492700Y-131522489D01*
X121259901Y-131451870D01*
X121017800Y-131428025D01*
X120775698Y-131451870D01*
X120542899Y-131522489D01*
X120328351Y-131637167D01*
X120140298Y-131791498D01*
X120017800Y-131940763D01*
X119895302Y-131791498D01*
X119707248Y-131637167D01*
X119492700Y-131522489D01*
X119259901Y-131451870D01*
X119017800Y-131428025D01*
X118775698Y-131451870D01*
X118542899Y-131522489D01*
X118328351Y-131637167D01*
X118174491Y-131763436D01*
X118148337Y-131714506D01*
X118068985Y-131617815D01*
X117972294Y-131538463D01*
X117861980Y-131479498D01*
X117742282Y-131443188D01*
X117617800Y-131430928D01*
X117303550Y-131434000D01*
X117144800Y-131592750D01*
X116890800Y-131592750D01*
X116732050Y-131434000D01*
X116417800Y-131430928D01*
X116293318Y-131443188D01*
X116173620Y-131479498D01*
X116063306Y-131538463D01*
X115966615Y-131617815D01*
X115887263Y-131714506D01*
X115828298Y-131824820D01*
X115791988Y-131944518D01*
X115779728Y-132069000D01*
X111632645Y-132069000D01*
X111584833Y-131979551D01*
X111430502Y-131791498D01*
X111242448Y-131637167D01*
X111027900Y-131522489D01*
X110795101Y-131451870D01*
X110553000Y-131428025D01*
X110310898Y-131451870D01*
X110078099Y-131522489D01*
X109863551Y-131637167D01*
X109675498Y-131791498D01*
X109553000Y-131940763D01*
X109430502Y-131791498D01*
X109242448Y-131637167D01*
X109027900Y-131522489D01*
X108795101Y-131451870D01*
X108553000Y-131428025D01*
X108310898Y-131451870D01*
X108078099Y-131522489D01*
X107863551Y-131637167D01*
X107709691Y-131763436D01*
X107683537Y-131714506D01*
X107604185Y-131617815D01*
X107507494Y-131538463D01*
X107397180Y-131479498D01*
X107277482Y-131443188D01*
X107153000Y-131430928D01*
X106838750Y-131434000D01*
X106680000Y-131592750D01*
X106426000Y-131592750D01*
X106267250Y-131434000D01*
X105953000Y-131430928D01*
X105828518Y-131443188D01*
X105708820Y-131479498D01*
X105598506Y-131538463D01*
X105501815Y-131617815D01*
X105422463Y-131714506D01*
X105363498Y-131824820D01*
X105327188Y-131944518D01*
X105314928Y-132069000D01*
X100964645Y-132069000D01*
X100916833Y-131979551D01*
X100762502Y-131791498D01*
X100574448Y-131637167D01*
X100359900Y-131522489D01*
X100127101Y-131451870D01*
X99885000Y-131428025D01*
X99642898Y-131451870D01*
X99410099Y-131522489D01*
X99195551Y-131637167D01*
X99007498Y-131791498D01*
X98885000Y-131940763D01*
X98762502Y-131791498D01*
X98574448Y-131637167D01*
X98359900Y-131522489D01*
X98127101Y-131451870D01*
X97885000Y-131428025D01*
X97642898Y-131451870D01*
X97410099Y-131522489D01*
X97195551Y-131637167D01*
X97041691Y-131763436D01*
X97015537Y-131714506D01*
X96936185Y-131617815D01*
X96839494Y-131538463D01*
X96729180Y-131479498D01*
X96609482Y-131443188D01*
X96485000Y-131430928D01*
X96170750Y-131434000D01*
X96012000Y-131592750D01*
X95758000Y-131592750D01*
X95599250Y-131434000D01*
X95285000Y-131430928D01*
X95160518Y-131443188D01*
X95040820Y-131479498D01*
X94930506Y-131538463D01*
X94833815Y-131617815D01*
X94754463Y-131714506D01*
X94695498Y-131824820D01*
X94659188Y-131944518D01*
X94646928Y-132069000D01*
X73660000Y-132069000D01*
X73660000Y-124600000D01*
X75761928Y-124600000D01*
X75774188Y-124724482D01*
X75810498Y-124844180D01*
X75869463Y-124954494D01*
X75948815Y-125051185D01*
X76045506Y-125130537D01*
X76155820Y-125189502D01*
X76275518Y-125225812D01*
X76400000Y-125238072D01*
X76964250Y-125235000D01*
X77123000Y-125076250D01*
X77123000Y-123877000D01*
X77377000Y-123877000D01*
X77377000Y-125076250D01*
X77535750Y-125235000D01*
X78100000Y-125238072D01*
X78224482Y-125225812D01*
X78344180Y-125189502D01*
X78454494Y-125130537D01*
X78551185Y-125051185D01*
X78630537Y-124954494D01*
X78689502Y-124844180D01*
X78725812Y-124724482D01*
X78738072Y-124600000D01*
X78736429Y-124298061D01*
X95265000Y-124298061D01*
X95265000Y-124501939D01*
X95304774Y-124701898D01*
X95382795Y-124890256D01*
X95496063Y-125059774D01*
X95640226Y-125203937D01*
X95809744Y-125317205D01*
X95998102Y-125395226D01*
X96198061Y-125435000D01*
X96401939Y-125435000D01*
X96601898Y-125395226D01*
X96790256Y-125317205D01*
X96959774Y-125203937D01*
X97103937Y-125059774D01*
X97217205Y-124890256D01*
X97295226Y-124701898D01*
X97335000Y-124501939D01*
X97335000Y-124398061D01*
X105965000Y-124398061D01*
X105965000Y-124601939D01*
X106004774Y-124801898D01*
X106082795Y-124990256D01*
X106196063Y-125159774D01*
X106340226Y-125303937D01*
X106509744Y-125417205D01*
X106698102Y-125495226D01*
X106898061Y-125535000D01*
X107101939Y-125535000D01*
X107301898Y-125495226D01*
X107490256Y-125417205D01*
X107659774Y-125303937D01*
X107803937Y-125159774D01*
X107917205Y-124990256D01*
X107995226Y-124801898D01*
X108035000Y-124601939D01*
X108035000Y-124398061D01*
X107995226Y-124198102D01*
X107995210Y-124198061D01*
X131065000Y-124198061D01*
X131065000Y-124401939D01*
X131104774Y-124601898D01*
X131182795Y-124790256D01*
X131296063Y-124959774D01*
X131440226Y-125103937D01*
X131609744Y-125217205D01*
X131798102Y-125295226D01*
X131998061Y-125335000D01*
X132201939Y-125335000D01*
X132401898Y-125295226D01*
X132590256Y-125217205D01*
X132759774Y-125103937D01*
X132903937Y-124959774D01*
X133017205Y-124790256D01*
X133095226Y-124601898D01*
X133135000Y-124401939D01*
X133135000Y-124198061D01*
X133095226Y-123998102D01*
X133017205Y-123809744D01*
X132903937Y-123640226D01*
X132759774Y-123496063D01*
X132590256Y-123382795D01*
X132401898Y-123304774D01*
X132201939Y-123265000D01*
X131998061Y-123265000D01*
X131798102Y-123304774D01*
X131609744Y-123382795D01*
X131440226Y-123496063D01*
X131296063Y-123640226D01*
X131182795Y-123809744D01*
X131104774Y-123998102D01*
X131065000Y-124198061D01*
X107995210Y-124198061D01*
X107917205Y-124009744D01*
X107803937Y-123840226D01*
X107659774Y-123696063D01*
X107490256Y-123582795D01*
X107301898Y-123504774D01*
X107101939Y-123465000D01*
X106898061Y-123465000D01*
X106698102Y-123504774D01*
X106509744Y-123582795D01*
X106340226Y-123696063D01*
X106196063Y-123840226D01*
X106082795Y-124009744D01*
X106004774Y-124198102D01*
X105965000Y-124398061D01*
X97335000Y-124398061D01*
X97335000Y-124298061D01*
X97295226Y-124098102D01*
X97217205Y-123909744D01*
X97103937Y-123740226D01*
X96959774Y-123596063D01*
X96790256Y-123482795D01*
X96601898Y-123404774D01*
X96401939Y-123365000D01*
X96198061Y-123365000D01*
X95998102Y-123404774D01*
X95809744Y-123482795D01*
X95640226Y-123596063D01*
X95496063Y-123740226D01*
X95382795Y-123909744D01*
X95304774Y-124098102D01*
X95265000Y-124298061D01*
X78736429Y-124298061D01*
X78735000Y-124035750D01*
X78576250Y-123877000D01*
X77377000Y-123877000D01*
X77123000Y-123877000D01*
X75923750Y-123877000D01*
X75765000Y-124035750D01*
X75761928Y-124600000D01*
X73660000Y-124600000D01*
X73660000Y-122900000D01*
X75761928Y-122900000D01*
X75765000Y-123464250D01*
X75923750Y-123623000D01*
X77123000Y-123623000D01*
X77123000Y-123603000D01*
X77377000Y-123603000D01*
X77377000Y-123623000D01*
X78576250Y-123623000D01*
X78735000Y-123464250D01*
X78738072Y-122900000D01*
X78725812Y-122775518D01*
X78689502Y-122655820D01*
X78630537Y-122545506D01*
X78551185Y-122448815D01*
X78454494Y-122369463D01*
X78344180Y-122310498D01*
X78271620Y-122288487D01*
X78403475Y-122156632D01*
X78565990Y-121913411D01*
X78677932Y-121643158D01*
X78735000Y-121356260D01*
X78735000Y-121063740D01*
X78733473Y-121056061D01*
X131807000Y-121056061D01*
X131807000Y-121259939D01*
X131846774Y-121459898D01*
X131924795Y-121648256D01*
X132038063Y-121817774D01*
X132182226Y-121961937D01*
X132351744Y-122075205D01*
X132540102Y-122153226D01*
X132740061Y-122193000D01*
X132943939Y-122193000D01*
X133143898Y-122153226D01*
X133332256Y-122075205D01*
X133501774Y-121961937D01*
X133645937Y-121817774D01*
X133759205Y-121648256D01*
X133837226Y-121459898D01*
X133877000Y-121259939D01*
X133877000Y-121056061D01*
X133837226Y-120856102D01*
X133759205Y-120667744D01*
X133645937Y-120498226D01*
X133501774Y-120354063D01*
X133332256Y-120240795D01*
X133143898Y-120162774D01*
X132943939Y-120123000D01*
X132740061Y-120123000D01*
X132540102Y-120162774D01*
X132351744Y-120240795D01*
X132182226Y-120354063D01*
X132038063Y-120498226D01*
X131924795Y-120667744D01*
X131846774Y-120856102D01*
X131807000Y-121056061D01*
X78733473Y-121056061D01*
X78677932Y-120776842D01*
X78565990Y-120506589D01*
X78403475Y-120263368D01*
X78196632Y-120056525D01*
X78022240Y-119940000D01*
X78196632Y-119823475D01*
X78403475Y-119616632D01*
X78565990Y-119373411D01*
X78677932Y-119103158D01*
X78735000Y-118816260D01*
X78735000Y-118598061D01*
X112965000Y-118598061D01*
X112965000Y-118801939D01*
X113004774Y-119001898D01*
X113082795Y-119190256D01*
X113196063Y-119359774D01*
X113340226Y-119503937D01*
X113509744Y-119617205D01*
X113698102Y-119695226D01*
X113898061Y-119735000D01*
X114101939Y-119735000D01*
X114301898Y-119695226D01*
X114490256Y-119617205D01*
X114659774Y-119503937D01*
X114803937Y-119359774D01*
X114917205Y-119190256D01*
X114995226Y-119001898D01*
X115035000Y-118801939D01*
X115035000Y-118598061D01*
X114995226Y-118398102D01*
X114917205Y-118209744D01*
X114803937Y-118040226D01*
X114659774Y-117896063D01*
X114490256Y-117782795D01*
X114301898Y-117704774D01*
X114101939Y-117665000D01*
X113898061Y-117665000D01*
X113698102Y-117704774D01*
X113509744Y-117782795D01*
X113340226Y-117896063D01*
X113196063Y-118040226D01*
X113082795Y-118209744D01*
X113004774Y-118398102D01*
X112965000Y-118598061D01*
X78735000Y-118598061D01*
X78735000Y-118523740D01*
X78677932Y-118236842D01*
X78565990Y-117966589D01*
X78403475Y-117723368D01*
X78196632Y-117516525D01*
X78022240Y-117400000D01*
X78196632Y-117283475D01*
X78403475Y-117076632D01*
X78565990Y-116833411D01*
X78677932Y-116563158D01*
X78735000Y-116276260D01*
X78735000Y-115983740D01*
X78717958Y-115898061D01*
X100715000Y-115898061D01*
X100715000Y-116101939D01*
X100754774Y-116301898D01*
X100832795Y-116490256D01*
X100946063Y-116659774D01*
X101090226Y-116803937D01*
X101259744Y-116917205D01*
X101448102Y-116995226D01*
X101648061Y-117035000D01*
X101851939Y-117035000D01*
X102051898Y-116995226D01*
X102240256Y-116917205D01*
X102409774Y-116803937D01*
X102415650Y-116798061D01*
X129665000Y-116798061D01*
X129665000Y-117001939D01*
X129704774Y-117201898D01*
X129782795Y-117390256D01*
X129896063Y-117559774D01*
X130040226Y-117703937D01*
X130209744Y-117817205D01*
X130398102Y-117895226D01*
X130598061Y-117935000D01*
X130801939Y-117935000D01*
X131001898Y-117895226D01*
X131190256Y-117817205D01*
X131359774Y-117703937D01*
X131503937Y-117559774D01*
X131617205Y-117390256D01*
X131695226Y-117201898D01*
X131735000Y-117001939D01*
X131735000Y-116798061D01*
X131695226Y-116598102D01*
X131617205Y-116409744D01*
X131503937Y-116240226D01*
X131359774Y-116096063D01*
X131190256Y-115982795D01*
X131001898Y-115904774D01*
X130801939Y-115865000D01*
X130598061Y-115865000D01*
X130398102Y-115904774D01*
X130209744Y-115982795D01*
X130040226Y-116096063D01*
X129896063Y-116240226D01*
X129782795Y-116409744D01*
X129704774Y-116598102D01*
X129665000Y-116798061D01*
X102415650Y-116798061D01*
X102553937Y-116659774D01*
X102667205Y-116490256D01*
X102745226Y-116301898D01*
X102785000Y-116101939D01*
X102785000Y-115898061D01*
X102745226Y-115698102D01*
X102667205Y-115509744D01*
X102553937Y-115340226D01*
X102409774Y-115196063D01*
X102240256Y-115082795D01*
X102051898Y-115004774D01*
X101851939Y-114965000D01*
X101648061Y-114965000D01*
X101448102Y-115004774D01*
X101259744Y-115082795D01*
X101090226Y-115196063D01*
X100946063Y-115340226D01*
X100832795Y-115509744D01*
X100754774Y-115698102D01*
X100715000Y-115898061D01*
X78717958Y-115898061D01*
X78677932Y-115696842D01*
X78565990Y-115426589D01*
X78403475Y-115183368D01*
X78196632Y-114976525D01*
X77953411Y-114814010D01*
X77683158Y-114702068D01*
X77396260Y-114645000D01*
X77103740Y-114645000D01*
X76816842Y-114702068D01*
X76546589Y-114814010D01*
X76303368Y-114976525D01*
X76096525Y-115183368D01*
X75934010Y-115426589D01*
X75822068Y-115696842D01*
X75765000Y-115983740D01*
X75765000Y-116276260D01*
X75822068Y-116563158D01*
X75934010Y-116833411D01*
X76096525Y-117076632D01*
X76303368Y-117283475D01*
X76477760Y-117400000D01*
X76303368Y-117516525D01*
X76096525Y-117723368D01*
X75934010Y-117966589D01*
X75822068Y-118236842D01*
X75765000Y-118523740D01*
X75765000Y-118816260D01*
X75822068Y-119103158D01*
X75934010Y-119373411D01*
X76096525Y-119616632D01*
X76303368Y-119823475D01*
X76477760Y-119940000D01*
X76303368Y-120056525D01*
X76096525Y-120263368D01*
X75934010Y-120506589D01*
X75822068Y-120776842D01*
X75765000Y-121063740D01*
X75765000Y-121356260D01*
X75822068Y-121643158D01*
X75934010Y-121913411D01*
X76096525Y-122156632D01*
X76228380Y-122288487D01*
X76155820Y-122310498D01*
X76045506Y-122369463D01*
X75948815Y-122448815D01*
X75869463Y-122545506D01*
X75810498Y-122655820D01*
X75774188Y-122775518D01*
X75761928Y-122900000D01*
X73660000Y-122900000D01*
X73660000Y-112898061D01*
X92465000Y-112898061D01*
X92465000Y-113101939D01*
X92504774Y-113301898D01*
X92582795Y-113490256D01*
X92696063Y-113659774D01*
X92840226Y-113803937D01*
X93009744Y-113917205D01*
X93198102Y-113995226D01*
X93398061Y-114035000D01*
X93601939Y-114035000D01*
X93801898Y-113995226D01*
X93990256Y-113917205D01*
X94159774Y-113803937D01*
X94303937Y-113659774D01*
X94417205Y-113490256D01*
X94495226Y-113301898D01*
X94535000Y-113101939D01*
X94535000Y-112898061D01*
X96865000Y-112898061D01*
X96865000Y-113101939D01*
X96904774Y-113301898D01*
X96982795Y-113490256D01*
X97096063Y-113659774D01*
X97240226Y-113803937D01*
X97409744Y-113917205D01*
X97598102Y-113995226D01*
X97798061Y-114035000D01*
X98001939Y-114035000D01*
X98201898Y-113995226D01*
X98325420Y-113944061D01*
X132823000Y-113944061D01*
X132823000Y-114147939D01*
X132862774Y-114347898D01*
X132940795Y-114536256D01*
X133054063Y-114705774D01*
X133198226Y-114849937D01*
X133367744Y-114963205D01*
X133556102Y-115041226D01*
X133756061Y-115081000D01*
X133959939Y-115081000D01*
X134159898Y-115041226D01*
X134348256Y-114963205D01*
X134517774Y-114849937D01*
X134661937Y-114705774D01*
X134775205Y-114536256D01*
X134853226Y-114347898D01*
X134893000Y-114147939D01*
X134893000Y-113944061D01*
X134853226Y-113744102D01*
X134775205Y-113555744D01*
X134661937Y-113386226D01*
X134517774Y-113242063D01*
X134348256Y-113128795D01*
X134159898Y-113050774D01*
X133959939Y-113011000D01*
X133756061Y-113011000D01*
X133556102Y-113050774D01*
X133367744Y-113128795D01*
X133198226Y-113242063D01*
X133054063Y-113386226D01*
X132940795Y-113555744D01*
X132862774Y-113744102D01*
X132823000Y-113944061D01*
X98325420Y-113944061D01*
X98390256Y-113917205D01*
X98559774Y-113803937D01*
X98703937Y-113659774D01*
X98817205Y-113490256D01*
X98895226Y-113301898D01*
X98935000Y-113101939D01*
X98935000Y-112898061D01*
X98895226Y-112698102D01*
X98853788Y-112598061D01*
X100065000Y-112598061D01*
X100065000Y-112801939D01*
X100104774Y-113001898D01*
X100182795Y-113190256D01*
X100296063Y-113359774D01*
X100440226Y-113503937D01*
X100609744Y-113617205D01*
X100798102Y-113695226D01*
X100998061Y-113735000D01*
X101201939Y-113735000D01*
X101401898Y-113695226D01*
X101590256Y-113617205D01*
X101759774Y-113503937D01*
X101903937Y-113359774D01*
X102017205Y-113190256D01*
X102095226Y-113001898D01*
X102135000Y-112801939D01*
X102135000Y-112598061D01*
X102095226Y-112398102D01*
X102017205Y-112209744D01*
X101903937Y-112040226D01*
X101825854Y-111962143D01*
X101949878Y-111986813D01*
X102153756Y-111986813D01*
X102292624Y-111959191D01*
X102265000Y-112098067D01*
X102265000Y-112301945D01*
X102304774Y-112501904D01*
X102382795Y-112690262D01*
X102496063Y-112859780D01*
X102640226Y-113003943D01*
X102809744Y-113117211D01*
X102998102Y-113195232D01*
X103198061Y-113235006D01*
X103401939Y-113235006D01*
X103601898Y-113195232D01*
X103790256Y-113117211D01*
X103959774Y-113003943D01*
X104103937Y-112859780D01*
X104217205Y-112690262D01*
X104262743Y-112580322D01*
X110078600Y-112580322D01*
X110078600Y-112784200D01*
X110118374Y-112984159D01*
X110196395Y-113172517D01*
X110309663Y-113342035D01*
X110453826Y-113486198D01*
X110623344Y-113599466D01*
X110811702Y-113677487D01*
X111011661Y-113717261D01*
X111215539Y-113717261D01*
X111415498Y-113677487D01*
X111603856Y-113599466D01*
X111773374Y-113486198D01*
X111917537Y-113342035D01*
X112030805Y-113172517D01*
X112108826Y-112984159D01*
X112148600Y-112784200D01*
X112148600Y-112674061D01*
X116821000Y-112674061D01*
X116821000Y-112877939D01*
X116860774Y-113077898D01*
X116938795Y-113266256D01*
X117052063Y-113435774D01*
X117196226Y-113579937D01*
X117365744Y-113693205D01*
X117554102Y-113771226D01*
X117754061Y-113811000D01*
X117957939Y-113811000D01*
X118157898Y-113771226D01*
X118346256Y-113693205D01*
X118515774Y-113579937D01*
X118659937Y-113435774D01*
X118773205Y-113266256D01*
X118851226Y-113077898D01*
X118891000Y-112877939D01*
X118891000Y-112674061D01*
X118851226Y-112474102D01*
X118773205Y-112285744D01*
X118659937Y-112116226D01*
X118515774Y-111972063D01*
X118346256Y-111858795D01*
X118157898Y-111780774D01*
X117957939Y-111741000D01*
X117754061Y-111741000D01*
X117554102Y-111780774D01*
X117365744Y-111858795D01*
X117196226Y-111972063D01*
X117052063Y-112116226D01*
X116938795Y-112285744D01*
X116860774Y-112474102D01*
X116821000Y-112674061D01*
X112148600Y-112674061D01*
X112148600Y-112580322D01*
X112108826Y-112380363D01*
X112030805Y-112192005D01*
X111917537Y-112022487D01*
X111773374Y-111878324D01*
X111603856Y-111765056D01*
X111415498Y-111687035D01*
X111215539Y-111647261D01*
X111011661Y-111647261D01*
X110811702Y-111687035D01*
X110623344Y-111765056D01*
X110453826Y-111878324D01*
X110309663Y-112022487D01*
X110196395Y-112192005D01*
X110118374Y-112380363D01*
X110078600Y-112580322D01*
X104262743Y-112580322D01*
X104295226Y-112501904D01*
X104335000Y-112301945D01*
X104335000Y-112098067D01*
X104295226Y-111898108D01*
X104217205Y-111709750D01*
X104103937Y-111540232D01*
X103959774Y-111396069D01*
X103790256Y-111282801D01*
X103601898Y-111204780D01*
X103401939Y-111165006D01*
X103198061Y-111165006D01*
X103059193Y-111192628D01*
X103086817Y-111053752D01*
X103086817Y-110849874D01*
X103047043Y-110649915D01*
X102969022Y-110461557D01*
X102855754Y-110292039D01*
X102711591Y-110147876D01*
X102542073Y-110034608D01*
X102353715Y-109956587D01*
X102153756Y-109916813D01*
X101949878Y-109916813D01*
X101749919Y-109956587D01*
X101561561Y-110034608D01*
X101392043Y-110147876D01*
X101247880Y-110292039D01*
X101134612Y-110461557D01*
X101056591Y-110649915D01*
X101016817Y-110849874D01*
X101016817Y-111053752D01*
X101056591Y-111253711D01*
X101134612Y-111442069D01*
X101247880Y-111611587D01*
X101325963Y-111689670D01*
X101201939Y-111665000D01*
X100998061Y-111665000D01*
X100798102Y-111704774D01*
X100609744Y-111782795D01*
X100440226Y-111896063D01*
X100296063Y-112040226D01*
X100182795Y-112209744D01*
X100104774Y-112398102D01*
X100065000Y-112598061D01*
X98853788Y-112598061D01*
X98817205Y-112509744D01*
X98703937Y-112340226D01*
X98559774Y-112196063D01*
X98390256Y-112082795D01*
X98201898Y-112004774D01*
X98001939Y-111965000D01*
X97798061Y-111965000D01*
X97598102Y-112004774D01*
X97409744Y-112082795D01*
X97240226Y-112196063D01*
X97096063Y-112340226D01*
X96982795Y-112509744D01*
X96904774Y-112698102D01*
X96865000Y-112898061D01*
X94535000Y-112898061D01*
X94495226Y-112698102D01*
X94417205Y-112509744D01*
X94303937Y-112340226D01*
X94159774Y-112196063D01*
X93990256Y-112082795D01*
X93801898Y-112004774D01*
X93601939Y-111965000D01*
X93398061Y-111965000D01*
X93198102Y-112004774D01*
X93009744Y-112082795D01*
X92840226Y-112196063D01*
X92696063Y-112340226D01*
X92582795Y-112509744D01*
X92504774Y-112698102D01*
X92465000Y-112898061D01*
X73660000Y-112898061D01*
X73660000Y-110150000D01*
X75761928Y-110150000D01*
X75761928Y-111850000D01*
X75774188Y-111974482D01*
X75810498Y-112094180D01*
X75869463Y-112204494D01*
X75948815Y-112301185D01*
X76045506Y-112380537D01*
X76155820Y-112439502D01*
X76275518Y-112475812D01*
X76400000Y-112488072D01*
X78100000Y-112488072D01*
X78224482Y-112475812D01*
X78344180Y-112439502D01*
X78454494Y-112380537D01*
X78551185Y-112301185D01*
X78630537Y-112204494D01*
X78689502Y-112094180D01*
X78725812Y-111974482D01*
X78738072Y-111850000D01*
X78738072Y-110150000D01*
X78725812Y-110025518D01*
X78689502Y-109905820D01*
X78630537Y-109795506D01*
X78551185Y-109698815D01*
X78454494Y-109619463D01*
X78344180Y-109560498D01*
X78271620Y-109538487D01*
X78403475Y-109406632D01*
X78565990Y-109163411D01*
X78652982Y-108953392D01*
X104770331Y-108953392D01*
X104770331Y-109157270D01*
X104810105Y-109357229D01*
X104888126Y-109545587D01*
X105001394Y-109715105D01*
X105145557Y-109859268D01*
X105315075Y-109972536D01*
X105503433Y-110050557D01*
X105703392Y-110090331D01*
X105907270Y-110090331D01*
X106107229Y-110050557D01*
X106295587Y-109972536D01*
X106433985Y-109880061D01*
X113265000Y-109880061D01*
X113265000Y-110083939D01*
X113304774Y-110283898D01*
X113382795Y-110472256D01*
X113496063Y-110641774D01*
X113640226Y-110785937D01*
X113809744Y-110899205D01*
X113998102Y-110977226D01*
X114198061Y-111017000D01*
X114401939Y-111017000D01*
X114601898Y-110977226D01*
X114790256Y-110899205D01*
X114959774Y-110785937D01*
X115103937Y-110641774D01*
X115217205Y-110472256D01*
X115252079Y-110388061D01*
X124949000Y-110388061D01*
X124949000Y-110591939D01*
X124988774Y-110791898D01*
X125066795Y-110980256D01*
X125180063Y-111149774D01*
X125324226Y-111293937D01*
X125493744Y-111407205D01*
X125682102Y-111485226D01*
X125882061Y-111525000D01*
X126085939Y-111525000D01*
X126285898Y-111485226D01*
X126474256Y-111407205D01*
X126643774Y-111293937D01*
X126787937Y-111149774D01*
X126901205Y-110980256D01*
X126979226Y-110791898D01*
X127019000Y-110591939D01*
X127019000Y-110388061D01*
X126979226Y-110188102D01*
X126901205Y-109999744D01*
X126787937Y-109830226D01*
X126643774Y-109686063D01*
X126474256Y-109572795D01*
X126285898Y-109494774D01*
X126085939Y-109455000D01*
X125882061Y-109455000D01*
X125682102Y-109494774D01*
X125493744Y-109572795D01*
X125324226Y-109686063D01*
X125180063Y-109830226D01*
X125066795Y-109999744D01*
X124988774Y-110188102D01*
X124949000Y-110388061D01*
X115252079Y-110388061D01*
X115295226Y-110283898D01*
X115335000Y-110083939D01*
X115335000Y-109880061D01*
X115295226Y-109680102D01*
X115217205Y-109491744D01*
X115103937Y-109322226D01*
X114959774Y-109178063D01*
X114790256Y-109064795D01*
X114601898Y-108986774D01*
X114401939Y-108947000D01*
X114198061Y-108947000D01*
X113998102Y-108986774D01*
X113809744Y-109064795D01*
X113640226Y-109178063D01*
X113496063Y-109322226D01*
X113382795Y-109491744D01*
X113304774Y-109680102D01*
X113265000Y-109880061D01*
X106433985Y-109880061D01*
X106465105Y-109859268D01*
X106609268Y-109715105D01*
X106722536Y-109545587D01*
X106800557Y-109357229D01*
X106840331Y-109157270D01*
X106840331Y-109076365D01*
X106896063Y-109159774D01*
X107040226Y-109303937D01*
X107209744Y-109417205D01*
X107398102Y-109495226D01*
X107598061Y-109535000D01*
X107801939Y-109535000D01*
X108001898Y-109495226D01*
X108190256Y-109417205D01*
X108359774Y-109303937D01*
X108503937Y-109159774D01*
X108617205Y-108990256D01*
X108695226Y-108801898D01*
X108733384Y-108610061D01*
X110217000Y-108610061D01*
X110217000Y-108813939D01*
X110256774Y-109013898D01*
X110334795Y-109202256D01*
X110448063Y-109371774D01*
X110592226Y-109515937D01*
X110761744Y-109629205D01*
X110950102Y-109707226D01*
X111150061Y-109747000D01*
X111353939Y-109747000D01*
X111553898Y-109707226D01*
X111742256Y-109629205D01*
X111911774Y-109515937D01*
X112055937Y-109371774D01*
X112169205Y-109202256D01*
X112247226Y-109013898D01*
X112287000Y-108813939D01*
X112287000Y-108610061D01*
X112247226Y-108410102D01*
X112169205Y-108221744D01*
X112055937Y-108052226D01*
X111911774Y-107908063D01*
X111742256Y-107794795D01*
X111553898Y-107716774D01*
X111353939Y-107677000D01*
X111150061Y-107677000D01*
X110950102Y-107716774D01*
X110761744Y-107794795D01*
X110592226Y-107908063D01*
X110448063Y-108052226D01*
X110334795Y-108221744D01*
X110256774Y-108410102D01*
X110217000Y-108610061D01*
X108733384Y-108610061D01*
X108735000Y-108601939D01*
X108735000Y-108398061D01*
X108695226Y-108198102D01*
X108617205Y-108009744D01*
X108503937Y-107840226D01*
X108359774Y-107696063D01*
X108190256Y-107582795D01*
X108001898Y-107504774D01*
X107801939Y-107465000D01*
X107598061Y-107465000D01*
X107398102Y-107504774D01*
X107209744Y-107582795D01*
X107040226Y-107696063D01*
X106896063Y-107840226D01*
X106782795Y-108009744D01*
X106704774Y-108198102D01*
X106665000Y-108398061D01*
X106665000Y-108478966D01*
X106609268Y-108395557D01*
X106465105Y-108251394D01*
X106295587Y-108138126D01*
X106107229Y-108060105D01*
X105907270Y-108020331D01*
X105703392Y-108020331D01*
X105503433Y-108060105D01*
X105315075Y-108138126D01*
X105145557Y-108251394D01*
X105001394Y-108395557D01*
X104888126Y-108565075D01*
X104810105Y-108753433D01*
X104770331Y-108953392D01*
X78652982Y-108953392D01*
X78677932Y-108893158D01*
X78735000Y-108606260D01*
X78735000Y-108313740D01*
X78677932Y-108026842D01*
X78565990Y-107756589D01*
X78403475Y-107513368D01*
X78196632Y-107306525D01*
X78022240Y-107190000D01*
X78196632Y-107073475D01*
X78403475Y-106866632D01*
X78565990Y-106623411D01*
X78677932Y-106353158D01*
X78735000Y-106066260D01*
X78735000Y-105773740D01*
X78677932Y-105486842D01*
X78565990Y-105216589D01*
X78520202Y-105148061D01*
X104965000Y-105148061D01*
X104965000Y-105351939D01*
X105004774Y-105551898D01*
X105082795Y-105740256D01*
X105189419Y-105899830D01*
X105182795Y-105909744D01*
X105104774Y-106098102D01*
X105065000Y-106298061D01*
X105065000Y-106501939D01*
X105104774Y-106701898D01*
X105182795Y-106890256D01*
X105296063Y-107059774D01*
X105440226Y-107203937D01*
X105609744Y-107317205D01*
X105798102Y-107395226D01*
X105998061Y-107435000D01*
X106201939Y-107435000D01*
X106401898Y-107395226D01*
X106590256Y-107317205D01*
X106759774Y-107203937D01*
X106792050Y-107171661D01*
X113787414Y-107171661D01*
X113787414Y-107375539D01*
X113827188Y-107575498D01*
X113905209Y-107763856D01*
X114018477Y-107933374D01*
X114162640Y-108077537D01*
X114332158Y-108190805D01*
X114520516Y-108268826D01*
X114720475Y-108308600D01*
X114924353Y-108308600D01*
X115124312Y-108268826D01*
X115312670Y-108190805D01*
X115482188Y-108077537D01*
X115626351Y-107933374D01*
X115739619Y-107763856D01*
X115817640Y-107575498D01*
X115857414Y-107375539D01*
X115857414Y-107171661D01*
X115817640Y-106971702D01*
X115739619Y-106783344D01*
X115626351Y-106613826D01*
X115590586Y-106578061D01*
X132569000Y-106578061D01*
X132569000Y-106781939D01*
X132608774Y-106981898D01*
X132686795Y-107170256D01*
X132800063Y-107339774D01*
X132944226Y-107483937D01*
X133113744Y-107597205D01*
X133302102Y-107675226D01*
X133502061Y-107715000D01*
X133705939Y-107715000D01*
X133905898Y-107675226D01*
X134094256Y-107597205D01*
X134263774Y-107483937D01*
X134407937Y-107339774D01*
X134521205Y-107170256D01*
X134599226Y-106981898D01*
X134639000Y-106781939D01*
X134639000Y-106578061D01*
X134599226Y-106378102D01*
X134521205Y-106189744D01*
X134407937Y-106020226D01*
X134263774Y-105876063D01*
X134094256Y-105762795D01*
X133905898Y-105684774D01*
X133705939Y-105645000D01*
X133502061Y-105645000D01*
X133302102Y-105684774D01*
X133113744Y-105762795D01*
X132944226Y-105876063D01*
X132800063Y-106020226D01*
X132686795Y-106189744D01*
X132608774Y-106378102D01*
X132569000Y-106578061D01*
X115590586Y-106578061D01*
X115482188Y-106469663D01*
X115312670Y-106356395D01*
X115124312Y-106278374D01*
X114924353Y-106238600D01*
X114720475Y-106238600D01*
X114520516Y-106278374D01*
X114332158Y-106356395D01*
X114162640Y-106469663D01*
X114018477Y-106613826D01*
X113905209Y-106783344D01*
X113827188Y-106971702D01*
X113787414Y-107171661D01*
X106792050Y-107171661D01*
X106903937Y-107059774D01*
X107017205Y-106890256D01*
X107095226Y-106701898D01*
X107135000Y-106501939D01*
X107135000Y-106298061D01*
X107095226Y-106098102D01*
X107017205Y-105909744D01*
X106954608Y-105816061D01*
X107423000Y-105816061D01*
X107423000Y-106019939D01*
X107462774Y-106219898D01*
X107540795Y-106408256D01*
X107654063Y-106577774D01*
X107798226Y-106721937D01*
X107967744Y-106835205D01*
X108156102Y-106913226D01*
X108356061Y-106953000D01*
X108559939Y-106953000D01*
X108759898Y-106913226D01*
X108948256Y-106835205D01*
X109117774Y-106721937D01*
X109261937Y-106577774D01*
X109375205Y-106408256D01*
X109453226Y-106219898D01*
X109493000Y-106019939D01*
X109493000Y-105816061D01*
X109453226Y-105616102D01*
X109375205Y-105427744D01*
X109261937Y-105258226D01*
X109117774Y-105114063D01*
X108948256Y-105000795D01*
X108759898Y-104922774D01*
X108559939Y-104883000D01*
X108356061Y-104883000D01*
X108156102Y-104922774D01*
X107967744Y-105000795D01*
X107798226Y-105114063D01*
X107654063Y-105258226D01*
X107540795Y-105427744D01*
X107462774Y-105616102D01*
X107423000Y-105816061D01*
X106954608Y-105816061D01*
X106910581Y-105750170D01*
X106917205Y-105740256D01*
X106995226Y-105551898D01*
X107035000Y-105351939D01*
X107035000Y-105148061D01*
X106995226Y-104948102D01*
X106917205Y-104759744D01*
X106803937Y-104590226D01*
X106659774Y-104446063D01*
X106490256Y-104332795D01*
X106301898Y-104254774D01*
X106101939Y-104215000D01*
X105898061Y-104215000D01*
X105698102Y-104254774D01*
X105509744Y-104332795D01*
X105340226Y-104446063D01*
X105196063Y-104590226D01*
X105082795Y-104759744D01*
X105004774Y-104948102D01*
X104965000Y-105148061D01*
X78520202Y-105148061D01*
X78403475Y-104973368D01*
X78196632Y-104766525D01*
X78022240Y-104650000D01*
X78196632Y-104533475D01*
X78403475Y-104326632D01*
X78565990Y-104083411D01*
X78677932Y-103813158D01*
X78735000Y-103526260D01*
X78735000Y-103498061D01*
X89365000Y-103498061D01*
X89365000Y-103701939D01*
X89404774Y-103901898D01*
X89482795Y-104090256D01*
X89596063Y-104259774D01*
X89740226Y-104403937D01*
X89909744Y-104517205D01*
X90098102Y-104595226D01*
X90298061Y-104635000D01*
X90501939Y-104635000D01*
X90701898Y-104595226D01*
X90890256Y-104517205D01*
X91059774Y-104403937D01*
X91203937Y-104259774D01*
X91317205Y-104090256D01*
X91395226Y-103901898D01*
X91435000Y-103701939D01*
X91435000Y-103498061D01*
X91395226Y-103298102D01*
X91353785Y-103198053D01*
X96365000Y-103198053D01*
X96365000Y-103401931D01*
X96404774Y-103601890D01*
X96482795Y-103790248D01*
X96596063Y-103959766D01*
X96740226Y-104103929D01*
X96909744Y-104217197D01*
X97098102Y-104295218D01*
X97298061Y-104334992D01*
X97501939Y-104334992D01*
X97701898Y-104295218D01*
X97890256Y-104217197D01*
X97993725Y-104148061D01*
X114965000Y-104148061D01*
X114965000Y-104351939D01*
X115004774Y-104551898D01*
X115082795Y-104740256D01*
X115196063Y-104909774D01*
X115340226Y-105053937D01*
X115509744Y-105167205D01*
X115698102Y-105245226D01*
X115898061Y-105285000D01*
X116101939Y-105285000D01*
X116301898Y-105245226D01*
X116490256Y-105167205D01*
X116659774Y-105053937D01*
X116803937Y-104909774D01*
X116917205Y-104740256D01*
X116995226Y-104551898D01*
X117035000Y-104351939D01*
X117035000Y-104148061D01*
X116995226Y-103948102D01*
X116917205Y-103759744D01*
X116803937Y-103590226D01*
X116659774Y-103446063D01*
X116490256Y-103332795D01*
X116301898Y-103254774D01*
X116101939Y-103215000D01*
X115898061Y-103215000D01*
X115698102Y-103254774D01*
X115509744Y-103332795D01*
X115340226Y-103446063D01*
X115196063Y-103590226D01*
X115082795Y-103759744D01*
X115004774Y-103948102D01*
X114965000Y-104148061D01*
X97993725Y-104148061D01*
X98059774Y-104103929D01*
X98203937Y-103959766D01*
X98317205Y-103790248D01*
X98395226Y-103601890D01*
X98435000Y-103401931D01*
X98435000Y-103198053D01*
X98395226Y-102998094D01*
X98317205Y-102809736D01*
X98203937Y-102640218D01*
X98059774Y-102496055D01*
X97890256Y-102382787D01*
X97765167Y-102330973D01*
X103332088Y-102330973D01*
X103332088Y-102534851D01*
X103371862Y-102734810D01*
X103449883Y-102923168D01*
X103563151Y-103092686D01*
X103707314Y-103236849D01*
X103876832Y-103350117D01*
X104065190Y-103428138D01*
X104265149Y-103467912D01*
X104469027Y-103467912D01*
X104668986Y-103428138D01*
X104857344Y-103350117D01*
X105026862Y-103236849D01*
X105171025Y-103092686D01*
X105284293Y-102923168D01*
X105348540Y-102768061D01*
X120377000Y-102768061D01*
X120377000Y-102971939D01*
X120416774Y-103171898D01*
X120494795Y-103360256D01*
X120608063Y-103529774D01*
X120752226Y-103673937D01*
X120921744Y-103787205D01*
X121110102Y-103865226D01*
X121310061Y-103905000D01*
X121513939Y-103905000D01*
X121713898Y-103865226D01*
X121902256Y-103787205D01*
X122071774Y-103673937D01*
X122215937Y-103529774D01*
X122329205Y-103360256D01*
X122407226Y-103171898D01*
X122447000Y-102971939D01*
X122447000Y-102768061D01*
X122407226Y-102568102D01*
X122329205Y-102379744D01*
X122215937Y-102210226D01*
X122071774Y-102066063D01*
X121902256Y-101952795D01*
X121713898Y-101874774D01*
X121513939Y-101835000D01*
X121310061Y-101835000D01*
X121110102Y-101874774D01*
X120921744Y-101952795D01*
X120752226Y-102066063D01*
X120608063Y-102210226D01*
X120494795Y-102379744D01*
X120416774Y-102568102D01*
X120377000Y-102768061D01*
X105348540Y-102768061D01*
X105362314Y-102734810D01*
X105402088Y-102534851D01*
X105402088Y-102330973D01*
X105362314Y-102131014D01*
X105284293Y-101942656D01*
X105171025Y-101773138D01*
X105026862Y-101628975D01*
X104857344Y-101515707D01*
X104668986Y-101437686D01*
X104469027Y-101397912D01*
X104265149Y-101397912D01*
X104065190Y-101437686D01*
X103876832Y-101515707D01*
X103707314Y-101628975D01*
X103563151Y-101773138D01*
X103449883Y-101942656D01*
X103371862Y-102131014D01*
X103332088Y-102330973D01*
X97765167Y-102330973D01*
X97701898Y-102304766D01*
X97501939Y-102264992D01*
X97298061Y-102264992D01*
X97098102Y-102304766D01*
X96909744Y-102382787D01*
X96740226Y-102496055D01*
X96596063Y-102640218D01*
X96482795Y-102809736D01*
X96404774Y-102998094D01*
X96365000Y-103198053D01*
X91353785Y-103198053D01*
X91317205Y-103109744D01*
X91203937Y-102940226D01*
X91059774Y-102796063D01*
X90890256Y-102682795D01*
X90701898Y-102604774D01*
X90501939Y-102565000D01*
X90298061Y-102565000D01*
X90098102Y-102604774D01*
X89909744Y-102682795D01*
X89740226Y-102796063D01*
X89596063Y-102940226D01*
X89482795Y-103109744D01*
X89404774Y-103298102D01*
X89365000Y-103498061D01*
X78735000Y-103498061D01*
X78735000Y-103233740D01*
X78677932Y-102946842D01*
X78565990Y-102676589D01*
X78403475Y-102433368D01*
X78196632Y-102226525D01*
X78022240Y-102110000D01*
X78196632Y-101993475D01*
X78403475Y-101786632D01*
X78565990Y-101543411D01*
X78677932Y-101273158D01*
X78692869Y-101198061D01*
X111265000Y-101198061D01*
X111265000Y-101401939D01*
X111304774Y-101601898D01*
X111382795Y-101790256D01*
X111496063Y-101959774D01*
X111640226Y-102103937D01*
X111809744Y-102217205D01*
X111998102Y-102295226D01*
X112198061Y-102335000D01*
X112401939Y-102335000D01*
X112601898Y-102295226D01*
X112790256Y-102217205D01*
X112959774Y-102103937D01*
X113103937Y-101959774D01*
X113217205Y-101790256D01*
X113295226Y-101601898D01*
X113335000Y-101401939D01*
X113335000Y-101198061D01*
X113295226Y-100998102D01*
X113217205Y-100809744D01*
X113142582Y-100698061D01*
X131865000Y-100698061D01*
X131865000Y-100901939D01*
X131904774Y-101101898D01*
X131982795Y-101290256D01*
X132096063Y-101459774D01*
X132240226Y-101603937D01*
X132409744Y-101717205D01*
X132598102Y-101795226D01*
X132798061Y-101835000D01*
X133001939Y-101835000D01*
X133201898Y-101795226D01*
X133390256Y-101717205D01*
X133559774Y-101603937D01*
X133703937Y-101459774D01*
X133817205Y-101290256D01*
X133895226Y-101101898D01*
X133935000Y-100901939D01*
X133935000Y-100698061D01*
X133895226Y-100498102D01*
X133817205Y-100309744D01*
X133703937Y-100140226D01*
X133559774Y-99996063D01*
X133390256Y-99882795D01*
X133201898Y-99804774D01*
X133001939Y-99765000D01*
X132798061Y-99765000D01*
X132598102Y-99804774D01*
X132409744Y-99882795D01*
X132240226Y-99996063D01*
X132096063Y-100140226D01*
X131982795Y-100309744D01*
X131904774Y-100498102D01*
X131865000Y-100698061D01*
X113142582Y-100698061D01*
X113103937Y-100640226D01*
X112959774Y-100496063D01*
X112790256Y-100382795D01*
X112601898Y-100304774D01*
X112401939Y-100265000D01*
X112198061Y-100265000D01*
X111998102Y-100304774D01*
X111809744Y-100382795D01*
X111640226Y-100496063D01*
X111496063Y-100640226D01*
X111382795Y-100809744D01*
X111304774Y-100998102D01*
X111265000Y-101198061D01*
X78692869Y-101198061D01*
X78735000Y-100986260D01*
X78735000Y-100693740D01*
X78677932Y-100406842D01*
X78565990Y-100136589D01*
X78403475Y-99893368D01*
X78196632Y-99686525D01*
X78022240Y-99570000D01*
X78196632Y-99453475D01*
X78233216Y-99416891D01*
X84918519Y-99416891D01*
X85015843Y-99691252D01*
X85164822Y-99941355D01*
X85359731Y-100157588D01*
X85593080Y-100331641D01*
X85855901Y-100456825D01*
X86003110Y-100501476D01*
X86233000Y-100380155D01*
X86233000Y-99187000D01*
X85039186Y-99187000D01*
X84918519Y-99416891D01*
X78233216Y-99416891D01*
X78403475Y-99246632D01*
X78565990Y-99003411D01*
X78677932Y-98733158D01*
X78683909Y-98703109D01*
X84918519Y-98703109D01*
X85039186Y-98933000D01*
X86233000Y-98933000D01*
X86233000Y-97739845D01*
X86487000Y-97739845D01*
X86487000Y-98933000D01*
X86507000Y-98933000D01*
X86507000Y-99187000D01*
X86487000Y-99187000D01*
X86487000Y-100380155D01*
X86716890Y-100501476D01*
X86864099Y-100456825D01*
X87126920Y-100331641D01*
X87360269Y-100157588D01*
X87555178Y-99941355D01*
X87624805Y-99824466D01*
X87746525Y-100006632D01*
X87953368Y-100213475D01*
X88196589Y-100375990D01*
X88466842Y-100487932D01*
X88753740Y-100545000D01*
X89046260Y-100545000D01*
X89333158Y-100487932D01*
X89603411Y-100375990D01*
X89846632Y-100213475D01*
X89978487Y-100081620D01*
X90000498Y-100154180D01*
X90059463Y-100264494D01*
X90138815Y-100361185D01*
X90235506Y-100440537D01*
X90345820Y-100499502D01*
X90465518Y-100535812D01*
X90590000Y-100548072D01*
X92290000Y-100548072D01*
X92414482Y-100535812D01*
X92534180Y-100499502D01*
X92644494Y-100440537D01*
X92741185Y-100361185D01*
X92820537Y-100264494D01*
X92879502Y-100154180D01*
X92915812Y-100034482D01*
X92928072Y-99910000D01*
X92928072Y-98450061D01*
X104121000Y-98450061D01*
X104121000Y-98653939D01*
X104160774Y-98853898D01*
X104238795Y-99042256D01*
X104352063Y-99211774D01*
X104496226Y-99355937D01*
X104665744Y-99469205D01*
X104854102Y-99547226D01*
X105054061Y-99587000D01*
X105257939Y-99587000D01*
X105457898Y-99547226D01*
X105646256Y-99469205D01*
X105815774Y-99355937D01*
X105959937Y-99211774D01*
X106073205Y-99042256D01*
X106151226Y-98853898D01*
X106191000Y-98653939D01*
X106191000Y-98598061D01*
X123065000Y-98598061D01*
X123065000Y-98801939D01*
X123104774Y-99001898D01*
X123182795Y-99190256D01*
X123296063Y-99359774D01*
X123440226Y-99503937D01*
X123609744Y-99617205D01*
X123798102Y-99695226D01*
X123998061Y-99735000D01*
X124201939Y-99735000D01*
X124401898Y-99695226D01*
X124590256Y-99617205D01*
X124759774Y-99503937D01*
X124903937Y-99359774D01*
X125017205Y-99190256D01*
X125095226Y-99001898D01*
X125135000Y-98801939D01*
X125135000Y-98598061D01*
X125095226Y-98398102D01*
X125017205Y-98209744D01*
X124903937Y-98040226D01*
X124759774Y-97896063D01*
X124590256Y-97782795D01*
X124401898Y-97704774D01*
X124201939Y-97665000D01*
X123998061Y-97665000D01*
X123798102Y-97704774D01*
X123609744Y-97782795D01*
X123440226Y-97896063D01*
X123296063Y-98040226D01*
X123182795Y-98209744D01*
X123104774Y-98398102D01*
X123065000Y-98598061D01*
X106191000Y-98598061D01*
X106191000Y-98450061D01*
X106151226Y-98250102D01*
X106073205Y-98061744D01*
X105959937Y-97892226D01*
X105815774Y-97748063D01*
X105646256Y-97634795D01*
X105457898Y-97556774D01*
X105257939Y-97517000D01*
X105054061Y-97517000D01*
X104854102Y-97556774D01*
X104665744Y-97634795D01*
X104496226Y-97748063D01*
X104352063Y-97892226D01*
X104238795Y-98061744D01*
X104160774Y-98250102D01*
X104121000Y-98450061D01*
X92928072Y-98450061D01*
X92928072Y-98210000D01*
X92915812Y-98085518D01*
X92879502Y-97965820D01*
X92820537Y-97855506D01*
X92741185Y-97758815D01*
X92644494Y-97679463D01*
X92534180Y-97620498D01*
X92414482Y-97584188D01*
X92290000Y-97571928D01*
X90590000Y-97571928D01*
X90465518Y-97584188D01*
X90345820Y-97620498D01*
X90235506Y-97679463D01*
X90138815Y-97758815D01*
X90059463Y-97855506D01*
X90000498Y-97965820D01*
X89978487Y-98038380D01*
X89846632Y-97906525D01*
X89603411Y-97744010D01*
X89333158Y-97632068D01*
X89046260Y-97575000D01*
X88753740Y-97575000D01*
X88466842Y-97632068D01*
X88196589Y-97744010D01*
X87953368Y-97906525D01*
X87746525Y-98113368D01*
X87624805Y-98295534D01*
X87555178Y-98178645D01*
X87360269Y-97962412D01*
X87126920Y-97788359D01*
X86864099Y-97663175D01*
X86716890Y-97618524D01*
X86487000Y-97739845D01*
X86233000Y-97739845D01*
X86003110Y-97618524D01*
X85855901Y-97663175D01*
X85593080Y-97788359D01*
X85359731Y-97962412D01*
X85164822Y-98178645D01*
X85015843Y-98428748D01*
X84918519Y-98703109D01*
X78683909Y-98703109D01*
X78735000Y-98446260D01*
X78735000Y-98153740D01*
X78677932Y-97866842D01*
X78565990Y-97596589D01*
X78403475Y-97353368D01*
X78196632Y-97146525D01*
X78022240Y-97030000D01*
X78196632Y-96913475D01*
X78403475Y-96706632D01*
X78565990Y-96463411D01*
X78677932Y-96193158D01*
X78735000Y-95906260D01*
X78735000Y-95613740D01*
X78677932Y-95326842D01*
X78565990Y-95056589D01*
X78403475Y-94813368D01*
X78196632Y-94606525D01*
X78014466Y-94484805D01*
X78131355Y-94415178D01*
X78347588Y-94220269D01*
X78521641Y-93986920D01*
X78646825Y-93724099D01*
X78691476Y-93576890D01*
X78570155Y-93347000D01*
X77377000Y-93347000D01*
X77377000Y-93367000D01*
X77123000Y-93367000D01*
X77123000Y-93347000D01*
X75929845Y-93347000D01*
X75808524Y-93576890D01*
X75853175Y-93724099D01*
X75978359Y-93986920D01*
X76152412Y-94220269D01*
X76368645Y-94415178D01*
X76485534Y-94484805D01*
X76303368Y-94606525D01*
X76096525Y-94813368D01*
X75934010Y-95056589D01*
X75822068Y-95326842D01*
X75765000Y-95613740D01*
X75765000Y-95906260D01*
X75822068Y-96193158D01*
X75934010Y-96463411D01*
X76096525Y-96706632D01*
X76303368Y-96913475D01*
X76477760Y-97030000D01*
X76303368Y-97146525D01*
X76096525Y-97353368D01*
X75934010Y-97596589D01*
X75822068Y-97866842D01*
X75765000Y-98153740D01*
X75765000Y-98446260D01*
X75822068Y-98733158D01*
X75934010Y-99003411D01*
X76096525Y-99246632D01*
X76303368Y-99453475D01*
X76477760Y-99570000D01*
X76303368Y-99686525D01*
X76096525Y-99893368D01*
X75934010Y-100136589D01*
X75822068Y-100406842D01*
X75765000Y-100693740D01*
X75765000Y-100986260D01*
X75822068Y-101273158D01*
X75934010Y-101543411D01*
X76096525Y-101786632D01*
X76303368Y-101993475D01*
X76477760Y-102110000D01*
X76303368Y-102226525D01*
X76096525Y-102433368D01*
X75934010Y-102676589D01*
X75822068Y-102946842D01*
X75765000Y-103233740D01*
X75765000Y-103526260D01*
X75822068Y-103813158D01*
X75934010Y-104083411D01*
X76096525Y-104326632D01*
X76303368Y-104533475D01*
X76477760Y-104650000D01*
X76303368Y-104766525D01*
X76096525Y-104973368D01*
X75934010Y-105216589D01*
X75822068Y-105486842D01*
X75765000Y-105773740D01*
X75765000Y-106066260D01*
X75822068Y-106353158D01*
X75934010Y-106623411D01*
X76096525Y-106866632D01*
X76303368Y-107073475D01*
X76477760Y-107190000D01*
X76303368Y-107306525D01*
X76096525Y-107513368D01*
X75934010Y-107756589D01*
X75822068Y-108026842D01*
X75765000Y-108313740D01*
X75765000Y-108606260D01*
X75822068Y-108893158D01*
X75934010Y-109163411D01*
X76096525Y-109406632D01*
X76228380Y-109538487D01*
X76155820Y-109560498D01*
X76045506Y-109619463D01*
X75948815Y-109698815D01*
X75869463Y-109795506D01*
X75810498Y-109905820D01*
X75774188Y-110025518D01*
X75761928Y-110150000D01*
X73660000Y-110150000D01*
X73660000Y-91036890D01*
X75808524Y-91036890D01*
X75853175Y-91184099D01*
X75978359Y-91446920D01*
X76152412Y-91680269D01*
X76368645Y-91875178D01*
X76494255Y-91950000D01*
X76368645Y-92024822D01*
X76152412Y-92219731D01*
X75978359Y-92453080D01*
X75853175Y-92715901D01*
X75808524Y-92863110D01*
X75929845Y-93093000D01*
X77123000Y-93093000D01*
X77123000Y-90807000D01*
X77377000Y-90807000D01*
X77377000Y-93093000D01*
X78570155Y-93093000D01*
X78691476Y-92863110D01*
X78646825Y-92715901D01*
X78521641Y-92453080D01*
X78347588Y-92219731D01*
X78131355Y-92024822D01*
X78005745Y-91950000D01*
X78131355Y-91875178D01*
X78347588Y-91680269D01*
X78521641Y-91446920D01*
X78646825Y-91184099D01*
X78691476Y-91036890D01*
X78582326Y-90830061D01*
X102343004Y-90830061D01*
X102343004Y-91033939D01*
X102382778Y-91233898D01*
X102460799Y-91422256D01*
X102574067Y-91591774D01*
X102718230Y-91735937D01*
X102887748Y-91849205D01*
X103076106Y-91927226D01*
X103276065Y-91967000D01*
X103479943Y-91967000D01*
X103679902Y-91927226D01*
X103868260Y-91849205D01*
X104037778Y-91735937D01*
X104181941Y-91591774D01*
X104295209Y-91422256D01*
X104373230Y-91233898D01*
X104390303Y-91148061D01*
X104965000Y-91148061D01*
X104965000Y-91351939D01*
X105004774Y-91551898D01*
X105082795Y-91740256D01*
X105196063Y-91909774D01*
X105340226Y-92053937D01*
X105509744Y-92167205D01*
X105698102Y-92245226D01*
X105898061Y-92285000D01*
X106101939Y-92285000D01*
X106301898Y-92245226D01*
X106490256Y-92167205D01*
X106659774Y-92053937D01*
X106803937Y-91909774D01*
X106917205Y-91740256D01*
X106995226Y-91551898D01*
X107035000Y-91351939D01*
X107035000Y-91148061D01*
X106995226Y-90948102D01*
X106917205Y-90759744D01*
X106803937Y-90590226D01*
X106659774Y-90446063D01*
X106490256Y-90332795D01*
X106301898Y-90254774D01*
X106101939Y-90215000D01*
X105898061Y-90215000D01*
X105698102Y-90254774D01*
X105509744Y-90332795D01*
X105340226Y-90446063D01*
X105196063Y-90590226D01*
X105082795Y-90759744D01*
X105004774Y-90948102D01*
X104965000Y-91148061D01*
X104390303Y-91148061D01*
X104413004Y-91033939D01*
X104413004Y-90830061D01*
X104373230Y-90630102D01*
X104295209Y-90441744D01*
X104181941Y-90272226D01*
X104037778Y-90128063D01*
X103887818Y-90027863D01*
X104051898Y-89995226D01*
X104240256Y-89917205D01*
X104409774Y-89803937D01*
X104463711Y-89750000D01*
X143291928Y-89750000D01*
X143304188Y-89874482D01*
X143340498Y-89994180D01*
X143399463Y-90104494D01*
X143478815Y-90201185D01*
X143575506Y-90280537D01*
X143685820Y-90339502D01*
X143758380Y-90361513D01*
X143626525Y-90493368D01*
X143464010Y-90736589D01*
X143352068Y-91006842D01*
X143295000Y-91293740D01*
X143295000Y-91586260D01*
X143352068Y-91873158D01*
X143464010Y-92143411D01*
X143626525Y-92386632D01*
X143833368Y-92593475D01*
X144007760Y-92710000D01*
X143833368Y-92826525D01*
X143626525Y-93033368D01*
X143464010Y-93276589D01*
X143352068Y-93546842D01*
X143295000Y-93833740D01*
X143295000Y-94126260D01*
X143352068Y-94413158D01*
X143464010Y-94683411D01*
X143626525Y-94926632D01*
X143833368Y-95133475D01*
X144007760Y-95250000D01*
X143833368Y-95366525D01*
X143626525Y-95573368D01*
X143464010Y-95816589D01*
X143352068Y-96086842D01*
X143295000Y-96373740D01*
X143295000Y-96666260D01*
X143352068Y-96953158D01*
X143464010Y-97223411D01*
X143626525Y-97466632D01*
X143833368Y-97673475D01*
X144076589Y-97835990D01*
X144346842Y-97947932D01*
X144633740Y-98005000D01*
X144926260Y-98005000D01*
X145213158Y-97947932D01*
X145483411Y-97835990D01*
X145726632Y-97673475D01*
X145933475Y-97466632D01*
X146095990Y-97223411D01*
X146207932Y-96953158D01*
X146265000Y-96666260D01*
X146265000Y-96373740D01*
X146207932Y-96086842D01*
X146095990Y-95816589D01*
X145933475Y-95573368D01*
X145726632Y-95366525D01*
X145552240Y-95250000D01*
X145726632Y-95133475D01*
X145933475Y-94926632D01*
X146095990Y-94683411D01*
X146207932Y-94413158D01*
X146265000Y-94126260D01*
X146265000Y-93833740D01*
X146207932Y-93546842D01*
X146095990Y-93276589D01*
X145933475Y-93033368D01*
X145726632Y-92826525D01*
X145552240Y-92710000D01*
X145726632Y-92593475D01*
X145933475Y-92386632D01*
X146095990Y-92143411D01*
X146207932Y-91873158D01*
X146265000Y-91586260D01*
X146265000Y-91293740D01*
X146207932Y-91006842D01*
X146095990Y-90736589D01*
X145933475Y-90493368D01*
X145801620Y-90361513D01*
X145874180Y-90339502D01*
X145984494Y-90280537D01*
X146081185Y-90201185D01*
X146160537Y-90104494D01*
X146219502Y-89994180D01*
X146255812Y-89874482D01*
X146268072Y-89750000D01*
X146265000Y-89185750D01*
X146106250Y-89027000D01*
X144907000Y-89027000D01*
X144907000Y-89047000D01*
X144653000Y-89047000D01*
X144653000Y-89027000D01*
X143453750Y-89027000D01*
X143295000Y-89185750D01*
X143291928Y-89750000D01*
X104463711Y-89750000D01*
X104553937Y-89659774D01*
X104667205Y-89490256D01*
X104745226Y-89301898D01*
X104785000Y-89101939D01*
X104785000Y-88898061D01*
X104745226Y-88698102D01*
X104667205Y-88509744D01*
X104553937Y-88340226D01*
X104409774Y-88196063D01*
X104240256Y-88082795D01*
X104161083Y-88050000D01*
X143291928Y-88050000D01*
X143295000Y-88614250D01*
X143453750Y-88773000D01*
X144653000Y-88773000D01*
X144653000Y-87573750D01*
X144907000Y-87573750D01*
X144907000Y-88773000D01*
X146106250Y-88773000D01*
X146265000Y-88614250D01*
X146268072Y-88050000D01*
X146255812Y-87925518D01*
X146219502Y-87805820D01*
X146160537Y-87695506D01*
X146081185Y-87598815D01*
X145984494Y-87519463D01*
X145874180Y-87460498D01*
X145754482Y-87424188D01*
X145630000Y-87411928D01*
X145065750Y-87415000D01*
X144907000Y-87573750D01*
X144653000Y-87573750D01*
X144494250Y-87415000D01*
X143930000Y-87411928D01*
X143805518Y-87424188D01*
X143685820Y-87460498D01*
X143575506Y-87519463D01*
X143478815Y-87598815D01*
X143399463Y-87695506D01*
X143340498Y-87805820D01*
X143304188Y-87925518D01*
X143291928Y-88050000D01*
X104161083Y-88050000D01*
X104051898Y-88004774D01*
X103851939Y-87965000D01*
X103648061Y-87965000D01*
X103448102Y-88004774D01*
X103259744Y-88082795D01*
X103090226Y-88196063D01*
X102946063Y-88340226D01*
X102832795Y-88509744D01*
X102754774Y-88698102D01*
X102715000Y-88898061D01*
X102715000Y-89101939D01*
X102754774Y-89301898D01*
X102832795Y-89490256D01*
X102946063Y-89659774D01*
X103090226Y-89803937D01*
X103240186Y-89904137D01*
X103076106Y-89936774D01*
X102887748Y-90014795D01*
X102718230Y-90128063D01*
X102574067Y-90272226D01*
X102460799Y-90441744D01*
X102382778Y-90630102D01*
X102343004Y-90830061D01*
X78582326Y-90830061D01*
X78570155Y-90807000D01*
X77377000Y-90807000D01*
X77123000Y-90807000D01*
X75929845Y-90807000D01*
X75808524Y-91036890D01*
X73660000Y-91036890D01*
X73660000Y-85453740D01*
X75765000Y-85453740D01*
X75765000Y-85746260D01*
X75822068Y-86033158D01*
X75934010Y-86303411D01*
X76096525Y-86546632D01*
X76303368Y-86753475D01*
X76477760Y-86870000D01*
X76303368Y-86986525D01*
X76096525Y-87193368D01*
X75934010Y-87436589D01*
X75822068Y-87706842D01*
X75765000Y-87993740D01*
X75765000Y-88286260D01*
X75822068Y-88573158D01*
X75934010Y-88843411D01*
X76096525Y-89086632D01*
X76303368Y-89293475D01*
X76485534Y-89415195D01*
X76368645Y-89484822D01*
X76152412Y-89679731D01*
X75978359Y-89913080D01*
X75853175Y-90175901D01*
X75808524Y-90323110D01*
X75929845Y-90553000D01*
X77123000Y-90553000D01*
X77123000Y-90533000D01*
X77377000Y-90533000D01*
X77377000Y-90553000D01*
X78570155Y-90553000D01*
X78691476Y-90323110D01*
X78646825Y-90175901D01*
X78521641Y-89913080D01*
X78347588Y-89679731D01*
X78131355Y-89484822D01*
X78014466Y-89415195D01*
X78196632Y-89293475D01*
X78403475Y-89086632D01*
X78565990Y-88843411D01*
X78677932Y-88573158D01*
X78735000Y-88286260D01*
X78735000Y-87993740D01*
X78677932Y-87706842D01*
X78565990Y-87436589D01*
X78403475Y-87193368D01*
X78196632Y-86986525D01*
X78022240Y-86870000D01*
X78196632Y-86753475D01*
X78403475Y-86546632D01*
X78565990Y-86303411D01*
X78584774Y-86258061D01*
X80753000Y-86258061D01*
X80753000Y-86461939D01*
X80792774Y-86661898D01*
X80870795Y-86850256D01*
X80984063Y-87019774D01*
X81128226Y-87163937D01*
X81297744Y-87277205D01*
X81486102Y-87355226D01*
X81686061Y-87395000D01*
X81889939Y-87395000D01*
X82089898Y-87355226D01*
X82278256Y-87277205D01*
X82447774Y-87163937D01*
X82591937Y-87019774D01*
X82705205Y-86850256D01*
X82758438Y-86721740D01*
X83859000Y-86721740D01*
X83859000Y-87014260D01*
X83916068Y-87301158D01*
X84028010Y-87571411D01*
X84190525Y-87814632D01*
X84397368Y-88021475D01*
X84640589Y-88183990D01*
X84910842Y-88295932D01*
X85197740Y-88353000D01*
X85490260Y-88353000D01*
X85777158Y-88295932D01*
X86047411Y-88183990D01*
X86290632Y-88021475D01*
X86497475Y-87814632D01*
X86614000Y-87640240D01*
X86730525Y-87814632D01*
X86937368Y-88021475D01*
X87180589Y-88183990D01*
X87450842Y-88295932D01*
X87737740Y-88353000D01*
X88030260Y-88353000D01*
X88317158Y-88295932D01*
X88587411Y-88183990D01*
X88830632Y-88021475D01*
X89037475Y-87814632D01*
X89154000Y-87640240D01*
X89270525Y-87814632D01*
X89477368Y-88021475D01*
X89720589Y-88183990D01*
X89990842Y-88295932D01*
X90277740Y-88353000D01*
X90570260Y-88353000D01*
X90857158Y-88295932D01*
X91127411Y-88183990D01*
X91370632Y-88021475D01*
X91577475Y-87814632D01*
X91694000Y-87640240D01*
X91810525Y-87814632D01*
X92017368Y-88021475D01*
X92260589Y-88183990D01*
X92530842Y-88295932D01*
X92817740Y-88353000D01*
X93110260Y-88353000D01*
X93397158Y-88295932D01*
X93667411Y-88183990D01*
X93910632Y-88021475D01*
X94117475Y-87814632D01*
X94234000Y-87640240D01*
X94350525Y-87814632D01*
X94557368Y-88021475D01*
X94774039Y-88166250D01*
X94700063Y-88240226D01*
X94586795Y-88409744D01*
X94508774Y-88598102D01*
X94469000Y-88798061D01*
X94469000Y-89001939D01*
X94508774Y-89201898D01*
X94586795Y-89390256D01*
X94700063Y-89559774D01*
X94844226Y-89703937D01*
X95013744Y-89817205D01*
X95202102Y-89895226D01*
X95402061Y-89935000D01*
X95605939Y-89935000D01*
X95805898Y-89895226D01*
X95994256Y-89817205D01*
X96163774Y-89703937D01*
X96307937Y-89559774D01*
X96421205Y-89390256D01*
X96499226Y-89201898D01*
X96539000Y-89001939D01*
X96539000Y-88798061D01*
X96499226Y-88598102D01*
X96421205Y-88409744D01*
X96307937Y-88240226D01*
X96233961Y-88166250D01*
X96450632Y-88021475D01*
X96657475Y-87814632D01*
X96819990Y-87571411D01*
X96931932Y-87301158D01*
X96989000Y-87014260D01*
X96989000Y-86721740D01*
X96931932Y-86434842D01*
X96916697Y-86398061D01*
X114665000Y-86398061D01*
X114665000Y-86601939D01*
X114704774Y-86801898D01*
X114782795Y-86990256D01*
X114896063Y-87159774D01*
X115040226Y-87303937D01*
X115209744Y-87417205D01*
X115398102Y-87495226D01*
X115598061Y-87535000D01*
X115801939Y-87535000D01*
X116001898Y-87495226D01*
X116190256Y-87417205D01*
X116359774Y-87303937D01*
X116503937Y-87159774D01*
X116617205Y-86990256D01*
X116695226Y-86801898D01*
X116735000Y-86601939D01*
X116735000Y-86398061D01*
X116695226Y-86198102D01*
X116617205Y-86009744D01*
X116503937Y-85840226D01*
X116359774Y-85696063D01*
X116190256Y-85582795D01*
X116001898Y-85504774D01*
X115801939Y-85465000D01*
X115598061Y-85465000D01*
X115398102Y-85504774D01*
X115209744Y-85582795D01*
X115040226Y-85696063D01*
X114896063Y-85840226D01*
X114782795Y-86009744D01*
X114704774Y-86198102D01*
X114665000Y-86398061D01*
X96916697Y-86398061D01*
X96819990Y-86164589D01*
X96657475Y-85921368D01*
X96525620Y-85789513D01*
X96598180Y-85767502D01*
X96708494Y-85708537D01*
X96805185Y-85629185D01*
X96884537Y-85532494D01*
X96943502Y-85422180D01*
X96979812Y-85302482D01*
X96992072Y-85178000D01*
X96992072Y-83718061D01*
X119361000Y-83718061D01*
X119361000Y-83921939D01*
X119400774Y-84121898D01*
X119478795Y-84310256D01*
X119592063Y-84479774D01*
X119736226Y-84623937D01*
X119905744Y-84737205D01*
X120094102Y-84815226D01*
X120294061Y-84855000D01*
X120497939Y-84855000D01*
X120697898Y-84815226D01*
X120886256Y-84737205D01*
X121055774Y-84623937D01*
X121199937Y-84479774D01*
X121313205Y-84310256D01*
X121391226Y-84121898D01*
X121431000Y-83921939D01*
X121431000Y-83718061D01*
X122917000Y-83718061D01*
X122917000Y-83921939D01*
X122956774Y-84121898D01*
X123034795Y-84310256D01*
X123148063Y-84479774D01*
X123292226Y-84623937D01*
X123461744Y-84737205D01*
X123650102Y-84815226D01*
X123850061Y-84855000D01*
X123993456Y-84855000D01*
X123965000Y-84998061D01*
X123965000Y-85201939D01*
X124004774Y-85401898D01*
X124082795Y-85590256D01*
X124196063Y-85759774D01*
X124340226Y-85903937D01*
X124509744Y-86017205D01*
X124698102Y-86095226D01*
X124898061Y-86135000D01*
X125101939Y-86135000D01*
X125301898Y-86095226D01*
X125490256Y-86017205D01*
X125659774Y-85903937D01*
X125803937Y-85759774D01*
X125917205Y-85590256D01*
X125995226Y-85401898D01*
X126035000Y-85201939D01*
X126035000Y-84998061D01*
X125995226Y-84798102D01*
X125917205Y-84609744D01*
X125803937Y-84440226D01*
X125659774Y-84296063D01*
X125490256Y-84182795D01*
X125301898Y-84104774D01*
X125101939Y-84065000D01*
X124958544Y-84065000D01*
X124987000Y-83921939D01*
X124987000Y-83718061D01*
X124947226Y-83518102D01*
X124869205Y-83329744D01*
X124755937Y-83160226D01*
X124611774Y-83016063D01*
X124442256Y-82902795D01*
X124253898Y-82824774D01*
X124053939Y-82785000D01*
X123850061Y-82785000D01*
X123650102Y-82824774D01*
X123461744Y-82902795D01*
X123292226Y-83016063D01*
X123148063Y-83160226D01*
X123034795Y-83329744D01*
X122956774Y-83518102D01*
X122917000Y-83718061D01*
X121431000Y-83718061D01*
X121391226Y-83518102D01*
X121313205Y-83329744D01*
X121199937Y-83160226D01*
X121055774Y-83016063D01*
X120886256Y-82902795D01*
X120697898Y-82824774D01*
X120497939Y-82785000D01*
X120294061Y-82785000D01*
X120094102Y-82824774D01*
X119905744Y-82902795D01*
X119736226Y-83016063D01*
X119592063Y-83160226D01*
X119478795Y-83329744D01*
X119400774Y-83518102D01*
X119361000Y-83718061D01*
X96992072Y-83718061D01*
X96992072Y-83478000D01*
X96979812Y-83353518D01*
X96943502Y-83233820D01*
X96884537Y-83123506D01*
X96805185Y-83026815D01*
X96708494Y-82947463D01*
X96598180Y-82888498D01*
X96478482Y-82852188D01*
X96354000Y-82839928D01*
X94654000Y-82839928D01*
X94529518Y-82852188D01*
X94409820Y-82888498D01*
X94299506Y-82947463D01*
X94202815Y-83026815D01*
X94123463Y-83123506D01*
X94064498Y-83233820D01*
X94040034Y-83314466D01*
X93964269Y-83230412D01*
X93730920Y-83056359D01*
X93468099Y-82931175D01*
X93320890Y-82886524D01*
X93091000Y-83007845D01*
X93091000Y-84201000D01*
X93111000Y-84201000D01*
X93111000Y-84455000D01*
X93091000Y-84455000D01*
X93091000Y-84475000D01*
X92837000Y-84475000D01*
X92837000Y-84455000D01*
X90551000Y-84455000D01*
X90551000Y-84475000D01*
X90297000Y-84475000D01*
X90297000Y-84455000D01*
X90277000Y-84455000D01*
X90277000Y-84201000D01*
X90297000Y-84201000D01*
X90297000Y-83007845D01*
X90551000Y-83007845D01*
X90551000Y-84201000D01*
X92837000Y-84201000D01*
X92837000Y-83007845D01*
X92607110Y-82886524D01*
X92459901Y-82931175D01*
X92197080Y-83056359D01*
X91963731Y-83230412D01*
X91768822Y-83446645D01*
X91694000Y-83572255D01*
X91619178Y-83446645D01*
X91424269Y-83230412D01*
X91190920Y-83056359D01*
X90928099Y-82931175D01*
X90780890Y-82886524D01*
X90551000Y-83007845D01*
X90297000Y-83007845D01*
X90067110Y-82886524D01*
X89919901Y-82931175D01*
X89657080Y-83056359D01*
X89423731Y-83230412D01*
X89228822Y-83446645D01*
X89159195Y-83563534D01*
X89037475Y-83381368D01*
X88830632Y-83174525D01*
X88587411Y-83012010D01*
X88317158Y-82900068D01*
X88030260Y-82843000D01*
X87737740Y-82843000D01*
X87450842Y-82900068D01*
X87180589Y-83012010D01*
X86937368Y-83174525D01*
X86730525Y-83381368D01*
X86608805Y-83563534D01*
X86539178Y-83446645D01*
X86344269Y-83230412D01*
X86110920Y-83056359D01*
X85848099Y-82931175D01*
X85700890Y-82886524D01*
X85471000Y-83007845D01*
X85471000Y-84201000D01*
X85491000Y-84201000D01*
X85491000Y-84455000D01*
X85471000Y-84455000D01*
X85471000Y-84475000D01*
X85217000Y-84475000D01*
X85217000Y-84455000D01*
X84023186Y-84455000D01*
X83902519Y-84684891D01*
X83999843Y-84959252D01*
X84148822Y-85209355D01*
X84343731Y-85425588D01*
X84573406Y-85596900D01*
X84397368Y-85714525D01*
X84190525Y-85921368D01*
X84028010Y-86164589D01*
X83916068Y-86434842D01*
X83859000Y-86721740D01*
X82758438Y-86721740D01*
X82783226Y-86661898D01*
X82823000Y-86461939D01*
X82823000Y-86258061D01*
X82783226Y-86058102D01*
X82705205Y-85869744D01*
X82591937Y-85700226D01*
X82447774Y-85556063D01*
X82278256Y-85442795D01*
X82089898Y-85364774D01*
X81889939Y-85325000D01*
X81686061Y-85325000D01*
X81486102Y-85364774D01*
X81297744Y-85442795D01*
X81128226Y-85556063D01*
X80984063Y-85700226D01*
X80870795Y-85869744D01*
X80792774Y-86058102D01*
X80753000Y-86258061D01*
X78584774Y-86258061D01*
X78677932Y-86033158D01*
X78735000Y-85746260D01*
X78735000Y-85453740D01*
X78677932Y-85166842D01*
X78565990Y-84896589D01*
X78403475Y-84653368D01*
X78196632Y-84446525D01*
X77953411Y-84284010D01*
X77683158Y-84172068D01*
X77396260Y-84115000D01*
X77103740Y-84115000D01*
X76816842Y-84172068D01*
X76546589Y-84284010D01*
X76303368Y-84446525D01*
X76096525Y-84653368D01*
X75934010Y-84896589D01*
X75822068Y-85166842D01*
X75765000Y-85453740D01*
X73660000Y-85453740D01*
X73660000Y-83971109D01*
X83902519Y-83971109D01*
X84023186Y-84201000D01*
X85217000Y-84201000D01*
X85217000Y-83007845D01*
X84987110Y-82886524D01*
X84839901Y-82931175D01*
X84577080Y-83056359D01*
X84343731Y-83230412D01*
X84148822Y-83446645D01*
X83999843Y-83696748D01*
X83902519Y-83971109D01*
X73660000Y-83971109D01*
X73660000Y-81432061D01*
X100819000Y-81432061D01*
X100819000Y-81635939D01*
X100858774Y-81835898D01*
X100936795Y-82024256D01*
X101050063Y-82193774D01*
X101194226Y-82337937D01*
X101363744Y-82451205D01*
X101552102Y-82529226D01*
X101752061Y-82569000D01*
X101955939Y-82569000D01*
X102155898Y-82529226D01*
X102344256Y-82451205D01*
X102513774Y-82337937D01*
X102657937Y-82193774D01*
X102771205Y-82024256D01*
X102849226Y-81835898D01*
X102889000Y-81635939D01*
X102889000Y-81432061D01*
X102882238Y-81398061D01*
X102965000Y-81398061D01*
X102965000Y-81601939D01*
X103004774Y-81801898D01*
X103082795Y-81990256D01*
X103196063Y-82159774D01*
X103340226Y-82303937D01*
X103509744Y-82417205D01*
X103698102Y-82495226D01*
X103898061Y-82535000D01*
X104101939Y-82535000D01*
X104301898Y-82495226D01*
X104490256Y-82417205D01*
X104659774Y-82303937D01*
X104803937Y-82159774D01*
X104917205Y-81990256D01*
X104995226Y-81801898D01*
X105035000Y-81601939D01*
X105035000Y-81398061D01*
X104995226Y-81198102D01*
X104917205Y-81009744D01*
X104803937Y-80840226D01*
X104659774Y-80696063D01*
X104490256Y-80582795D01*
X104301898Y-80504774D01*
X104101939Y-80465000D01*
X103898061Y-80465000D01*
X103698102Y-80504774D01*
X103509744Y-80582795D01*
X103340226Y-80696063D01*
X103196063Y-80840226D01*
X103082795Y-81009744D01*
X103004774Y-81198102D01*
X102965000Y-81398061D01*
X102882238Y-81398061D01*
X102849226Y-81232102D01*
X102771205Y-81043744D01*
X102657937Y-80874226D01*
X102513774Y-80730063D01*
X102344256Y-80616795D01*
X102155898Y-80538774D01*
X101955939Y-80499000D01*
X101752061Y-80499000D01*
X101552102Y-80538774D01*
X101363744Y-80616795D01*
X101194226Y-80730063D01*
X101050063Y-80874226D01*
X100936795Y-81043744D01*
X100858774Y-81232102D01*
X100819000Y-81432061D01*
X73660000Y-81432061D01*
X73660000Y-79489775D01*
X75689830Y-79489775D01*
X75929976Y-79877018D01*
X76423877Y-80137641D01*
X76959133Y-80296901D01*
X77515174Y-80348678D01*
X78070632Y-80290981D01*
X78487614Y-80162061D01*
X81007000Y-80162061D01*
X81007000Y-80365939D01*
X81046774Y-80565898D01*
X81124795Y-80754256D01*
X81238063Y-80923774D01*
X81382226Y-81067937D01*
X81551744Y-81181205D01*
X81740102Y-81259226D01*
X81940061Y-81299000D01*
X82143939Y-81299000D01*
X82343898Y-81259226D01*
X82532256Y-81181205D01*
X82701774Y-81067937D01*
X82845937Y-80923774D01*
X82959205Y-80754256D01*
X83037226Y-80565898D01*
X83067030Y-80416061D01*
X114281000Y-80416061D01*
X114281000Y-80619939D01*
X114320774Y-80819898D01*
X114398795Y-81008256D01*
X114512063Y-81177774D01*
X114656226Y-81321937D01*
X114825744Y-81435205D01*
X115014102Y-81513226D01*
X115214061Y-81553000D01*
X115417939Y-81553000D01*
X115617898Y-81513226D01*
X115806256Y-81435205D01*
X115975774Y-81321937D01*
X116119937Y-81177774D01*
X116233205Y-81008256D01*
X116311226Y-80819898D01*
X116351000Y-80619939D01*
X116351000Y-80416061D01*
X116821000Y-80416061D01*
X116821000Y-80619939D01*
X116860774Y-80819898D01*
X116938795Y-81008256D01*
X117052063Y-81177774D01*
X117196226Y-81321937D01*
X117365744Y-81435205D01*
X117554102Y-81513226D01*
X117754061Y-81553000D01*
X117957939Y-81553000D01*
X118157898Y-81513226D01*
X118346256Y-81435205D01*
X118515774Y-81321937D01*
X118659937Y-81177774D01*
X118773205Y-81008256D01*
X118851226Y-80819898D01*
X118891000Y-80619939D01*
X118891000Y-80416061D01*
X118851226Y-80216102D01*
X118773205Y-80027744D01*
X118659937Y-79858226D01*
X118515774Y-79714063D01*
X118346256Y-79600795D01*
X118157898Y-79522774D01*
X117957939Y-79483000D01*
X117754061Y-79483000D01*
X117554102Y-79522774D01*
X117365744Y-79600795D01*
X117196226Y-79714063D01*
X117052063Y-79858226D01*
X116938795Y-80027744D01*
X116860774Y-80216102D01*
X116821000Y-80416061D01*
X116351000Y-80416061D01*
X116311226Y-80216102D01*
X116233205Y-80027744D01*
X116119937Y-79858226D01*
X115975774Y-79714063D01*
X115806256Y-79600795D01*
X115617898Y-79522774D01*
X115417939Y-79483000D01*
X115214061Y-79483000D01*
X115014102Y-79522774D01*
X114825744Y-79600795D01*
X114656226Y-79714063D01*
X114512063Y-79858226D01*
X114398795Y-80027744D01*
X114320774Y-80216102D01*
X114281000Y-80416061D01*
X83067030Y-80416061D01*
X83077000Y-80365939D01*
X83077000Y-80162061D01*
X83037226Y-79962102D01*
X82959205Y-79773744D01*
X82845937Y-79604226D01*
X82701774Y-79460063D01*
X82532256Y-79346795D01*
X82343898Y-79268774D01*
X82143939Y-79229000D01*
X81940061Y-79229000D01*
X81740102Y-79268774D01*
X81551744Y-79346795D01*
X81382226Y-79460063D01*
X81238063Y-79604226D01*
X81124795Y-79773744D01*
X81046774Y-79962102D01*
X81007000Y-80162061D01*
X78487614Y-80162061D01*
X78604161Y-80126028D01*
X79070024Y-79877018D01*
X79310170Y-79489775D01*
X77500000Y-77679605D01*
X75689830Y-79489775D01*
X73660000Y-79489775D01*
X73660000Y-77515174D01*
X74651322Y-77515174D01*
X74709019Y-78070632D01*
X74873972Y-78604161D01*
X75122982Y-79070024D01*
X75510225Y-79310170D01*
X77320395Y-77500000D01*
X77679605Y-77500000D01*
X79489775Y-79310170D01*
X79877018Y-79070024D01*
X80076389Y-78692200D01*
X104210030Y-78692200D01*
X104231462Y-78909798D01*
X104294932Y-79119034D01*
X104398004Y-79311866D01*
X104536714Y-79480886D01*
X104705734Y-79619596D01*
X104898566Y-79722668D01*
X105107802Y-79786138D01*
X105270879Y-79802200D01*
X105679921Y-79802200D01*
X105842998Y-79786138D01*
X106052234Y-79722668D01*
X106245066Y-79619596D01*
X106414086Y-79480886D01*
X106552796Y-79311866D01*
X106655868Y-79119034D01*
X106719338Y-78909798D01*
X106740770Y-78692200D01*
X106719338Y-78474602D01*
X106655868Y-78265366D01*
X106552796Y-78072534D01*
X106414086Y-77903514D01*
X106245066Y-77764804D01*
X106052234Y-77661732D01*
X105921455Y-77622061D01*
X108693000Y-77622061D01*
X108693000Y-77825939D01*
X108732774Y-78025898D01*
X108810795Y-78214256D01*
X108924063Y-78383774D01*
X109068226Y-78527937D01*
X109216454Y-78626979D01*
X109210030Y-78692200D01*
X109231462Y-78909798D01*
X109294932Y-79119034D01*
X109398004Y-79311866D01*
X109536714Y-79480886D01*
X109705734Y-79619596D01*
X109898566Y-79722668D01*
X110107802Y-79786138D01*
X110270879Y-79802200D01*
X110679921Y-79802200D01*
X110842998Y-79786138D01*
X111052234Y-79722668D01*
X111245066Y-79619596D01*
X111414086Y-79480886D01*
X111552796Y-79311866D01*
X111641421Y-79146061D01*
X127235000Y-79146061D01*
X127235000Y-79349939D01*
X127274774Y-79549898D01*
X127352795Y-79738256D01*
X127466063Y-79907774D01*
X127610226Y-80051937D01*
X127779744Y-80165205D01*
X127968102Y-80243226D01*
X128168061Y-80283000D01*
X128371939Y-80283000D01*
X128571898Y-80243226D01*
X128760256Y-80165205D01*
X128929774Y-80051937D01*
X129073937Y-79907774D01*
X129187205Y-79738256D01*
X129265226Y-79549898D01*
X129305000Y-79349939D01*
X129305000Y-79146061D01*
X129265226Y-78946102D01*
X129187205Y-78757744D01*
X129073937Y-78588226D01*
X128929774Y-78444063D01*
X128760256Y-78330795D01*
X128571898Y-78252774D01*
X128371939Y-78213000D01*
X128168061Y-78213000D01*
X127968102Y-78252774D01*
X127779744Y-78330795D01*
X127610226Y-78444063D01*
X127466063Y-78588226D01*
X127352795Y-78757744D01*
X127274774Y-78946102D01*
X127235000Y-79146061D01*
X111641421Y-79146061D01*
X111655868Y-79119034D01*
X111719338Y-78909798D01*
X111740770Y-78692200D01*
X111719338Y-78474602D01*
X111655868Y-78265366D01*
X111552796Y-78072534D01*
X111414086Y-77903514D01*
X111245066Y-77764804D01*
X111052234Y-77661732D01*
X110921455Y-77622061D01*
X113773000Y-77622061D01*
X113773000Y-77825939D01*
X113812774Y-78025898D01*
X113890795Y-78214256D01*
X114004063Y-78383774D01*
X114148226Y-78527937D01*
X114317744Y-78641205D01*
X114506102Y-78719226D01*
X114706061Y-78759000D01*
X114909939Y-78759000D01*
X115109898Y-78719226D01*
X115298256Y-78641205D01*
X115467774Y-78527937D01*
X115611937Y-78383774D01*
X115725205Y-78214256D01*
X115803226Y-78025898D01*
X115843000Y-77825939D01*
X115843000Y-77622061D01*
X115803226Y-77422102D01*
X115725205Y-77233744D01*
X115698649Y-77194000D01*
X130623928Y-77194000D01*
X130623928Y-80794000D01*
X130640992Y-80967254D01*
X130691528Y-81133850D01*
X130773595Y-81287386D01*
X130884038Y-81421962D01*
X131018614Y-81532405D01*
X131172150Y-81614472D01*
X131338746Y-81665008D01*
X131512000Y-81682072D01*
X134172000Y-81682072D01*
X134345254Y-81665008D01*
X134511850Y-81614472D01*
X134665386Y-81532405D01*
X134799962Y-81421962D01*
X134910405Y-81287386D01*
X134992472Y-81133850D01*
X135043008Y-80967254D01*
X135056700Y-80828238D01*
X135325562Y-81120044D01*
X135677009Y-81376262D01*
X136071689Y-81558993D01*
X136330631Y-81628263D01*
X136675000Y-81516324D01*
X136675000Y-79121000D01*
X136929000Y-79121000D01*
X136929000Y-81516324D01*
X137273369Y-81628263D01*
X137532311Y-81558993D01*
X137926991Y-81376262D01*
X138278438Y-81120044D01*
X138573147Y-80800185D01*
X138799792Y-80428977D01*
X138949663Y-80020685D01*
X139017000Y-79591000D01*
X139017000Y-79489775D01*
X143189830Y-79489775D01*
X143429976Y-79877018D01*
X143923877Y-80137641D01*
X144459133Y-80296901D01*
X145015174Y-80348678D01*
X145570632Y-80290981D01*
X146104161Y-80126028D01*
X146570024Y-79877018D01*
X146810170Y-79489775D01*
X145000000Y-77679605D01*
X143189830Y-79489775D01*
X139017000Y-79489775D01*
X139017000Y-79121000D01*
X136929000Y-79121000D01*
X136675000Y-79121000D01*
X136655000Y-79121000D01*
X136655000Y-78867000D01*
X136675000Y-78867000D01*
X136675000Y-76471676D01*
X136929000Y-76471676D01*
X136929000Y-78867000D01*
X139017000Y-78867000D01*
X139017000Y-78397000D01*
X138949663Y-77967315D01*
X138799792Y-77559023D01*
X138773020Y-77515174D01*
X142151322Y-77515174D01*
X142209019Y-78070632D01*
X142373972Y-78604161D01*
X142622982Y-79070024D01*
X143010225Y-79310170D01*
X144820395Y-77500000D01*
X145179605Y-77500000D01*
X146989775Y-79310170D01*
X147377018Y-79070024D01*
X147637641Y-78576123D01*
X147796901Y-78040867D01*
X147848678Y-77484826D01*
X147790981Y-76929368D01*
X147626028Y-76395839D01*
X147377018Y-75929976D01*
X146989775Y-75689830D01*
X145179605Y-77500000D01*
X144820395Y-77500000D01*
X143010225Y-75689830D01*
X142622982Y-75929976D01*
X142362359Y-76423877D01*
X142203099Y-76959133D01*
X142151322Y-77515174D01*
X138773020Y-77515174D01*
X138573147Y-77187815D01*
X138278438Y-76867956D01*
X137926991Y-76611738D01*
X137532311Y-76429007D01*
X137273369Y-76359737D01*
X136929000Y-76471676D01*
X136675000Y-76471676D01*
X136330631Y-76359737D01*
X136071689Y-76429007D01*
X135677009Y-76611738D01*
X135325562Y-76867956D01*
X135056700Y-77159762D01*
X135043008Y-77020746D01*
X134992472Y-76854150D01*
X134910405Y-76700614D01*
X134799962Y-76566038D01*
X134665386Y-76455595D01*
X134511850Y-76373528D01*
X134345254Y-76322992D01*
X134172000Y-76305928D01*
X131512000Y-76305928D01*
X131338746Y-76322992D01*
X131172150Y-76373528D01*
X131018614Y-76455595D01*
X130884038Y-76566038D01*
X130773595Y-76700614D01*
X130691528Y-76854150D01*
X130640992Y-77020746D01*
X130623928Y-77194000D01*
X115698649Y-77194000D01*
X115611937Y-77064226D01*
X115467774Y-76920063D01*
X115298256Y-76806795D01*
X115109898Y-76728774D01*
X114909939Y-76689000D01*
X114706061Y-76689000D01*
X114506102Y-76728774D01*
X114317744Y-76806795D01*
X114148226Y-76920063D01*
X114004063Y-77064226D01*
X113890795Y-77233744D01*
X113812774Y-77422102D01*
X113773000Y-77622061D01*
X110921455Y-77622061D01*
X110842998Y-77598262D01*
X110756573Y-77589750D01*
X110723226Y-77422102D01*
X110645205Y-77233744D01*
X110531937Y-77064226D01*
X110387774Y-76920063D01*
X110218256Y-76806795D01*
X110029898Y-76728774D01*
X109829939Y-76689000D01*
X109626061Y-76689000D01*
X109426102Y-76728774D01*
X109237744Y-76806795D01*
X109068226Y-76920063D01*
X108924063Y-77064226D01*
X108810795Y-77233744D01*
X108732774Y-77422102D01*
X108693000Y-77622061D01*
X105921455Y-77622061D01*
X105842998Y-77598262D01*
X105679921Y-77582200D01*
X105270879Y-77582200D01*
X105107802Y-77598262D01*
X104898566Y-77661732D01*
X104705734Y-77764804D01*
X104536714Y-77903514D01*
X104398004Y-78072534D01*
X104294932Y-78265366D01*
X104231462Y-78474602D01*
X104210030Y-78692200D01*
X80076389Y-78692200D01*
X80137641Y-78576123D01*
X80296901Y-78040867D01*
X80348678Y-77484826D01*
X80290981Y-76929368D01*
X80126028Y-76395839D01*
X79877018Y-75929976D01*
X79489775Y-75689830D01*
X77679605Y-77500000D01*
X77320395Y-77500000D01*
X75510225Y-75689830D01*
X75122982Y-75929976D01*
X74862359Y-76423877D01*
X74703099Y-76959133D01*
X74651322Y-77515174D01*
X73660000Y-77515174D01*
X73660000Y-75682279D01*
X73676870Y-75510225D01*
X75689830Y-75510225D01*
X77500000Y-77320395D01*
X79211246Y-75609149D01*
X103395400Y-75609149D01*
X103395400Y-76375250D01*
X103411027Y-76533916D01*
X103472783Y-76737497D01*
X103573068Y-76925119D01*
X103708030Y-77089570D01*
X103872481Y-77224532D01*
X104060102Y-77324817D01*
X104263683Y-77386573D01*
X104475400Y-77407425D01*
X104687116Y-77386573D01*
X104890697Y-77324817D01*
X105078319Y-77224532D01*
X105242770Y-77089570D01*
X105377732Y-76925119D01*
X105478017Y-76737498D01*
X105539773Y-76533917D01*
X105555400Y-76375251D01*
X105555400Y-75609150D01*
X105555400Y-75609149D01*
X110395400Y-75609149D01*
X110395400Y-76375250D01*
X110411027Y-76533916D01*
X110472783Y-76737497D01*
X110573068Y-76925119D01*
X110708030Y-77089570D01*
X110872481Y-77224532D01*
X111060102Y-77324817D01*
X111263683Y-77386573D01*
X111475400Y-77407425D01*
X111687116Y-77386573D01*
X111890697Y-77324817D01*
X112078319Y-77224532D01*
X112242770Y-77089570D01*
X112377732Y-76925119D01*
X112478017Y-76737498D01*
X112539773Y-76533917D01*
X112555400Y-76375251D01*
X112555400Y-75609150D01*
X112545657Y-75510225D01*
X143189830Y-75510225D01*
X145000000Y-77320395D01*
X146810170Y-75510225D01*
X146570024Y-75122982D01*
X146076123Y-74862359D01*
X145540867Y-74703099D01*
X144984826Y-74651322D01*
X144429368Y-74709019D01*
X143895839Y-74873972D01*
X143429976Y-75122982D01*
X143189830Y-75510225D01*
X112545657Y-75510225D01*
X112539773Y-75450484D01*
X112478017Y-75246902D01*
X112377732Y-75059281D01*
X112242770Y-74894830D01*
X112078319Y-74759868D01*
X111890698Y-74659583D01*
X111687117Y-74597827D01*
X111475400Y-74576975D01*
X111263684Y-74597827D01*
X111060103Y-74659583D01*
X110872482Y-74759868D01*
X110708031Y-74894830D01*
X110573069Y-75059281D01*
X110472784Y-75246902D01*
X110411027Y-75450483D01*
X110395400Y-75609149D01*
X105555400Y-75609149D01*
X105539773Y-75450484D01*
X105478017Y-75246902D01*
X105377732Y-75059281D01*
X105242770Y-74894830D01*
X105078319Y-74759868D01*
X104890698Y-74659583D01*
X104687117Y-74597827D01*
X104475400Y-74576975D01*
X104263684Y-74597827D01*
X104060103Y-74659583D01*
X103872482Y-74759868D01*
X103708031Y-74894830D01*
X103573069Y-75059281D01*
X103472784Y-75246902D01*
X103411027Y-75450483D01*
X103395400Y-75609149D01*
X79211246Y-75609149D01*
X79310170Y-75510225D01*
X79070024Y-75122982D01*
X78576123Y-74862359D01*
X78040867Y-74703099D01*
X77484826Y-74651322D01*
X76929368Y-74709019D01*
X76395839Y-74873972D01*
X75929976Y-75122982D01*
X75689830Y-75510225D01*
X73676870Y-75510225D01*
X73693386Y-75341782D01*
X73782898Y-75045303D01*
X73928291Y-74771860D01*
X74124031Y-74531859D01*
X74362653Y-74334453D01*
X74635073Y-74187157D01*
X74930926Y-74095575D01*
X75269400Y-74060000D01*
X146967721Y-74060000D01*
X147308218Y-74093386D01*
G37*
G04 #@! TD.AperFunction*
M02*
