G04 #@! TF.GenerationSoftware,KiCad,Pcbnew,5.1.10-88a1d61d58~90~ubuntu20.04.1*
G04 #@! TF.CreationDate,2021-11-20T18:16:27-05:00*
G04 #@! TF.ProjectId,WiFiSTMBoard,57694669-5354-44d4-926f-6172642e6b69,rev?*
G04 #@! TF.SameCoordinates,Original*
G04 #@! TF.FileFunction,Copper,L4,Bot*
G04 #@! TF.FilePolarity,Positive*
%FSLAX46Y46*%
G04 Gerber Fmt 4.6, Leading zero omitted, Abs format (unit mm)*
G04 Created by KiCad (PCBNEW 5.1.10-88a1d61d58~90~ubuntu20.04.1) date 2021-11-20 18:16:27*
%MOMM*%
%LPD*%
G01*
G04 APERTURE LIST*
G04 #@! TA.AperFunction,ComponentPad*
%ADD10O,1.200000X1.800000*%
G04 #@! TD*
G04 #@! TA.AperFunction,ComponentPad*
%ADD11O,1.700000X1.700000*%
G04 #@! TD*
G04 #@! TA.AperFunction,ComponentPad*
%ADD12R,1.700000X1.700000*%
G04 #@! TD*
G04 #@! TA.AperFunction,ComponentPad*
%ADD13O,0.890000X1.550000*%
G04 #@! TD*
G04 #@! TA.AperFunction,ComponentPad*
%ADD14O,1.250000X0.950000*%
G04 #@! TD*
G04 #@! TA.AperFunction,ComponentPad*
%ADD15O,3.160000X4.100000*%
G04 #@! TD*
G04 #@! TA.AperFunction,ComponentPad*
%ADD16C,0.700000*%
G04 #@! TD*
G04 #@! TA.AperFunction,ComponentPad*
%ADD17C,4.400000*%
G04 #@! TD*
G04 #@! TA.AperFunction,ViaPad*
%ADD18C,0.800000*%
G04 #@! TD*
G04 #@! TA.AperFunction,Conductor*
%ADD19C,0.300000*%
G04 #@! TD*
G04 #@! TA.AperFunction,Conductor*
%ADD20C,0.250000*%
G04 #@! TD*
G04 #@! TA.AperFunction,Conductor*
%ADD21C,0.700000*%
G04 #@! TD*
G04 APERTURE END LIST*
D10*
X121017800Y-132969000D03*
X119017800Y-132969000D03*
G04 #@! TA.AperFunction,ComponentPad*
G36*
G01*
X116417800Y-133619001D02*
X116417800Y-132318999D01*
G75*
G02*
X116667799Y-132069000I249999J0D01*
G01*
X117367801Y-132069000D01*
G75*
G02*
X117617800Y-132318999I0J-249999D01*
G01*
X117617800Y-133619001D01*
G75*
G02*
X117367801Y-133869000I-249999J0D01*
G01*
X116667799Y-133869000D01*
G75*
G02*
X116417800Y-133619001I0J249999D01*
G01*
G37*
G04 #@! TD.AperFunction*
X110553000Y-132969000D03*
X108553000Y-132969000D03*
G04 #@! TA.AperFunction,ComponentPad*
G36*
G01*
X105953000Y-133619001D02*
X105953000Y-132318999D01*
G75*
G02*
X106202999Y-132069000I249999J0D01*
G01*
X106903001Y-132069000D01*
G75*
G02*
X107153000Y-132318999I0J-249999D01*
G01*
X107153000Y-133619001D01*
G75*
G02*
X106903001Y-133869000I-249999J0D01*
G01*
X106202999Y-133869000D01*
G75*
G02*
X105953000Y-133619001I0J249999D01*
G01*
G37*
G04 #@! TD.AperFunction*
X99885000Y-132969000D03*
X97885000Y-132969000D03*
G04 #@! TA.AperFunction,ComponentPad*
G36*
G01*
X95285000Y-133619001D02*
X95285000Y-132318999D01*
G75*
G02*
X95534999Y-132069000I249999J0D01*
G01*
X96235001Y-132069000D01*
G75*
G02*
X96485000Y-132318999I0J-249999D01*
G01*
X96485000Y-133619001D01*
G75*
G02*
X96235001Y-133869000I-249999J0D01*
G01*
X95534999Y-133869000D01*
G75*
G02*
X95285000Y-133619001I0J249999D01*
G01*
G37*
G04 #@! TD.AperFunction*
D11*
X77250000Y-116130000D03*
X77250000Y-118670000D03*
X77250000Y-121210000D03*
D12*
X77250000Y-123750000D03*
D11*
X144780000Y-96520000D03*
X144780000Y-93980000D03*
X144780000Y-91440000D03*
D12*
X144780000Y-88900000D03*
D13*
X104475400Y-75992200D03*
X111475400Y-75992200D03*
D14*
X105475400Y-78692200D03*
X110475400Y-78692200D03*
D11*
X77250000Y-85600000D03*
X77250000Y-88140000D03*
X77250000Y-90680000D03*
X77250000Y-93220000D03*
X77250000Y-95760000D03*
X77250000Y-98300000D03*
X77250000Y-100840000D03*
X77250000Y-103380000D03*
X77250000Y-105920000D03*
X77250000Y-108460000D03*
D12*
X77250000Y-111000000D03*
D11*
X85344000Y-86868000D03*
X85344000Y-84328000D03*
X87884000Y-86868000D03*
X87884000Y-84328000D03*
X90424000Y-86868000D03*
X90424000Y-84328000D03*
X92964000Y-86868000D03*
X92964000Y-84328000D03*
X95504000Y-86868000D03*
D12*
X95504000Y-84328000D03*
D15*
X136802000Y-78994000D03*
G04 #@! TA.AperFunction,ComponentPad*
G36*
G01*
X131262000Y-80794000D02*
X131262000Y-77194000D01*
G75*
G02*
X131512000Y-76944000I250000J0D01*
G01*
X134172000Y-76944000D01*
G75*
G02*
X134422000Y-77194000I0J-250000D01*
G01*
X134422000Y-80794000D01*
G75*
G02*
X134172000Y-81044000I-250000J0D01*
G01*
X131512000Y-81044000D01*
G75*
G02*
X131262000Y-80794000I0J250000D01*
G01*
G37*
G04 #@! TD.AperFunction*
D11*
X86360000Y-99060000D03*
X88900000Y-99060000D03*
D12*
X91440000Y-99060000D03*
D16*
X146166726Y-76333274D03*
X145000000Y-75850000D03*
X143833274Y-76333274D03*
X143350000Y-77500000D03*
X143833274Y-78666726D03*
X145000000Y-79150000D03*
X146166726Y-78666726D03*
X146650000Y-77500000D03*
D17*
X145000000Y-77500000D03*
D16*
X78666726Y-133833274D03*
X77500000Y-133350000D03*
X76333274Y-133833274D03*
X75850000Y-135000000D03*
X76333274Y-136166726D03*
X77500000Y-136650000D03*
X78666726Y-136166726D03*
X79150000Y-135000000D03*
D17*
X77500000Y-135000000D03*
D16*
X78666726Y-76333274D03*
X77500000Y-75850000D03*
X76333274Y-76333274D03*
X75850000Y-77500000D03*
X76333274Y-78666726D03*
X77500000Y-79150000D03*
X78666726Y-78666726D03*
X79150000Y-77500000D03*
D17*
X77500000Y-77500000D03*
D16*
X146166726Y-133833274D03*
X145000000Y-133350000D03*
X143833274Y-133833274D03*
X143350000Y-135000000D03*
X143833274Y-136166726D03*
X145000000Y-136650000D03*
X146166726Y-136166726D03*
X146650000Y-135000000D03*
D17*
X145000000Y-135000000D03*
D18*
X116000000Y-101600000D03*
X128100000Y-85200000D03*
X128700000Y-90700000D03*
X101600000Y-117800000D03*
X101100000Y-115200000D03*
X107200000Y-103500000D03*
X111300000Y-104000000D03*
X101100000Y-112700000D03*
X123000000Y-119000000D03*
X119600000Y-119000000D03*
X110000000Y-118900000D03*
X108500000Y-119400000D03*
X107800000Y-81400000D03*
X116100000Y-97200000D03*
X105900000Y-80300000D03*
X121700000Y-79400000D03*
X146300000Y-117600000D03*
X146100000Y-125100000D03*
X145100000Y-124300000D03*
X134200000Y-125400000D03*
X146000000Y-109600000D03*
X146200000Y-102500000D03*
X135400000Y-100400000D03*
X144200000Y-100500000D03*
X144800000Y-108100000D03*
X134000000Y-109100000D03*
X134300000Y-117300000D03*
X145100000Y-116600000D03*
X119500000Y-84700000D03*
X115700000Y-86500000D03*
X83000000Y-120100000D03*
X83900000Y-119600000D03*
X94700000Y-119700000D03*
X132700000Y-132500000D03*
X132100000Y-124300000D03*
X130700000Y-116900000D03*
X110100000Y-115700000D03*
X114000000Y-118700000D03*
X132900000Y-100800000D03*
X124100000Y-98700000D03*
X104000000Y-81500000D03*
X125000000Y-85100000D03*
X100700000Y-110900000D03*
X110000000Y-108600000D03*
X111300000Y-117000000D03*
X106100000Y-114900000D03*
X103600000Y-114300000D03*
X103700000Y-98800000D03*
X97900000Y-113000000D03*
X112300000Y-101300000D03*
X103300000Y-112200006D03*
X102051817Y-110951813D03*
X97400000Y-103299992D03*
X104367088Y-102432912D03*
X81788000Y-86360000D03*
X82042000Y-80264000D03*
X101854000Y-81534000D03*
X105156000Y-98552000D03*
X108458000Y-105918000D03*
X96300000Y-124400000D03*
X107700000Y-108500000D03*
X117856000Y-80518000D03*
X115316000Y-80518000D03*
X114808000Y-77724000D03*
X109728000Y-77724000D03*
X128270000Y-79248000D03*
X123952000Y-83820000D03*
X120396000Y-83820000D03*
X111113600Y-112682261D03*
X107000000Y-124500000D03*
X95504000Y-88900000D03*
X103378004Y-90932000D03*
X121412000Y-102870000D03*
X116000000Y-104250000D03*
X106100000Y-106400000D03*
X90400000Y-103600000D03*
X103750000Y-89000000D03*
X106000000Y-91250000D03*
X114300000Y-109982000D03*
X125984000Y-110490000D03*
X133858000Y-114046000D03*
X117856000Y-112776000D03*
X132842000Y-121158000D03*
X111252000Y-108712000D03*
X133604000Y-106680000D03*
X114822414Y-107273600D03*
X105805331Y-109055331D03*
X93500000Y-113000000D03*
X101750000Y-116000000D03*
X106000000Y-105250000D03*
D19*
X85344000Y-86868000D02*
X83058000Y-86868000D01*
X82296000Y-86868000D02*
X81788000Y-86360000D01*
X83058000Y-86868000D02*
X82296000Y-86868000D01*
X82042000Y-80264000D02*
X100330000Y-80264000D01*
X101600000Y-81534000D02*
X101854000Y-81534000D01*
X100330000Y-80264000D02*
X101600000Y-81534000D01*
X105156000Y-102616000D02*
X108458000Y-105918000D01*
X105156000Y-98552000D02*
X105156000Y-102616000D01*
D20*
X96300000Y-124400000D02*
X105374999Y-115325001D01*
X105374999Y-115325001D02*
X105374999Y-110825001D01*
X105374999Y-110825001D02*
X107300001Y-108899999D01*
X107300001Y-108899999D02*
X107700000Y-108500000D01*
D21*
X117856000Y-80518000D02*
X115316000Y-80518000D01*
X110127999Y-77324001D02*
X109728000Y-77724000D01*
X114408001Y-77324001D02*
X110127999Y-77324001D01*
X114808000Y-77724000D02*
X114408001Y-77324001D01*
X128524000Y-78994000D02*
X128270000Y-79248000D01*
X132842000Y-78994000D02*
X128524000Y-78994000D01*
X123952000Y-83820000D02*
X120396000Y-83820000D01*
D19*
X107000000Y-116795861D02*
X107000000Y-124500000D01*
X111113600Y-112682261D02*
X107000000Y-116795861D01*
X95504000Y-88900000D02*
X101346004Y-88900000D01*
X101346004Y-88900000D02*
X103378004Y-90932000D01*
D20*
X123630000Y-102870000D02*
X121412000Y-102870000D01*
X132520000Y-93980000D02*
X123630000Y-102870000D01*
X144780000Y-93980000D02*
X132520000Y-93980000D01*
X125000000Y-104250000D02*
X116000000Y-104250000D01*
X132730000Y-96520000D02*
X125000000Y-104250000D01*
X144750000Y-96500000D02*
X132700000Y-96500000D01*
D19*
X106100000Y-106400000D02*
X106100000Y-108100000D01*
X105963010Y-108236990D02*
X105563010Y-108236990D01*
X106100000Y-108100000D02*
X105963010Y-108236990D01*
X105563010Y-108236990D02*
X104900000Y-108900000D01*
X95700000Y-108900000D02*
X90400000Y-103600000D01*
X104900000Y-108900000D02*
X95700000Y-108900000D01*
D20*
X103750000Y-89000000D02*
X106000000Y-91250000D01*
D19*
X114808000Y-110490000D02*
X125984000Y-110490000D01*
X114300000Y-109982000D02*
X114808000Y-110490000D01*
X133858000Y-114046000D02*
X133096000Y-113284000D01*
X118364000Y-113284000D02*
X117856000Y-112776000D01*
X133096000Y-113284000D02*
X118364000Y-113284000D01*
X111252000Y-108712000D02*
X117856000Y-115316000D01*
X127000000Y-115316000D02*
X132842000Y-121158000D01*
X117856000Y-115316000D02*
X127000000Y-115316000D01*
X133010400Y-107273600D02*
X114822414Y-107273600D01*
X133604000Y-106680000D02*
X133010400Y-107273600D01*
D20*
X101174999Y-111648001D02*
X94898001Y-111648001D01*
X105405332Y-109455330D02*
X104671668Y-109455330D01*
X102001997Y-112125001D02*
X101651999Y-112125001D01*
X101651999Y-112125001D02*
X101174999Y-111648001D01*
X105805331Y-109055331D02*
X105405332Y-109455330D01*
X104671668Y-109455330D02*
X102001997Y-112125001D01*
X94898001Y-111648001D02*
X89170000Y-105920000D01*
X89170000Y-105920000D02*
X77250000Y-105920000D01*
X88960000Y-108460000D02*
X77250000Y-108460000D01*
X93500000Y-113000000D02*
X88960000Y-108460000D01*
X91250000Y-116000000D02*
X87250000Y-112000000D01*
X101750000Y-116000000D02*
X91250000Y-116000000D01*
X87250000Y-112000000D02*
X83250000Y-112000000D01*
X82250000Y-111000000D02*
X77250000Y-111000000D01*
X83250000Y-112000000D02*
X82250000Y-111000000D01*
X79160000Y-102750000D02*
X78099999Y-101689999D01*
X103224999Y-102474999D02*
X96951999Y-102474999D01*
X96951999Y-102474999D02*
X96676998Y-102750000D01*
X106000000Y-105250000D02*
X103224999Y-102474999D01*
X96676998Y-102750000D02*
X79160000Y-102750000D01*
X78099999Y-101689999D02*
X77250000Y-100840000D01*
M02*
