G04 #@! TF.GenerationSoftware,KiCad,Pcbnew,5.1.10-88a1d61d58~90~ubuntu20.04.1*
G04 #@! TF.CreationDate,2021-11-20T18:16:27-05:00*
G04 #@! TF.ProjectId,WiFiSTMBoard,57694669-5354-44d4-926f-6172642e6b69,rev?*
G04 #@! TF.SameCoordinates,Original*
G04 #@! TF.FileFunction,Paste,Top*
G04 #@! TF.FilePolarity,Positive*
%FSLAX46Y46*%
G04 Gerber Fmt 4.6, Leading zero omitted, Abs format (unit mm)*
G04 Created by KiCad (PCBNEW 5.1.10-88a1d61d58~90~ubuntu20.04.1) date 2021-11-20 18:16:27*
%MOMM*%
%LPD*%
G01*
G04 APERTURE LIST*
%ADD10R,1.400000X1.200000*%
%ADD11R,0.650000X1.060000*%
%ADD12R,1.500000X2.000000*%
%ADD13R,3.800000X2.000000*%
%ADD14R,1.550000X1.300000*%
%ADD15R,0.800000X0.900000*%
%ADD16O,1.250000X0.950000*%
%ADD17R,1.200000X1.550000*%
%ADD18O,0.890000X1.550000*%
%ADD19R,1.500000X1.550000*%
%ADD20R,0.400000X1.350000*%
%ADD21R,1.200000X0.900000*%
G04 APERTURE END LIST*
G36*
G01*
X105059600Y-109173600D02*
X103734600Y-109173600D01*
G75*
G02*
X103659600Y-109098600I0J75000D01*
G01*
X103659600Y-108948600D01*
G75*
G02*
X103734600Y-108873600I75000J0D01*
G01*
X105059600Y-108873600D01*
G75*
G02*
X105134600Y-108948600I0J-75000D01*
G01*
X105134600Y-109098600D01*
G75*
G02*
X105059600Y-109173600I-75000J0D01*
G01*
G37*
G36*
G01*
X105059600Y-108673600D02*
X103734600Y-108673600D01*
G75*
G02*
X103659600Y-108598600I0J75000D01*
G01*
X103659600Y-108448600D01*
G75*
G02*
X103734600Y-108373600I75000J0D01*
G01*
X105059600Y-108373600D01*
G75*
G02*
X105134600Y-108448600I0J-75000D01*
G01*
X105134600Y-108598600D01*
G75*
G02*
X105059600Y-108673600I-75000J0D01*
G01*
G37*
G36*
G01*
X105059600Y-108173600D02*
X103734600Y-108173600D01*
G75*
G02*
X103659600Y-108098600I0J75000D01*
G01*
X103659600Y-107948600D01*
G75*
G02*
X103734600Y-107873600I75000J0D01*
G01*
X105059600Y-107873600D01*
G75*
G02*
X105134600Y-107948600I0J-75000D01*
G01*
X105134600Y-108098600D01*
G75*
G02*
X105059600Y-108173600I-75000J0D01*
G01*
G37*
G36*
G01*
X105059600Y-107673600D02*
X103734600Y-107673600D01*
G75*
G02*
X103659600Y-107598600I0J75000D01*
G01*
X103659600Y-107448600D01*
G75*
G02*
X103734600Y-107373600I75000J0D01*
G01*
X105059600Y-107373600D01*
G75*
G02*
X105134600Y-107448600I0J-75000D01*
G01*
X105134600Y-107598600D01*
G75*
G02*
X105059600Y-107673600I-75000J0D01*
G01*
G37*
G36*
G01*
X105059600Y-107173600D02*
X103734600Y-107173600D01*
G75*
G02*
X103659600Y-107098600I0J75000D01*
G01*
X103659600Y-106948600D01*
G75*
G02*
X103734600Y-106873600I75000J0D01*
G01*
X105059600Y-106873600D01*
G75*
G02*
X105134600Y-106948600I0J-75000D01*
G01*
X105134600Y-107098600D01*
G75*
G02*
X105059600Y-107173600I-75000J0D01*
G01*
G37*
G36*
G01*
X105059600Y-106673600D02*
X103734600Y-106673600D01*
G75*
G02*
X103659600Y-106598600I0J75000D01*
G01*
X103659600Y-106448600D01*
G75*
G02*
X103734600Y-106373600I75000J0D01*
G01*
X105059600Y-106373600D01*
G75*
G02*
X105134600Y-106448600I0J-75000D01*
G01*
X105134600Y-106598600D01*
G75*
G02*
X105059600Y-106673600I-75000J0D01*
G01*
G37*
G36*
G01*
X105059600Y-106173600D02*
X103734600Y-106173600D01*
G75*
G02*
X103659600Y-106098600I0J75000D01*
G01*
X103659600Y-105948600D01*
G75*
G02*
X103734600Y-105873600I75000J0D01*
G01*
X105059600Y-105873600D01*
G75*
G02*
X105134600Y-105948600I0J-75000D01*
G01*
X105134600Y-106098600D01*
G75*
G02*
X105059600Y-106173600I-75000J0D01*
G01*
G37*
G36*
G01*
X105059600Y-105673600D02*
X103734600Y-105673600D01*
G75*
G02*
X103659600Y-105598600I0J75000D01*
G01*
X103659600Y-105448600D01*
G75*
G02*
X103734600Y-105373600I75000J0D01*
G01*
X105059600Y-105373600D01*
G75*
G02*
X105134600Y-105448600I0J-75000D01*
G01*
X105134600Y-105598600D01*
G75*
G02*
X105059600Y-105673600I-75000J0D01*
G01*
G37*
G36*
G01*
X105059600Y-105173600D02*
X103734600Y-105173600D01*
G75*
G02*
X103659600Y-105098600I0J75000D01*
G01*
X103659600Y-104948600D01*
G75*
G02*
X103734600Y-104873600I75000J0D01*
G01*
X105059600Y-104873600D01*
G75*
G02*
X105134600Y-104948600I0J-75000D01*
G01*
X105134600Y-105098600D01*
G75*
G02*
X105059600Y-105173600I-75000J0D01*
G01*
G37*
G36*
G01*
X105059600Y-104673600D02*
X103734600Y-104673600D01*
G75*
G02*
X103659600Y-104598600I0J75000D01*
G01*
X103659600Y-104448600D01*
G75*
G02*
X103734600Y-104373600I75000J0D01*
G01*
X105059600Y-104373600D01*
G75*
G02*
X105134600Y-104448600I0J-75000D01*
G01*
X105134600Y-104598600D01*
G75*
G02*
X105059600Y-104673600I-75000J0D01*
G01*
G37*
G36*
G01*
X105059600Y-104173600D02*
X103734600Y-104173600D01*
G75*
G02*
X103659600Y-104098600I0J75000D01*
G01*
X103659600Y-103948600D01*
G75*
G02*
X103734600Y-103873600I75000J0D01*
G01*
X105059600Y-103873600D01*
G75*
G02*
X105134600Y-103948600I0J-75000D01*
G01*
X105134600Y-104098600D01*
G75*
G02*
X105059600Y-104173600I-75000J0D01*
G01*
G37*
G36*
G01*
X105059600Y-103673600D02*
X103734600Y-103673600D01*
G75*
G02*
X103659600Y-103598600I0J75000D01*
G01*
X103659600Y-103448600D01*
G75*
G02*
X103734600Y-103373600I75000J0D01*
G01*
X105059600Y-103373600D01*
G75*
G02*
X105134600Y-103448600I0J-75000D01*
G01*
X105134600Y-103598600D01*
G75*
G02*
X105059600Y-103673600I-75000J0D01*
G01*
G37*
G36*
G01*
X105884600Y-102848600D02*
X105734600Y-102848600D01*
G75*
G02*
X105659600Y-102773600I0J75000D01*
G01*
X105659600Y-101448600D01*
G75*
G02*
X105734600Y-101373600I75000J0D01*
G01*
X105884600Y-101373600D01*
G75*
G02*
X105959600Y-101448600I0J-75000D01*
G01*
X105959600Y-102773600D01*
G75*
G02*
X105884600Y-102848600I-75000J0D01*
G01*
G37*
G36*
G01*
X106384600Y-102848600D02*
X106234600Y-102848600D01*
G75*
G02*
X106159600Y-102773600I0J75000D01*
G01*
X106159600Y-101448600D01*
G75*
G02*
X106234600Y-101373600I75000J0D01*
G01*
X106384600Y-101373600D01*
G75*
G02*
X106459600Y-101448600I0J-75000D01*
G01*
X106459600Y-102773600D01*
G75*
G02*
X106384600Y-102848600I-75000J0D01*
G01*
G37*
G36*
G01*
X106884600Y-102848600D02*
X106734600Y-102848600D01*
G75*
G02*
X106659600Y-102773600I0J75000D01*
G01*
X106659600Y-101448600D01*
G75*
G02*
X106734600Y-101373600I75000J0D01*
G01*
X106884600Y-101373600D01*
G75*
G02*
X106959600Y-101448600I0J-75000D01*
G01*
X106959600Y-102773600D01*
G75*
G02*
X106884600Y-102848600I-75000J0D01*
G01*
G37*
G36*
G01*
X107384600Y-102848600D02*
X107234600Y-102848600D01*
G75*
G02*
X107159600Y-102773600I0J75000D01*
G01*
X107159600Y-101448600D01*
G75*
G02*
X107234600Y-101373600I75000J0D01*
G01*
X107384600Y-101373600D01*
G75*
G02*
X107459600Y-101448600I0J-75000D01*
G01*
X107459600Y-102773600D01*
G75*
G02*
X107384600Y-102848600I-75000J0D01*
G01*
G37*
G36*
G01*
X107884600Y-102848600D02*
X107734600Y-102848600D01*
G75*
G02*
X107659600Y-102773600I0J75000D01*
G01*
X107659600Y-101448600D01*
G75*
G02*
X107734600Y-101373600I75000J0D01*
G01*
X107884600Y-101373600D01*
G75*
G02*
X107959600Y-101448600I0J-75000D01*
G01*
X107959600Y-102773600D01*
G75*
G02*
X107884600Y-102848600I-75000J0D01*
G01*
G37*
G36*
G01*
X108384600Y-102848600D02*
X108234600Y-102848600D01*
G75*
G02*
X108159600Y-102773600I0J75000D01*
G01*
X108159600Y-101448600D01*
G75*
G02*
X108234600Y-101373600I75000J0D01*
G01*
X108384600Y-101373600D01*
G75*
G02*
X108459600Y-101448600I0J-75000D01*
G01*
X108459600Y-102773600D01*
G75*
G02*
X108384600Y-102848600I-75000J0D01*
G01*
G37*
G36*
G01*
X108884600Y-102848600D02*
X108734600Y-102848600D01*
G75*
G02*
X108659600Y-102773600I0J75000D01*
G01*
X108659600Y-101448600D01*
G75*
G02*
X108734600Y-101373600I75000J0D01*
G01*
X108884600Y-101373600D01*
G75*
G02*
X108959600Y-101448600I0J-75000D01*
G01*
X108959600Y-102773600D01*
G75*
G02*
X108884600Y-102848600I-75000J0D01*
G01*
G37*
G36*
G01*
X109384600Y-102848600D02*
X109234600Y-102848600D01*
G75*
G02*
X109159600Y-102773600I0J75000D01*
G01*
X109159600Y-101448600D01*
G75*
G02*
X109234600Y-101373600I75000J0D01*
G01*
X109384600Y-101373600D01*
G75*
G02*
X109459600Y-101448600I0J-75000D01*
G01*
X109459600Y-102773600D01*
G75*
G02*
X109384600Y-102848600I-75000J0D01*
G01*
G37*
G36*
G01*
X109884600Y-102848600D02*
X109734600Y-102848600D01*
G75*
G02*
X109659600Y-102773600I0J75000D01*
G01*
X109659600Y-101448600D01*
G75*
G02*
X109734600Y-101373600I75000J0D01*
G01*
X109884600Y-101373600D01*
G75*
G02*
X109959600Y-101448600I0J-75000D01*
G01*
X109959600Y-102773600D01*
G75*
G02*
X109884600Y-102848600I-75000J0D01*
G01*
G37*
G36*
G01*
X110384600Y-102848600D02*
X110234600Y-102848600D01*
G75*
G02*
X110159600Y-102773600I0J75000D01*
G01*
X110159600Y-101448600D01*
G75*
G02*
X110234600Y-101373600I75000J0D01*
G01*
X110384600Y-101373600D01*
G75*
G02*
X110459600Y-101448600I0J-75000D01*
G01*
X110459600Y-102773600D01*
G75*
G02*
X110384600Y-102848600I-75000J0D01*
G01*
G37*
G36*
G01*
X110884600Y-102848600D02*
X110734600Y-102848600D01*
G75*
G02*
X110659600Y-102773600I0J75000D01*
G01*
X110659600Y-101448600D01*
G75*
G02*
X110734600Y-101373600I75000J0D01*
G01*
X110884600Y-101373600D01*
G75*
G02*
X110959600Y-101448600I0J-75000D01*
G01*
X110959600Y-102773600D01*
G75*
G02*
X110884600Y-102848600I-75000J0D01*
G01*
G37*
G36*
G01*
X111384600Y-102848600D02*
X111234600Y-102848600D01*
G75*
G02*
X111159600Y-102773600I0J75000D01*
G01*
X111159600Y-101448600D01*
G75*
G02*
X111234600Y-101373600I75000J0D01*
G01*
X111384600Y-101373600D01*
G75*
G02*
X111459600Y-101448600I0J-75000D01*
G01*
X111459600Y-102773600D01*
G75*
G02*
X111384600Y-102848600I-75000J0D01*
G01*
G37*
G36*
G01*
X113384600Y-103673600D02*
X112059600Y-103673600D01*
G75*
G02*
X111984600Y-103598600I0J75000D01*
G01*
X111984600Y-103448600D01*
G75*
G02*
X112059600Y-103373600I75000J0D01*
G01*
X113384600Y-103373600D01*
G75*
G02*
X113459600Y-103448600I0J-75000D01*
G01*
X113459600Y-103598600D01*
G75*
G02*
X113384600Y-103673600I-75000J0D01*
G01*
G37*
G36*
G01*
X113384600Y-104173600D02*
X112059600Y-104173600D01*
G75*
G02*
X111984600Y-104098600I0J75000D01*
G01*
X111984600Y-103948600D01*
G75*
G02*
X112059600Y-103873600I75000J0D01*
G01*
X113384600Y-103873600D01*
G75*
G02*
X113459600Y-103948600I0J-75000D01*
G01*
X113459600Y-104098600D01*
G75*
G02*
X113384600Y-104173600I-75000J0D01*
G01*
G37*
G36*
G01*
X113384600Y-104673600D02*
X112059600Y-104673600D01*
G75*
G02*
X111984600Y-104598600I0J75000D01*
G01*
X111984600Y-104448600D01*
G75*
G02*
X112059600Y-104373600I75000J0D01*
G01*
X113384600Y-104373600D01*
G75*
G02*
X113459600Y-104448600I0J-75000D01*
G01*
X113459600Y-104598600D01*
G75*
G02*
X113384600Y-104673600I-75000J0D01*
G01*
G37*
G36*
G01*
X113384600Y-105173600D02*
X112059600Y-105173600D01*
G75*
G02*
X111984600Y-105098600I0J75000D01*
G01*
X111984600Y-104948600D01*
G75*
G02*
X112059600Y-104873600I75000J0D01*
G01*
X113384600Y-104873600D01*
G75*
G02*
X113459600Y-104948600I0J-75000D01*
G01*
X113459600Y-105098600D01*
G75*
G02*
X113384600Y-105173600I-75000J0D01*
G01*
G37*
G36*
G01*
X113384600Y-105673600D02*
X112059600Y-105673600D01*
G75*
G02*
X111984600Y-105598600I0J75000D01*
G01*
X111984600Y-105448600D01*
G75*
G02*
X112059600Y-105373600I75000J0D01*
G01*
X113384600Y-105373600D01*
G75*
G02*
X113459600Y-105448600I0J-75000D01*
G01*
X113459600Y-105598600D01*
G75*
G02*
X113384600Y-105673600I-75000J0D01*
G01*
G37*
G36*
G01*
X113384600Y-106173600D02*
X112059600Y-106173600D01*
G75*
G02*
X111984600Y-106098600I0J75000D01*
G01*
X111984600Y-105948600D01*
G75*
G02*
X112059600Y-105873600I75000J0D01*
G01*
X113384600Y-105873600D01*
G75*
G02*
X113459600Y-105948600I0J-75000D01*
G01*
X113459600Y-106098600D01*
G75*
G02*
X113384600Y-106173600I-75000J0D01*
G01*
G37*
G36*
G01*
X113384600Y-106673600D02*
X112059600Y-106673600D01*
G75*
G02*
X111984600Y-106598600I0J75000D01*
G01*
X111984600Y-106448600D01*
G75*
G02*
X112059600Y-106373600I75000J0D01*
G01*
X113384600Y-106373600D01*
G75*
G02*
X113459600Y-106448600I0J-75000D01*
G01*
X113459600Y-106598600D01*
G75*
G02*
X113384600Y-106673600I-75000J0D01*
G01*
G37*
G36*
G01*
X113384600Y-107173600D02*
X112059600Y-107173600D01*
G75*
G02*
X111984600Y-107098600I0J75000D01*
G01*
X111984600Y-106948600D01*
G75*
G02*
X112059600Y-106873600I75000J0D01*
G01*
X113384600Y-106873600D01*
G75*
G02*
X113459600Y-106948600I0J-75000D01*
G01*
X113459600Y-107098600D01*
G75*
G02*
X113384600Y-107173600I-75000J0D01*
G01*
G37*
G36*
G01*
X113384600Y-107673600D02*
X112059600Y-107673600D01*
G75*
G02*
X111984600Y-107598600I0J75000D01*
G01*
X111984600Y-107448600D01*
G75*
G02*
X112059600Y-107373600I75000J0D01*
G01*
X113384600Y-107373600D01*
G75*
G02*
X113459600Y-107448600I0J-75000D01*
G01*
X113459600Y-107598600D01*
G75*
G02*
X113384600Y-107673600I-75000J0D01*
G01*
G37*
G36*
G01*
X113384600Y-108173600D02*
X112059600Y-108173600D01*
G75*
G02*
X111984600Y-108098600I0J75000D01*
G01*
X111984600Y-107948600D01*
G75*
G02*
X112059600Y-107873600I75000J0D01*
G01*
X113384600Y-107873600D01*
G75*
G02*
X113459600Y-107948600I0J-75000D01*
G01*
X113459600Y-108098600D01*
G75*
G02*
X113384600Y-108173600I-75000J0D01*
G01*
G37*
G36*
G01*
X113384600Y-108673600D02*
X112059600Y-108673600D01*
G75*
G02*
X111984600Y-108598600I0J75000D01*
G01*
X111984600Y-108448600D01*
G75*
G02*
X112059600Y-108373600I75000J0D01*
G01*
X113384600Y-108373600D01*
G75*
G02*
X113459600Y-108448600I0J-75000D01*
G01*
X113459600Y-108598600D01*
G75*
G02*
X113384600Y-108673600I-75000J0D01*
G01*
G37*
G36*
G01*
X113384600Y-109173600D02*
X112059600Y-109173600D01*
G75*
G02*
X111984600Y-109098600I0J75000D01*
G01*
X111984600Y-108948600D01*
G75*
G02*
X112059600Y-108873600I75000J0D01*
G01*
X113384600Y-108873600D01*
G75*
G02*
X113459600Y-108948600I0J-75000D01*
G01*
X113459600Y-109098600D01*
G75*
G02*
X113384600Y-109173600I-75000J0D01*
G01*
G37*
G36*
G01*
X111384600Y-111173600D02*
X111234600Y-111173600D01*
G75*
G02*
X111159600Y-111098600I0J75000D01*
G01*
X111159600Y-109773600D01*
G75*
G02*
X111234600Y-109698600I75000J0D01*
G01*
X111384600Y-109698600D01*
G75*
G02*
X111459600Y-109773600I0J-75000D01*
G01*
X111459600Y-111098600D01*
G75*
G02*
X111384600Y-111173600I-75000J0D01*
G01*
G37*
G36*
G01*
X110884600Y-111173600D02*
X110734600Y-111173600D01*
G75*
G02*
X110659600Y-111098600I0J75000D01*
G01*
X110659600Y-109773600D01*
G75*
G02*
X110734600Y-109698600I75000J0D01*
G01*
X110884600Y-109698600D01*
G75*
G02*
X110959600Y-109773600I0J-75000D01*
G01*
X110959600Y-111098600D01*
G75*
G02*
X110884600Y-111173600I-75000J0D01*
G01*
G37*
G36*
G01*
X110384600Y-111173600D02*
X110234600Y-111173600D01*
G75*
G02*
X110159600Y-111098600I0J75000D01*
G01*
X110159600Y-109773600D01*
G75*
G02*
X110234600Y-109698600I75000J0D01*
G01*
X110384600Y-109698600D01*
G75*
G02*
X110459600Y-109773600I0J-75000D01*
G01*
X110459600Y-111098600D01*
G75*
G02*
X110384600Y-111173600I-75000J0D01*
G01*
G37*
G36*
G01*
X109884600Y-111173600D02*
X109734600Y-111173600D01*
G75*
G02*
X109659600Y-111098600I0J75000D01*
G01*
X109659600Y-109773600D01*
G75*
G02*
X109734600Y-109698600I75000J0D01*
G01*
X109884600Y-109698600D01*
G75*
G02*
X109959600Y-109773600I0J-75000D01*
G01*
X109959600Y-111098600D01*
G75*
G02*
X109884600Y-111173600I-75000J0D01*
G01*
G37*
G36*
G01*
X109384600Y-111173600D02*
X109234600Y-111173600D01*
G75*
G02*
X109159600Y-111098600I0J75000D01*
G01*
X109159600Y-109773600D01*
G75*
G02*
X109234600Y-109698600I75000J0D01*
G01*
X109384600Y-109698600D01*
G75*
G02*
X109459600Y-109773600I0J-75000D01*
G01*
X109459600Y-111098600D01*
G75*
G02*
X109384600Y-111173600I-75000J0D01*
G01*
G37*
G36*
G01*
X108884600Y-111173600D02*
X108734600Y-111173600D01*
G75*
G02*
X108659600Y-111098600I0J75000D01*
G01*
X108659600Y-109773600D01*
G75*
G02*
X108734600Y-109698600I75000J0D01*
G01*
X108884600Y-109698600D01*
G75*
G02*
X108959600Y-109773600I0J-75000D01*
G01*
X108959600Y-111098600D01*
G75*
G02*
X108884600Y-111173600I-75000J0D01*
G01*
G37*
G36*
G01*
X108384600Y-111173600D02*
X108234600Y-111173600D01*
G75*
G02*
X108159600Y-111098600I0J75000D01*
G01*
X108159600Y-109773600D01*
G75*
G02*
X108234600Y-109698600I75000J0D01*
G01*
X108384600Y-109698600D01*
G75*
G02*
X108459600Y-109773600I0J-75000D01*
G01*
X108459600Y-111098600D01*
G75*
G02*
X108384600Y-111173600I-75000J0D01*
G01*
G37*
G36*
G01*
X107884600Y-111173600D02*
X107734600Y-111173600D01*
G75*
G02*
X107659600Y-111098600I0J75000D01*
G01*
X107659600Y-109773600D01*
G75*
G02*
X107734600Y-109698600I75000J0D01*
G01*
X107884600Y-109698600D01*
G75*
G02*
X107959600Y-109773600I0J-75000D01*
G01*
X107959600Y-111098600D01*
G75*
G02*
X107884600Y-111173600I-75000J0D01*
G01*
G37*
G36*
G01*
X107384600Y-111173600D02*
X107234600Y-111173600D01*
G75*
G02*
X107159600Y-111098600I0J75000D01*
G01*
X107159600Y-109773600D01*
G75*
G02*
X107234600Y-109698600I75000J0D01*
G01*
X107384600Y-109698600D01*
G75*
G02*
X107459600Y-109773600I0J-75000D01*
G01*
X107459600Y-111098600D01*
G75*
G02*
X107384600Y-111173600I-75000J0D01*
G01*
G37*
G36*
G01*
X106884600Y-111173600D02*
X106734600Y-111173600D01*
G75*
G02*
X106659600Y-111098600I0J75000D01*
G01*
X106659600Y-109773600D01*
G75*
G02*
X106734600Y-109698600I75000J0D01*
G01*
X106884600Y-109698600D01*
G75*
G02*
X106959600Y-109773600I0J-75000D01*
G01*
X106959600Y-111098600D01*
G75*
G02*
X106884600Y-111173600I-75000J0D01*
G01*
G37*
G36*
G01*
X106384600Y-111173600D02*
X106234600Y-111173600D01*
G75*
G02*
X106159600Y-111098600I0J75000D01*
G01*
X106159600Y-109773600D01*
G75*
G02*
X106234600Y-109698600I75000J0D01*
G01*
X106384600Y-109698600D01*
G75*
G02*
X106459600Y-109773600I0J-75000D01*
G01*
X106459600Y-111098600D01*
G75*
G02*
X106384600Y-111173600I-75000J0D01*
G01*
G37*
G36*
G01*
X105884600Y-111173600D02*
X105734600Y-111173600D01*
G75*
G02*
X105659600Y-111098600I0J75000D01*
G01*
X105659600Y-109773600D01*
G75*
G02*
X105734600Y-109698600I75000J0D01*
G01*
X105884600Y-109698600D01*
G75*
G02*
X105959600Y-109773600I0J-75000D01*
G01*
X105959600Y-111098600D01*
G75*
G02*
X105884600Y-111173600I-75000J0D01*
G01*
G37*
D10*
X105943400Y-116357400D03*
X108143400Y-116357400D03*
X108143400Y-118057400D03*
X105943400Y-118057400D03*
D11*
X107721400Y-84742200D03*
X108671400Y-84742200D03*
X106771400Y-84742200D03*
X106771400Y-82542200D03*
X107721400Y-82542200D03*
X108671400Y-82542200D03*
D12*
X127014000Y-90753800D03*
X122414000Y-90753800D03*
X124714000Y-90753800D03*
D13*
X124714000Y-97053800D03*
D14*
X135725000Y-101890000D03*
X135725000Y-106390000D03*
X143675000Y-106390000D03*
X143675000Y-101890000D03*
X135725000Y-117130000D03*
X135725000Y-121630000D03*
X143675000Y-121630000D03*
X143675000Y-117130000D03*
X135725000Y-109510000D03*
X135725000Y-114010000D03*
X143675000Y-114010000D03*
X143675000Y-109510000D03*
X135725000Y-124750000D03*
X135725000Y-129250000D03*
X143675000Y-129250000D03*
X143675000Y-124750000D03*
X85425000Y-119760000D03*
X85425000Y-124260000D03*
X93375000Y-124260000D03*
X93375000Y-119760000D03*
G36*
G01*
X103627999Y-84126000D02*
X104528001Y-84126000D01*
G75*
G02*
X104778000Y-84375999I0J-249999D01*
G01*
X104778000Y-84901001D01*
G75*
G02*
X104528001Y-85151000I-249999J0D01*
G01*
X103627999Y-85151000D01*
G75*
G02*
X103378000Y-84901001I0J249999D01*
G01*
X103378000Y-84375999D01*
G75*
G02*
X103627999Y-84126000I249999J0D01*
G01*
G37*
G36*
G01*
X103627999Y-82301000D02*
X104528001Y-82301000D01*
G75*
G02*
X104778000Y-82550999I0J-249999D01*
G01*
X104778000Y-83076001D01*
G75*
G02*
X104528001Y-83326000I-249999J0D01*
G01*
X103627999Y-83326000D01*
G75*
G02*
X103378000Y-83076001I0J249999D01*
G01*
X103378000Y-82550999D01*
G75*
G02*
X103627999Y-82301000I249999J0D01*
G01*
G37*
G36*
G01*
X132645999Y-103270000D02*
X133546001Y-103270000D01*
G75*
G02*
X133796000Y-103519999I0J-249999D01*
G01*
X133796000Y-104045001D01*
G75*
G02*
X133546001Y-104295000I-249999J0D01*
G01*
X132645999Y-104295000D01*
G75*
G02*
X132396000Y-104045001I0J249999D01*
G01*
X132396000Y-103519999D01*
G75*
G02*
X132645999Y-103270000I249999J0D01*
G01*
G37*
G36*
G01*
X132645999Y-101445000D02*
X133546001Y-101445000D01*
G75*
G02*
X133796000Y-101694999I0J-249999D01*
G01*
X133796000Y-102220001D01*
G75*
G02*
X133546001Y-102470000I-249999J0D01*
G01*
X132645999Y-102470000D01*
G75*
G02*
X132396000Y-102220001I0J249999D01*
G01*
X132396000Y-101694999D01*
G75*
G02*
X132645999Y-101445000I249999J0D01*
G01*
G37*
G36*
G01*
X133242000Y-123386001D02*
X133242000Y-122485999D01*
G75*
G02*
X133491999Y-122236000I249999J0D01*
G01*
X134017001Y-122236000D01*
G75*
G02*
X134267000Y-122485999I0J-249999D01*
G01*
X134267000Y-123386001D01*
G75*
G02*
X134017001Y-123636000I-249999J0D01*
G01*
X133491999Y-123636000D01*
G75*
G02*
X133242000Y-123386001I0J249999D01*
G01*
G37*
G36*
G01*
X131417000Y-123386001D02*
X131417000Y-122485999D01*
G75*
G02*
X131666999Y-122236000I249999J0D01*
G01*
X132192001Y-122236000D01*
G75*
G02*
X132442000Y-122485999I0J-249999D01*
G01*
X132442000Y-123386001D01*
G75*
G02*
X132192001Y-123636000I-249999J0D01*
G01*
X131666999Y-123636000D01*
G75*
G02*
X131417000Y-123386001I0J249999D01*
G01*
G37*
G36*
G01*
X98200001Y-110687500D02*
X97299999Y-110687500D01*
G75*
G02*
X97050000Y-110437501I0J249999D01*
G01*
X97050000Y-109912499D01*
G75*
G02*
X97299999Y-109662500I249999J0D01*
G01*
X98200001Y-109662500D01*
G75*
G02*
X98450000Y-109912499I0J-249999D01*
G01*
X98450000Y-110437501D01*
G75*
G02*
X98200001Y-110687500I-249999J0D01*
G01*
G37*
G36*
G01*
X98200001Y-112512500D02*
X97299999Y-112512500D01*
G75*
G02*
X97050000Y-112262501I0J249999D01*
G01*
X97050000Y-111737499D01*
G75*
G02*
X97299999Y-111487500I249999J0D01*
G01*
X98200001Y-111487500D01*
G75*
G02*
X98450000Y-111737499I0J-249999D01*
G01*
X98450000Y-112262501D01*
G75*
G02*
X98200001Y-112512500I-249999J0D01*
G01*
G37*
G36*
G01*
X97299999Y-105793500D02*
X98200001Y-105793500D01*
G75*
G02*
X98450000Y-106043499I0J-249999D01*
G01*
X98450000Y-106568501D01*
G75*
G02*
X98200001Y-106818500I-249999J0D01*
G01*
X97299999Y-106818500D01*
G75*
G02*
X97050000Y-106568501I0J249999D01*
G01*
X97050000Y-106043499D01*
G75*
G02*
X97299999Y-105793500I249999J0D01*
G01*
G37*
G36*
G01*
X97299999Y-103968500D02*
X98200001Y-103968500D01*
G75*
G02*
X98450000Y-104218499I0J-249999D01*
G01*
X98450000Y-104743501D01*
G75*
G02*
X98200001Y-104993500I-249999J0D01*
G01*
X97299999Y-104993500D01*
G75*
G02*
X97050000Y-104743501I0J249999D01*
G01*
X97050000Y-104218499D01*
G75*
G02*
X97299999Y-103968500I249999J0D01*
G01*
G37*
G36*
G01*
X132480000Y-116020001D02*
X132480000Y-115119999D01*
G75*
G02*
X132729999Y-114870000I249999J0D01*
G01*
X133255001Y-114870000D01*
G75*
G02*
X133505000Y-115119999I0J-249999D01*
G01*
X133505000Y-116020001D01*
G75*
G02*
X133255001Y-116270000I-249999J0D01*
G01*
X132729999Y-116270000D01*
G75*
G02*
X132480000Y-116020001I0J249999D01*
G01*
G37*
G36*
G01*
X130655000Y-116020001D02*
X130655000Y-115119999D01*
G75*
G02*
X130904999Y-114870000I249999J0D01*
G01*
X131430001Y-114870000D01*
G75*
G02*
X131680000Y-115119999I0J-249999D01*
G01*
X131680000Y-116020001D01*
G75*
G02*
X131430001Y-116270000I-249999J0D01*
G01*
X130904999Y-116270000D01*
G75*
G02*
X130655000Y-116020001I0J249999D01*
G01*
G37*
G36*
G01*
X135123500Y-132276001D02*
X135123500Y-131375999D01*
G75*
G02*
X135373499Y-131126000I249999J0D01*
G01*
X135898501Y-131126000D01*
G75*
G02*
X136148500Y-131375999I0J-249999D01*
G01*
X136148500Y-132276001D01*
G75*
G02*
X135898501Y-132526000I-249999J0D01*
G01*
X135373499Y-132526000D01*
G75*
G02*
X135123500Y-132276001I0J249999D01*
G01*
G37*
G36*
G01*
X133298500Y-132276001D02*
X133298500Y-131375999D01*
G75*
G02*
X133548499Y-131126000I249999J0D01*
G01*
X134073501Y-131126000D01*
G75*
G02*
X134323500Y-131375999I0J-249999D01*
G01*
X134323500Y-132276001D01*
G75*
G02*
X134073501Y-132526000I-249999J0D01*
G01*
X133548499Y-132526000D01*
G75*
G02*
X133298500Y-132276001I0J249999D01*
G01*
G37*
G36*
G01*
X99485000Y-87397000D02*
X99485000Y-86847000D01*
G75*
G02*
X99685000Y-86647000I200000J0D01*
G01*
X100085000Y-86647000D01*
G75*
G02*
X100285000Y-86847000I0J-200000D01*
G01*
X100285000Y-87397000D01*
G75*
G02*
X100085000Y-87597000I-200000J0D01*
G01*
X99685000Y-87597000D01*
G75*
G02*
X99485000Y-87397000I0J200000D01*
G01*
G37*
G36*
G01*
X97835000Y-87397000D02*
X97835000Y-86847000D01*
G75*
G02*
X98035000Y-86647000I200000J0D01*
G01*
X98435000Y-86647000D01*
G75*
G02*
X98635000Y-86847000I0J-200000D01*
G01*
X98635000Y-87397000D01*
G75*
G02*
X98435000Y-87597000I-200000J0D01*
G01*
X98035000Y-87597000D01*
G75*
G02*
X97835000Y-87397000I0J200000D01*
G01*
G37*
G36*
G01*
X114944999Y-90054000D02*
X116195001Y-90054000D01*
G75*
G02*
X116445000Y-90303999I0J-249999D01*
G01*
X116445000Y-90929001D01*
G75*
G02*
X116195001Y-91179000I-249999J0D01*
G01*
X114944999Y-91179000D01*
G75*
G02*
X114695000Y-90929001I0J249999D01*
G01*
X114695000Y-90303999D01*
G75*
G02*
X114944999Y-90054000I249999J0D01*
G01*
G37*
G36*
G01*
X114944999Y-87129000D02*
X116195001Y-87129000D01*
G75*
G02*
X116445000Y-87378999I0J-249999D01*
G01*
X116445000Y-88004001D01*
G75*
G02*
X116195001Y-88254000I-249999J0D01*
G01*
X114944999Y-88254000D01*
G75*
G02*
X114695000Y-88004001I0J249999D01*
G01*
X114695000Y-87378999D01*
G75*
G02*
X114944999Y-87129000I249999J0D01*
G01*
G37*
G36*
G01*
X107954400Y-113925400D02*
X108504400Y-113925400D01*
G75*
G02*
X108704400Y-114125400I0J-200000D01*
G01*
X108704400Y-114525400D01*
G75*
G02*
X108504400Y-114725400I-200000J0D01*
G01*
X107954400Y-114725400D01*
G75*
G02*
X107754400Y-114525400I0J200000D01*
G01*
X107754400Y-114125400D01*
G75*
G02*
X107954400Y-113925400I200000J0D01*
G01*
G37*
G36*
G01*
X107954400Y-112275400D02*
X108504400Y-112275400D01*
G75*
G02*
X108704400Y-112475400I0J-200000D01*
G01*
X108704400Y-112875400D01*
G75*
G02*
X108504400Y-113075400I-200000J0D01*
G01*
X107954400Y-113075400D01*
G75*
G02*
X107754400Y-112875400I0J200000D01*
G01*
X107754400Y-112475400D01*
G75*
G02*
X107954400Y-112275400I200000J0D01*
G01*
G37*
G36*
G01*
X88449999Y-103119500D02*
X89350001Y-103119500D01*
G75*
G02*
X89600000Y-103369499I0J-249999D01*
G01*
X89600000Y-103894501D01*
G75*
G02*
X89350001Y-104144500I-249999J0D01*
G01*
X88449999Y-104144500D01*
G75*
G02*
X88200000Y-103894501I0J249999D01*
G01*
X88200000Y-103369499D01*
G75*
G02*
X88449999Y-103119500I249999J0D01*
G01*
G37*
G36*
G01*
X88449999Y-101294500D02*
X89350001Y-101294500D01*
G75*
G02*
X89600000Y-101544499I0J-249999D01*
G01*
X89600000Y-102069501D01*
G75*
G02*
X89350001Y-102319500I-249999J0D01*
G01*
X88449999Y-102319500D01*
G75*
G02*
X88200000Y-102069501I0J249999D01*
G01*
X88200000Y-101544499D01*
G75*
G02*
X88449999Y-101294500I249999J0D01*
G01*
G37*
G36*
G01*
X119516999Y-111328500D02*
X120767001Y-111328500D01*
G75*
G02*
X121017000Y-111578499I0J-249999D01*
G01*
X121017000Y-112203501D01*
G75*
G02*
X120767001Y-112453500I-249999J0D01*
G01*
X119516999Y-112453500D01*
G75*
G02*
X119267000Y-112203501I0J249999D01*
G01*
X119267000Y-111578499D01*
G75*
G02*
X119516999Y-111328500I249999J0D01*
G01*
G37*
G36*
G01*
X119516999Y-108403500D02*
X120767001Y-108403500D01*
G75*
G02*
X121017000Y-108653499I0J-249999D01*
G01*
X121017000Y-109278501D01*
G75*
G02*
X120767001Y-109528500I-249999J0D01*
G01*
X119516999Y-109528500D01*
G75*
G02*
X119267000Y-109278501I0J249999D01*
G01*
X119267000Y-108653499D01*
G75*
G02*
X119516999Y-108403500I249999J0D01*
G01*
G37*
G36*
G01*
X122056999Y-111328500D02*
X123307001Y-111328500D01*
G75*
G02*
X123557000Y-111578499I0J-249999D01*
G01*
X123557000Y-112203501D01*
G75*
G02*
X123307001Y-112453500I-249999J0D01*
G01*
X122056999Y-112453500D01*
G75*
G02*
X121807000Y-112203501I0J249999D01*
G01*
X121807000Y-111578499D01*
G75*
G02*
X122056999Y-111328500I249999J0D01*
G01*
G37*
G36*
G01*
X122056999Y-108403500D02*
X123307001Y-108403500D01*
G75*
G02*
X123557000Y-108653499I0J-249999D01*
G01*
X123557000Y-109278501D01*
G75*
G02*
X123307001Y-109528500I-249999J0D01*
G01*
X122056999Y-109528500D01*
G75*
G02*
X121807000Y-109278501I0J249999D01*
G01*
X121807000Y-108653499D01*
G75*
G02*
X122056999Y-108403500I249999J0D01*
G01*
G37*
D15*
X120142000Y-82534000D03*
X119192000Y-80534000D03*
X121092000Y-80534000D03*
G36*
G01*
X113794250Y-116515500D02*
X113281750Y-116515500D01*
G75*
G02*
X113063000Y-116296750I0J218750D01*
G01*
X113063000Y-115859250D01*
G75*
G02*
X113281750Y-115640500I218750J0D01*
G01*
X113794250Y-115640500D01*
G75*
G02*
X114013000Y-115859250I0J-218750D01*
G01*
X114013000Y-116296750D01*
G75*
G02*
X113794250Y-116515500I-218750J0D01*
G01*
G37*
G36*
G01*
X113794250Y-118090500D02*
X113281750Y-118090500D01*
G75*
G02*
X113063000Y-117871750I0J218750D01*
G01*
X113063000Y-117434250D01*
G75*
G02*
X113281750Y-117215500I218750J0D01*
G01*
X113794250Y-117215500D01*
G75*
G02*
X114013000Y-117434250I0J-218750D01*
G01*
X114013000Y-117871750D01*
G75*
G02*
X113794250Y-118090500I-218750J0D01*
G01*
G37*
D16*
X105475400Y-78692200D03*
X110475400Y-78692200D03*
D17*
X105075400Y-75992200D03*
X110875400Y-75992200D03*
D18*
X104475400Y-75992200D03*
D19*
X106975400Y-75992200D03*
X108975400Y-75992200D03*
D18*
X111475400Y-75992200D03*
D20*
X106675400Y-78692200D03*
X107325400Y-78692200D03*
X107975400Y-78692200D03*
X108625400Y-78692200D03*
X109275400Y-78692200D03*
G36*
G01*
X127267000Y-82159000D02*
X127267000Y-80909000D01*
G75*
G02*
X127517000Y-80659000I250000J0D01*
G01*
X128267000Y-80659000D01*
G75*
G02*
X128517000Y-80909000I0J-250000D01*
G01*
X128517000Y-82159000D01*
G75*
G02*
X128267000Y-82409000I-250000J0D01*
G01*
X127517000Y-82409000D01*
G75*
G02*
X127267000Y-82159000I0J250000D01*
G01*
G37*
G36*
G01*
X124467000Y-82159000D02*
X124467000Y-80909000D01*
G75*
G02*
X124717000Y-80659000I250000J0D01*
G01*
X125467000Y-80659000D01*
G75*
G02*
X125717000Y-80909000I0J-250000D01*
G01*
X125717000Y-82159000D01*
G75*
G02*
X125467000Y-82409000I-250000J0D01*
G01*
X124717000Y-82409000D01*
G75*
G02*
X124467000Y-82159000I0J250000D01*
G01*
G37*
G36*
G01*
X116195000Y-93713000D02*
X114945000Y-93713000D01*
G75*
G02*
X114695000Y-93463000I0J250000D01*
G01*
X114695000Y-92713000D01*
G75*
G02*
X114945000Y-92463000I250000J0D01*
G01*
X116195000Y-92463000D01*
G75*
G02*
X116445000Y-92713000I0J-250000D01*
G01*
X116445000Y-93463000D01*
G75*
G02*
X116195000Y-93713000I-250000J0D01*
G01*
G37*
G36*
G01*
X116195000Y-96513000D02*
X114945000Y-96513000D01*
G75*
G02*
X114695000Y-96263000I0J250000D01*
G01*
X114695000Y-95513000D01*
G75*
G02*
X114945000Y-95263000I250000J0D01*
G01*
X116195000Y-95263000D01*
G75*
G02*
X116445000Y-95513000I0J-250000D01*
G01*
X116445000Y-96263000D01*
G75*
G02*
X116195000Y-96513000I-250000J0D01*
G01*
G37*
D21*
X115062000Y-78614000D03*
X115062000Y-81914000D03*
G36*
G01*
X120767000Y-115427000D02*
X119517000Y-115427000D01*
G75*
G02*
X119267000Y-115177000I0J250000D01*
G01*
X119267000Y-114427000D01*
G75*
G02*
X119517000Y-114177000I250000J0D01*
G01*
X120767000Y-114177000D01*
G75*
G02*
X121017000Y-114427000I0J-250000D01*
G01*
X121017000Y-115177000D01*
G75*
G02*
X120767000Y-115427000I-250000J0D01*
G01*
G37*
G36*
G01*
X120767000Y-118227000D02*
X119517000Y-118227000D01*
G75*
G02*
X119267000Y-117977000I0J250000D01*
G01*
X119267000Y-117227000D01*
G75*
G02*
X119517000Y-116977000I250000J0D01*
G01*
X120767000Y-116977000D01*
G75*
G02*
X121017000Y-117227000I0J-250000D01*
G01*
X121017000Y-117977000D01*
G75*
G02*
X120767000Y-118227000I-250000J0D01*
G01*
G37*
G36*
G01*
X123307000Y-115433000D02*
X122057000Y-115433000D01*
G75*
G02*
X121807000Y-115183000I0J250000D01*
G01*
X121807000Y-114433000D01*
G75*
G02*
X122057000Y-114183000I250000J0D01*
G01*
X123307000Y-114183000D01*
G75*
G02*
X123557000Y-114433000I0J-250000D01*
G01*
X123557000Y-115183000D01*
G75*
G02*
X123307000Y-115433000I-250000J0D01*
G01*
G37*
G36*
G01*
X123307000Y-118233000D02*
X122057000Y-118233000D01*
G75*
G02*
X121807000Y-117983000I0J250000D01*
G01*
X121807000Y-117233000D01*
G75*
G02*
X122057000Y-116983000I250000J0D01*
G01*
X123307000Y-116983000D01*
G75*
G02*
X123557000Y-117233000I0J-250000D01*
G01*
X123557000Y-117983000D01*
G75*
G02*
X123307000Y-118233000I-250000J0D01*
G01*
G37*
G36*
G01*
X146046000Y-104056000D02*
X145546000Y-104056000D01*
G75*
G02*
X145321000Y-103831000I0J225000D01*
G01*
X145321000Y-103381000D01*
G75*
G02*
X145546000Y-103156000I225000J0D01*
G01*
X146046000Y-103156000D01*
G75*
G02*
X146271000Y-103381000I0J-225000D01*
G01*
X146271000Y-103831000D01*
G75*
G02*
X146046000Y-104056000I-225000J0D01*
G01*
G37*
G36*
G01*
X146046000Y-105606000D02*
X145546000Y-105606000D01*
G75*
G02*
X145321000Y-105381000I0J225000D01*
G01*
X145321000Y-104931000D01*
G75*
G02*
X145546000Y-104706000I225000J0D01*
G01*
X146046000Y-104706000D01*
G75*
G02*
X146271000Y-104931000I0J-225000D01*
G01*
X146271000Y-105381000D01*
G75*
G02*
X146046000Y-105606000I-225000J0D01*
G01*
G37*
G36*
G01*
X146046000Y-119309000D02*
X145546000Y-119309000D01*
G75*
G02*
X145321000Y-119084000I0J225000D01*
G01*
X145321000Y-118634000D01*
G75*
G02*
X145546000Y-118409000I225000J0D01*
G01*
X146046000Y-118409000D01*
G75*
G02*
X146271000Y-118634000I0J-225000D01*
G01*
X146271000Y-119084000D01*
G75*
G02*
X146046000Y-119309000I-225000J0D01*
G01*
G37*
G36*
G01*
X146046000Y-120859000D02*
X145546000Y-120859000D01*
G75*
G02*
X145321000Y-120634000I0J225000D01*
G01*
X145321000Y-120184000D01*
G75*
G02*
X145546000Y-119959000I225000J0D01*
G01*
X146046000Y-119959000D01*
G75*
G02*
X146271000Y-120184000I0J-225000D01*
G01*
X146271000Y-120634000D01*
G75*
G02*
X146046000Y-120859000I-225000J0D01*
G01*
G37*
G36*
G01*
X146046000Y-111181000D02*
X145546000Y-111181000D01*
G75*
G02*
X145321000Y-110956000I0J225000D01*
G01*
X145321000Y-110506000D01*
G75*
G02*
X145546000Y-110281000I225000J0D01*
G01*
X146046000Y-110281000D01*
G75*
G02*
X146271000Y-110506000I0J-225000D01*
G01*
X146271000Y-110956000D01*
G75*
G02*
X146046000Y-111181000I-225000J0D01*
G01*
G37*
G36*
G01*
X146046000Y-112731000D02*
X145546000Y-112731000D01*
G75*
G02*
X145321000Y-112506000I0J225000D01*
G01*
X145321000Y-112056000D01*
G75*
G02*
X145546000Y-111831000I225000J0D01*
G01*
X146046000Y-111831000D01*
G75*
G02*
X146271000Y-112056000I0J-225000D01*
G01*
X146271000Y-112506000D01*
G75*
G02*
X146046000Y-112731000I-225000J0D01*
G01*
G37*
G36*
G01*
X146046000Y-126662000D02*
X145546000Y-126662000D01*
G75*
G02*
X145321000Y-126437000I0J225000D01*
G01*
X145321000Y-125987000D01*
G75*
G02*
X145546000Y-125762000I225000J0D01*
G01*
X146046000Y-125762000D01*
G75*
G02*
X146271000Y-125987000I0J-225000D01*
G01*
X146271000Y-126437000D01*
G75*
G02*
X146046000Y-126662000I-225000J0D01*
G01*
G37*
G36*
G01*
X146046000Y-128212000D02*
X145546000Y-128212000D01*
G75*
G02*
X145321000Y-127987000I0J225000D01*
G01*
X145321000Y-127537000D01*
G75*
G02*
X145546000Y-127312000I225000J0D01*
G01*
X146046000Y-127312000D01*
G75*
G02*
X146271000Y-127537000I0J-225000D01*
G01*
X146271000Y-127987000D01*
G75*
G02*
X146046000Y-128212000I-225000J0D01*
G01*
G37*
G36*
G01*
X127392000Y-87264001D02*
X127392000Y-85963999D01*
G75*
G02*
X127641999Y-85714000I249999J0D01*
G01*
X128292001Y-85714000D01*
G75*
G02*
X128542000Y-85963999I0J-249999D01*
G01*
X128542000Y-87264001D01*
G75*
G02*
X128292001Y-87514000I-249999J0D01*
G01*
X127641999Y-87514000D01*
G75*
G02*
X127392000Y-87264001I0J249999D01*
G01*
G37*
G36*
G01*
X124442000Y-87264001D02*
X124442000Y-85963999D01*
G75*
G02*
X124691999Y-85714000I249999J0D01*
G01*
X125342001Y-85714000D01*
G75*
G02*
X125592000Y-85963999I0J-249999D01*
G01*
X125592000Y-87264001D01*
G75*
G02*
X125342001Y-87514000I-249999J0D01*
G01*
X124691999Y-87514000D01*
G75*
G02*
X124442000Y-87264001I0J249999D01*
G01*
G37*
G36*
G01*
X122062001Y-85714000D02*
X120761999Y-85714000D01*
G75*
G02*
X120512000Y-85464001I0J249999D01*
G01*
X120512000Y-84813999D01*
G75*
G02*
X120761999Y-84564000I249999J0D01*
G01*
X122062001Y-84564000D01*
G75*
G02*
X122312000Y-84813999I0J-249999D01*
G01*
X122312000Y-85464001D01*
G75*
G02*
X122062001Y-85714000I-249999J0D01*
G01*
G37*
G36*
G01*
X122062001Y-88664000D02*
X120761999Y-88664000D01*
G75*
G02*
X120512000Y-88414001I0J249999D01*
G01*
X120512000Y-87763999D01*
G75*
G02*
X120761999Y-87514000I249999J0D01*
G01*
X122062001Y-87514000D01*
G75*
G02*
X122312000Y-87763999I0J-249999D01*
G01*
X122312000Y-88414001D01*
G75*
G02*
X122062001Y-88664000I-249999J0D01*
G01*
G37*
G36*
G01*
X109837400Y-117600000D02*
X110177400Y-117600000D01*
G75*
G02*
X110317400Y-117740000I0J-140000D01*
G01*
X110317400Y-118020000D01*
G75*
G02*
X110177400Y-118160000I-140000J0D01*
G01*
X109837400Y-118160000D01*
G75*
G02*
X109697400Y-118020000I0J140000D01*
G01*
X109697400Y-117740000D01*
G75*
G02*
X109837400Y-117600000I140000J0D01*
G01*
G37*
G36*
G01*
X109837400Y-116640000D02*
X110177400Y-116640000D01*
G75*
G02*
X110317400Y-116780000I0J-140000D01*
G01*
X110317400Y-117060000D01*
G75*
G02*
X110177400Y-117200000I-140000J0D01*
G01*
X109837400Y-117200000D01*
G75*
G02*
X109697400Y-117060000I0J140000D01*
G01*
X109697400Y-116780000D01*
G75*
G02*
X109837400Y-116640000I140000J0D01*
G01*
G37*
G36*
G01*
X104208400Y-117455400D02*
X103868400Y-117455400D01*
G75*
G02*
X103728400Y-117315400I0J140000D01*
G01*
X103728400Y-117035400D01*
G75*
G02*
X103868400Y-116895400I140000J0D01*
G01*
X104208400Y-116895400D01*
G75*
G02*
X104348400Y-117035400I0J-140000D01*
G01*
X104348400Y-117315400D01*
G75*
G02*
X104208400Y-117455400I-140000J0D01*
G01*
G37*
G36*
G01*
X104208400Y-118415400D02*
X103868400Y-118415400D01*
G75*
G02*
X103728400Y-118275400I0J140000D01*
G01*
X103728400Y-117995400D01*
G75*
G02*
X103868400Y-117855400I140000J0D01*
G01*
X104208400Y-117855400D01*
G75*
G02*
X104348400Y-117995400I0J-140000D01*
G01*
X104348400Y-118275400D01*
G75*
G02*
X104208400Y-118415400I-140000J0D01*
G01*
G37*
G36*
G01*
X82800000Y-122348000D02*
X83300000Y-122348000D01*
G75*
G02*
X83525000Y-122573000I0J-225000D01*
G01*
X83525000Y-123023000D01*
G75*
G02*
X83300000Y-123248000I-225000J0D01*
G01*
X82800000Y-123248000D01*
G75*
G02*
X82575000Y-123023000I0J225000D01*
G01*
X82575000Y-122573000D01*
G75*
G02*
X82800000Y-122348000I225000J0D01*
G01*
G37*
G36*
G01*
X82800000Y-120798000D02*
X83300000Y-120798000D01*
G75*
G02*
X83525000Y-121023000I0J-225000D01*
G01*
X83525000Y-121473000D01*
G75*
G02*
X83300000Y-121698000I-225000J0D01*
G01*
X82800000Y-121698000D01*
G75*
G02*
X82575000Y-121473000I0J225000D01*
G01*
X82575000Y-121023000D01*
G75*
G02*
X82800000Y-120798000I225000J0D01*
G01*
G37*
G36*
G01*
X104144000Y-112860000D02*
X104644000Y-112860000D01*
G75*
G02*
X104869000Y-113085000I0J-225000D01*
G01*
X104869000Y-113535000D01*
G75*
G02*
X104644000Y-113760000I-225000J0D01*
G01*
X104144000Y-113760000D01*
G75*
G02*
X103919000Y-113535000I0J225000D01*
G01*
X103919000Y-113085000D01*
G75*
G02*
X104144000Y-112860000I225000J0D01*
G01*
G37*
G36*
G01*
X104144000Y-111310000D02*
X104644000Y-111310000D01*
G75*
G02*
X104869000Y-111535000I0J-225000D01*
G01*
X104869000Y-111985000D01*
G75*
G02*
X104644000Y-112210000I-225000J0D01*
G01*
X104144000Y-112210000D01*
G75*
G02*
X103919000Y-111985000I0J225000D01*
G01*
X103919000Y-111535000D01*
G75*
G02*
X104144000Y-111310000I225000J0D01*
G01*
G37*
G36*
G01*
X101275000Y-109732000D02*
X101275000Y-110232000D01*
G75*
G02*
X101050000Y-110457000I-225000J0D01*
G01*
X100600000Y-110457000D01*
G75*
G02*
X100375000Y-110232000I0J225000D01*
G01*
X100375000Y-109732000D01*
G75*
G02*
X100600000Y-109507000I225000J0D01*
G01*
X101050000Y-109507000D01*
G75*
G02*
X101275000Y-109732000I0J-225000D01*
G01*
G37*
G36*
G01*
X102825000Y-109732000D02*
X102825000Y-110232000D01*
G75*
G02*
X102600000Y-110457000I-225000J0D01*
G01*
X102150000Y-110457000D01*
G75*
G02*
X101925000Y-110232000I0J225000D01*
G01*
X101925000Y-109732000D01*
G75*
G02*
X102150000Y-109507000I225000J0D01*
G01*
X102600000Y-109507000D01*
G75*
G02*
X102825000Y-109732000I0J-225000D01*
G01*
G37*
G36*
G01*
X104771000Y-100513000D02*
X104271000Y-100513000D01*
G75*
G02*
X104046000Y-100288000I0J225000D01*
G01*
X104046000Y-99838000D01*
G75*
G02*
X104271000Y-99613000I225000J0D01*
G01*
X104771000Y-99613000D01*
G75*
G02*
X104996000Y-99838000I0J-225000D01*
G01*
X104996000Y-100288000D01*
G75*
G02*
X104771000Y-100513000I-225000J0D01*
G01*
G37*
G36*
G01*
X104771000Y-102063000D02*
X104271000Y-102063000D01*
G75*
G02*
X104046000Y-101838000I0J225000D01*
G01*
X104046000Y-101388000D01*
G75*
G02*
X104271000Y-101163000I225000J0D01*
G01*
X104771000Y-101163000D01*
G75*
G02*
X104996000Y-101388000I0J-225000D01*
G01*
X104996000Y-101838000D01*
G75*
G02*
X104771000Y-102063000I-225000J0D01*
G01*
G37*
G36*
G01*
X114384000Y-102358000D02*
X114384000Y-101858000D01*
G75*
G02*
X114609000Y-101633000I225000J0D01*
G01*
X115059000Y-101633000D01*
G75*
G02*
X115284000Y-101858000I0J-225000D01*
G01*
X115284000Y-102358000D01*
G75*
G02*
X115059000Y-102583000I-225000J0D01*
G01*
X114609000Y-102583000D01*
G75*
G02*
X114384000Y-102358000I0J225000D01*
G01*
G37*
G36*
G01*
X112834000Y-102358000D02*
X112834000Y-101858000D01*
G75*
G02*
X113059000Y-101633000I225000J0D01*
G01*
X113509000Y-101633000D01*
G75*
G02*
X113734000Y-101858000I0J-225000D01*
G01*
X113734000Y-102358000D01*
G75*
G02*
X113509000Y-102583000I-225000J0D01*
G01*
X113059000Y-102583000D01*
G75*
G02*
X112834000Y-102358000I0J225000D01*
G01*
G37*
G36*
G01*
X102112000Y-114371000D02*
X102612000Y-114371000D01*
G75*
G02*
X102837000Y-114596000I0J-225000D01*
G01*
X102837000Y-115046000D01*
G75*
G02*
X102612000Y-115271000I-225000J0D01*
G01*
X102112000Y-115271000D01*
G75*
G02*
X101887000Y-115046000I0J225000D01*
G01*
X101887000Y-114596000D01*
G75*
G02*
X102112000Y-114371000I225000J0D01*
G01*
G37*
G36*
G01*
X102112000Y-112821000D02*
X102612000Y-112821000D01*
G75*
G02*
X102837000Y-113046000I0J-225000D01*
G01*
X102837000Y-113496000D01*
G75*
G02*
X102612000Y-113721000I-225000J0D01*
G01*
X102112000Y-113721000D01*
G75*
G02*
X101887000Y-113496000I0J225000D01*
G01*
X101887000Y-113046000D01*
G75*
G02*
X102112000Y-112821000I225000J0D01*
G01*
G37*
G36*
G01*
X111510000Y-115400000D02*
X112010000Y-115400000D01*
G75*
G02*
X112235000Y-115625000I0J-225000D01*
G01*
X112235000Y-116075000D01*
G75*
G02*
X112010000Y-116300000I-225000J0D01*
G01*
X111510000Y-116300000D01*
G75*
G02*
X111285000Y-116075000I0J225000D01*
G01*
X111285000Y-115625000D01*
G75*
G02*
X111510000Y-115400000I225000J0D01*
G01*
G37*
G36*
G01*
X111510000Y-113850000D02*
X112010000Y-113850000D01*
G75*
G02*
X112235000Y-114075000I0J-225000D01*
G01*
X112235000Y-114525000D01*
G75*
G02*
X112010000Y-114750000I-225000J0D01*
G01*
X111510000Y-114750000D01*
G75*
G02*
X111285000Y-114525000I0J225000D01*
G01*
X111285000Y-114075000D01*
G75*
G02*
X111510000Y-113850000I225000J0D01*
G01*
G37*
G36*
G01*
X109732000Y-114358000D02*
X110232000Y-114358000D01*
G75*
G02*
X110457000Y-114583000I0J-225000D01*
G01*
X110457000Y-115033000D01*
G75*
G02*
X110232000Y-115258000I-225000J0D01*
G01*
X109732000Y-115258000D01*
G75*
G02*
X109507000Y-115033000I0J225000D01*
G01*
X109507000Y-114583000D01*
G75*
G02*
X109732000Y-114358000I225000J0D01*
G01*
G37*
G36*
G01*
X109732000Y-112808000D02*
X110232000Y-112808000D01*
G75*
G02*
X110457000Y-113033000I0J-225000D01*
G01*
X110457000Y-113483000D01*
G75*
G02*
X110232000Y-113708000I-225000J0D01*
G01*
X109732000Y-113708000D01*
G75*
G02*
X109507000Y-113483000I0J225000D01*
G01*
X109507000Y-113033000D01*
G75*
G02*
X109732000Y-112808000I225000J0D01*
G01*
G37*
M02*
