G04 #@! TF.GenerationSoftware,KiCad,Pcbnew,5.1.10-88a1d61d58~90~ubuntu20.04.1*
G04 #@! TF.CreationDate,2021-11-20T18:16:27-05:00*
G04 #@! TF.ProjectId,WiFiSTMBoard,57694669-5354-44d4-926f-6172642e6b69,rev?*
G04 #@! TF.SameCoordinates,Original*
G04 #@! TF.FileFunction,Copper,L3,Inr*
G04 #@! TF.FilePolarity,Positive*
%FSLAX46Y46*%
G04 Gerber Fmt 4.6, Leading zero omitted, Abs format (unit mm)*
G04 Created by KiCad (PCBNEW 5.1.10-88a1d61d58~90~ubuntu20.04.1) date 2021-11-20 18:16:27*
%MOMM*%
%LPD*%
G01*
G04 APERTURE LIST*
G04 #@! TA.AperFunction,ComponentPad*
%ADD10O,1.200000X1.800000*%
G04 #@! TD*
G04 #@! TA.AperFunction,ComponentPad*
%ADD11O,1.700000X1.700000*%
G04 #@! TD*
G04 #@! TA.AperFunction,ComponentPad*
%ADD12R,1.700000X1.700000*%
G04 #@! TD*
G04 #@! TA.AperFunction,ComponentPad*
%ADD13O,0.890000X1.550000*%
G04 #@! TD*
G04 #@! TA.AperFunction,ComponentPad*
%ADD14O,1.250000X0.950000*%
G04 #@! TD*
G04 #@! TA.AperFunction,ComponentPad*
%ADD15O,3.160000X4.100000*%
G04 #@! TD*
G04 #@! TA.AperFunction,ComponentPad*
%ADD16C,0.700000*%
G04 #@! TD*
G04 #@! TA.AperFunction,ComponentPad*
%ADD17C,4.400000*%
G04 #@! TD*
G04 #@! TA.AperFunction,ViaPad*
%ADD18C,0.800000*%
G04 #@! TD*
G04 #@! TA.AperFunction,Conductor*
%ADD19C,0.254000*%
G04 #@! TD*
G04 #@! TA.AperFunction,Conductor*
%ADD20C,0.100000*%
G04 #@! TD*
G04 APERTURE END LIST*
D10*
X121017800Y-132969000D03*
X119017800Y-132969000D03*
G04 #@! TA.AperFunction,ComponentPad*
G36*
G01*
X116417800Y-133619001D02*
X116417800Y-132318999D01*
G75*
G02*
X116667799Y-132069000I249999J0D01*
G01*
X117367801Y-132069000D01*
G75*
G02*
X117617800Y-132318999I0J-249999D01*
G01*
X117617800Y-133619001D01*
G75*
G02*
X117367801Y-133869000I-249999J0D01*
G01*
X116667799Y-133869000D01*
G75*
G02*
X116417800Y-133619001I0J249999D01*
G01*
G37*
G04 #@! TD.AperFunction*
X110553000Y-132969000D03*
X108553000Y-132969000D03*
G04 #@! TA.AperFunction,ComponentPad*
G36*
G01*
X105953000Y-133619001D02*
X105953000Y-132318999D01*
G75*
G02*
X106202999Y-132069000I249999J0D01*
G01*
X106903001Y-132069000D01*
G75*
G02*
X107153000Y-132318999I0J-249999D01*
G01*
X107153000Y-133619001D01*
G75*
G02*
X106903001Y-133869000I-249999J0D01*
G01*
X106202999Y-133869000D01*
G75*
G02*
X105953000Y-133619001I0J249999D01*
G01*
G37*
G04 #@! TD.AperFunction*
X99885000Y-132969000D03*
X97885000Y-132969000D03*
G04 #@! TA.AperFunction,ComponentPad*
G36*
G01*
X95285000Y-133619001D02*
X95285000Y-132318999D01*
G75*
G02*
X95534999Y-132069000I249999J0D01*
G01*
X96235001Y-132069000D01*
G75*
G02*
X96485000Y-132318999I0J-249999D01*
G01*
X96485000Y-133619001D01*
G75*
G02*
X96235001Y-133869000I-249999J0D01*
G01*
X95534999Y-133869000D01*
G75*
G02*
X95285000Y-133619001I0J249999D01*
G01*
G37*
G04 #@! TD.AperFunction*
D11*
X77250000Y-116130000D03*
X77250000Y-118670000D03*
X77250000Y-121210000D03*
D12*
X77250000Y-123750000D03*
D11*
X144780000Y-96520000D03*
X144780000Y-93980000D03*
X144780000Y-91440000D03*
D12*
X144780000Y-88900000D03*
D13*
X104475400Y-75992200D03*
X111475400Y-75992200D03*
D14*
X105475400Y-78692200D03*
X110475400Y-78692200D03*
D11*
X77250000Y-85600000D03*
X77250000Y-88140000D03*
X77250000Y-90680000D03*
X77250000Y-93220000D03*
X77250000Y-95760000D03*
X77250000Y-98300000D03*
X77250000Y-100840000D03*
X77250000Y-103380000D03*
X77250000Y-105920000D03*
X77250000Y-108460000D03*
D12*
X77250000Y-111000000D03*
D11*
X85344000Y-86868000D03*
X85344000Y-84328000D03*
X87884000Y-86868000D03*
X87884000Y-84328000D03*
X90424000Y-86868000D03*
X90424000Y-84328000D03*
X92964000Y-86868000D03*
X92964000Y-84328000D03*
X95504000Y-86868000D03*
D12*
X95504000Y-84328000D03*
D15*
X136802000Y-78994000D03*
G04 #@! TA.AperFunction,ComponentPad*
G36*
G01*
X131262000Y-80794000D02*
X131262000Y-77194000D01*
G75*
G02*
X131512000Y-76944000I250000J0D01*
G01*
X134172000Y-76944000D01*
G75*
G02*
X134422000Y-77194000I0J-250000D01*
G01*
X134422000Y-80794000D01*
G75*
G02*
X134172000Y-81044000I-250000J0D01*
G01*
X131512000Y-81044000D01*
G75*
G02*
X131262000Y-80794000I0J250000D01*
G01*
G37*
G04 #@! TD.AperFunction*
D11*
X86360000Y-99060000D03*
X88900000Y-99060000D03*
D12*
X91440000Y-99060000D03*
D16*
X146166726Y-76333274D03*
X145000000Y-75850000D03*
X143833274Y-76333274D03*
X143350000Y-77500000D03*
X143833274Y-78666726D03*
X145000000Y-79150000D03*
X146166726Y-78666726D03*
X146650000Y-77500000D03*
D17*
X145000000Y-77500000D03*
D16*
X78666726Y-133833274D03*
X77500000Y-133350000D03*
X76333274Y-133833274D03*
X75850000Y-135000000D03*
X76333274Y-136166726D03*
X77500000Y-136650000D03*
X78666726Y-136166726D03*
X79150000Y-135000000D03*
D17*
X77500000Y-135000000D03*
D16*
X78666726Y-76333274D03*
X77500000Y-75850000D03*
X76333274Y-76333274D03*
X75850000Y-77500000D03*
X76333274Y-78666726D03*
X77500000Y-79150000D03*
X78666726Y-78666726D03*
X79150000Y-77500000D03*
D17*
X77500000Y-77500000D03*
D16*
X146166726Y-133833274D03*
X145000000Y-133350000D03*
X143833274Y-133833274D03*
X143350000Y-135000000D03*
X143833274Y-136166726D03*
X145000000Y-136650000D03*
X146166726Y-136166726D03*
X146650000Y-135000000D03*
D17*
X145000000Y-135000000D03*
D18*
X116000000Y-101600000D03*
X128100000Y-85200000D03*
X128700000Y-90700000D03*
X101600000Y-117800000D03*
X101100000Y-115200000D03*
X107200000Y-103500000D03*
X111300000Y-104000000D03*
X101100000Y-112700000D03*
X123000000Y-119000000D03*
X119600000Y-119000000D03*
X110000000Y-118900000D03*
X108500000Y-119400000D03*
X107800000Y-81400000D03*
X116100000Y-97200000D03*
X105900000Y-80300000D03*
X121700000Y-79400000D03*
X146300000Y-117600000D03*
X146100000Y-125100000D03*
X145100000Y-124300000D03*
X134200000Y-125400000D03*
X146000000Y-109600000D03*
X146200000Y-102500000D03*
X135400000Y-100400000D03*
X144200000Y-100500000D03*
X144800000Y-108100000D03*
X134000000Y-109100000D03*
X134300000Y-117300000D03*
X145100000Y-116600000D03*
X119500000Y-84700000D03*
X115700000Y-86500000D03*
X83000000Y-120100000D03*
X83900000Y-119600000D03*
X94700000Y-119700000D03*
X132700000Y-132500000D03*
X132100000Y-124300000D03*
X130700000Y-116900000D03*
X110100000Y-115700000D03*
X114000000Y-118700000D03*
X132900000Y-100800000D03*
X124100000Y-98700000D03*
X104000000Y-81500000D03*
X125000000Y-85100000D03*
X100700000Y-110900000D03*
X110000000Y-108600000D03*
X111300000Y-117000000D03*
X106100000Y-114900000D03*
X103600000Y-114300000D03*
X103700000Y-98800000D03*
X97900000Y-113000000D03*
X112300000Y-101300000D03*
X103300000Y-112200006D03*
X102051817Y-110951813D03*
X97400000Y-103299992D03*
X104367088Y-102432912D03*
X81788000Y-86360000D03*
X82042000Y-80264000D03*
X101854000Y-81534000D03*
X105156000Y-98552000D03*
X108458000Y-105918000D03*
X96300000Y-124400000D03*
X107700000Y-108500000D03*
X117856000Y-80518000D03*
X115316000Y-80518000D03*
X114808000Y-77724000D03*
X109728000Y-77724000D03*
X128270000Y-79248000D03*
X123952000Y-83820000D03*
X120396000Y-83820000D03*
X111113600Y-112682261D03*
X107000000Y-124500000D03*
X95504000Y-88900000D03*
X103378004Y-90932000D03*
X121412000Y-102870000D03*
X116000000Y-104250000D03*
X106100000Y-106400000D03*
X90400000Y-103600000D03*
X103750000Y-89000000D03*
X106000000Y-91250000D03*
X114300000Y-109982000D03*
X125984000Y-110490000D03*
X133858000Y-114046000D03*
X117856000Y-112776000D03*
X132842000Y-121158000D03*
X111252000Y-108712000D03*
X133604000Y-106680000D03*
X114822414Y-107273600D03*
X105805331Y-109055331D03*
X93500000Y-113000000D03*
X101750000Y-116000000D03*
X106000000Y-105250000D03*
D19*
X116322301Y-80271782D02*
X116311226Y-80216102D01*
X116233205Y-80027744D01*
X116119937Y-79858226D01*
X115975774Y-79714063D01*
X115806256Y-79600795D01*
X115617898Y-79522774D01*
X115417939Y-79483000D01*
X115214061Y-79483000D01*
X115014102Y-79522774D01*
X114825744Y-79600795D01*
X114656226Y-79714063D01*
X114512063Y-79858226D01*
X114398795Y-80027744D01*
X114320774Y-80216102D01*
X114281000Y-80416061D01*
X114281000Y-80619939D01*
X114320774Y-80819898D01*
X114398795Y-81008256D01*
X114512063Y-81177774D01*
X114656226Y-81321937D01*
X114825744Y-81435205D01*
X115014102Y-81513226D01*
X115214061Y-81553000D01*
X115417939Y-81553000D01*
X115617898Y-81513226D01*
X115806256Y-81435205D01*
X115975774Y-81321937D01*
X116119937Y-81177774D01*
X116233205Y-81008256D01*
X116311226Y-80819898D01*
X116320837Y-80771579D01*
X116310501Y-84299628D01*
X116312940Y-84324776D01*
X116320167Y-84348601D01*
X116331903Y-84370557D01*
X116347697Y-84389803D01*
X116366943Y-84405597D01*
X116388899Y-84417333D01*
X116412724Y-84424560D01*
X116437500Y-84427000D01*
X118499026Y-84427000D01*
X118465000Y-84598061D01*
X118465000Y-84801939D01*
X118504774Y-85001898D01*
X118582795Y-85190256D01*
X118696063Y-85359774D01*
X118840226Y-85503937D01*
X119009744Y-85617205D01*
X119198102Y-85695226D01*
X119398061Y-85735000D01*
X119601939Y-85735000D01*
X119801898Y-85695226D01*
X119990256Y-85617205D01*
X120159774Y-85503937D01*
X120303937Y-85359774D01*
X120417205Y-85190256D01*
X120495226Y-85001898D01*
X120525538Y-84849510D01*
X120697898Y-84815226D01*
X120886256Y-84737205D01*
X121055774Y-84623937D01*
X121199937Y-84479774D01*
X121235199Y-84427000D01*
X123112801Y-84427000D01*
X123148063Y-84479774D01*
X123292226Y-84623937D01*
X123461744Y-84737205D01*
X123650102Y-84815226D01*
X123850061Y-84855000D01*
X124053939Y-84855000D01*
X124253898Y-84815226D01*
X124442256Y-84737205D01*
X124611774Y-84623937D01*
X124755937Y-84479774D01*
X124791199Y-84427000D01*
X127409289Y-84427000D01*
X127296063Y-84540226D01*
X127182795Y-84709744D01*
X127104774Y-84898102D01*
X127065000Y-85098061D01*
X127065000Y-85301939D01*
X127104774Y-85501898D01*
X127182795Y-85690256D01*
X127296063Y-85859774D01*
X127440226Y-86003937D01*
X127609744Y-86117205D01*
X127798102Y-86195226D01*
X127998061Y-86235000D01*
X128201939Y-86235000D01*
X128401898Y-86195226D01*
X128590256Y-86117205D01*
X128759774Y-86003937D01*
X128903937Y-85859774D01*
X129017205Y-85690256D01*
X129095226Y-85501898D01*
X129135000Y-85301939D01*
X129135000Y-85098061D01*
X129095226Y-84898102D01*
X129017205Y-84709744D01*
X128903937Y-84540226D01*
X128790711Y-84427000D01*
X140962500Y-84427000D01*
X140986911Y-84424632D01*
X141010757Y-84417475D01*
X141032748Y-84405803D01*
X141052039Y-84390065D01*
X141067889Y-84370866D01*
X141079690Y-84348944D01*
X141086987Y-84325141D01*
X141089499Y-84300372D01*
X141110239Y-77220777D01*
X142165000Y-77220777D01*
X142165000Y-77779223D01*
X142273948Y-78326939D01*
X142487656Y-78842876D01*
X142797912Y-79307207D01*
X143192793Y-79702088D01*
X143657124Y-80012344D01*
X144173061Y-80226052D01*
X144720777Y-80335000D01*
X145279223Y-80335000D01*
X145826939Y-80226052D01*
X146342876Y-80012344D01*
X146807207Y-79702088D01*
X147202088Y-79307207D01*
X147512344Y-78842876D01*
X147726052Y-78326939D01*
X147835000Y-77779223D01*
X147835000Y-77220777D01*
X147726052Y-76673061D01*
X147512344Y-76157124D01*
X147202088Y-75692793D01*
X146807207Y-75297912D01*
X146342876Y-74987656D01*
X145826939Y-74773948D01*
X145279223Y-74665000D01*
X144720777Y-74665000D01*
X144173061Y-74773948D01*
X143657124Y-74987656D01*
X143192793Y-75297912D01*
X142797912Y-75692793D01*
X142487656Y-76157124D01*
X142273948Y-76673061D01*
X142165000Y-77220777D01*
X141110239Y-77220777D01*
X141119500Y-74060000D01*
X146967721Y-74060000D01*
X147308218Y-74093386D01*
X147604697Y-74182898D01*
X147878140Y-74328291D01*
X148118141Y-74524031D01*
X148315547Y-74762653D01*
X148462843Y-75035073D01*
X148554425Y-75330926D01*
X148590000Y-75669400D01*
X148590001Y-136717711D01*
X148556614Y-137058218D01*
X148467103Y-137354694D01*
X148321709Y-137628141D01*
X148125970Y-137868140D01*
X147887350Y-138065544D01*
X147614926Y-138212843D01*
X147319074Y-138304425D01*
X146980600Y-138340000D01*
X75282279Y-138340000D01*
X74941782Y-138306614D01*
X74645306Y-138217103D01*
X74371859Y-138071709D01*
X74131860Y-137875970D01*
X73934456Y-137637350D01*
X73787157Y-137364926D01*
X73695575Y-137069074D01*
X73660000Y-136730600D01*
X73660000Y-134720777D01*
X74665000Y-134720777D01*
X74665000Y-135279223D01*
X74773948Y-135826939D01*
X74987656Y-136342876D01*
X75297912Y-136807207D01*
X75692793Y-137202088D01*
X76157124Y-137512344D01*
X76673061Y-137726052D01*
X77220777Y-137835000D01*
X77779223Y-137835000D01*
X78326939Y-137726052D01*
X78842876Y-137512344D01*
X79307207Y-137202088D01*
X79702088Y-136807207D01*
X80012344Y-136342876D01*
X80226052Y-135826939D01*
X80335000Y-135279223D01*
X80335000Y-134720777D01*
X142165000Y-134720777D01*
X142165000Y-135279223D01*
X142273948Y-135826939D01*
X142487656Y-136342876D01*
X142797912Y-136807207D01*
X143192793Y-137202088D01*
X143657124Y-137512344D01*
X144173061Y-137726052D01*
X144720777Y-137835000D01*
X145279223Y-137835000D01*
X145826939Y-137726052D01*
X146342876Y-137512344D01*
X146807207Y-137202088D01*
X147202088Y-136807207D01*
X147512344Y-136342876D01*
X147726052Y-135826939D01*
X147835000Y-135279223D01*
X147835000Y-134720777D01*
X147726052Y-134173061D01*
X147512344Y-133657124D01*
X147202088Y-133192793D01*
X146807207Y-132797912D01*
X146342876Y-132487656D01*
X145826939Y-132273948D01*
X145279223Y-132165000D01*
X144720777Y-132165000D01*
X144173061Y-132273948D01*
X143657124Y-132487656D01*
X143192793Y-132797912D01*
X142797912Y-133192793D01*
X142487656Y-133657124D01*
X142273948Y-134173061D01*
X142165000Y-134720777D01*
X80335000Y-134720777D01*
X80226052Y-134173061D01*
X80012344Y-133657124D01*
X79702088Y-133192793D01*
X79307207Y-132797912D01*
X78842876Y-132487656D01*
X78435702Y-132318999D01*
X94646928Y-132318999D01*
X94646928Y-133619001D01*
X94663992Y-133792255D01*
X94714528Y-133958851D01*
X94796595Y-134112387D01*
X94907038Y-134246962D01*
X95041613Y-134357405D01*
X95195149Y-134439472D01*
X95361745Y-134490008D01*
X95534999Y-134507072D01*
X96235001Y-134507072D01*
X96408255Y-134490008D01*
X96574851Y-134439472D01*
X96728387Y-134357405D01*
X96862962Y-134246962D01*
X96973405Y-134112387D01*
X96975810Y-134107888D01*
X97007499Y-134146502D01*
X97195552Y-134300833D01*
X97410100Y-134415511D01*
X97642899Y-134486130D01*
X97885000Y-134509975D01*
X98127102Y-134486130D01*
X98359901Y-134415511D01*
X98574449Y-134300833D01*
X98762502Y-134146502D01*
X98885481Y-133996652D01*
X98928693Y-134060725D01*
X99101526Y-134232078D01*
X99304467Y-134366421D01*
X99529718Y-134458591D01*
X99567391Y-134462462D01*
X99758000Y-134337731D01*
X99758000Y-133096000D01*
X100012000Y-133096000D01*
X100012000Y-134337731D01*
X100202609Y-134462462D01*
X100240282Y-134458591D01*
X100465533Y-134366421D01*
X100668474Y-134232078D01*
X100841307Y-134060725D01*
X100977390Y-133858946D01*
X101071493Y-133634496D01*
X101120000Y-133396000D01*
X101120000Y-133096000D01*
X100012000Y-133096000D01*
X99758000Y-133096000D01*
X99738000Y-133096000D01*
X99738000Y-132842000D01*
X99758000Y-132842000D01*
X99758000Y-131600269D01*
X100012000Y-131600269D01*
X100012000Y-132842000D01*
X101120000Y-132842000D01*
X101120000Y-132542000D01*
X101074645Y-132318999D01*
X105314928Y-132318999D01*
X105314928Y-133619001D01*
X105331992Y-133792255D01*
X105382528Y-133958851D01*
X105464595Y-134112387D01*
X105575038Y-134246962D01*
X105709613Y-134357405D01*
X105863149Y-134439472D01*
X106029745Y-134490008D01*
X106202999Y-134507072D01*
X106903001Y-134507072D01*
X107076255Y-134490008D01*
X107242851Y-134439472D01*
X107396387Y-134357405D01*
X107530962Y-134246962D01*
X107641405Y-134112387D01*
X107643810Y-134107888D01*
X107675499Y-134146502D01*
X107863552Y-134300833D01*
X108078100Y-134415511D01*
X108310899Y-134486130D01*
X108553000Y-134509975D01*
X108795102Y-134486130D01*
X109027901Y-134415511D01*
X109242449Y-134300833D01*
X109430502Y-134146502D01*
X109553481Y-133996652D01*
X109596693Y-134060725D01*
X109769526Y-134232078D01*
X109972467Y-134366421D01*
X110197718Y-134458591D01*
X110235391Y-134462462D01*
X110426000Y-134337731D01*
X110426000Y-133096000D01*
X110680000Y-133096000D01*
X110680000Y-134337731D01*
X110870609Y-134462462D01*
X110908282Y-134458591D01*
X111133533Y-134366421D01*
X111336474Y-134232078D01*
X111509307Y-134060725D01*
X111645390Y-133858946D01*
X111739493Y-133634496D01*
X111788000Y-133396000D01*
X111788000Y-133096000D01*
X110680000Y-133096000D01*
X110426000Y-133096000D01*
X110406000Y-133096000D01*
X110406000Y-132842000D01*
X110426000Y-132842000D01*
X110426000Y-131600269D01*
X110680000Y-131600269D01*
X110680000Y-132842000D01*
X111788000Y-132842000D01*
X111788000Y-132542000D01*
X111742645Y-132318999D01*
X115779728Y-132318999D01*
X115779728Y-133619001D01*
X115796792Y-133792255D01*
X115847328Y-133958851D01*
X115929395Y-134112387D01*
X116039838Y-134246962D01*
X116174413Y-134357405D01*
X116327949Y-134439472D01*
X116494545Y-134490008D01*
X116667799Y-134507072D01*
X117367801Y-134507072D01*
X117541055Y-134490008D01*
X117707651Y-134439472D01*
X117861187Y-134357405D01*
X117995762Y-134246962D01*
X118106205Y-134112387D01*
X118108610Y-134107888D01*
X118140299Y-134146502D01*
X118328352Y-134300833D01*
X118542900Y-134415511D01*
X118775699Y-134486130D01*
X119017800Y-134509975D01*
X119259902Y-134486130D01*
X119492701Y-134415511D01*
X119707249Y-134300833D01*
X119895302Y-134146502D01*
X120018281Y-133996652D01*
X120061493Y-134060725D01*
X120234326Y-134232078D01*
X120437267Y-134366421D01*
X120662518Y-134458591D01*
X120700191Y-134462462D01*
X120890800Y-134337731D01*
X120890800Y-133096000D01*
X121144800Y-133096000D01*
X121144800Y-134337731D01*
X121335409Y-134462462D01*
X121373082Y-134458591D01*
X121598333Y-134366421D01*
X121801274Y-134232078D01*
X121974107Y-134060725D01*
X122110190Y-133858946D01*
X122204293Y-133634496D01*
X122252800Y-133396000D01*
X122252800Y-133096000D01*
X121144800Y-133096000D01*
X120890800Y-133096000D01*
X120870800Y-133096000D01*
X120870800Y-132842000D01*
X120890800Y-132842000D01*
X120890800Y-131600269D01*
X121144800Y-131600269D01*
X121144800Y-132842000D01*
X122252800Y-132842000D01*
X122252800Y-132542000D01*
X122204293Y-132303504D01*
X122110190Y-132079054D01*
X121974107Y-131877275D01*
X121801274Y-131705922D01*
X121598333Y-131571579D01*
X121373082Y-131479409D01*
X121335409Y-131475538D01*
X121144800Y-131600269D01*
X120890800Y-131600269D01*
X120700191Y-131475538D01*
X120662518Y-131479409D01*
X120437267Y-131571579D01*
X120234326Y-131705922D01*
X120061493Y-131877275D01*
X120018281Y-131941348D01*
X119895302Y-131791498D01*
X119707248Y-131637167D01*
X119492700Y-131522489D01*
X119259901Y-131451870D01*
X119017800Y-131428025D01*
X118775698Y-131451870D01*
X118542899Y-131522489D01*
X118328351Y-131637167D01*
X118140298Y-131791498D01*
X118108609Y-131830111D01*
X118106205Y-131825613D01*
X117995762Y-131691038D01*
X117861187Y-131580595D01*
X117707651Y-131498528D01*
X117541055Y-131447992D01*
X117367801Y-131430928D01*
X116667799Y-131430928D01*
X116494545Y-131447992D01*
X116327949Y-131498528D01*
X116174413Y-131580595D01*
X116039838Y-131691038D01*
X115929395Y-131825613D01*
X115847328Y-131979149D01*
X115796792Y-132145745D01*
X115779728Y-132318999D01*
X111742645Y-132318999D01*
X111739493Y-132303504D01*
X111645390Y-132079054D01*
X111509307Y-131877275D01*
X111336474Y-131705922D01*
X111133533Y-131571579D01*
X110908282Y-131479409D01*
X110870609Y-131475538D01*
X110680000Y-131600269D01*
X110426000Y-131600269D01*
X110235391Y-131475538D01*
X110197718Y-131479409D01*
X109972467Y-131571579D01*
X109769526Y-131705922D01*
X109596693Y-131877275D01*
X109553481Y-131941348D01*
X109430502Y-131791498D01*
X109242448Y-131637167D01*
X109027900Y-131522489D01*
X108795101Y-131451870D01*
X108553000Y-131428025D01*
X108310898Y-131451870D01*
X108078099Y-131522489D01*
X107863551Y-131637167D01*
X107675498Y-131791498D01*
X107643809Y-131830111D01*
X107641405Y-131825613D01*
X107530962Y-131691038D01*
X107396387Y-131580595D01*
X107242851Y-131498528D01*
X107076255Y-131447992D01*
X106903001Y-131430928D01*
X106202999Y-131430928D01*
X106029745Y-131447992D01*
X105863149Y-131498528D01*
X105709613Y-131580595D01*
X105575038Y-131691038D01*
X105464595Y-131825613D01*
X105382528Y-131979149D01*
X105331992Y-132145745D01*
X105314928Y-132318999D01*
X101074645Y-132318999D01*
X101071493Y-132303504D01*
X100977390Y-132079054D01*
X100841307Y-131877275D01*
X100668474Y-131705922D01*
X100465533Y-131571579D01*
X100240282Y-131479409D01*
X100202609Y-131475538D01*
X100012000Y-131600269D01*
X99758000Y-131600269D01*
X99567391Y-131475538D01*
X99529718Y-131479409D01*
X99304467Y-131571579D01*
X99101526Y-131705922D01*
X98928693Y-131877275D01*
X98885481Y-131941348D01*
X98762502Y-131791498D01*
X98574448Y-131637167D01*
X98359900Y-131522489D01*
X98127101Y-131451870D01*
X97885000Y-131428025D01*
X97642898Y-131451870D01*
X97410099Y-131522489D01*
X97195551Y-131637167D01*
X97007498Y-131791498D01*
X96975809Y-131830111D01*
X96973405Y-131825613D01*
X96862962Y-131691038D01*
X96728387Y-131580595D01*
X96574851Y-131498528D01*
X96408255Y-131447992D01*
X96235001Y-131430928D01*
X95534999Y-131430928D01*
X95361745Y-131447992D01*
X95195149Y-131498528D01*
X95041613Y-131580595D01*
X94907038Y-131691038D01*
X94796595Y-131825613D01*
X94714528Y-131979149D01*
X94663992Y-132145745D01*
X94646928Y-132318999D01*
X78435702Y-132318999D01*
X78326939Y-132273948D01*
X77779223Y-132165000D01*
X77220777Y-132165000D01*
X76673061Y-132273948D01*
X76157124Y-132487656D01*
X75692793Y-132797912D01*
X75297912Y-133192793D01*
X74987656Y-133657124D01*
X74773948Y-134173061D01*
X74665000Y-134720777D01*
X73660000Y-134720777D01*
X73660000Y-122900000D01*
X75761928Y-122900000D01*
X75761928Y-124600000D01*
X75774188Y-124724482D01*
X75810498Y-124844180D01*
X75869463Y-124954494D01*
X75948815Y-125051185D01*
X76045506Y-125130537D01*
X76155820Y-125189502D01*
X76275518Y-125225812D01*
X76400000Y-125238072D01*
X78100000Y-125238072D01*
X78224482Y-125225812D01*
X78344180Y-125189502D01*
X78454494Y-125130537D01*
X78551185Y-125051185D01*
X78630537Y-124954494D01*
X78689502Y-124844180D01*
X78725812Y-124724482D01*
X78738072Y-124600000D01*
X78738072Y-124298061D01*
X95265000Y-124298061D01*
X95265000Y-124501939D01*
X95304774Y-124701898D01*
X95382795Y-124890256D01*
X95496063Y-125059774D01*
X95640226Y-125203937D01*
X95809744Y-125317205D01*
X95998102Y-125395226D01*
X96198061Y-125435000D01*
X96401939Y-125435000D01*
X96601898Y-125395226D01*
X96790256Y-125317205D01*
X96959774Y-125203937D01*
X97103937Y-125059774D01*
X97217205Y-124890256D01*
X97295226Y-124701898D01*
X97335000Y-124501939D01*
X97335000Y-124398061D01*
X105965000Y-124398061D01*
X105965000Y-124601939D01*
X106004774Y-124801898D01*
X106082795Y-124990256D01*
X106196063Y-125159774D01*
X106340226Y-125303937D01*
X106509744Y-125417205D01*
X106698102Y-125495226D01*
X106898061Y-125535000D01*
X107101939Y-125535000D01*
X107301898Y-125495226D01*
X107490256Y-125417205D01*
X107659774Y-125303937D01*
X107665650Y-125298061D01*
X133165000Y-125298061D01*
X133165000Y-125501939D01*
X133204774Y-125701898D01*
X133282795Y-125890256D01*
X133396063Y-126059774D01*
X133540226Y-126203937D01*
X133709744Y-126317205D01*
X133898102Y-126395226D01*
X134098061Y-126435000D01*
X134301939Y-126435000D01*
X134501898Y-126395226D01*
X134690256Y-126317205D01*
X134859774Y-126203937D01*
X135003937Y-126059774D01*
X135117205Y-125890256D01*
X135195226Y-125701898D01*
X135235000Y-125501939D01*
X135235000Y-125298061D01*
X135195226Y-125098102D01*
X135117205Y-124909744D01*
X135003937Y-124740226D01*
X134859774Y-124596063D01*
X134690256Y-124482795D01*
X134501898Y-124404774D01*
X134301939Y-124365000D01*
X134098061Y-124365000D01*
X133898102Y-124404774D01*
X133709744Y-124482795D01*
X133540226Y-124596063D01*
X133396063Y-124740226D01*
X133282795Y-124909744D01*
X133204774Y-125098102D01*
X133165000Y-125298061D01*
X107665650Y-125298061D01*
X107803937Y-125159774D01*
X107917205Y-124990256D01*
X107995226Y-124801898D01*
X108035000Y-124601939D01*
X108035000Y-124398061D01*
X107995226Y-124198102D01*
X107995210Y-124198061D01*
X144065000Y-124198061D01*
X144065000Y-124401939D01*
X144104774Y-124601898D01*
X144182795Y-124790256D01*
X144296063Y-124959774D01*
X144440226Y-125103937D01*
X144609744Y-125217205D01*
X144798102Y-125295226D01*
X144998061Y-125335000D01*
X145091467Y-125335000D01*
X145104774Y-125401898D01*
X145182795Y-125590256D01*
X145296063Y-125759774D01*
X145440226Y-125903937D01*
X145609744Y-126017205D01*
X145798102Y-126095226D01*
X145998061Y-126135000D01*
X146201939Y-126135000D01*
X146401898Y-126095226D01*
X146590256Y-126017205D01*
X146759774Y-125903937D01*
X146903937Y-125759774D01*
X147017205Y-125590256D01*
X147095226Y-125401898D01*
X147135000Y-125201939D01*
X147135000Y-124998061D01*
X147095226Y-124798102D01*
X147017205Y-124609744D01*
X146903937Y-124440226D01*
X146759774Y-124296063D01*
X146590256Y-124182795D01*
X146401898Y-124104774D01*
X146201939Y-124065000D01*
X146108533Y-124065000D01*
X146095226Y-123998102D01*
X146017205Y-123809744D01*
X145903937Y-123640226D01*
X145759774Y-123496063D01*
X145590256Y-123382795D01*
X145401898Y-123304774D01*
X145201939Y-123265000D01*
X144998061Y-123265000D01*
X144798102Y-123304774D01*
X144609744Y-123382795D01*
X144440226Y-123496063D01*
X144296063Y-123640226D01*
X144182795Y-123809744D01*
X144104774Y-123998102D01*
X144065000Y-124198061D01*
X107995210Y-124198061D01*
X107917205Y-124009744D01*
X107803937Y-123840226D01*
X107659774Y-123696063D01*
X107490256Y-123582795D01*
X107301898Y-123504774D01*
X107101939Y-123465000D01*
X106898061Y-123465000D01*
X106698102Y-123504774D01*
X106509744Y-123582795D01*
X106340226Y-123696063D01*
X106196063Y-123840226D01*
X106082795Y-124009744D01*
X106004774Y-124198102D01*
X105965000Y-124398061D01*
X97335000Y-124398061D01*
X97335000Y-124298061D01*
X97295226Y-124098102D01*
X97217205Y-123909744D01*
X97103937Y-123740226D01*
X96959774Y-123596063D01*
X96790256Y-123482795D01*
X96601898Y-123404774D01*
X96401939Y-123365000D01*
X96198061Y-123365000D01*
X95998102Y-123404774D01*
X95809744Y-123482795D01*
X95640226Y-123596063D01*
X95496063Y-123740226D01*
X95382795Y-123909744D01*
X95304774Y-124098102D01*
X95265000Y-124298061D01*
X78738072Y-124298061D01*
X78738072Y-122900000D01*
X78725812Y-122775518D01*
X78689502Y-122655820D01*
X78630537Y-122545506D01*
X78551185Y-122448815D01*
X78454494Y-122369463D01*
X78344180Y-122310498D01*
X78263534Y-122286034D01*
X78347588Y-122210269D01*
X78521641Y-121976920D01*
X78646825Y-121714099D01*
X78691476Y-121566890D01*
X78570155Y-121337000D01*
X77377000Y-121337000D01*
X77377000Y-121357000D01*
X77123000Y-121357000D01*
X77123000Y-121337000D01*
X75929845Y-121337000D01*
X75808524Y-121566890D01*
X75853175Y-121714099D01*
X75978359Y-121976920D01*
X76152412Y-122210269D01*
X76236466Y-122286034D01*
X76155820Y-122310498D01*
X76045506Y-122369463D01*
X75948815Y-122448815D01*
X75869463Y-122545506D01*
X75810498Y-122655820D01*
X75774188Y-122775518D01*
X75761928Y-122900000D01*
X73660000Y-122900000D01*
X73660000Y-115983740D01*
X75765000Y-115983740D01*
X75765000Y-116276260D01*
X75822068Y-116563158D01*
X75934010Y-116833411D01*
X76096525Y-117076632D01*
X76303368Y-117283475D01*
X76477760Y-117400000D01*
X76303368Y-117516525D01*
X76096525Y-117723368D01*
X75934010Y-117966589D01*
X75822068Y-118236842D01*
X75765000Y-118523740D01*
X75765000Y-118816260D01*
X75822068Y-119103158D01*
X75934010Y-119373411D01*
X76096525Y-119616632D01*
X76303368Y-119823475D01*
X76485534Y-119945195D01*
X76368645Y-120014822D01*
X76152412Y-120209731D01*
X75978359Y-120443080D01*
X75853175Y-120705901D01*
X75808524Y-120853110D01*
X75929845Y-121083000D01*
X77123000Y-121083000D01*
X77123000Y-121063000D01*
X77377000Y-121063000D01*
X77377000Y-121083000D01*
X78570155Y-121083000D01*
X78691476Y-120853110D01*
X78646825Y-120705901D01*
X78521641Y-120443080D01*
X78347588Y-120209731D01*
X78131355Y-120014822D01*
X78103217Y-119998061D01*
X81965000Y-119998061D01*
X81965000Y-120201939D01*
X82004774Y-120401898D01*
X82082795Y-120590256D01*
X82196063Y-120759774D01*
X82340226Y-120903937D01*
X82509744Y-121017205D01*
X82698102Y-121095226D01*
X82898061Y-121135000D01*
X83101939Y-121135000D01*
X83301898Y-121095226D01*
X83396449Y-121056061D01*
X131807000Y-121056061D01*
X131807000Y-121259939D01*
X131846774Y-121459898D01*
X131924795Y-121648256D01*
X132038063Y-121817774D01*
X132182226Y-121961937D01*
X132351744Y-122075205D01*
X132540102Y-122153226D01*
X132740061Y-122193000D01*
X132943939Y-122193000D01*
X133143898Y-122153226D01*
X133332256Y-122075205D01*
X133501774Y-121961937D01*
X133645937Y-121817774D01*
X133759205Y-121648256D01*
X133837226Y-121459898D01*
X133877000Y-121259939D01*
X133877000Y-121056061D01*
X133837226Y-120856102D01*
X133759205Y-120667744D01*
X133645937Y-120498226D01*
X133501774Y-120354063D01*
X133332256Y-120240795D01*
X133143898Y-120162774D01*
X132943939Y-120123000D01*
X132740061Y-120123000D01*
X132540102Y-120162774D01*
X132351744Y-120240795D01*
X132182226Y-120354063D01*
X132038063Y-120498226D01*
X131924795Y-120667744D01*
X131846774Y-120856102D01*
X131807000Y-121056061D01*
X83396449Y-121056061D01*
X83490256Y-121017205D01*
X83659774Y-120903937D01*
X83803937Y-120759774D01*
X83887308Y-120635000D01*
X84001939Y-120635000D01*
X84201898Y-120595226D01*
X84390256Y-120517205D01*
X84559774Y-120403937D01*
X84703937Y-120259774D01*
X84817205Y-120090256D01*
X84895226Y-119901898D01*
X84935000Y-119701939D01*
X84935000Y-119598061D01*
X93665000Y-119598061D01*
X93665000Y-119801939D01*
X93704774Y-120001898D01*
X93782795Y-120190256D01*
X93896063Y-120359774D01*
X94040226Y-120503937D01*
X94209744Y-120617205D01*
X94398102Y-120695226D01*
X94598061Y-120735000D01*
X94801939Y-120735000D01*
X95001898Y-120695226D01*
X95190256Y-120617205D01*
X95359774Y-120503937D01*
X95503937Y-120359774D01*
X95617205Y-120190256D01*
X95695226Y-120001898D01*
X95735000Y-119801939D01*
X95735000Y-119598061D01*
X95695226Y-119398102D01*
X95653788Y-119298061D01*
X107465000Y-119298061D01*
X107465000Y-119501939D01*
X107504774Y-119701898D01*
X107582795Y-119890256D01*
X107696063Y-120059774D01*
X107840226Y-120203937D01*
X108009744Y-120317205D01*
X108198102Y-120395226D01*
X108398061Y-120435000D01*
X108601939Y-120435000D01*
X108801898Y-120395226D01*
X108990256Y-120317205D01*
X109159774Y-120203937D01*
X109303937Y-120059774D01*
X109417205Y-119890256D01*
X109460965Y-119784612D01*
X109509744Y-119817205D01*
X109698102Y-119895226D01*
X109898061Y-119935000D01*
X110101939Y-119935000D01*
X110301898Y-119895226D01*
X110490256Y-119817205D01*
X110659774Y-119703937D01*
X110803937Y-119559774D01*
X110917205Y-119390256D01*
X110995226Y-119201898D01*
X111035000Y-119001939D01*
X111035000Y-118898061D01*
X118565000Y-118898061D01*
X118565000Y-119101939D01*
X118604774Y-119301898D01*
X118682795Y-119490256D01*
X118796063Y-119659774D01*
X118940226Y-119803937D01*
X119109744Y-119917205D01*
X119298102Y-119995226D01*
X119498061Y-120035000D01*
X119701939Y-120035000D01*
X119901898Y-119995226D01*
X120090256Y-119917205D01*
X120259774Y-119803937D01*
X120403937Y-119659774D01*
X120517205Y-119490256D01*
X120595226Y-119301898D01*
X120635000Y-119101939D01*
X120635000Y-118898061D01*
X121965000Y-118898061D01*
X121965000Y-119101939D01*
X122004774Y-119301898D01*
X122082795Y-119490256D01*
X122196063Y-119659774D01*
X122340226Y-119803937D01*
X122509744Y-119917205D01*
X122698102Y-119995226D01*
X122898061Y-120035000D01*
X123101939Y-120035000D01*
X123301898Y-119995226D01*
X123490256Y-119917205D01*
X123659774Y-119803937D01*
X123803937Y-119659774D01*
X123917205Y-119490256D01*
X123995226Y-119301898D01*
X124035000Y-119101939D01*
X124035000Y-118898061D01*
X123995226Y-118698102D01*
X123917205Y-118509744D01*
X123803937Y-118340226D01*
X123659774Y-118196063D01*
X123490256Y-118082795D01*
X123301898Y-118004774D01*
X123101939Y-117965000D01*
X122898061Y-117965000D01*
X122698102Y-118004774D01*
X122509744Y-118082795D01*
X122340226Y-118196063D01*
X122196063Y-118340226D01*
X122082795Y-118509744D01*
X122004774Y-118698102D01*
X121965000Y-118898061D01*
X120635000Y-118898061D01*
X120595226Y-118698102D01*
X120517205Y-118509744D01*
X120403937Y-118340226D01*
X120259774Y-118196063D01*
X120090256Y-118082795D01*
X119901898Y-118004774D01*
X119701939Y-117965000D01*
X119498061Y-117965000D01*
X119298102Y-118004774D01*
X119109744Y-118082795D01*
X118940226Y-118196063D01*
X118796063Y-118340226D01*
X118682795Y-118509744D01*
X118604774Y-118698102D01*
X118565000Y-118898061D01*
X111035000Y-118898061D01*
X111035000Y-118798061D01*
X110995226Y-118598102D01*
X110917205Y-118409744D01*
X110803937Y-118240226D01*
X110659774Y-118096063D01*
X110490256Y-117982795D01*
X110301898Y-117904774D01*
X110101939Y-117865000D01*
X109898061Y-117865000D01*
X109698102Y-117904774D01*
X109509744Y-117982795D01*
X109340226Y-118096063D01*
X109196063Y-118240226D01*
X109082795Y-118409744D01*
X109039035Y-118515388D01*
X108990256Y-118482795D01*
X108801898Y-118404774D01*
X108601939Y-118365000D01*
X108398061Y-118365000D01*
X108198102Y-118404774D01*
X108009744Y-118482795D01*
X107840226Y-118596063D01*
X107696063Y-118740226D01*
X107582795Y-118909744D01*
X107504774Y-119098102D01*
X107465000Y-119298061D01*
X95653788Y-119298061D01*
X95617205Y-119209744D01*
X95503937Y-119040226D01*
X95359774Y-118896063D01*
X95190256Y-118782795D01*
X95001898Y-118704774D01*
X94801939Y-118665000D01*
X94598061Y-118665000D01*
X94398102Y-118704774D01*
X94209744Y-118782795D01*
X94040226Y-118896063D01*
X93896063Y-119040226D01*
X93782795Y-119209744D01*
X93704774Y-119398102D01*
X93665000Y-119598061D01*
X84935000Y-119598061D01*
X84935000Y-119498061D01*
X84895226Y-119298102D01*
X84817205Y-119109744D01*
X84703937Y-118940226D01*
X84559774Y-118796063D01*
X84390256Y-118682795D01*
X84201898Y-118604774D01*
X84001939Y-118565000D01*
X83798061Y-118565000D01*
X83598102Y-118604774D01*
X83409744Y-118682795D01*
X83240226Y-118796063D01*
X83096063Y-118940226D01*
X83012692Y-119065000D01*
X82898061Y-119065000D01*
X82698102Y-119104774D01*
X82509744Y-119182795D01*
X82340226Y-119296063D01*
X82196063Y-119440226D01*
X82082795Y-119609744D01*
X82004774Y-119798102D01*
X81965000Y-119998061D01*
X78103217Y-119998061D01*
X78014466Y-119945195D01*
X78196632Y-119823475D01*
X78403475Y-119616632D01*
X78565990Y-119373411D01*
X78677932Y-119103158D01*
X78735000Y-118816260D01*
X78735000Y-118523740D01*
X78677932Y-118236842D01*
X78565990Y-117966589D01*
X78403475Y-117723368D01*
X78196632Y-117516525D01*
X78022240Y-117400000D01*
X78196632Y-117283475D01*
X78403475Y-117076632D01*
X78565990Y-116833411D01*
X78677932Y-116563158D01*
X78735000Y-116276260D01*
X78735000Y-115983740D01*
X78677932Y-115696842D01*
X78565990Y-115426589D01*
X78403475Y-115183368D01*
X78318168Y-115098061D01*
X100065000Y-115098061D01*
X100065000Y-115301939D01*
X100104774Y-115501898D01*
X100182795Y-115690256D01*
X100296063Y-115859774D01*
X100440226Y-116003937D01*
X100609744Y-116117205D01*
X100727760Y-116166089D01*
X100754774Y-116301898D01*
X100832795Y-116490256D01*
X100946063Y-116659774D01*
X101090226Y-116803937D01*
X101170550Y-116857608D01*
X101109744Y-116882795D01*
X100940226Y-116996063D01*
X100796063Y-117140226D01*
X100682795Y-117309744D01*
X100604774Y-117498102D01*
X100565000Y-117698061D01*
X100565000Y-117901939D01*
X100604774Y-118101898D01*
X100682795Y-118290256D01*
X100796063Y-118459774D01*
X100940226Y-118603937D01*
X101109744Y-118717205D01*
X101298102Y-118795226D01*
X101498061Y-118835000D01*
X101701939Y-118835000D01*
X101901898Y-118795226D01*
X102090256Y-118717205D01*
X102259774Y-118603937D01*
X102403937Y-118459774D01*
X102517205Y-118290256D01*
X102595226Y-118101898D01*
X102635000Y-117901939D01*
X102635000Y-117698061D01*
X102595226Y-117498102D01*
X102517205Y-117309744D01*
X102403937Y-117140226D01*
X102259774Y-116996063D01*
X102179450Y-116942392D01*
X102240256Y-116917205D01*
X102409774Y-116803937D01*
X102553937Y-116659774D01*
X102667205Y-116490256D01*
X102745226Y-116301898D01*
X102785000Y-116101939D01*
X102785000Y-115898061D01*
X102745226Y-115698102D01*
X102667205Y-115509744D01*
X102553937Y-115340226D01*
X102409774Y-115196063D01*
X102240256Y-115082795D01*
X102122240Y-115033911D01*
X102095226Y-114898102D01*
X102017205Y-114709744D01*
X101903937Y-114540226D01*
X101759774Y-114396063D01*
X101590256Y-114282795D01*
X101401898Y-114204774D01*
X101368150Y-114198061D01*
X102565000Y-114198061D01*
X102565000Y-114401939D01*
X102604774Y-114601898D01*
X102682795Y-114790256D01*
X102796063Y-114959774D01*
X102940226Y-115103937D01*
X103109744Y-115217205D01*
X103298102Y-115295226D01*
X103498061Y-115335000D01*
X103701939Y-115335000D01*
X103901898Y-115295226D01*
X104090256Y-115217205D01*
X104259774Y-115103937D01*
X104403937Y-114959774D01*
X104511989Y-114798061D01*
X105065000Y-114798061D01*
X105065000Y-115001939D01*
X105104774Y-115201898D01*
X105182795Y-115390256D01*
X105296063Y-115559774D01*
X105440226Y-115703937D01*
X105609744Y-115817205D01*
X105798102Y-115895226D01*
X105998061Y-115935000D01*
X106201939Y-115935000D01*
X106401898Y-115895226D01*
X106590256Y-115817205D01*
X106759774Y-115703937D01*
X106865650Y-115598061D01*
X109065000Y-115598061D01*
X109065000Y-115801939D01*
X109104774Y-116001898D01*
X109182795Y-116190256D01*
X109296063Y-116359774D01*
X109440226Y-116503937D01*
X109609744Y-116617205D01*
X109798102Y-116695226D01*
X109998061Y-116735000D01*
X110201939Y-116735000D01*
X110301369Y-116715222D01*
X110265000Y-116898061D01*
X110265000Y-117101939D01*
X110304774Y-117301898D01*
X110382795Y-117490256D01*
X110496063Y-117659774D01*
X110640226Y-117803937D01*
X110809744Y-117917205D01*
X110998102Y-117995226D01*
X111198061Y-118035000D01*
X111401939Y-118035000D01*
X111601898Y-117995226D01*
X111790256Y-117917205D01*
X111959774Y-117803937D01*
X112103937Y-117659774D01*
X112217205Y-117490256D01*
X112295226Y-117301898D01*
X112315880Y-117198061D01*
X133265000Y-117198061D01*
X133265000Y-117401939D01*
X133304774Y-117601898D01*
X133382795Y-117790256D01*
X133496063Y-117959774D01*
X133640226Y-118103937D01*
X133809744Y-118217205D01*
X133998102Y-118295226D01*
X134198061Y-118335000D01*
X134401939Y-118335000D01*
X134601898Y-118295226D01*
X134790256Y-118217205D01*
X134959774Y-118103937D01*
X135103937Y-117959774D01*
X135217205Y-117790256D01*
X135295226Y-117601898D01*
X135335000Y-117401939D01*
X135335000Y-117198061D01*
X135295226Y-116998102D01*
X135217205Y-116809744D01*
X135103937Y-116640226D01*
X134961772Y-116498061D01*
X144065000Y-116498061D01*
X144065000Y-116701939D01*
X144104774Y-116901898D01*
X144182795Y-117090256D01*
X144296063Y-117259774D01*
X144440226Y-117403937D01*
X144609744Y-117517205D01*
X144798102Y-117595226D01*
X144998061Y-117635000D01*
X145201939Y-117635000D01*
X145265000Y-117622456D01*
X145265000Y-117701939D01*
X145304774Y-117901898D01*
X145382795Y-118090256D01*
X145496063Y-118259774D01*
X145640226Y-118403937D01*
X145809744Y-118517205D01*
X145998102Y-118595226D01*
X146198061Y-118635000D01*
X146401939Y-118635000D01*
X146601898Y-118595226D01*
X146790256Y-118517205D01*
X146959774Y-118403937D01*
X147103937Y-118259774D01*
X147217205Y-118090256D01*
X147295226Y-117901898D01*
X147335000Y-117701939D01*
X147335000Y-117498061D01*
X147295226Y-117298102D01*
X147217205Y-117109744D01*
X147103937Y-116940226D01*
X146959774Y-116796063D01*
X146790256Y-116682795D01*
X146601898Y-116604774D01*
X146401939Y-116565000D01*
X146198061Y-116565000D01*
X146135000Y-116577544D01*
X146135000Y-116498061D01*
X146095226Y-116298102D01*
X146017205Y-116109744D01*
X145903937Y-115940226D01*
X145759774Y-115796063D01*
X145590256Y-115682795D01*
X145401898Y-115604774D01*
X145201939Y-115565000D01*
X144998061Y-115565000D01*
X144798102Y-115604774D01*
X144609744Y-115682795D01*
X144440226Y-115796063D01*
X144296063Y-115940226D01*
X144182795Y-116109744D01*
X144104774Y-116298102D01*
X144065000Y-116498061D01*
X134961772Y-116498061D01*
X134959774Y-116496063D01*
X134790256Y-116382795D01*
X134601898Y-116304774D01*
X134401939Y-116265000D01*
X134198061Y-116265000D01*
X133998102Y-116304774D01*
X133809744Y-116382795D01*
X133640226Y-116496063D01*
X133496063Y-116640226D01*
X133382795Y-116809744D01*
X133304774Y-116998102D01*
X133265000Y-117198061D01*
X112315880Y-117198061D01*
X112335000Y-117101939D01*
X112335000Y-116898061D01*
X112295226Y-116698102D01*
X112217205Y-116509744D01*
X112103937Y-116340226D01*
X111959774Y-116196063D01*
X111790256Y-116082795D01*
X111601898Y-116004774D01*
X111401939Y-115965000D01*
X111198061Y-115965000D01*
X111098631Y-115984778D01*
X111135000Y-115801939D01*
X111135000Y-115598061D01*
X111095226Y-115398102D01*
X111017205Y-115209744D01*
X110903937Y-115040226D01*
X110759774Y-114896063D01*
X110590256Y-114782795D01*
X110401898Y-114704774D01*
X110201939Y-114665000D01*
X109998061Y-114665000D01*
X109798102Y-114704774D01*
X109609744Y-114782795D01*
X109440226Y-114896063D01*
X109296063Y-115040226D01*
X109182795Y-115209744D01*
X109104774Y-115398102D01*
X109065000Y-115598061D01*
X106865650Y-115598061D01*
X106903937Y-115559774D01*
X107017205Y-115390256D01*
X107095226Y-115201898D01*
X107135000Y-115001939D01*
X107135000Y-114798061D01*
X107095226Y-114598102D01*
X107017205Y-114409744D01*
X106903937Y-114240226D01*
X106759774Y-114096063D01*
X106590256Y-113982795D01*
X106496745Y-113944061D01*
X132823000Y-113944061D01*
X132823000Y-114147939D01*
X132862774Y-114347898D01*
X132940795Y-114536256D01*
X133054063Y-114705774D01*
X133198226Y-114849937D01*
X133367744Y-114963205D01*
X133556102Y-115041226D01*
X133756061Y-115081000D01*
X133959939Y-115081000D01*
X134159898Y-115041226D01*
X134348256Y-114963205D01*
X134517774Y-114849937D01*
X134661937Y-114705774D01*
X134775205Y-114536256D01*
X134853226Y-114347898D01*
X134893000Y-114147939D01*
X134893000Y-113944061D01*
X134853226Y-113744102D01*
X134775205Y-113555744D01*
X134661937Y-113386226D01*
X134517774Y-113242063D01*
X134348256Y-113128795D01*
X134159898Y-113050774D01*
X133959939Y-113011000D01*
X133756061Y-113011000D01*
X133556102Y-113050774D01*
X133367744Y-113128795D01*
X133198226Y-113242063D01*
X133054063Y-113386226D01*
X132940795Y-113555744D01*
X132862774Y-113744102D01*
X132823000Y-113944061D01*
X106496745Y-113944061D01*
X106401898Y-113904774D01*
X106201939Y-113865000D01*
X105998061Y-113865000D01*
X105798102Y-113904774D01*
X105609744Y-113982795D01*
X105440226Y-114096063D01*
X105296063Y-114240226D01*
X105182795Y-114409744D01*
X105104774Y-114598102D01*
X105065000Y-114798061D01*
X104511989Y-114798061D01*
X104517205Y-114790256D01*
X104595226Y-114601898D01*
X104635000Y-114401939D01*
X104635000Y-114198061D01*
X104595226Y-113998102D01*
X104517205Y-113809744D01*
X104403937Y-113640226D01*
X104259774Y-113496063D01*
X104090256Y-113382795D01*
X103901898Y-113304774D01*
X103701939Y-113265000D01*
X103498061Y-113265000D01*
X103298102Y-113304774D01*
X103109744Y-113382795D01*
X102940226Y-113496063D01*
X102796063Y-113640226D01*
X102682795Y-113809744D01*
X102604774Y-113998102D01*
X102565000Y-114198061D01*
X101368150Y-114198061D01*
X101201939Y-114165000D01*
X100998061Y-114165000D01*
X100798102Y-114204774D01*
X100609744Y-114282795D01*
X100440226Y-114396063D01*
X100296063Y-114540226D01*
X100182795Y-114709744D01*
X100104774Y-114898102D01*
X100065000Y-115098061D01*
X78318168Y-115098061D01*
X78196632Y-114976525D01*
X77953411Y-114814010D01*
X77683158Y-114702068D01*
X77396260Y-114645000D01*
X77103740Y-114645000D01*
X76816842Y-114702068D01*
X76546589Y-114814010D01*
X76303368Y-114976525D01*
X76096525Y-115183368D01*
X75934010Y-115426589D01*
X75822068Y-115696842D01*
X75765000Y-115983740D01*
X73660000Y-115983740D01*
X73660000Y-112898061D01*
X92465000Y-112898061D01*
X92465000Y-113101939D01*
X92504774Y-113301898D01*
X92582795Y-113490256D01*
X92696063Y-113659774D01*
X92840226Y-113803937D01*
X93009744Y-113917205D01*
X93198102Y-113995226D01*
X93398061Y-114035000D01*
X93601939Y-114035000D01*
X93801898Y-113995226D01*
X93990256Y-113917205D01*
X94159774Y-113803937D01*
X94303937Y-113659774D01*
X94417205Y-113490256D01*
X94495226Y-113301898D01*
X94535000Y-113101939D01*
X94535000Y-112898061D01*
X94495226Y-112698102D01*
X94446440Y-112580322D01*
X110078600Y-112580322D01*
X110078600Y-112784200D01*
X110118374Y-112984159D01*
X110196395Y-113172517D01*
X110309663Y-113342035D01*
X110453826Y-113486198D01*
X110623344Y-113599466D01*
X110811702Y-113677487D01*
X111011661Y-113717261D01*
X111215539Y-113717261D01*
X111415498Y-113677487D01*
X111603856Y-113599466D01*
X111773374Y-113486198D01*
X111917537Y-113342035D01*
X112030805Y-113172517D01*
X112108826Y-112984159D01*
X112148600Y-112784200D01*
X112148600Y-112674061D01*
X116821000Y-112674061D01*
X116821000Y-112877939D01*
X116860774Y-113077898D01*
X116938795Y-113266256D01*
X117052063Y-113435774D01*
X117196226Y-113579937D01*
X117365744Y-113693205D01*
X117554102Y-113771226D01*
X117754061Y-113811000D01*
X117957939Y-113811000D01*
X118157898Y-113771226D01*
X118346256Y-113693205D01*
X118515774Y-113579937D01*
X118659937Y-113435774D01*
X118773205Y-113266256D01*
X118851226Y-113077898D01*
X118891000Y-112877939D01*
X118891000Y-112674061D01*
X118851226Y-112474102D01*
X118773205Y-112285744D01*
X118659937Y-112116226D01*
X118515774Y-111972063D01*
X118346256Y-111858795D01*
X118157898Y-111780774D01*
X117957939Y-111741000D01*
X117754061Y-111741000D01*
X117554102Y-111780774D01*
X117365744Y-111858795D01*
X117196226Y-111972063D01*
X117052063Y-112116226D01*
X116938795Y-112285744D01*
X116860774Y-112474102D01*
X116821000Y-112674061D01*
X112148600Y-112674061D01*
X112148600Y-112580322D01*
X112108826Y-112380363D01*
X112030805Y-112192005D01*
X111917537Y-112022487D01*
X111773374Y-111878324D01*
X111603856Y-111765056D01*
X111415498Y-111687035D01*
X111215539Y-111647261D01*
X111011661Y-111647261D01*
X110811702Y-111687035D01*
X110623344Y-111765056D01*
X110453826Y-111878324D01*
X110309663Y-112022487D01*
X110196395Y-112192005D01*
X110118374Y-112380363D01*
X110078600Y-112580322D01*
X94446440Y-112580322D01*
X94417205Y-112509744D01*
X94303937Y-112340226D01*
X94159774Y-112196063D01*
X93990256Y-112082795D01*
X93801898Y-112004774D01*
X93601939Y-111965000D01*
X93398061Y-111965000D01*
X93198102Y-112004774D01*
X93009744Y-112082795D01*
X92840226Y-112196063D01*
X92696063Y-112340226D01*
X92582795Y-112509744D01*
X92504774Y-112698102D01*
X92465000Y-112898061D01*
X73660000Y-112898061D01*
X73660000Y-110150000D01*
X75761928Y-110150000D01*
X75761928Y-111850000D01*
X75774188Y-111974482D01*
X75810498Y-112094180D01*
X75869463Y-112204494D01*
X75948815Y-112301185D01*
X76045506Y-112380537D01*
X76155820Y-112439502D01*
X76275518Y-112475812D01*
X76400000Y-112488072D01*
X78100000Y-112488072D01*
X78224482Y-112475812D01*
X78344180Y-112439502D01*
X78454494Y-112380537D01*
X78551185Y-112301185D01*
X78630537Y-112204494D01*
X78689502Y-112094180D01*
X78725812Y-111974482D01*
X78738072Y-111850000D01*
X78738072Y-110798061D01*
X99665000Y-110798061D01*
X99665000Y-111001939D01*
X99704774Y-111201898D01*
X99782795Y-111390256D01*
X99896063Y-111559774D01*
X100040226Y-111703937D01*
X100209744Y-111817205D01*
X100398102Y-111895226D01*
X100598061Y-111935000D01*
X100801939Y-111935000D01*
X101001898Y-111895226D01*
X101190256Y-111817205D01*
X101359774Y-111703937D01*
X101503937Y-111559774D01*
X101617205Y-111390256D01*
X101695226Y-111201898D01*
X101735000Y-111001939D01*
X101735000Y-110798061D01*
X101695226Y-110598102D01*
X101617205Y-110409744D01*
X101503937Y-110240226D01*
X101359774Y-110096063D01*
X101190256Y-109982795D01*
X101001898Y-109904774D01*
X100801939Y-109865000D01*
X100598061Y-109865000D01*
X100398102Y-109904774D01*
X100209744Y-109982795D01*
X100040226Y-110096063D01*
X99896063Y-110240226D01*
X99782795Y-110409744D01*
X99704774Y-110598102D01*
X99665000Y-110798061D01*
X78738072Y-110798061D01*
X78738072Y-110150000D01*
X78725812Y-110025518D01*
X78689502Y-109905820D01*
X78630537Y-109795506D01*
X78551185Y-109698815D01*
X78454494Y-109619463D01*
X78344180Y-109560498D01*
X78271620Y-109538487D01*
X78403475Y-109406632D01*
X78565990Y-109163411D01*
X78652982Y-108953392D01*
X104770331Y-108953392D01*
X104770331Y-109157270D01*
X104810105Y-109357229D01*
X104888126Y-109545587D01*
X105001394Y-109715105D01*
X105145557Y-109859268D01*
X105315075Y-109972536D01*
X105503433Y-110050557D01*
X105703392Y-110090331D01*
X105907270Y-110090331D01*
X106107229Y-110050557D01*
X106295587Y-109972536D01*
X106433985Y-109880061D01*
X113265000Y-109880061D01*
X113265000Y-110083939D01*
X113304774Y-110283898D01*
X113382795Y-110472256D01*
X113496063Y-110641774D01*
X113640226Y-110785937D01*
X113809744Y-110899205D01*
X113998102Y-110977226D01*
X114198061Y-111017000D01*
X114401939Y-111017000D01*
X114601898Y-110977226D01*
X114790256Y-110899205D01*
X114959774Y-110785937D01*
X115103937Y-110641774D01*
X115217205Y-110472256D01*
X115252079Y-110388061D01*
X124949000Y-110388061D01*
X124949000Y-110591939D01*
X124988774Y-110791898D01*
X125066795Y-110980256D01*
X125180063Y-111149774D01*
X125324226Y-111293937D01*
X125493744Y-111407205D01*
X125682102Y-111485226D01*
X125882061Y-111525000D01*
X126085939Y-111525000D01*
X126285898Y-111485226D01*
X126474256Y-111407205D01*
X126643774Y-111293937D01*
X126787937Y-111149774D01*
X126901205Y-110980256D01*
X126979226Y-110791898D01*
X127019000Y-110591939D01*
X127019000Y-110388061D01*
X126979226Y-110188102D01*
X126901205Y-109999744D01*
X126787937Y-109830226D01*
X126643774Y-109686063D01*
X126474256Y-109572795D01*
X126285898Y-109494774D01*
X126085939Y-109455000D01*
X125882061Y-109455000D01*
X125682102Y-109494774D01*
X125493744Y-109572795D01*
X125324226Y-109686063D01*
X125180063Y-109830226D01*
X125066795Y-109999744D01*
X124988774Y-110188102D01*
X124949000Y-110388061D01*
X115252079Y-110388061D01*
X115295226Y-110283898D01*
X115335000Y-110083939D01*
X115335000Y-109880061D01*
X115295226Y-109680102D01*
X115217205Y-109491744D01*
X115103937Y-109322226D01*
X114959774Y-109178063D01*
X114790256Y-109064795D01*
X114629148Y-108998061D01*
X132965000Y-108998061D01*
X132965000Y-109201939D01*
X133004774Y-109401898D01*
X133082795Y-109590256D01*
X133196063Y-109759774D01*
X133340226Y-109903937D01*
X133509744Y-110017205D01*
X133698102Y-110095226D01*
X133898061Y-110135000D01*
X134101939Y-110135000D01*
X134301898Y-110095226D01*
X134490256Y-110017205D01*
X134659774Y-109903937D01*
X134803937Y-109759774D01*
X134917205Y-109590256D01*
X134995226Y-109401898D01*
X135035000Y-109201939D01*
X135035000Y-108998061D01*
X134995226Y-108798102D01*
X134917205Y-108609744D01*
X134803937Y-108440226D01*
X134659774Y-108296063D01*
X134490256Y-108182795D01*
X134301898Y-108104774D01*
X134101939Y-108065000D01*
X133898061Y-108065000D01*
X133698102Y-108104774D01*
X133509744Y-108182795D01*
X133340226Y-108296063D01*
X133196063Y-108440226D01*
X133082795Y-108609744D01*
X133004774Y-108798102D01*
X132965000Y-108998061D01*
X114629148Y-108998061D01*
X114601898Y-108986774D01*
X114401939Y-108947000D01*
X114198061Y-108947000D01*
X113998102Y-108986774D01*
X113809744Y-109064795D01*
X113640226Y-109178063D01*
X113496063Y-109322226D01*
X113382795Y-109491744D01*
X113304774Y-109680102D01*
X113265000Y-109880061D01*
X106433985Y-109880061D01*
X106465105Y-109859268D01*
X106609268Y-109715105D01*
X106722536Y-109545587D01*
X106800557Y-109357229D01*
X106840331Y-109157270D01*
X106840331Y-109076365D01*
X106896063Y-109159774D01*
X107040226Y-109303937D01*
X107209744Y-109417205D01*
X107398102Y-109495226D01*
X107598061Y-109535000D01*
X107801939Y-109535000D01*
X108001898Y-109495226D01*
X108190256Y-109417205D01*
X108359774Y-109303937D01*
X108503937Y-109159774D01*
X108617205Y-108990256D01*
X108695226Y-108801898D01*
X108735000Y-108601939D01*
X108735000Y-108498061D01*
X108965000Y-108498061D01*
X108965000Y-108701939D01*
X109004774Y-108901898D01*
X109082795Y-109090256D01*
X109196063Y-109259774D01*
X109340226Y-109403937D01*
X109509744Y-109517205D01*
X109698102Y-109595226D01*
X109898061Y-109635000D01*
X110101939Y-109635000D01*
X110301898Y-109595226D01*
X110490256Y-109517205D01*
X110552143Y-109475854D01*
X110592226Y-109515937D01*
X110761744Y-109629205D01*
X110950102Y-109707226D01*
X111150061Y-109747000D01*
X111353939Y-109747000D01*
X111553898Y-109707226D01*
X111742256Y-109629205D01*
X111911774Y-109515937D01*
X112055937Y-109371774D01*
X112169205Y-109202256D01*
X112247226Y-109013898D01*
X112287000Y-108813939D01*
X112287000Y-108610061D01*
X112247226Y-108410102D01*
X112169205Y-108221744D01*
X112055937Y-108052226D01*
X111911774Y-107908063D01*
X111742256Y-107794795D01*
X111553898Y-107716774D01*
X111353939Y-107677000D01*
X111150061Y-107677000D01*
X110950102Y-107716774D01*
X110761744Y-107794795D01*
X110699857Y-107836146D01*
X110659774Y-107796063D01*
X110490256Y-107682795D01*
X110301898Y-107604774D01*
X110101939Y-107565000D01*
X109898061Y-107565000D01*
X109698102Y-107604774D01*
X109509744Y-107682795D01*
X109340226Y-107796063D01*
X109196063Y-107940226D01*
X109082795Y-108109744D01*
X109004774Y-108298102D01*
X108965000Y-108498061D01*
X108735000Y-108498061D01*
X108735000Y-108398061D01*
X108695226Y-108198102D01*
X108617205Y-108009744D01*
X108503937Y-107840226D01*
X108359774Y-107696063D01*
X108190256Y-107582795D01*
X108001898Y-107504774D01*
X107801939Y-107465000D01*
X107598061Y-107465000D01*
X107398102Y-107504774D01*
X107209744Y-107582795D01*
X107040226Y-107696063D01*
X106896063Y-107840226D01*
X106782795Y-108009744D01*
X106704774Y-108198102D01*
X106665000Y-108398061D01*
X106665000Y-108478966D01*
X106609268Y-108395557D01*
X106465105Y-108251394D01*
X106295587Y-108138126D01*
X106107229Y-108060105D01*
X105907270Y-108020331D01*
X105703392Y-108020331D01*
X105503433Y-108060105D01*
X105315075Y-108138126D01*
X105145557Y-108251394D01*
X105001394Y-108395557D01*
X104888126Y-108565075D01*
X104810105Y-108753433D01*
X104770331Y-108953392D01*
X78652982Y-108953392D01*
X78677932Y-108893158D01*
X78735000Y-108606260D01*
X78735000Y-108313740D01*
X78677932Y-108026842D01*
X78565990Y-107756589D01*
X78403475Y-107513368D01*
X78196632Y-107306525D01*
X78022240Y-107190000D01*
X78196632Y-107073475D01*
X78403475Y-106866632D01*
X78565990Y-106623411D01*
X78677932Y-106353158D01*
X78735000Y-106066260D01*
X78735000Y-105773740D01*
X78677932Y-105486842D01*
X78565990Y-105216589D01*
X78520202Y-105148061D01*
X104965000Y-105148061D01*
X104965000Y-105351939D01*
X105004774Y-105551898D01*
X105082795Y-105740256D01*
X105189419Y-105899830D01*
X105182795Y-105909744D01*
X105104774Y-106098102D01*
X105065000Y-106298061D01*
X105065000Y-106501939D01*
X105104774Y-106701898D01*
X105182795Y-106890256D01*
X105296063Y-107059774D01*
X105440226Y-107203937D01*
X105609744Y-107317205D01*
X105798102Y-107395226D01*
X105998061Y-107435000D01*
X106201939Y-107435000D01*
X106401898Y-107395226D01*
X106590256Y-107317205D01*
X106759774Y-107203937D01*
X106792050Y-107171661D01*
X113787414Y-107171661D01*
X113787414Y-107375539D01*
X113827188Y-107575498D01*
X113905209Y-107763856D01*
X114018477Y-107933374D01*
X114162640Y-108077537D01*
X114332158Y-108190805D01*
X114520516Y-108268826D01*
X114720475Y-108308600D01*
X114924353Y-108308600D01*
X115124312Y-108268826D01*
X115312670Y-108190805D01*
X115482188Y-108077537D01*
X115561664Y-107998061D01*
X143765000Y-107998061D01*
X143765000Y-108201939D01*
X143804774Y-108401898D01*
X143882795Y-108590256D01*
X143996063Y-108759774D01*
X144140226Y-108903937D01*
X144309744Y-109017205D01*
X144498102Y-109095226D01*
X144698061Y-109135000D01*
X144901939Y-109135000D01*
X145091054Y-109097383D01*
X145082795Y-109109744D01*
X145004774Y-109298102D01*
X144965000Y-109498061D01*
X144965000Y-109701939D01*
X145004774Y-109901898D01*
X145082795Y-110090256D01*
X145196063Y-110259774D01*
X145340226Y-110403937D01*
X145509744Y-110517205D01*
X145698102Y-110595226D01*
X145898061Y-110635000D01*
X146101939Y-110635000D01*
X146301898Y-110595226D01*
X146490256Y-110517205D01*
X146659774Y-110403937D01*
X146803937Y-110259774D01*
X146917205Y-110090256D01*
X146995226Y-109901898D01*
X147035000Y-109701939D01*
X147035000Y-109498061D01*
X146995226Y-109298102D01*
X146917205Y-109109744D01*
X146803937Y-108940226D01*
X146659774Y-108796063D01*
X146490256Y-108682795D01*
X146301898Y-108604774D01*
X146101939Y-108565000D01*
X145898061Y-108565000D01*
X145708946Y-108602617D01*
X145717205Y-108590256D01*
X145795226Y-108401898D01*
X145835000Y-108201939D01*
X145835000Y-107998061D01*
X145795226Y-107798102D01*
X145717205Y-107609744D01*
X145603937Y-107440226D01*
X145459774Y-107296063D01*
X145290256Y-107182795D01*
X145101898Y-107104774D01*
X144901939Y-107065000D01*
X144698061Y-107065000D01*
X144498102Y-107104774D01*
X144309744Y-107182795D01*
X144140226Y-107296063D01*
X143996063Y-107440226D01*
X143882795Y-107609744D01*
X143804774Y-107798102D01*
X143765000Y-107998061D01*
X115561664Y-107998061D01*
X115626351Y-107933374D01*
X115739619Y-107763856D01*
X115817640Y-107575498D01*
X115857414Y-107375539D01*
X115857414Y-107171661D01*
X115817640Y-106971702D01*
X115739619Y-106783344D01*
X115626351Y-106613826D01*
X115590586Y-106578061D01*
X132569000Y-106578061D01*
X132569000Y-106781939D01*
X132608774Y-106981898D01*
X132686795Y-107170256D01*
X132800063Y-107339774D01*
X132944226Y-107483937D01*
X133113744Y-107597205D01*
X133302102Y-107675226D01*
X133502061Y-107715000D01*
X133705939Y-107715000D01*
X133905898Y-107675226D01*
X134094256Y-107597205D01*
X134263774Y-107483937D01*
X134407937Y-107339774D01*
X134521205Y-107170256D01*
X134599226Y-106981898D01*
X134639000Y-106781939D01*
X134639000Y-106578061D01*
X134599226Y-106378102D01*
X134521205Y-106189744D01*
X134407937Y-106020226D01*
X134263774Y-105876063D01*
X134094256Y-105762795D01*
X133905898Y-105684774D01*
X133705939Y-105645000D01*
X133502061Y-105645000D01*
X133302102Y-105684774D01*
X133113744Y-105762795D01*
X132944226Y-105876063D01*
X132800063Y-106020226D01*
X132686795Y-106189744D01*
X132608774Y-106378102D01*
X132569000Y-106578061D01*
X115590586Y-106578061D01*
X115482188Y-106469663D01*
X115312670Y-106356395D01*
X115124312Y-106278374D01*
X114924353Y-106238600D01*
X114720475Y-106238600D01*
X114520516Y-106278374D01*
X114332158Y-106356395D01*
X114162640Y-106469663D01*
X114018477Y-106613826D01*
X113905209Y-106783344D01*
X113827188Y-106971702D01*
X113787414Y-107171661D01*
X106792050Y-107171661D01*
X106903937Y-107059774D01*
X107017205Y-106890256D01*
X107095226Y-106701898D01*
X107135000Y-106501939D01*
X107135000Y-106298061D01*
X107095226Y-106098102D01*
X107017205Y-105909744D01*
X106954608Y-105816061D01*
X107423000Y-105816061D01*
X107423000Y-106019939D01*
X107462774Y-106219898D01*
X107540795Y-106408256D01*
X107654063Y-106577774D01*
X107798226Y-106721937D01*
X107967744Y-106835205D01*
X108156102Y-106913226D01*
X108356061Y-106953000D01*
X108559939Y-106953000D01*
X108759898Y-106913226D01*
X108948256Y-106835205D01*
X109117774Y-106721937D01*
X109261937Y-106577774D01*
X109375205Y-106408256D01*
X109453226Y-106219898D01*
X109493000Y-106019939D01*
X109493000Y-105816061D01*
X109453226Y-105616102D01*
X109375205Y-105427744D01*
X109261937Y-105258226D01*
X109117774Y-105114063D01*
X108948256Y-105000795D01*
X108759898Y-104922774D01*
X108559939Y-104883000D01*
X108356061Y-104883000D01*
X108156102Y-104922774D01*
X107967744Y-105000795D01*
X107798226Y-105114063D01*
X107654063Y-105258226D01*
X107540795Y-105427744D01*
X107462774Y-105616102D01*
X107423000Y-105816061D01*
X106954608Y-105816061D01*
X106910581Y-105750170D01*
X106917205Y-105740256D01*
X106995226Y-105551898D01*
X107035000Y-105351939D01*
X107035000Y-105148061D01*
X106995226Y-104948102D01*
X106917205Y-104759744D01*
X106803937Y-104590226D01*
X106659774Y-104446063D01*
X106490256Y-104332795D01*
X106301898Y-104254774D01*
X106101939Y-104215000D01*
X105898061Y-104215000D01*
X105698102Y-104254774D01*
X105509744Y-104332795D01*
X105340226Y-104446063D01*
X105196063Y-104590226D01*
X105082795Y-104759744D01*
X105004774Y-104948102D01*
X104965000Y-105148061D01*
X78520202Y-105148061D01*
X78403475Y-104973368D01*
X78196632Y-104766525D01*
X78022240Y-104650000D01*
X78196632Y-104533475D01*
X78403475Y-104326632D01*
X78565990Y-104083411D01*
X78677932Y-103813158D01*
X78735000Y-103526260D01*
X78735000Y-103498061D01*
X89365000Y-103498061D01*
X89365000Y-103701939D01*
X89404774Y-103901898D01*
X89482795Y-104090256D01*
X89596063Y-104259774D01*
X89740226Y-104403937D01*
X89909744Y-104517205D01*
X90098102Y-104595226D01*
X90298061Y-104635000D01*
X90501939Y-104635000D01*
X90701898Y-104595226D01*
X90890256Y-104517205D01*
X91059774Y-104403937D01*
X91203937Y-104259774D01*
X91317205Y-104090256D01*
X91395226Y-103901898D01*
X91435000Y-103701939D01*
X91435000Y-103498061D01*
X91415109Y-103398061D01*
X106165000Y-103398061D01*
X106165000Y-103601939D01*
X106204774Y-103801898D01*
X106282795Y-103990256D01*
X106396063Y-104159774D01*
X106540226Y-104303937D01*
X106709744Y-104417205D01*
X106898102Y-104495226D01*
X107098061Y-104535000D01*
X107301939Y-104535000D01*
X107501898Y-104495226D01*
X107690256Y-104417205D01*
X107859774Y-104303937D01*
X108003937Y-104159774D01*
X108117205Y-103990256D01*
X108155393Y-103898061D01*
X110265000Y-103898061D01*
X110265000Y-104101939D01*
X110304774Y-104301898D01*
X110382795Y-104490256D01*
X110496063Y-104659774D01*
X110640226Y-104803937D01*
X110809744Y-104917205D01*
X110998102Y-104995226D01*
X111198061Y-105035000D01*
X111401939Y-105035000D01*
X111601898Y-104995226D01*
X111790256Y-104917205D01*
X111959774Y-104803937D01*
X112103937Y-104659774D01*
X112217205Y-104490256D01*
X112295226Y-104301898D01*
X112325825Y-104148061D01*
X114965000Y-104148061D01*
X114965000Y-104351939D01*
X115004774Y-104551898D01*
X115082795Y-104740256D01*
X115196063Y-104909774D01*
X115340226Y-105053937D01*
X115509744Y-105167205D01*
X115698102Y-105245226D01*
X115898061Y-105285000D01*
X116101939Y-105285000D01*
X116301898Y-105245226D01*
X116490256Y-105167205D01*
X116659774Y-105053937D01*
X116803937Y-104909774D01*
X116917205Y-104740256D01*
X116995226Y-104551898D01*
X117035000Y-104351939D01*
X117035000Y-104148061D01*
X116995226Y-103948102D01*
X116917205Y-103759744D01*
X116803937Y-103590226D01*
X116659774Y-103446063D01*
X116490256Y-103332795D01*
X116301898Y-103254774D01*
X116101939Y-103215000D01*
X115898061Y-103215000D01*
X115698102Y-103254774D01*
X115509744Y-103332795D01*
X115340226Y-103446063D01*
X115196063Y-103590226D01*
X115082795Y-103759744D01*
X115004774Y-103948102D01*
X114965000Y-104148061D01*
X112325825Y-104148061D01*
X112335000Y-104101939D01*
X112335000Y-103898061D01*
X112295226Y-103698102D01*
X112217205Y-103509744D01*
X112103937Y-103340226D01*
X111959774Y-103196063D01*
X111790256Y-103082795D01*
X111601898Y-103004774D01*
X111401939Y-102965000D01*
X111198061Y-102965000D01*
X110998102Y-103004774D01*
X110809744Y-103082795D01*
X110640226Y-103196063D01*
X110496063Y-103340226D01*
X110382795Y-103509744D01*
X110304774Y-103698102D01*
X110265000Y-103898061D01*
X108155393Y-103898061D01*
X108195226Y-103801898D01*
X108235000Y-103601939D01*
X108235000Y-103398061D01*
X108195226Y-103198102D01*
X108117205Y-103009744D01*
X108003937Y-102840226D01*
X107931772Y-102768061D01*
X120377000Y-102768061D01*
X120377000Y-102971939D01*
X120416774Y-103171898D01*
X120494795Y-103360256D01*
X120608063Y-103529774D01*
X120752226Y-103673937D01*
X120921744Y-103787205D01*
X121110102Y-103865226D01*
X121310061Y-103905000D01*
X121513939Y-103905000D01*
X121713898Y-103865226D01*
X121902256Y-103787205D01*
X122071774Y-103673937D01*
X122215937Y-103529774D01*
X122329205Y-103360256D01*
X122407226Y-103171898D01*
X122447000Y-102971939D01*
X122447000Y-102768061D01*
X122407226Y-102568102D01*
X122336793Y-102398061D01*
X145165000Y-102398061D01*
X145165000Y-102601939D01*
X145204774Y-102801898D01*
X145282795Y-102990256D01*
X145396063Y-103159774D01*
X145540226Y-103303937D01*
X145709744Y-103417205D01*
X145898102Y-103495226D01*
X146098061Y-103535000D01*
X146301939Y-103535000D01*
X146501898Y-103495226D01*
X146690256Y-103417205D01*
X146859774Y-103303937D01*
X147003937Y-103159774D01*
X147117205Y-102990256D01*
X147195226Y-102801898D01*
X147235000Y-102601939D01*
X147235000Y-102398061D01*
X147195226Y-102198102D01*
X147117205Y-102009744D01*
X147003937Y-101840226D01*
X146859774Y-101696063D01*
X146690256Y-101582795D01*
X146501898Y-101504774D01*
X146301939Y-101465000D01*
X146098061Y-101465000D01*
X145898102Y-101504774D01*
X145709744Y-101582795D01*
X145540226Y-101696063D01*
X145396063Y-101840226D01*
X145282795Y-102009744D01*
X145204774Y-102198102D01*
X145165000Y-102398061D01*
X122336793Y-102398061D01*
X122329205Y-102379744D01*
X122215937Y-102210226D01*
X122071774Y-102066063D01*
X121902256Y-101952795D01*
X121713898Y-101874774D01*
X121513939Y-101835000D01*
X121310061Y-101835000D01*
X121110102Y-101874774D01*
X120921744Y-101952795D01*
X120752226Y-102066063D01*
X120608063Y-102210226D01*
X120494795Y-102379744D01*
X120416774Y-102568102D01*
X120377000Y-102768061D01*
X107931772Y-102768061D01*
X107859774Y-102696063D01*
X107690256Y-102582795D01*
X107501898Y-102504774D01*
X107301939Y-102465000D01*
X107098061Y-102465000D01*
X106898102Y-102504774D01*
X106709744Y-102582795D01*
X106540226Y-102696063D01*
X106396063Y-102840226D01*
X106282795Y-103009744D01*
X106204774Y-103198102D01*
X106165000Y-103398061D01*
X91415109Y-103398061D01*
X91395226Y-103298102D01*
X91317205Y-103109744D01*
X91203937Y-102940226D01*
X91059774Y-102796063D01*
X90890256Y-102682795D01*
X90701898Y-102604774D01*
X90501939Y-102565000D01*
X90298061Y-102565000D01*
X90098102Y-102604774D01*
X89909744Y-102682795D01*
X89740226Y-102796063D01*
X89596063Y-102940226D01*
X89482795Y-103109744D01*
X89404774Y-103298102D01*
X89365000Y-103498061D01*
X78735000Y-103498061D01*
X78735000Y-103233740D01*
X78677932Y-102946842D01*
X78565990Y-102676589D01*
X78403475Y-102433368D01*
X78196632Y-102226525D01*
X78022240Y-102110000D01*
X78196632Y-101993475D01*
X78403475Y-101786632D01*
X78565990Y-101543411D01*
X78584774Y-101498061D01*
X114965000Y-101498061D01*
X114965000Y-101701939D01*
X115004774Y-101901898D01*
X115082795Y-102090256D01*
X115196063Y-102259774D01*
X115340226Y-102403937D01*
X115509744Y-102517205D01*
X115698102Y-102595226D01*
X115898061Y-102635000D01*
X116101939Y-102635000D01*
X116301898Y-102595226D01*
X116490256Y-102517205D01*
X116659774Y-102403937D01*
X116803937Y-102259774D01*
X116917205Y-102090256D01*
X116995226Y-101901898D01*
X117035000Y-101701939D01*
X117035000Y-101498061D01*
X116995226Y-101298102D01*
X116917205Y-101109744D01*
X116803937Y-100940226D01*
X116659774Y-100796063D01*
X116490256Y-100682795D01*
X116301898Y-100604774D01*
X116101939Y-100565000D01*
X115898061Y-100565000D01*
X115698102Y-100604774D01*
X115509744Y-100682795D01*
X115340226Y-100796063D01*
X115196063Y-100940226D01*
X115082795Y-101109744D01*
X115004774Y-101298102D01*
X114965000Y-101498061D01*
X78584774Y-101498061D01*
X78677932Y-101273158D01*
X78735000Y-100986260D01*
X78735000Y-100693740D01*
X78677932Y-100406842D01*
X78565990Y-100136589D01*
X78403475Y-99893368D01*
X78196632Y-99686525D01*
X78022240Y-99570000D01*
X78196632Y-99453475D01*
X78403475Y-99246632D01*
X78565990Y-99003411D01*
X78603132Y-98913740D01*
X84875000Y-98913740D01*
X84875000Y-99206260D01*
X84932068Y-99493158D01*
X85044010Y-99763411D01*
X85206525Y-100006632D01*
X85413368Y-100213475D01*
X85656589Y-100375990D01*
X85926842Y-100487932D01*
X86213740Y-100545000D01*
X86506260Y-100545000D01*
X86793158Y-100487932D01*
X87063411Y-100375990D01*
X87306632Y-100213475D01*
X87513475Y-100006632D01*
X87630000Y-99832240D01*
X87746525Y-100006632D01*
X87953368Y-100213475D01*
X88196589Y-100375990D01*
X88466842Y-100487932D01*
X88753740Y-100545000D01*
X89046260Y-100545000D01*
X89333158Y-100487932D01*
X89603411Y-100375990D01*
X89846632Y-100213475D01*
X89978487Y-100081620D01*
X90000498Y-100154180D01*
X90059463Y-100264494D01*
X90138815Y-100361185D01*
X90235506Y-100440537D01*
X90345820Y-100499502D01*
X90465518Y-100535812D01*
X90590000Y-100548072D01*
X91154250Y-100545000D01*
X91313000Y-100386250D01*
X91313000Y-99187000D01*
X91567000Y-99187000D01*
X91567000Y-100386250D01*
X91725750Y-100545000D01*
X92290000Y-100548072D01*
X92414482Y-100535812D01*
X92534180Y-100499502D01*
X92644494Y-100440537D01*
X92741185Y-100361185D01*
X92792989Y-100298061D01*
X134365000Y-100298061D01*
X134365000Y-100501939D01*
X134404774Y-100701898D01*
X134482795Y-100890256D01*
X134596063Y-101059774D01*
X134740226Y-101203937D01*
X134909744Y-101317205D01*
X135098102Y-101395226D01*
X135298061Y-101435000D01*
X135501939Y-101435000D01*
X135701898Y-101395226D01*
X135890256Y-101317205D01*
X136059774Y-101203937D01*
X136203937Y-101059774D01*
X136317205Y-100890256D01*
X136395226Y-100701898D01*
X136435000Y-100501939D01*
X136435000Y-100398061D01*
X143165000Y-100398061D01*
X143165000Y-100601939D01*
X143204774Y-100801898D01*
X143282795Y-100990256D01*
X143396063Y-101159774D01*
X143540226Y-101303937D01*
X143709744Y-101417205D01*
X143898102Y-101495226D01*
X144098061Y-101535000D01*
X144301939Y-101535000D01*
X144501898Y-101495226D01*
X144690256Y-101417205D01*
X144859774Y-101303937D01*
X145003937Y-101159774D01*
X145117205Y-100990256D01*
X145195226Y-100801898D01*
X145235000Y-100601939D01*
X145235000Y-100398061D01*
X145195226Y-100198102D01*
X145117205Y-100009744D01*
X145003937Y-99840226D01*
X144859774Y-99696063D01*
X144690256Y-99582795D01*
X144501898Y-99504774D01*
X144301939Y-99465000D01*
X144098061Y-99465000D01*
X143898102Y-99504774D01*
X143709744Y-99582795D01*
X143540226Y-99696063D01*
X143396063Y-99840226D01*
X143282795Y-100009744D01*
X143204774Y-100198102D01*
X143165000Y-100398061D01*
X136435000Y-100398061D01*
X136435000Y-100298061D01*
X136395226Y-100098102D01*
X136317205Y-99909744D01*
X136203937Y-99740226D01*
X136059774Y-99596063D01*
X135890256Y-99482795D01*
X135701898Y-99404774D01*
X135501939Y-99365000D01*
X135298061Y-99365000D01*
X135098102Y-99404774D01*
X134909744Y-99482795D01*
X134740226Y-99596063D01*
X134596063Y-99740226D01*
X134482795Y-99909744D01*
X134404774Y-100098102D01*
X134365000Y-100298061D01*
X92792989Y-100298061D01*
X92820537Y-100264494D01*
X92879502Y-100154180D01*
X92915812Y-100034482D01*
X92928072Y-99910000D01*
X92925000Y-99345750D01*
X92766250Y-99187000D01*
X91567000Y-99187000D01*
X91313000Y-99187000D01*
X91293000Y-99187000D01*
X91293000Y-98933000D01*
X91313000Y-98933000D01*
X91313000Y-97733750D01*
X91567000Y-97733750D01*
X91567000Y-98933000D01*
X92766250Y-98933000D01*
X92925000Y-98774250D01*
X92925414Y-98698061D01*
X102665000Y-98698061D01*
X102665000Y-98901939D01*
X102704774Y-99101898D01*
X102782795Y-99290256D01*
X102896063Y-99459774D01*
X103040226Y-99603937D01*
X103209744Y-99717205D01*
X103398102Y-99795226D01*
X103598061Y-99835000D01*
X103801939Y-99835000D01*
X104001898Y-99795226D01*
X104190256Y-99717205D01*
X104359774Y-99603937D01*
X104503937Y-99459774D01*
X104549523Y-99391549D01*
X104665744Y-99469205D01*
X104854102Y-99547226D01*
X105054061Y-99587000D01*
X105257939Y-99587000D01*
X105457898Y-99547226D01*
X105646256Y-99469205D01*
X105815774Y-99355937D01*
X105959937Y-99211774D01*
X106073205Y-99042256D01*
X106151226Y-98853898D01*
X106191000Y-98653939D01*
X106191000Y-98450061D01*
X106151226Y-98250102D01*
X106073205Y-98061744D01*
X105959937Y-97892226D01*
X105815774Y-97748063D01*
X105646256Y-97634795D01*
X105457898Y-97556774D01*
X105257939Y-97517000D01*
X105054061Y-97517000D01*
X104854102Y-97556774D01*
X104665744Y-97634795D01*
X104496226Y-97748063D01*
X104352063Y-97892226D01*
X104306477Y-97960451D01*
X104190256Y-97882795D01*
X104001898Y-97804774D01*
X103801939Y-97765000D01*
X103598061Y-97765000D01*
X103398102Y-97804774D01*
X103209744Y-97882795D01*
X103040226Y-97996063D01*
X102896063Y-98140226D01*
X102782795Y-98309744D01*
X102704774Y-98498102D01*
X102665000Y-98698061D01*
X92925414Y-98698061D01*
X92928072Y-98210000D01*
X92915812Y-98085518D01*
X92879502Y-97965820D01*
X92820537Y-97855506D01*
X92741185Y-97758815D01*
X92644494Y-97679463D01*
X92534180Y-97620498D01*
X92414482Y-97584188D01*
X92290000Y-97571928D01*
X91725750Y-97575000D01*
X91567000Y-97733750D01*
X91313000Y-97733750D01*
X91154250Y-97575000D01*
X90590000Y-97571928D01*
X90465518Y-97584188D01*
X90345820Y-97620498D01*
X90235506Y-97679463D01*
X90138815Y-97758815D01*
X90059463Y-97855506D01*
X90000498Y-97965820D01*
X89978487Y-98038380D01*
X89846632Y-97906525D01*
X89603411Y-97744010D01*
X89333158Y-97632068D01*
X89046260Y-97575000D01*
X88753740Y-97575000D01*
X88466842Y-97632068D01*
X88196589Y-97744010D01*
X87953368Y-97906525D01*
X87746525Y-98113368D01*
X87630000Y-98287760D01*
X87513475Y-98113368D01*
X87306632Y-97906525D01*
X87063411Y-97744010D01*
X86793158Y-97632068D01*
X86506260Y-97575000D01*
X86213740Y-97575000D01*
X85926842Y-97632068D01*
X85656589Y-97744010D01*
X85413368Y-97906525D01*
X85206525Y-98113368D01*
X85044010Y-98356589D01*
X84932068Y-98626842D01*
X84875000Y-98913740D01*
X78603132Y-98913740D01*
X78677932Y-98733158D01*
X78735000Y-98446260D01*
X78735000Y-98153740D01*
X78677932Y-97866842D01*
X78565990Y-97596589D01*
X78403475Y-97353368D01*
X78196632Y-97146525D01*
X78124101Y-97098061D01*
X115065000Y-97098061D01*
X115065000Y-97301939D01*
X115104774Y-97501898D01*
X115182795Y-97690256D01*
X115296063Y-97859774D01*
X115440226Y-98003937D01*
X115609744Y-98117205D01*
X115798102Y-98195226D01*
X115998061Y-98235000D01*
X116201939Y-98235000D01*
X116401898Y-98195226D01*
X116590256Y-98117205D01*
X116759774Y-98003937D01*
X116903937Y-97859774D01*
X117017205Y-97690256D01*
X117095226Y-97501898D01*
X117135000Y-97301939D01*
X117135000Y-97098061D01*
X117095226Y-96898102D01*
X117017205Y-96709744D01*
X116903937Y-96540226D01*
X116759774Y-96396063D01*
X116590256Y-96282795D01*
X116401898Y-96204774D01*
X116201939Y-96165000D01*
X115998061Y-96165000D01*
X115798102Y-96204774D01*
X115609744Y-96282795D01*
X115440226Y-96396063D01*
X115296063Y-96540226D01*
X115182795Y-96709744D01*
X115104774Y-96898102D01*
X115065000Y-97098061D01*
X78124101Y-97098061D01*
X78014466Y-97024805D01*
X78131355Y-96955178D01*
X78347588Y-96760269D01*
X78521641Y-96526920D01*
X78646825Y-96264099D01*
X78691476Y-96116890D01*
X78570155Y-95887000D01*
X77377000Y-95887000D01*
X77377000Y-95907000D01*
X77123000Y-95907000D01*
X77123000Y-95887000D01*
X75929845Y-95887000D01*
X75808524Y-96116890D01*
X75853175Y-96264099D01*
X75978359Y-96526920D01*
X76152412Y-96760269D01*
X76368645Y-96955178D01*
X76485534Y-97024805D01*
X76303368Y-97146525D01*
X76096525Y-97353368D01*
X75934010Y-97596589D01*
X75822068Y-97866842D01*
X75765000Y-98153740D01*
X75765000Y-98446260D01*
X75822068Y-98733158D01*
X75934010Y-99003411D01*
X76096525Y-99246632D01*
X76303368Y-99453475D01*
X76477760Y-99570000D01*
X76303368Y-99686525D01*
X76096525Y-99893368D01*
X75934010Y-100136589D01*
X75822068Y-100406842D01*
X75765000Y-100693740D01*
X75765000Y-100986260D01*
X75822068Y-101273158D01*
X75934010Y-101543411D01*
X76096525Y-101786632D01*
X76303368Y-101993475D01*
X76477760Y-102110000D01*
X76303368Y-102226525D01*
X76096525Y-102433368D01*
X75934010Y-102676589D01*
X75822068Y-102946842D01*
X75765000Y-103233740D01*
X75765000Y-103526260D01*
X75822068Y-103813158D01*
X75934010Y-104083411D01*
X76096525Y-104326632D01*
X76303368Y-104533475D01*
X76477760Y-104650000D01*
X76303368Y-104766525D01*
X76096525Y-104973368D01*
X75934010Y-105216589D01*
X75822068Y-105486842D01*
X75765000Y-105773740D01*
X75765000Y-106066260D01*
X75822068Y-106353158D01*
X75934010Y-106623411D01*
X76096525Y-106866632D01*
X76303368Y-107073475D01*
X76477760Y-107190000D01*
X76303368Y-107306525D01*
X76096525Y-107513368D01*
X75934010Y-107756589D01*
X75822068Y-108026842D01*
X75765000Y-108313740D01*
X75765000Y-108606260D01*
X75822068Y-108893158D01*
X75934010Y-109163411D01*
X76096525Y-109406632D01*
X76228380Y-109538487D01*
X76155820Y-109560498D01*
X76045506Y-109619463D01*
X75948815Y-109698815D01*
X75869463Y-109795506D01*
X75810498Y-109905820D01*
X75774188Y-110025518D01*
X75761928Y-110150000D01*
X73660000Y-110150000D01*
X73660000Y-85453740D01*
X75765000Y-85453740D01*
X75765000Y-85746260D01*
X75822068Y-86033158D01*
X75934010Y-86303411D01*
X76096525Y-86546632D01*
X76303368Y-86753475D01*
X76477760Y-86870000D01*
X76303368Y-86986525D01*
X76096525Y-87193368D01*
X75934010Y-87436589D01*
X75822068Y-87706842D01*
X75765000Y-87993740D01*
X75765000Y-88286260D01*
X75822068Y-88573158D01*
X75934010Y-88843411D01*
X76096525Y-89086632D01*
X76303368Y-89293475D01*
X76477760Y-89410000D01*
X76303368Y-89526525D01*
X76096525Y-89733368D01*
X75934010Y-89976589D01*
X75822068Y-90246842D01*
X75765000Y-90533740D01*
X75765000Y-90826260D01*
X75822068Y-91113158D01*
X75934010Y-91383411D01*
X76096525Y-91626632D01*
X76303368Y-91833475D01*
X76477760Y-91950000D01*
X76303368Y-92066525D01*
X76096525Y-92273368D01*
X75934010Y-92516589D01*
X75822068Y-92786842D01*
X75765000Y-93073740D01*
X75765000Y-93366260D01*
X75822068Y-93653158D01*
X75934010Y-93923411D01*
X76096525Y-94166632D01*
X76303368Y-94373475D01*
X76485534Y-94495195D01*
X76368645Y-94564822D01*
X76152412Y-94759731D01*
X75978359Y-94993080D01*
X75853175Y-95255901D01*
X75808524Y-95403110D01*
X75929845Y-95633000D01*
X77123000Y-95633000D01*
X77123000Y-95613000D01*
X77377000Y-95613000D01*
X77377000Y-95633000D01*
X78570155Y-95633000D01*
X78691476Y-95403110D01*
X78646825Y-95255901D01*
X78521641Y-94993080D01*
X78347588Y-94759731D01*
X78131355Y-94564822D01*
X78014466Y-94495195D01*
X78196632Y-94373475D01*
X78403475Y-94166632D01*
X78565990Y-93923411D01*
X78603132Y-93833740D01*
X143295000Y-93833740D01*
X143295000Y-94126260D01*
X143352068Y-94413158D01*
X143464010Y-94683411D01*
X143626525Y-94926632D01*
X143833368Y-95133475D01*
X144007760Y-95250000D01*
X143833368Y-95366525D01*
X143626525Y-95573368D01*
X143464010Y-95816589D01*
X143352068Y-96086842D01*
X143295000Y-96373740D01*
X143295000Y-96666260D01*
X143352068Y-96953158D01*
X143464010Y-97223411D01*
X143626525Y-97466632D01*
X143833368Y-97673475D01*
X144076589Y-97835990D01*
X144346842Y-97947932D01*
X144633740Y-98005000D01*
X144926260Y-98005000D01*
X145213158Y-97947932D01*
X145483411Y-97835990D01*
X145726632Y-97673475D01*
X145933475Y-97466632D01*
X146095990Y-97223411D01*
X146207932Y-96953158D01*
X146265000Y-96666260D01*
X146265000Y-96373740D01*
X146207932Y-96086842D01*
X146095990Y-95816589D01*
X145933475Y-95573368D01*
X145726632Y-95366525D01*
X145552240Y-95250000D01*
X145726632Y-95133475D01*
X145933475Y-94926632D01*
X146095990Y-94683411D01*
X146207932Y-94413158D01*
X146265000Y-94126260D01*
X146265000Y-93833740D01*
X146207932Y-93546842D01*
X146095990Y-93276589D01*
X145933475Y-93033368D01*
X145726632Y-92826525D01*
X145544466Y-92704805D01*
X145661355Y-92635178D01*
X145877588Y-92440269D01*
X146051641Y-92206920D01*
X146176825Y-91944099D01*
X146221476Y-91796890D01*
X146100155Y-91567000D01*
X144907000Y-91567000D01*
X144907000Y-91587000D01*
X144653000Y-91587000D01*
X144653000Y-91567000D01*
X143459845Y-91567000D01*
X143338524Y-91796890D01*
X143383175Y-91944099D01*
X143508359Y-92206920D01*
X143682412Y-92440269D01*
X143898645Y-92635178D01*
X144015534Y-92704805D01*
X143833368Y-92826525D01*
X143626525Y-93033368D01*
X143464010Y-93276589D01*
X143352068Y-93546842D01*
X143295000Y-93833740D01*
X78603132Y-93833740D01*
X78677932Y-93653158D01*
X78735000Y-93366260D01*
X78735000Y-93073740D01*
X78677932Y-92786842D01*
X78565990Y-92516589D01*
X78403475Y-92273368D01*
X78196632Y-92066525D01*
X78022240Y-91950000D01*
X78196632Y-91833475D01*
X78403475Y-91626632D01*
X78565990Y-91383411D01*
X78677932Y-91113158D01*
X78734243Y-90830061D01*
X102343004Y-90830061D01*
X102343004Y-91033939D01*
X102382778Y-91233898D01*
X102460799Y-91422256D01*
X102574067Y-91591774D01*
X102718230Y-91735937D01*
X102887748Y-91849205D01*
X103076106Y-91927226D01*
X103276065Y-91967000D01*
X103479943Y-91967000D01*
X103679902Y-91927226D01*
X103868260Y-91849205D01*
X104037778Y-91735937D01*
X104181941Y-91591774D01*
X104295209Y-91422256D01*
X104373230Y-91233898D01*
X104390303Y-91148061D01*
X104965000Y-91148061D01*
X104965000Y-91351939D01*
X105004774Y-91551898D01*
X105082795Y-91740256D01*
X105196063Y-91909774D01*
X105340226Y-92053937D01*
X105509744Y-92167205D01*
X105698102Y-92245226D01*
X105898061Y-92285000D01*
X106101939Y-92285000D01*
X106301898Y-92245226D01*
X106490256Y-92167205D01*
X106659774Y-92053937D01*
X106803937Y-91909774D01*
X106917205Y-91740256D01*
X106995226Y-91551898D01*
X107035000Y-91351939D01*
X107035000Y-91148061D01*
X106995226Y-90948102D01*
X106917205Y-90759744D01*
X106809173Y-90598061D01*
X127665000Y-90598061D01*
X127665000Y-90801939D01*
X127704774Y-91001898D01*
X127782795Y-91190256D01*
X127896063Y-91359774D01*
X128040226Y-91503937D01*
X128209744Y-91617205D01*
X128398102Y-91695226D01*
X128598061Y-91735000D01*
X128801939Y-91735000D01*
X129001898Y-91695226D01*
X129190256Y-91617205D01*
X129359774Y-91503937D01*
X129503937Y-91359774D01*
X129617205Y-91190256D01*
X129695226Y-91001898D01*
X129735000Y-90801939D01*
X129735000Y-90598061D01*
X129695226Y-90398102D01*
X129617205Y-90209744D01*
X129503937Y-90040226D01*
X129359774Y-89896063D01*
X129190256Y-89782795D01*
X129001898Y-89704774D01*
X128801939Y-89665000D01*
X128598061Y-89665000D01*
X128398102Y-89704774D01*
X128209744Y-89782795D01*
X128040226Y-89896063D01*
X127896063Y-90040226D01*
X127782795Y-90209744D01*
X127704774Y-90398102D01*
X127665000Y-90598061D01*
X106809173Y-90598061D01*
X106803937Y-90590226D01*
X106659774Y-90446063D01*
X106490256Y-90332795D01*
X106301898Y-90254774D01*
X106101939Y-90215000D01*
X105898061Y-90215000D01*
X105698102Y-90254774D01*
X105509744Y-90332795D01*
X105340226Y-90446063D01*
X105196063Y-90590226D01*
X105082795Y-90759744D01*
X105004774Y-90948102D01*
X104965000Y-91148061D01*
X104390303Y-91148061D01*
X104413004Y-91033939D01*
X104413004Y-90830061D01*
X104373230Y-90630102D01*
X104295209Y-90441744D01*
X104181941Y-90272226D01*
X104037778Y-90128063D01*
X103887818Y-90027863D01*
X104051898Y-89995226D01*
X104240256Y-89917205D01*
X104409774Y-89803937D01*
X104553937Y-89659774D01*
X104667205Y-89490256D01*
X104745226Y-89301898D01*
X104785000Y-89101939D01*
X104785000Y-88898061D01*
X104745226Y-88698102D01*
X104667205Y-88509744D01*
X104553937Y-88340226D01*
X104409774Y-88196063D01*
X104240256Y-88082795D01*
X104161083Y-88050000D01*
X143291928Y-88050000D01*
X143291928Y-89750000D01*
X143304188Y-89874482D01*
X143340498Y-89994180D01*
X143399463Y-90104494D01*
X143478815Y-90201185D01*
X143575506Y-90280537D01*
X143685820Y-90339502D01*
X143766466Y-90363966D01*
X143682412Y-90439731D01*
X143508359Y-90673080D01*
X143383175Y-90935901D01*
X143338524Y-91083110D01*
X143459845Y-91313000D01*
X144653000Y-91313000D01*
X144653000Y-91293000D01*
X144907000Y-91293000D01*
X144907000Y-91313000D01*
X146100155Y-91313000D01*
X146221476Y-91083110D01*
X146176825Y-90935901D01*
X146051641Y-90673080D01*
X145877588Y-90439731D01*
X145793534Y-90363966D01*
X145874180Y-90339502D01*
X145984494Y-90280537D01*
X146081185Y-90201185D01*
X146160537Y-90104494D01*
X146219502Y-89994180D01*
X146255812Y-89874482D01*
X146268072Y-89750000D01*
X146268072Y-88050000D01*
X146255812Y-87925518D01*
X146219502Y-87805820D01*
X146160537Y-87695506D01*
X146081185Y-87598815D01*
X145984494Y-87519463D01*
X145874180Y-87460498D01*
X145754482Y-87424188D01*
X145630000Y-87411928D01*
X143930000Y-87411928D01*
X143805518Y-87424188D01*
X143685820Y-87460498D01*
X143575506Y-87519463D01*
X143478815Y-87598815D01*
X143399463Y-87695506D01*
X143340498Y-87805820D01*
X143304188Y-87925518D01*
X143291928Y-88050000D01*
X104161083Y-88050000D01*
X104051898Y-88004774D01*
X103851939Y-87965000D01*
X103648061Y-87965000D01*
X103448102Y-88004774D01*
X103259744Y-88082795D01*
X103090226Y-88196063D01*
X102946063Y-88340226D01*
X102832795Y-88509744D01*
X102754774Y-88698102D01*
X102715000Y-88898061D01*
X102715000Y-89101939D01*
X102754774Y-89301898D01*
X102832795Y-89490256D01*
X102946063Y-89659774D01*
X103090226Y-89803937D01*
X103240186Y-89904137D01*
X103076106Y-89936774D01*
X102887748Y-90014795D01*
X102718230Y-90128063D01*
X102574067Y-90272226D01*
X102460799Y-90441744D01*
X102382778Y-90630102D01*
X102343004Y-90830061D01*
X78734243Y-90830061D01*
X78735000Y-90826260D01*
X78735000Y-90533740D01*
X78677932Y-90246842D01*
X78565990Y-89976589D01*
X78403475Y-89733368D01*
X78196632Y-89526525D01*
X78022240Y-89410000D01*
X78196632Y-89293475D01*
X78403475Y-89086632D01*
X78565990Y-88843411D01*
X78677932Y-88573158D01*
X78735000Y-88286260D01*
X78735000Y-87993740D01*
X78677932Y-87706842D01*
X78565990Y-87436589D01*
X78403475Y-87193368D01*
X78196632Y-86986525D01*
X78022240Y-86870000D01*
X78196632Y-86753475D01*
X78403475Y-86546632D01*
X78565990Y-86303411D01*
X78584774Y-86258061D01*
X80753000Y-86258061D01*
X80753000Y-86461939D01*
X80792774Y-86661898D01*
X80870795Y-86850256D01*
X80984063Y-87019774D01*
X81128226Y-87163937D01*
X81297744Y-87277205D01*
X81486102Y-87355226D01*
X81686061Y-87395000D01*
X81889939Y-87395000D01*
X82089898Y-87355226D01*
X82278256Y-87277205D01*
X82447774Y-87163937D01*
X82591937Y-87019774D01*
X82705205Y-86850256D01*
X82783226Y-86661898D01*
X82823000Y-86461939D01*
X82823000Y-86258061D01*
X82783226Y-86058102D01*
X82705205Y-85869744D01*
X82591937Y-85700226D01*
X82447774Y-85556063D01*
X82278256Y-85442795D01*
X82089898Y-85364774D01*
X81889939Y-85325000D01*
X81686061Y-85325000D01*
X81486102Y-85364774D01*
X81297744Y-85442795D01*
X81128226Y-85556063D01*
X80984063Y-85700226D01*
X80870795Y-85869744D01*
X80792774Y-86058102D01*
X80753000Y-86258061D01*
X78584774Y-86258061D01*
X78677932Y-86033158D01*
X78735000Y-85746260D01*
X78735000Y-85453740D01*
X78677932Y-85166842D01*
X78565990Y-84896589D01*
X78403475Y-84653368D01*
X78196632Y-84446525D01*
X77953411Y-84284010D01*
X77706509Y-84181740D01*
X83859000Y-84181740D01*
X83859000Y-84474260D01*
X83916068Y-84761158D01*
X84028010Y-85031411D01*
X84190525Y-85274632D01*
X84397368Y-85481475D01*
X84571760Y-85598000D01*
X84397368Y-85714525D01*
X84190525Y-85921368D01*
X84028010Y-86164589D01*
X83916068Y-86434842D01*
X83859000Y-86721740D01*
X83859000Y-87014260D01*
X83916068Y-87301158D01*
X84028010Y-87571411D01*
X84190525Y-87814632D01*
X84397368Y-88021475D01*
X84640589Y-88183990D01*
X84910842Y-88295932D01*
X85197740Y-88353000D01*
X85490260Y-88353000D01*
X85777158Y-88295932D01*
X86047411Y-88183990D01*
X86290632Y-88021475D01*
X86497475Y-87814632D01*
X86614000Y-87640240D01*
X86730525Y-87814632D01*
X86937368Y-88021475D01*
X87180589Y-88183990D01*
X87450842Y-88295932D01*
X87737740Y-88353000D01*
X88030260Y-88353000D01*
X88317158Y-88295932D01*
X88587411Y-88183990D01*
X88830632Y-88021475D01*
X89037475Y-87814632D01*
X89154000Y-87640240D01*
X89270525Y-87814632D01*
X89477368Y-88021475D01*
X89720589Y-88183990D01*
X89990842Y-88295932D01*
X90277740Y-88353000D01*
X90570260Y-88353000D01*
X90857158Y-88295932D01*
X91127411Y-88183990D01*
X91370632Y-88021475D01*
X91577475Y-87814632D01*
X91694000Y-87640240D01*
X91810525Y-87814632D01*
X92017368Y-88021475D01*
X92260589Y-88183990D01*
X92530842Y-88295932D01*
X92817740Y-88353000D01*
X93110260Y-88353000D01*
X93397158Y-88295932D01*
X93667411Y-88183990D01*
X93910632Y-88021475D01*
X94117475Y-87814632D01*
X94234000Y-87640240D01*
X94350525Y-87814632D01*
X94557368Y-88021475D01*
X94774039Y-88166250D01*
X94700063Y-88240226D01*
X94586795Y-88409744D01*
X94508774Y-88598102D01*
X94469000Y-88798061D01*
X94469000Y-89001939D01*
X94508774Y-89201898D01*
X94586795Y-89390256D01*
X94700063Y-89559774D01*
X94844226Y-89703937D01*
X95013744Y-89817205D01*
X95202102Y-89895226D01*
X95402061Y-89935000D01*
X95605939Y-89935000D01*
X95805898Y-89895226D01*
X95994256Y-89817205D01*
X96163774Y-89703937D01*
X96307937Y-89559774D01*
X96421205Y-89390256D01*
X96499226Y-89201898D01*
X96539000Y-89001939D01*
X96539000Y-88798061D01*
X96499226Y-88598102D01*
X96421205Y-88409744D01*
X96307937Y-88240226D01*
X96233961Y-88166250D01*
X96450632Y-88021475D01*
X96657475Y-87814632D01*
X96819990Y-87571411D01*
X96931932Y-87301158D01*
X96989000Y-87014260D01*
X96989000Y-86721740D01*
X96931932Y-86434842D01*
X96819990Y-86164589D01*
X96657475Y-85921368D01*
X96525620Y-85789513D01*
X96598180Y-85767502D01*
X96708494Y-85708537D01*
X96805185Y-85629185D01*
X96884537Y-85532494D01*
X96943502Y-85422180D01*
X96979812Y-85302482D01*
X96992072Y-85178000D01*
X96989000Y-84613750D01*
X96830250Y-84455000D01*
X95631000Y-84455000D01*
X95631000Y-84475000D01*
X95377000Y-84475000D01*
X95377000Y-84455000D01*
X95357000Y-84455000D01*
X95357000Y-84201000D01*
X95377000Y-84201000D01*
X95377000Y-83001750D01*
X95631000Y-83001750D01*
X95631000Y-84201000D01*
X96830250Y-84201000D01*
X96989000Y-84042250D01*
X96992072Y-83478000D01*
X96979812Y-83353518D01*
X96943502Y-83233820D01*
X96884537Y-83123506D01*
X96805185Y-83026815D01*
X96708494Y-82947463D01*
X96598180Y-82888498D01*
X96478482Y-82852188D01*
X96354000Y-82839928D01*
X95789750Y-82843000D01*
X95631000Y-83001750D01*
X95377000Y-83001750D01*
X95218250Y-82843000D01*
X94654000Y-82839928D01*
X94529518Y-82852188D01*
X94409820Y-82888498D01*
X94299506Y-82947463D01*
X94202815Y-83026815D01*
X94123463Y-83123506D01*
X94064498Y-83233820D01*
X94042487Y-83306380D01*
X93910632Y-83174525D01*
X93667411Y-83012010D01*
X93397158Y-82900068D01*
X93110260Y-82843000D01*
X92817740Y-82843000D01*
X92530842Y-82900068D01*
X92260589Y-83012010D01*
X92017368Y-83174525D01*
X91810525Y-83381368D01*
X91694000Y-83555760D01*
X91577475Y-83381368D01*
X91370632Y-83174525D01*
X91127411Y-83012010D01*
X90857158Y-82900068D01*
X90570260Y-82843000D01*
X90277740Y-82843000D01*
X89990842Y-82900068D01*
X89720589Y-83012010D01*
X89477368Y-83174525D01*
X89270525Y-83381368D01*
X89154000Y-83555760D01*
X89037475Y-83381368D01*
X88830632Y-83174525D01*
X88587411Y-83012010D01*
X88317158Y-82900068D01*
X88030260Y-82843000D01*
X87737740Y-82843000D01*
X87450842Y-82900068D01*
X87180589Y-83012010D01*
X86937368Y-83174525D01*
X86730525Y-83381368D01*
X86614000Y-83555760D01*
X86497475Y-83381368D01*
X86290632Y-83174525D01*
X86047411Y-83012010D01*
X85777158Y-82900068D01*
X85490260Y-82843000D01*
X85197740Y-82843000D01*
X84910842Y-82900068D01*
X84640589Y-83012010D01*
X84397368Y-83174525D01*
X84190525Y-83381368D01*
X84028010Y-83624589D01*
X83916068Y-83894842D01*
X83859000Y-84181740D01*
X77706509Y-84181740D01*
X77683158Y-84172068D01*
X77396260Y-84115000D01*
X77103740Y-84115000D01*
X76816842Y-84172068D01*
X76546589Y-84284010D01*
X76303368Y-84446525D01*
X76096525Y-84653368D01*
X75934010Y-84896589D01*
X75822068Y-85166842D01*
X75765000Y-85453740D01*
X73660000Y-85453740D01*
X73660000Y-81432061D01*
X100819000Y-81432061D01*
X100819000Y-81635939D01*
X100858774Y-81835898D01*
X100936795Y-82024256D01*
X101050063Y-82193774D01*
X101194226Y-82337937D01*
X101363744Y-82451205D01*
X101552102Y-82529226D01*
X101752061Y-82569000D01*
X101955939Y-82569000D01*
X102155898Y-82529226D01*
X102344256Y-82451205D01*
X102513774Y-82337937D01*
X102657937Y-82193774D01*
X102771205Y-82024256D01*
X102849226Y-81835898D01*
X102889000Y-81635939D01*
X102889000Y-81432061D01*
X102849226Y-81232102D01*
X102771205Y-81043744D01*
X102657937Y-80874226D01*
X102513774Y-80730063D01*
X102344256Y-80616795D01*
X102155898Y-80538774D01*
X101955939Y-80499000D01*
X101752061Y-80499000D01*
X101552102Y-80538774D01*
X101363744Y-80616795D01*
X101194226Y-80730063D01*
X101050063Y-80874226D01*
X100936795Y-81043744D01*
X100858774Y-81232102D01*
X100819000Y-81432061D01*
X73660000Y-81432061D01*
X73660000Y-77220777D01*
X74665000Y-77220777D01*
X74665000Y-77779223D01*
X74773948Y-78326939D01*
X74987656Y-78842876D01*
X75297912Y-79307207D01*
X75692793Y-79702088D01*
X76157124Y-80012344D01*
X76673061Y-80226052D01*
X77220777Y-80335000D01*
X77779223Y-80335000D01*
X78326939Y-80226052D01*
X78481427Y-80162061D01*
X81007000Y-80162061D01*
X81007000Y-80365939D01*
X81046774Y-80565898D01*
X81124795Y-80754256D01*
X81238063Y-80923774D01*
X81382226Y-81067937D01*
X81551744Y-81181205D01*
X81740102Y-81259226D01*
X81940061Y-81299000D01*
X82143939Y-81299000D01*
X82343898Y-81259226D01*
X82532256Y-81181205D01*
X82701774Y-81067937D01*
X82845937Y-80923774D01*
X82959205Y-80754256D01*
X83037226Y-80565898D01*
X83077000Y-80365939D01*
X83077000Y-80162061D01*
X83037226Y-79962102D01*
X82959205Y-79773744D01*
X82845937Y-79604226D01*
X82701774Y-79460063D01*
X82532256Y-79346795D01*
X82343898Y-79268774D01*
X82143939Y-79229000D01*
X81940061Y-79229000D01*
X81740102Y-79268774D01*
X81551744Y-79346795D01*
X81382226Y-79460063D01*
X81238063Y-79604226D01*
X81124795Y-79773744D01*
X81046774Y-79962102D01*
X81007000Y-80162061D01*
X78481427Y-80162061D01*
X78842876Y-80012344D01*
X79307207Y-79702088D01*
X79702088Y-79307207D01*
X80012344Y-78842876D01*
X80074756Y-78692200D01*
X104210030Y-78692200D01*
X104231462Y-78909798D01*
X104294932Y-79119034D01*
X104398004Y-79311866D01*
X104536714Y-79480886D01*
X104705734Y-79619596D01*
X104898566Y-79722668D01*
X105016977Y-79758587D01*
X104982795Y-79809744D01*
X104904774Y-79998102D01*
X104865000Y-80198061D01*
X104865000Y-80401939D01*
X104904774Y-80601898D01*
X104982795Y-80790256D01*
X105096063Y-80959774D01*
X105240226Y-81103937D01*
X105409744Y-81217205D01*
X105598102Y-81295226D01*
X105798061Y-81335000D01*
X106001939Y-81335000D01*
X106187645Y-81298061D01*
X106765000Y-81298061D01*
X106765000Y-81501939D01*
X106804774Y-81701898D01*
X106882795Y-81890256D01*
X106996063Y-82059774D01*
X107140226Y-82203937D01*
X107309744Y-82317205D01*
X107498102Y-82395226D01*
X107698061Y-82435000D01*
X107901939Y-82435000D01*
X108101898Y-82395226D01*
X108290256Y-82317205D01*
X108459774Y-82203937D01*
X108603937Y-82059774D01*
X108717205Y-81890256D01*
X108795226Y-81701898D01*
X108835000Y-81501939D01*
X108835000Y-81298061D01*
X108795226Y-81098102D01*
X108717205Y-80909744D01*
X108603937Y-80740226D01*
X108459774Y-80596063D01*
X108290256Y-80482795D01*
X108101898Y-80404774D01*
X107901939Y-80365000D01*
X107698061Y-80365000D01*
X107498102Y-80404774D01*
X107309744Y-80482795D01*
X107140226Y-80596063D01*
X106996063Y-80740226D01*
X106882795Y-80909744D01*
X106804774Y-81098102D01*
X106765000Y-81298061D01*
X106187645Y-81298061D01*
X106201898Y-81295226D01*
X106390256Y-81217205D01*
X106559774Y-81103937D01*
X106703937Y-80959774D01*
X106817205Y-80790256D01*
X106895226Y-80601898D01*
X106935000Y-80401939D01*
X106935000Y-80198061D01*
X106895226Y-79998102D01*
X106817205Y-79809744D01*
X106703937Y-79640226D01*
X106559774Y-79496063D01*
X106457638Y-79427818D01*
X106552796Y-79311866D01*
X106655868Y-79119034D01*
X106719338Y-78909798D01*
X106740770Y-78692200D01*
X106719338Y-78474602D01*
X106655868Y-78265366D01*
X106552796Y-78072534D01*
X106414086Y-77903514D01*
X106245066Y-77764804D01*
X106052234Y-77661732D01*
X105921455Y-77622061D01*
X108693000Y-77622061D01*
X108693000Y-77825939D01*
X108732774Y-78025898D01*
X108810795Y-78214256D01*
X108924063Y-78383774D01*
X109068226Y-78527937D01*
X109216454Y-78626979D01*
X109210030Y-78692200D01*
X109231462Y-78909798D01*
X109294932Y-79119034D01*
X109398004Y-79311866D01*
X109536714Y-79480886D01*
X109705734Y-79619596D01*
X109898566Y-79722668D01*
X110107802Y-79786138D01*
X110270879Y-79802200D01*
X110679921Y-79802200D01*
X110842998Y-79786138D01*
X111052234Y-79722668D01*
X111245066Y-79619596D01*
X111414086Y-79480886D01*
X111552796Y-79311866D01*
X111655868Y-79119034D01*
X111719338Y-78909798D01*
X111740770Y-78692200D01*
X111719338Y-78474602D01*
X111655868Y-78265366D01*
X111552796Y-78072534D01*
X111414086Y-77903514D01*
X111245066Y-77764804D01*
X111052234Y-77661732D01*
X110921455Y-77622061D01*
X113773000Y-77622061D01*
X113773000Y-77825939D01*
X113812774Y-78025898D01*
X113890795Y-78214256D01*
X114004063Y-78383774D01*
X114148226Y-78527937D01*
X114317744Y-78641205D01*
X114506102Y-78719226D01*
X114706061Y-78759000D01*
X114909939Y-78759000D01*
X115109898Y-78719226D01*
X115298256Y-78641205D01*
X115467774Y-78527937D01*
X115611937Y-78383774D01*
X115725205Y-78214256D01*
X115803226Y-78025898D01*
X115843000Y-77825939D01*
X115843000Y-77622061D01*
X115803226Y-77422102D01*
X115725205Y-77233744D01*
X115611937Y-77064226D01*
X115467774Y-76920063D01*
X115298256Y-76806795D01*
X115109898Y-76728774D01*
X114909939Y-76689000D01*
X114706061Y-76689000D01*
X114506102Y-76728774D01*
X114317744Y-76806795D01*
X114148226Y-76920063D01*
X114004063Y-77064226D01*
X113890795Y-77233744D01*
X113812774Y-77422102D01*
X113773000Y-77622061D01*
X110921455Y-77622061D01*
X110842998Y-77598262D01*
X110756573Y-77589750D01*
X110723226Y-77422102D01*
X110645205Y-77233744D01*
X110531937Y-77064226D01*
X110387774Y-76920063D01*
X110218256Y-76806795D01*
X110029898Y-76728774D01*
X109829939Y-76689000D01*
X109626061Y-76689000D01*
X109426102Y-76728774D01*
X109237744Y-76806795D01*
X109068226Y-76920063D01*
X108924063Y-77064226D01*
X108810795Y-77233744D01*
X108732774Y-77422102D01*
X108693000Y-77622061D01*
X105921455Y-77622061D01*
X105842998Y-77598262D01*
X105679921Y-77582200D01*
X105270879Y-77582200D01*
X105107802Y-77598262D01*
X104898566Y-77661732D01*
X104705734Y-77764804D01*
X104536714Y-77903514D01*
X104398004Y-78072534D01*
X104294932Y-78265366D01*
X104231462Y-78474602D01*
X104210030Y-78692200D01*
X80074756Y-78692200D01*
X80226052Y-78326939D01*
X80335000Y-77779223D01*
X80335000Y-77220777D01*
X80226052Y-76673061D01*
X80012344Y-76157124D01*
X79702088Y-75692793D01*
X79618444Y-75609149D01*
X103395400Y-75609149D01*
X103395400Y-76375250D01*
X103411027Y-76533916D01*
X103472783Y-76737497D01*
X103573068Y-76925119D01*
X103708030Y-77089570D01*
X103872481Y-77224532D01*
X104060102Y-77324817D01*
X104263683Y-77386573D01*
X104475400Y-77407425D01*
X104687116Y-77386573D01*
X104890697Y-77324817D01*
X105078319Y-77224532D01*
X105242770Y-77089570D01*
X105377732Y-76925119D01*
X105478017Y-76737498D01*
X105539773Y-76533917D01*
X105555400Y-76375251D01*
X105555400Y-75609150D01*
X105555400Y-75609149D01*
X110395400Y-75609149D01*
X110395400Y-76375250D01*
X110411027Y-76533916D01*
X110472783Y-76737497D01*
X110573068Y-76925119D01*
X110708030Y-77089570D01*
X110872481Y-77224532D01*
X111060102Y-77324817D01*
X111263683Y-77386573D01*
X111475400Y-77407425D01*
X111687116Y-77386573D01*
X111890697Y-77324817D01*
X112078319Y-77224532D01*
X112242770Y-77089570D01*
X112377732Y-76925119D01*
X112478017Y-76737498D01*
X112539773Y-76533917D01*
X112555400Y-76375251D01*
X112555400Y-75609150D01*
X112539773Y-75450484D01*
X112478017Y-75246902D01*
X112377732Y-75059281D01*
X112242770Y-74894830D01*
X112078319Y-74759868D01*
X111890698Y-74659583D01*
X111687117Y-74597827D01*
X111475400Y-74576975D01*
X111263684Y-74597827D01*
X111060103Y-74659583D01*
X110872482Y-74759868D01*
X110708031Y-74894830D01*
X110573069Y-75059281D01*
X110472784Y-75246902D01*
X110411027Y-75450483D01*
X110395400Y-75609149D01*
X105555400Y-75609149D01*
X105539773Y-75450484D01*
X105478017Y-75246902D01*
X105377732Y-75059281D01*
X105242770Y-74894830D01*
X105078319Y-74759868D01*
X104890698Y-74659583D01*
X104687117Y-74597827D01*
X104475400Y-74576975D01*
X104263684Y-74597827D01*
X104060103Y-74659583D01*
X103872482Y-74759868D01*
X103708031Y-74894830D01*
X103573069Y-75059281D01*
X103472784Y-75246902D01*
X103411027Y-75450483D01*
X103395400Y-75609149D01*
X79618444Y-75609149D01*
X79307207Y-75297912D01*
X78842876Y-74987656D01*
X78326939Y-74773948D01*
X77779223Y-74665000D01*
X77220777Y-74665000D01*
X76673061Y-74773948D01*
X76157124Y-74987656D01*
X75692793Y-75297912D01*
X75297912Y-75692793D01*
X74987656Y-76157124D01*
X74773948Y-76673061D01*
X74665000Y-77220777D01*
X73660000Y-77220777D01*
X73660000Y-75682279D01*
X73693386Y-75341782D01*
X73782898Y-75045303D01*
X73928291Y-74771860D01*
X74124031Y-74531859D01*
X74362653Y-74334453D01*
X74635073Y-74187157D01*
X74930926Y-74095575D01*
X75269400Y-74060000D01*
X116340500Y-74060000D01*
X116322301Y-80271782D01*
G04 #@! TA.AperFunction,Conductor*
D20*
G36*
X116322301Y-80271782D02*
G01*
X116311226Y-80216102D01*
X116233205Y-80027744D01*
X116119937Y-79858226D01*
X115975774Y-79714063D01*
X115806256Y-79600795D01*
X115617898Y-79522774D01*
X115417939Y-79483000D01*
X115214061Y-79483000D01*
X115014102Y-79522774D01*
X114825744Y-79600795D01*
X114656226Y-79714063D01*
X114512063Y-79858226D01*
X114398795Y-80027744D01*
X114320774Y-80216102D01*
X114281000Y-80416061D01*
X114281000Y-80619939D01*
X114320774Y-80819898D01*
X114398795Y-81008256D01*
X114512063Y-81177774D01*
X114656226Y-81321937D01*
X114825744Y-81435205D01*
X115014102Y-81513226D01*
X115214061Y-81553000D01*
X115417939Y-81553000D01*
X115617898Y-81513226D01*
X115806256Y-81435205D01*
X115975774Y-81321937D01*
X116119937Y-81177774D01*
X116233205Y-81008256D01*
X116311226Y-80819898D01*
X116320837Y-80771579D01*
X116310501Y-84299628D01*
X116312940Y-84324776D01*
X116320167Y-84348601D01*
X116331903Y-84370557D01*
X116347697Y-84389803D01*
X116366943Y-84405597D01*
X116388899Y-84417333D01*
X116412724Y-84424560D01*
X116437500Y-84427000D01*
X118499026Y-84427000D01*
X118465000Y-84598061D01*
X118465000Y-84801939D01*
X118504774Y-85001898D01*
X118582795Y-85190256D01*
X118696063Y-85359774D01*
X118840226Y-85503937D01*
X119009744Y-85617205D01*
X119198102Y-85695226D01*
X119398061Y-85735000D01*
X119601939Y-85735000D01*
X119801898Y-85695226D01*
X119990256Y-85617205D01*
X120159774Y-85503937D01*
X120303937Y-85359774D01*
X120417205Y-85190256D01*
X120495226Y-85001898D01*
X120525538Y-84849510D01*
X120697898Y-84815226D01*
X120886256Y-84737205D01*
X121055774Y-84623937D01*
X121199937Y-84479774D01*
X121235199Y-84427000D01*
X123112801Y-84427000D01*
X123148063Y-84479774D01*
X123292226Y-84623937D01*
X123461744Y-84737205D01*
X123650102Y-84815226D01*
X123850061Y-84855000D01*
X124053939Y-84855000D01*
X124253898Y-84815226D01*
X124442256Y-84737205D01*
X124611774Y-84623937D01*
X124755937Y-84479774D01*
X124791199Y-84427000D01*
X127409289Y-84427000D01*
X127296063Y-84540226D01*
X127182795Y-84709744D01*
X127104774Y-84898102D01*
X127065000Y-85098061D01*
X127065000Y-85301939D01*
X127104774Y-85501898D01*
X127182795Y-85690256D01*
X127296063Y-85859774D01*
X127440226Y-86003937D01*
X127609744Y-86117205D01*
X127798102Y-86195226D01*
X127998061Y-86235000D01*
X128201939Y-86235000D01*
X128401898Y-86195226D01*
X128590256Y-86117205D01*
X128759774Y-86003937D01*
X128903937Y-85859774D01*
X129017205Y-85690256D01*
X129095226Y-85501898D01*
X129135000Y-85301939D01*
X129135000Y-85098061D01*
X129095226Y-84898102D01*
X129017205Y-84709744D01*
X128903937Y-84540226D01*
X128790711Y-84427000D01*
X140962500Y-84427000D01*
X140986911Y-84424632D01*
X141010757Y-84417475D01*
X141032748Y-84405803D01*
X141052039Y-84390065D01*
X141067889Y-84370866D01*
X141079690Y-84348944D01*
X141086987Y-84325141D01*
X141089499Y-84300372D01*
X141110239Y-77220777D01*
X142165000Y-77220777D01*
X142165000Y-77779223D01*
X142273948Y-78326939D01*
X142487656Y-78842876D01*
X142797912Y-79307207D01*
X143192793Y-79702088D01*
X143657124Y-80012344D01*
X144173061Y-80226052D01*
X144720777Y-80335000D01*
X145279223Y-80335000D01*
X145826939Y-80226052D01*
X146342876Y-80012344D01*
X146807207Y-79702088D01*
X147202088Y-79307207D01*
X147512344Y-78842876D01*
X147726052Y-78326939D01*
X147835000Y-77779223D01*
X147835000Y-77220777D01*
X147726052Y-76673061D01*
X147512344Y-76157124D01*
X147202088Y-75692793D01*
X146807207Y-75297912D01*
X146342876Y-74987656D01*
X145826939Y-74773948D01*
X145279223Y-74665000D01*
X144720777Y-74665000D01*
X144173061Y-74773948D01*
X143657124Y-74987656D01*
X143192793Y-75297912D01*
X142797912Y-75692793D01*
X142487656Y-76157124D01*
X142273948Y-76673061D01*
X142165000Y-77220777D01*
X141110239Y-77220777D01*
X141119500Y-74060000D01*
X146967721Y-74060000D01*
X147308218Y-74093386D01*
X147604697Y-74182898D01*
X147878140Y-74328291D01*
X148118141Y-74524031D01*
X148315547Y-74762653D01*
X148462843Y-75035073D01*
X148554425Y-75330926D01*
X148590000Y-75669400D01*
X148590001Y-136717711D01*
X148556614Y-137058218D01*
X148467103Y-137354694D01*
X148321709Y-137628141D01*
X148125970Y-137868140D01*
X147887350Y-138065544D01*
X147614926Y-138212843D01*
X147319074Y-138304425D01*
X146980600Y-138340000D01*
X75282279Y-138340000D01*
X74941782Y-138306614D01*
X74645306Y-138217103D01*
X74371859Y-138071709D01*
X74131860Y-137875970D01*
X73934456Y-137637350D01*
X73787157Y-137364926D01*
X73695575Y-137069074D01*
X73660000Y-136730600D01*
X73660000Y-134720777D01*
X74665000Y-134720777D01*
X74665000Y-135279223D01*
X74773948Y-135826939D01*
X74987656Y-136342876D01*
X75297912Y-136807207D01*
X75692793Y-137202088D01*
X76157124Y-137512344D01*
X76673061Y-137726052D01*
X77220777Y-137835000D01*
X77779223Y-137835000D01*
X78326939Y-137726052D01*
X78842876Y-137512344D01*
X79307207Y-137202088D01*
X79702088Y-136807207D01*
X80012344Y-136342876D01*
X80226052Y-135826939D01*
X80335000Y-135279223D01*
X80335000Y-134720777D01*
X142165000Y-134720777D01*
X142165000Y-135279223D01*
X142273948Y-135826939D01*
X142487656Y-136342876D01*
X142797912Y-136807207D01*
X143192793Y-137202088D01*
X143657124Y-137512344D01*
X144173061Y-137726052D01*
X144720777Y-137835000D01*
X145279223Y-137835000D01*
X145826939Y-137726052D01*
X146342876Y-137512344D01*
X146807207Y-137202088D01*
X147202088Y-136807207D01*
X147512344Y-136342876D01*
X147726052Y-135826939D01*
X147835000Y-135279223D01*
X147835000Y-134720777D01*
X147726052Y-134173061D01*
X147512344Y-133657124D01*
X147202088Y-133192793D01*
X146807207Y-132797912D01*
X146342876Y-132487656D01*
X145826939Y-132273948D01*
X145279223Y-132165000D01*
X144720777Y-132165000D01*
X144173061Y-132273948D01*
X143657124Y-132487656D01*
X143192793Y-132797912D01*
X142797912Y-133192793D01*
X142487656Y-133657124D01*
X142273948Y-134173061D01*
X142165000Y-134720777D01*
X80335000Y-134720777D01*
X80226052Y-134173061D01*
X80012344Y-133657124D01*
X79702088Y-133192793D01*
X79307207Y-132797912D01*
X78842876Y-132487656D01*
X78435702Y-132318999D01*
X94646928Y-132318999D01*
X94646928Y-133619001D01*
X94663992Y-133792255D01*
X94714528Y-133958851D01*
X94796595Y-134112387D01*
X94907038Y-134246962D01*
X95041613Y-134357405D01*
X95195149Y-134439472D01*
X95361745Y-134490008D01*
X95534999Y-134507072D01*
X96235001Y-134507072D01*
X96408255Y-134490008D01*
X96574851Y-134439472D01*
X96728387Y-134357405D01*
X96862962Y-134246962D01*
X96973405Y-134112387D01*
X96975810Y-134107888D01*
X97007499Y-134146502D01*
X97195552Y-134300833D01*
X97410100Y-134415511D01*
X97642899Y-134486130D01*
X97885000Y-134509975D01*
X98127102Y-134486130D01*
X98359901Y-134415511D01*
X98574449Y-134300833D01*
X98762502Y-134146502D01*
X98885481Y-133996652D01*
X98928693Y-134060725D01*
X99101526Y-134232078D01*
X99304467Y-134366421D01*
X99529718Y-134458591D01*
X99567391Y-134462462D01*
X99758000Y-134337731D01*
X99758000Y-133096000D01*
X100012000Y-133096000D01*
X100012000Y-134337731D01*
X100202609Y-134462462D01*
X100240282Y-134458591D01*
X100465533Y-134366421D01*
X100668474Y-134232078D01*
X100841307Y-134060725D01*
X100977390Y-133858946D01*
X101071493Y-133634496D01*
X101120000Y-133396000D01*
X101120000Y-133096000D01*
X100012000Y-133096000D01*
X99758000Y-133096000D01*
X99738000Y-133096000D01*
X99738000Y-132842000D01*
X99758000Y-132842000D01*
X99758000Y-131600269D01*
X100012000Y-131600269D01*
X100012000Y-132842000D01*
X101120000Y-132842000D01*
X101120000Y-132542000D01*
X101074645Y-132318999D01*
X105314928Y-132318999D01*
X105314928Y-133619001D01*
X105331992Y-133792255D01*
X105382528Y-133958851D01*
X105464595Y-134112387D01*
X105575038Y-134246962D01*
X105709613Y-134357405D01*
X105863149Y-134439472D01*
X106029745Y-134490008D01*
X106202999Y-134507072D01*
X106903001Y-134507072D01*
X107076255Y-134490008D01*
X107242851Y-134439472D01*
X107396387Y-134357405D01*
X107530962Y-134246962D01*
X107641405Y-134112387D01*
X107643810Y-134107888D01*
X107675499Y-134146502D01*
X107863552Y-134300833D01*
X108078100Y-134415511D01*
X108310899Y-134486130D01*
X108553000Y-134509975D01*
X108795102Y-134486130D01*
X109027901Y-134415511D01*
X109242449Y-134300833D01*
X109430502Y-134146502D01*
X109553481Y-133996652D01*
X109596693Y-134060725D01*
X109769526Y-134232078D01*
X109972467Y-134366421D01*
X110197718Y-134458591D01*
X110235391Y-134462462D01*
X110426000Y-134337731D01*
X110426000Y-133096000D01*
X110680000Y-133096000D01*
X110680000Y-134337731D01*
X110870609Y-134462462D01*
X110908282Y-134458591D01*
X111133533Y-134366421D01*
X111336474Y-134232078D01*
X111509307Y-134060725D01*
X111645390Y-133858946D01*
X111739493Y-133634496D01*
X111788000Y-133396000D01*
X111788000Y-133096000D01*
X110680000Y-133096000D01*
X110426000Y-133096000D01*
X110406000Y-133096000D01*
X110406000Y-132842000D01*
X110426000Y-132842000D01*
X110426000Y-131600269D01*
X110680000Y-131600269D01*
X110680000Y-132842000D01*
X111788000Y-132842000D01*
X111788000Y-132542000D01*
X111742645Y-132318999D01*
X115779728Y-132318999D01*
X115779728Y-133619001D01*
X115796792Y-133792255D01*
X115847328Y-133958851D01*
X115929395Y-134112387D01*
X116039838Y-134246962D01*
X116174413Y-134357405D01*
X116327949Y-134439472D01*
X116494545Y-134490008D01*
X116667799Y-134507072D01*
X117367801Y-134507072D01*
X117541055Y-134490008D01*
X117707651Y-134439472D01*
X117861187Y-134357405D01*
X117995762Y-134246962D01*
X118106205Y-134112387D01*
X118108610Y-134107888D01*
X118140299Y-134146502D01*
X118328352Y-134300833D01*
X118542900Y-134415511D01*
X118775699Y-134486130D01*
X119017800Y-134509975D01*
X119259902Y-134486130D01*
X119492701Y-134415511D01*
X119707249Y-134300833D01*
X119895302Y-134146502D01*
X120018281Y-133996652D01*
X120061493Y-134060725D01*
X120234326Y-134232078D01*
X120437267Y-134366421D01*
X120662518Y-134458591D01*
X120700191Y-134462462D01*
X120890800Y-134337731D01*
X120890800Y-133096000D01*
X121144800Y-133096000D01*
X121144800Y-134337731D01*
X121335409Y-134462462D01*
X121373082Y-134458591D01*
X121598333Y-134366421D01*
X121801274Y-134232078D01*
X121974107Y-134060725D01*
X122110190Y-133858946D01*
X122204293Y-133634496D01*
X122252800Y-133396000D01*
X122252800Y-133096000D01*
X121144800Y-133096000D01*
X120890800Y-133096000D01*
X120870800Y-133096000D01*
X120870800Y-132842000D01*
X120890800Y-132842000D01*
X120890800Y-131600269D01*
X121144800Y-131600269D01*
X121144800Y-132842000D01*
X122252800Y-132842000D01*
X122252800Y-132542000D01*
X122204293Y-132303504D01*
X122110190Y-132079054D01*
X121974107Y-131877275D01*
X121801274Y-131705922D01*
X121598333Y-131571579D01*
X121373082Y-131479409D01*
X121335409Y-131475538D01*
X121144800Y-131600269D01*
X120890800Y-131600269D01*
X120700191Y-131475538D01*
X120662518Y-131479409D01*
X120437267Y-131571579D01*
X120234326Y-131705922D01*
X120061493Y-131877275D01*
X120018281Y-131941348D01*
X119895302Y-131791498D01*
X119707248Y-131637167D01*
X119492700Y-131522489D01*
X119259901Y-131451870D01*
X119017800Y-131428025D01*
X118775698Y-131451870D01*
X118542899Y-131522489D01*
X118328351Y-131637167D01*
X118140298Y-131791498D01*
X118108609Y-131830111D01*
X118106205Y-131825613D01*
X117995762Y-131691038D01*
X117861187Y-131580595D01*
X117707651Y-131498528D01*
X117541055Y-131447992D01*
X117367801Y-131430928D01*
X116667799Y-131430928D01*
X116494545Y-131447992D01*
X116327949Y-131498528D01*
X116174413Y-131580595D01*
X116039838Y-131691038D01*
X115929395Y-131825613D01*
X115847328Y-131979149D01*
X115796792Y-132145745D01*
X115779728Y-132318999D01*
X111742645Y-132318999D01*
X111739493Y-132303504D01*
X111645390Y-132079054D01*
X111509307Y-131877275D01*
X111336474Y-131705922D01*
X111133533Y-131571579D01*
X110908282Y-131479409D01*
X110870609Y-131475538D01*
X110680000Y-131600269D01*
X110426000Y-131600269D01*
X110235391Y-131475538D01*
X110197718Y-131479409D01*
X109972467Y-131571579D01*
X109769526Y-131705922D01*
X109596693Y-131877275D01*
X109553481Y-131941348D01*
X109430502Y-131791498D01*
X109242448Y-131637167D01*
X109027900Y-131522489D01*
X108795101Y-131451870D01*
X108553000Y-131428025D01*
X108310898Y-131451870D01*
X108078099Y-131522489D01*
X107863551Y-131637167D01*
X107675498Y-131791498D01*
X107643809Y-131830111D01*
X107641405Y-131825613D01*
X107530962Y-131691038D01*
X107396387Y-131580595D01*
X107242851Y-131498528D01*
X107076255Y-131447992D01*
X106903001Y-131430928D01*
X106202999Y-131430928D01*
X106029745Y-131447992D01*
X105863149Y-131498528D01*
X105709613Y-131580595D01*
X105575038Y-131691038D01*
X105464595Y-131825613D01*
X105382528Y-131979149D01*
X105331992Y-132145745D01*
X105314928Y-132318999D01*
X101074645Y-132318999D01*
X101071493Y-132303504D01*
X100977390Y-132079054D01*
X100841307Y-131877275D01*
X100668474Y-131705922D01*
X100465533Y-131571579D01*
X100240282Y-131479409D01*
X100202609Y-131475538D01*
X100012000Y-131600269D01*
X99758000Y-131600269D01*
X99567391Y-131475538D01*
X99529718Y-131479409D01*
X99304467Y-131571579D01*
X99101526Y-131705922D01*
X98928693Y-131877275D01*
X98885481Y-131941348D01*
X98762502Y-131791498D01*
X98574448Y-131637167D01*
X98359900Y-131522489D01*
X98127101Y-131451870D01*
X97885000Y-131428025D01*
X97642898Y-131451870D01*
X97410099Y-131522489D01*
X97195551Y-131637167D01*
X97007498Y-131791498D01*
X96975809Y-131830111D01*
X96973405Y-131825613D01*
X96862962Y-131691038D01*
X96728387Y-131580595D01*
X96574851Y-131498528D01*
X96408255Y-131447992D01*
X96235001Y-131430928D01*
X95534999Y-131430928D01*
X95361745Y-131447992D01*
X95195149Y-131498528D01*
X95041613Y-131580595D01*
X94907038Y-131691038D01*
X94796595Y-131825613D01*
X94714528Y-131979149D01*
X94663992Y-132145745D01*
X94646928Y-132318999D01*
X78435702Y-132318999D01*
X78326939Y-132273948D01*
X77779223Y-132165000D01*
X77220777Y-132165000D01*
X76673061Y-132273948D01*
X76157124Y-132487656D01*
X75692793Y-132797912D01*
X75297912Y-133192793D01*
X74987656Y-133657124D01*
X74773948Y-134173061D01*
X74665000Y-134720777D01*
X73660000Y-134720777D01*
X73660000Y-122900000D01*
X75761928Y-122900000D01*
X75761928Y-124600000D01*
X75774188Y-124724482D01*
X75810498Y-124844180D01*
X75869463Y-124954494D01*
X75948815Y-125051185D01*
X76045506Y-125130537D01*
X76155820Y-125189502D01*
X76275518Y-125225812D01*
X76400000Y-125238072D01*
X78100000Y-125238072D01*
X78224482Y-125225812D01*
X78344180Y-125189502D01*
X78454494Y-125130537D01*
X78551185Y-125051185D01*
X78630537Y-124954494D01*
X78689502Y-124844180D01*
X78725812Y-124724482D01*
X78738072Y-124600000D01*
X78738072Y-124298061D01*
X95265000Y-124298061D01*
X95265000Y-124501939D01*
X95304774Y-124701898D01*
X95382795Y-124890256D01*
X95496063Y-125059774D01*
X95640226Y-125203937D01*
X95809744Y-125317205D01*
X95998102Y-125395226D01*
X96198061Y-125435000D01*
X96401939Y-125435000D01*
X96601898Y-125395226D01*
X96790256Y-125317205D01*
X96959774Y-125203937D01*
X97103937Y-125059774D01*
X97217205Y-124890256D01*
X97295226Y-124701898D01*
X97335000Y-124501939D01*
X97335000Y-124398061D01*
X105965000Y-124398061D01*
X105965000Y-124601939D01*
X106004774Y-124801898D01*
X106082795Y-124990256D01*
X106196063Y-125159774D01*
X106340226Y-125303937D01*
X106509744Y-125417205D01*
X106698102Y-125495226D01*
X106898061Y-125535000D01*
X107101939Y-125535000D01*
X107301898Y-125495226D01*
X107490256Y-125417205D01*
X107659774Y-125303937D01*
X107665650Y-125298061D01*
X133165000Y-125298061D01*
X133165000Y-125501939D01*
X133204774Y-125701898D01*
X133282795Y-125890256D01*
X133396063Y-126059774D01*
X133540226Y-126203937D01*
X133709744Y-126317205D01*
X133898102Y-126395226D01*
X134098061Y-126435000D01*
X134301939Y-126435000D01*
X134501898Y-126395226D01*
X134690256Y-126317205D01*
X134859774Y-126203937D01*
X135003937Y-126059774D01*
X135117205Y-125890256D01*
X135195226Y-125701898D01*
X135235000Y-125501939D01*
X135235000Y-125298061D01*
X135195226Y-125098102D01*
X135117205Y-124909744D01*
X135003937Y-124740226D01*
X134859774Y-124596063D01*
X134690256Y-124482795D01*
X134501898Y-124404774D01*
X134301939Y-124365000D01*
X134098061Y-124365000D01*
X133898102Y-124404774D01*
X133709744Y-124482795D01*
X133540226Y-124596063D01*
X133396063Y-124740226D01*
X133282795Y-124909744D01*
X133204774Y-125098102D01*
X133165000Y-125298061D01*
X107665650Y-125298061D01*
X107803937Y-125159774D01*
X107917205Y-124990256D01*
X107995226Y-124801898D01*
X108035000Y-124601939D01*
X108035000Y-124398061D01*
X107995226Y-124198102D01*
X107995210Y-124198061D01*
X144065000Y-124198061D01*
X144065000Y-124401939D01*
X144104774Y-124601898D01*
X144182795Y-124790256D01*
X144296063Y-124959774D01*
X144440226Y-125103937D01*
X144609744Y-125217205D01*
X144798102Y-125295226D01*
X144998061Y-125335000D01*
X145091467Y-125335000D01*
X145104774Y-125401898D01*
X145182795Y-125590256D01*
X145296063Y-125759774D01*
X145440226Y-125903937D01*
X145609744Y-126017205D01*
X145798102Y-126095226D01*
X145998061Y-126135000D01*
X146201939Y-126135000D01*
X146401898Y-126095226D01*
X146590256Y-126017205D01*
X146759774Y-125903937D01*
X146903937Y-125759774D01*
X147017205Y-125590256D01*
X147095226Y-125401898D01*
X147135000Y-125201939D01*
X147135000Y-124998061D01*
X147095226Y-124798102D01*
X147017205Y-124609744D01*
X146903937Y-124440226D01*
X146759774Y-124296063D01*
X146590256Y-124182795D01*
X146401898Y-124104774D01*
X146201939Y-124065000D01*
X146108533Y-124065000D01*
X146095226Y-123998102D01*
X146017205Y-123809744D01*
X145903937Y-123640226D01*
X145759774Y-123496063D01*
X145590256Y-123382795D01*
X145401898Y-123304774D01*
X145201939Y-123265000D01*
X144998061Y-123265000D01*
X144798102Y-123304774D01*
X144609744Y-123382795D01*
X144440226Y-123496063D01*
X144296063Y-123640226D01*
X144182795Y-123809744D01*
X144104774Y-123998102D01*
X144065000Y-124198061D01*
X107995210Y-124198061D01*
X107917205Y-124009744D01*
X107803937Y-123840226D01*
X107659774Y-123696063D01*
X107490256Y-123582795D01*
X107301898Y-123504774D01*
X107101939Y-123465000D01*
X106898061Y-123465000D01*
X106698102Y-123504774D01*
X106509744Y-123582795D01*
X106340226Y-123696063D01*
X106196063Y-123840226D01*
X106082795Y-124009744D01*
X106004774Y-124198102D01*
X105965000Y-124398061D01*
X97335000Y-124398061D01*
X97335000Y-124298061D01*
X97295226Y-124098102D01*
X97217205Y-123909744D01*
X97103937Y-123740226D01*
X96959774Y-123596063D01*
X96790256Y-123482795D01*
X96601898Y-123404774D01*
X96401939Y-123365000D01*
X96198061Y-123365000D01*
X95998102Y-123404774D01*
X95809744Y-123482795D01*
X95640226Y-123596063D01*
X95496063Y-123740226D01*
X95382795Y-123909744D01*
X95304774Y-124098102D01*
X95265000Y-124298061D01*
X78738072Y-124298061D01*
X78738072Y-122900000D01*
X78725812Y-122775518D01*
X78689502Y-122655820D01*
X78630537Y-122545506D01*
X78551185Y-122448815D01*
X78454494Y-122369463D01*
X78344180Y-122310498D01*
X78263534Y-122286034D01*
X78347588Y-122210269D01*
X78521641Y-121976920D01*
X78646825Y-121714099D01*
X78691476Y-121566890D01*
X78570155Y-121337000D01*
X77377000Y-121337000D01*
X77377000Y-121357000D01*
X77123000Y-121357000D01*
X77123000Y-121337000D01*
X75929845Y-121337000D01*
X75808524Y-121566890D01*
X75853175Y-121714099D01*
X75978359Y-121976920D01*
X76152412Y-122210269D01*
X76236466Y-122286034D01*
X76155820Y-122310498D01*
X76045506Y-122369463D01*
X75948815Y-122448815D01*
X75869463Y-122545506D01*
X75810498Y-122655820D01*
X75774188Y-122775518D01*
X75761928Y-122900000D01*
X73660000Y-122900000D01*
X73660000Y-115983740D01*
X75765000Y-115983740D01*
X75765000Y-116276260D01*
X75822068Y-116563158D01*
X75934010Y-116833411D01*
X76096525Y-117076632D01*
X76303368Y-117283475D01*
X76477760Y-117400000D01*
X76303368Y-117516525D01*
X76096525Y-117723368D01*
X75934010Y-117966589D01*
X75822068Y-118236842D01*
X75765000Y-118523740D01*
X75765000Y-118816260D01*
X75822068Y-119103158D01*
X75934010Y-119373411D01*
X76096525Y-119616632D01*
X76303368Y-119823475D01*
X76485534Y-119945195D01*
X76368645Y-120014822D01*
X76152412Y-120209731D01*
X75978359Y-120443080D01*
X75853175Y-120705901D01*
X75808524Y-120853110D01*
X75929845Y-121083000D01*
X77123000Y-121083000D01*
X77123000Y-121063000D01*
X77377000Y-121063000D01*
X77377000Y-121083000D01*
X78570155Y-121083000D01*
X78691476Y-120853110D01*
X78646825Y-120705901D01*
X78521641Y-120443080D01*
X78347588Y-120209731D01*
X78131355Y-120014822D01*
X78103217Y-119998061D01*
X81965000Y-119998061D01*
X81965000Y-120201939D01*
X82004774Y-120401898D01*
X82082795Y-120590256D01*
X82196063Y-120759774D01*
X82340226Y-120903937D01*
X82509744Y-121017205D01*
X82698102Y-121095226D01*
X82898061Y-121135000D01*
X83101939Y-121135000D01*
X83301898Y-121095226D01*
X83396449Y-121056061D01*
X131807000Y-121056061D01*
X131807000Y-121259939D01*
X131846774Y-121459898D01*
X131924795Y-121648256D01*
X132038063Y-121817774D01*
X132182226Y-121961937D01*
X132351744Y-122075205D01*
X132540102Y-122153226D01*
X132740061Y-122193000D01*
X132943939Y-122193000D01*
X133143898Y-122153226D01*
X133332256Y-122075205D01*
X133501774Y-121961937D01*
X133645937Y-121817774D01*
X133759205Y-121648256D01*
X133837226Y-121459898D01*
X133877000Y-121259939D01*
X133877000Y-121056061D01*
X133837226Y-120856102D01*
X133759205Y-120667744D01*
X133645937Y-120498226D01*
X133501774Y-120354063D01*
X133332256Y-120240795D01*
X133143898Y-120162774D01*
X132943939Y-120123000D01*
X132740061Y-120123000D01*
X132540102Y-120162774D01*
X132351744Y-120240795D01*
X132182226Y-120354063D01*
X132038063Y-120498226D01*
X131924795Y-120667744D01*
X131846774Y-120856102D01*
X131807000Y-121056061D01*
X83396449Y-121056061D01*
X83490256Y-121017205D01*
X83659774Y-120903937D01*
X83803937Y-120759774D01*
X83887308Y-120635000D01*
X84001939Y-120635000D01*
X84201898Y-120595226D01*
X84390256Y-120517205D01*
X84559774Y-120403937D01*
X84703937Y-120259774D01*
X84817205Y-120090256D01*
X84895226Y-119901898D01*
X84935000Y-119701939D01*
X84935000Y-119598061D01*
X93665000Y-119598061D01*
X93665000Y-119801939D01*
X93704774Y-120001898D01*
X93782795Y-120190256D01*
X93896063Y-120359774D01*
X94040226Y-120503937D01*
X94209744Y-120617205D01*
X94398102Y-120695226D01*
X94598061Y-120735000D01*
X94801939Y-120735000D01*
X95001898Y-120695226D01*
X95190256Y-120617205D01*
X95359774Y-120503937D01*
X95503937Y-120359774D01*
X95617205Y-120190256D01*
X95695226Y-120001898D01*
X95735000Y-119801939D01*
X95735000Y-119598061D01*
X95695226Y-119398102D01*
X95653788Y-119298061D01*
X107465000Y-119298061D01*
X107465000Y-119501939D01*
X107504774Y-119701898D01*
X107582795Y-119890256D01*
X107696063Y-120059774D01*
X107840226Y-120203937D01*
X108009744Y-120317205D01*
X108198102Y-120395226D01*
X108398061Y-120435000D01*
X108601939Y-120435000D01*
X108801898Y-120395226D01*
X108990256Y-120317205D01*
X109159774Y-120203937D01*
X109303937Y-120059774D01*
X109417205Y-119890256D01*
X109460965Y-119784612D01*
X109509744Y-119817205D01*
X109698102Y-119895226D01*
X109898061Y-119935000D01*
X110101939Y-119935000D01*
X110301898Y-119895226D01*
X110490256Y-119817205D01*
X110659774Y-119703937D01*
X110803937Y-119559774D01*
X110917205Y-119390256D01*
X110995226Y-119201898D01*
X111035000Y-119001939D01*
X111035000Y-118898061D01*
X118565000Y-118898061D01*
X118565000Y-119101939D01*
X118604774Y-119301898D01*
X118682795Y-119490256D01*
X118796063Y-119659774D01*
X118940226Y-119803937D01*
X119109744Y-119917205D01*
X119298102Y-119995226D01*
X119498061Y-120035000D01*
X119701939Y-120035000D01*
X119901898Y-119995226D01*
X120090256Y-119917205D01*
X120259774Y-119803937D01*
X120403937Y-119659774D01*
X120517205Y-119490256D01*
X120595226Y-119301898D01*
X120635000Y-119101939D01*
X120635000Y-118898061D01*
X121965000Y-118898061D01*
X121965000Y-119101939D01*
X122004774Y-119301898D01*
X122082795Y-119490256D01*
X122196063Y-119659774D01*
X122340226Y-119803937D01*
X122509744Y-119917205D01*
X122698102Y-119995226D01*
X122898061Y-120035000D01*
X123101939Y-120035000D01*
X123301898Y-119995226D01*
X123490256Y-119917205D01*
X123659774Y-119803937D01*
X123803937Y-119659774D01*
X123917205Y-119490256D01*
X123995226Y-119301898D01*
X124035000Y-119101939D01*
X124035000Y-118898061D01*
X123995226Y-118698102D01*
X123917205Y-118509744D01*
X123803937Y-118340226D01*
X123659774Y-118196063D01*
X123490256Y-118082795D01*
X123301898Y-118004774D01*
X123101939Y-117965000D01*
X122898061Y-117965000D01*
X122698102Y-118004774D01*
X122509744Y-118082795D01*
X122340226Y-118196063D01*
X122196063Y-118340226D01*
X122082795Y-118509744D01*
X122004774Y-118698102D01*
X121965000Y-118898061D01*
X120635000Y-118898061D01*
X120595226Y-118698102D01*
X120517205Y-118509744D01*
X120403937Y-118340226D01*
X120259774Y-118196063D01*
X120090256Y-118082795D01*
X119901898Y-118004774D01*
X119701939Y-117965000D01*
X119498061Y-117965000D01*
X119298102Y-118004774D01*
X119109744Y-118082795D01*
X118940226Y-118196063D01*
X118796063Y-118340226D01*
X118682795Y-118509744D01*
X118604774Y-118698102D01*
X118565000Y-118898061D01*
X111035000Y-118898061D01*
X111035000Y-118798061D01*
X110995226Y-118598102D01*
X110917205Y-118409744D01*
X110803937Y-118240226D01*
X110659774Y-118096063D01*
X110490256Y-117982795D01*
X110301898Y-117904774D01*
X110101939Y-117865000D01*
X109898061Y-117865000D01*
X109698102Y-117904774D01*
X109509744Y-117982795D01*
X109340226Y-118096063D01*
X109196063Y-118240226D01*
X109082795Y-118409744D01*
X109039035Y-118515388D01*
X108990256Y-118482795D01*
X108801898Y-118404774D01*
X108601939Y-118365000D01*
X108398061Y-118365000D01*
X108198102Y-118404774D01*
X108009744Y-118482795D01*
X107840226Y-118596063D01*
X107696063Y-118740226D01*
X107582795Y-118909744D01*
X107504774Y-119098102D01*
X107465000Y-119298061D01*
X95653788Y-119298061D01*
X95617205Y-119209744D01*
X95503937Y-119040226D01*
X95359774Y-118896063D01*
X95190256Y-118782795D01*
X95001898Y-118704774D01*
X94801939Y-118665000D01*
X94598061Y-118665000D01*
X94398102Y-118704774D01*
X94209744Y-118782795D01*
X94040226Y-118896063D01*
X93896063Y-119040226D01*
X93782795Y-119209744D01*
X93704774Y-119398102D01*
X93665000Y-119598061D01*
X84935000Y-119598061D01*
X84935000Y-119498061D01*
X84895226Y-119298102D01*
X84817205Y-119109744D01*
X84703937Y-118940226D01*
X84559774Y-118796063D01*
X84390256Y-118682795D01*
X84201898Y-118604774D01*
X84001939Y-118565000D01*
X83798061Y-118565000D01*
X83598102Y-118604774D01*
X83409744Y-118682795D01*
X83240226Y-118796063D01*
X83096063Y-118940226D01*
X83012692Y-119065000D01*
X82898061Y-119065000D01*
X82698102Y-119104774D01*
X82509744Y-119182795D01*
X82340226Y-119296063D01*
X82196063Y-119440226D01*
X82082795Y-119609744D01*
X82004774Y-119798102D01*
X81965000Y-119998061D01*
X78103217Y-119998061D01*
X78014466Y-119945195D01*
X78196632Y-119823475D01*
X78403475Y-119616632D01*
X78565990Y-119373411D01*
X78677932Y-119103158D01*
X78735000Y-118816260D01*
X78735000Y-118523740D01*
X78677932Y-118236842D01*
X78565990Y-117966589D01*
X78403475Y-117723368D01*
X78196632Y-117516525D01*
X78022240Y-117400000D01*
X78196632Y-117283475D01*
X78403475Y-117076632D01*
X78565990Y-116833411D01*
X78677932Y-116563158D01*
X78735000Y-116276260D01*
X78735000Y-115983740D01*
X78677932Y-115696842D01*
X78565990Y-115426589D01*
X78403475Y-115183368D01*
X78318168Y-115098061D01*
X100065000Y-115098061D01*
X100065000Y-115301939D01*
X100104774Y-115501898D01*
X100182795Y-115690256D01*
X100296063Y-115859774D01*
X100440226Y-116003937D01*
X100609744Y-116117205D01*
X100727760Y-116166089D01*
X100754774Y-116301898D01*
X100832795Y-116490256D01*
X100946063Y-116659774D01*
X101090226Y-116803937D01*
X101170550Y-116857608D01*
X101109744Y-116882795D01*
X100940226Y-116996063D01*
X100796063Y-117140226D01*
X100682795Y-117309744D01*
X100604774Y-117498102D01*
X100565000Y-117698061D01*
X100565000Y-117901939D01*
X100604774Y-118101898D01*
X100682795Y-118290256D01*
X100796063Y-118459774D01*
X100940226Y-118603937D01*
X101109744Y-118717205D01*
X101298102Y-118795226D01*
X101498061Y-118835000D01*
X101701939Y-118835000D01*
X101901898Y-118795226D01*
X102090256Y-118717205D01*
X102259774Y-118603937D01*
X102403937Y-118459774D01*
X102517205Y-118290256D01*
X102595226Y-118101898D01*
X102635000Y-117901939D01*
X102635000Y-117698061D01*
X102595226Y-117498102D01*
X102517205Y-117309744D01*
X102403937Y-117140226D01*
X102259774Y-116996063D01*
X102179450Y-116942392D01*
X102240256Y-116917205D01*
X102409774Y-116803937D01*
X102553937Y-116659774D01*
X102667205Y-116490256D01*
X102745226Y-116301898D01*
X102785000Y-116101939D01*
X102785000Y-115898061D01*
X102745226Y-115698102D01*
X102667205Y-115509744D01*
X102553937Y-115340226D01*
X102409774Y-115196063D01*
X102240256Y-115082795D01*
X102122240Y-115033911D01*
X102095226Y-114898102D01*
X102017205Y-114709744D01*
X101903937Y-114540226D01*
X101759774Y-114396063D01*
X101590256Y-114282795D01*
X101401898Y-114204774D01*
X101368150Y-114198061D01*
X102565000Y-114198061D01*
X102565000Y-114401939D01*
X102604774Y-114601898D01*
X102682795Y-114790256D01*
X102796063Y-114959774D01*
X102940226Y-115103937D01*
X103109744Y-115217205D01*
X103298102Y-115295226D01*
X103498061Y-115335000D01*
X103701939Y-115335000D01*
X103901898Y-115295226D01*
X104090256Y-115217205D01*
X104259774Y-115103937D01*
X104403937Y-114959774D01*
X104511989Y-114798061D01*
X105065000Y-114798061D01*
X105065000Y-115001939D01*
X105104774Y-115201898D01*
X105182795Y-115390256D01*
X105296063Y-115559774D01*
X105440226Y-115703937D01*
X105609744Y-115817205D01*
X105798102Y-115895226D01*
X105998061Y-115935000D01*
X106201939Y-115935000D01*
X106401898Y-115895226D01*
X106590256Y-115817205D01*
X106759774Y-115703937D01*
X106865650Y-115598061D01*
X109065000Y-115598061D01*
X109065000Y-115801939D01*
X109104774Y-116001898D01*
X109182795Y-116190256D01*
X109296063Y-116359774D01*
X109440226Y-116503937D01*
X109609744Y-116617205D01*
X109798102Y-116695226D01*
X109998061Y-116735000D01*
X110201939Y-116735000D01*
X110301369Y-116715222D01*
X110265000Y-116898061D01*
X110265000Y-117101939D01*
X110304774Y-117301898D01*
X110382795Y-117490256D01*
X110496063Y-117659774D01*
X110640226Y-117803937D01*
X110809744Y-117917205D01*
X110998102Y-117995226D01*
X111198061Y-118035000D01*
X111401939Y-118035000D01*
X111601898Y-117995226D01*
X111790256Y-117917205D01*
X111959774Y-117803937D01*
X112103937Y-117659774D01*
X112217205Y-117490256D01*
X112295226Y-117301898D01*
X112315880Y-117198061D01*
X133265000Y-117198061D01*
X133265000Y-117401939D01*
X133304774Y-117601898D01*
X133382795Y-117790256D01*
X133496063Y-117959774D01*
X133640226Y-118103937D01*
X133809744Y-118217205D01*
X133998102Y-118295226D01*
X134198061Y-118335000D01*
X134401939Y-118335000D01*
X134601898Y-118295226D01*
X134790256Y-118217205D01*
X134959774Y-118103937D01*
X135103937Y-117959774D01*
X135217205Y-117790256D01*
X135295226Y-117601898D01*
X135335000Y-117401939D01*
X135335000Y-117198061D01*
X135295226Y-116998102D01*
X135217205Y-116809744D01*
X135103937Y-116640226D01*
X134961772Y-116498061D01*
X144065000Y-116498061D01*
X144065000Y-116701939D01*
X144104774Y-116901898D01*
X144182795Y-117090256D01*
X144296063Y-117259774D01*
X144440226Y-117403937D01*
X144609744Y-117517205D01*
X144798102Y-117595226D01*
X144998061Y-117635000D01*
X145201939Y-117635000D01*
X145265000Y-117622456D01*
X145265000Y-117701939D01*
X145304774Y-117901898D01*
X145382795Y-118090256D01*
X145496063Y-118259774D01*
X145640226Y-118403937D01*
X145809744Y-118517205D01*
X145998102Y-118595226D01*
X146198061Y-118635000D01*
X146401939Y-118635000D01*
X146601898Y-118595226D01*
X146790256Y-118517205D01*
X146959774Y-118403937D01*
X147103937Y-118259774D01*
X147217205Y-118090256D01*
X147295226Y-117901898D01*
X147335000Y-117701939D01*
X147335000Y-117498061D01*
X147295226Y-117298102D01*
X147217205Y-117109744D01*
X147103937Y-116940226D01*
X146959774Y-116796063D01*
X146790256Y-116682795D01*
X146601898Y-116604774D01*
X146401939Y-116565000D01*
X146198061Y-116565000D01*
X146135000Y-116577544D01*
X146135000Y-116498061D01*
X146095226Y-116298102D01*
X146017205Y-116109744D01*
X145903937Y-115940226D01*
X145759774Y-115796063D01*
X145590256Y-115682795D01*
X145401898Y-115604774D01*
X145201939Y-115565000D01*
X144998061Y-115565000D01*
X144798102Y-115604774D01*
X144609744Y-115682795D01*
X144440226Y-115796063D01*
X144296063Y-115940226D01*
X144182795Y-116109744D01*
X144104774Y-116298102D01*
X144065000Y-116498061D01*
X134961772Y-116498061D01*
X134959774Y-116496063D01*
X134790256Y-116382795D01*
X134601898Y-116304774D01*
X134401939Y-116265000D01*
X134198061Y-116265000D01*
X133998102Y-116304774D01*
X133809744Y-116382795D01*
X133640226Y-116496063D01*
X133496063Y-116640226D01*
X133382795Y-116809744D01*
X133304774Y-116998102D01*
X133265000Y-117198061D01*
X112315880Y-117198061D01*
X112335000Y-117101939D01*
X112335000Y-116898061D01*
X112295226Y-116698102D01*
X112217205Y-116509744D01*
X112103937Y-116340226D01*
X111959774Y-116196063D01*
X111790256Y-116082795D01*
X111601898Y-116004774D01*
X111401939Y-115965000D01*
X111198061Y-115965000D01*
X111098631Y-115984778D01*
X111135000Y-115801939D01*
X111135000Y-115598061D01*
X111095226Y-115398102D01*
X111017205Y-115209744D01*
X110903937Y-115040226D01*
X110759774Y-114896063D01*
X110590256Y-114782795D01*
X110401898Y-114704774D01*
X110201939Y-114665000D01*
X109998061Y-114665000D01*
X109798102Y-114704774D01*
X109609744Y-114782795D01*
X109440226Y-114896063D01*
X109296063Y-115040226D01*
X109182795Y-115209744D01*
X109104774Y-115398102D01*
X109065000Y-115598061D01*
X106865650Y-115598061D01*
X106903937Y-115559774D01*
X107017205Y-115390256D01*
X107095226Y-115201898D01*
X107135000Y-115001939D01*
X107135000Y-114798061D01*
X107095226Y-114598102D01*
X107017205Y-114409744D01*
X106903937Y-114240226D01*
X106759774Y-114096063D01*
X106590256Y-113982795D01*
X106496745Y-113944061D01*
X132823000Y-113944061D01*
X132823000Y-114147939D01*
X132862774Y-114347898D01*
X132940795Y-114536256D01*
X133054063Y-114705774D01*
X133198226Y-114849937D01*
X133367744Y-114963205D01*
X133556102Y-115041226D01*
X133756061Y-115081000D01*
X133959939Y-115081000D01*
X134159898Y-115041226D01*
X134348256Y-114963205D01*
X134517774Y-114849937D01*
X134661937Y-114705774D01*
X134775205Y-114536256D01*
X134853226Y-114347898D01*
X134893000Y-114147939D01*
X134893000Y-113944061D01*
X134853226Y-113744102D01*
X134775205Y-113555744D01*
X134661937Y-113386226D01*
X134517774Y-113242063D01*
X134348256Y-113128795D01*
X134159898Y-113050774D01*
X133959939Y-113011000D01*
X133756061Y-113011000D01*
X133556102Y-113050774D01*
X133367744Y-113128795D01*
X133198226Y-113242063D01*
X133054063Y-113386226D01*
X132940795Y-113555744D01*
X132862774Y-113744102D01*
X132823000Y-113944061D01*
X106496745Y-113944061D01*
X106401898Y-113904774D01*
X106201939Y-113865000D01*
X105998061Y-113865000D01*
X105798102Y-113904774D01*
X105609744Y-113982795D01*
X105440226Y-114096063D01*
X105296063Y-114240226D01*
X105182795Y-114409744D01*
X105104774Y-114598102D01*
X105065000Y-114798061D01*
X104511989Y-114798061D01*
X104517205Y-114790256D01*
X104595226Y-114601898D01*
X104635000Y-114401939D01*
X104635000Y-114198061D01*
X104595226Y-113998102D01*
X104517205Y-113809744D01*
X104403937Y-113640226D01*
X104259774Y-113496063D01*
X104090256Y-113382795D01*
X103901898Y-113304774D01*
X103701939Y-113265000D01*
X103498061Y-113265000D01*
X103298102Y-113304774D01*
X103109744Y-113382795D01*
X102940226Y-113496063D01*
X102796063Y-113640226D01*
X102682795Y-113809744D01*
X102604774Y-113998102D01*
X102565000Y-114198061D01*
X101368150Y-114198061D01*
X101201939Y-114165000D01*
X100998061Y-114165000D01*
X100798102Y-114204774D01*
X100609744Y-114282795D01*
X100440226Y-114396063D01*
X100296063Y-114540226D01*
X100182795Y-114709744D01*
X100104774Y-114898102D01*
X100065000Y-115098061D01*
X78318168Y-115098061D01*
X78196632Y-114976525D01*
X77953411Y-114814010D01*
X77683158Y-114702068D01*
X77396260Y-114645000D01*
X77103740Y-114645000D01*
X76816842Y-114702068D01*
X76546589Y-114814010D01*
X76303368Y-114976525D01*
X76096525Y-115183368D01*
X75934010Y-115426589D01*
X75822068Y-115696842D01*
X75765000Y-115983740D01*
X73660000Y-115983740D01*
X73660000Y-112898061D01*
X92465000Y-112898061D01*
X92465000Y-113101939D01*
X92504774Y-113301898D01*
X92582795Y-113490256D01*
X92696063Y-113659774D01*
X92840226Y-113803937D01*
X93009744Y-113917205D01*
X93198102Y-113995226D01*
X93398061Y-114035000D01*
X93601939Y-114035000D01*
X93801898Y-113995226D01*
X93990256Y-113917205D01*
X94159774Y-113803937D01*
X94303937Y-113659774D01*
X94417205Y-113490256D01*
X94495226Y-113301898D01*
X94535000Y-113101939D01*
X94535000Y-112898061D01*
X94495226Y-112698102D01*
X94446440Y-112580322D01*
X110078600Y-112580322D01*
X110078600Y-112784200D01*
X110118374Y-112984159D01*
X110196395Y-113172517D01*
X110309663Y-113342035D01*
X110453826Y-113486198D01*
X110623344Y-113599466D01*
X110811702Y-113677487D01*
X111011661Y-113717261D01*
X111215539Y-113717261D01*
X111415498Y-113677487D01*
X111603856Y-113599466D01*
X111773374Y-113486198D01*
X111917537Y-113342035D01*
X112030805Y-113172517D01*
X112108826Y-112984159D01*
X112148600Y-112784200D01*
X112148600Y-112674061D01*
X116821000Y-112674061D01*
X116821000Y-112877939D01*
X116860774Y-113077898D01*
X116938795Y-113266256D01*
X117052063Y-113435774D01*
X117196226Y-113579937D01*
X117365744Y-113693205D01*
X117554102Y-113771226D01*
X117754061Y-113811000D01*
X117957939Y-113811000D01*
X118157898Y-113771226D01*
X118346256Y-113693205D01*
X118515774Y-113579937D01*
X118659937Y-113435774D01*
X118773205Y-113266256D01*
X118851226Y-113077898D01*
X118891000Y-112877939D01*
X118891000Y-112674061D01*
X118851226Y-112474102D01*
X118773205Y-112285744D01*
X118659937Y-112116226D01*
X118515774Y-111972063D01*
X118346256Y-111858795D01*
X118157898Y-111780774D01*
X117957939Y-111741000D01*
X117754061Y-111741000D01*
X117554102Y-111780774D01*
X117365744Y-111858795D01*
X117196226Y-111972063D01*
X117052063Y-112116226D01*
X116938795Y-112285744D01*
X116860774Y-112474102D01*
X116821000Y-112674061D01*
X112148600Y-112674061D01*
X112148600Y-112580322D01*
X112108826Y-112380363D01*
X112030805Y-112192005D01*
X111917537Y-112022487D01*
X111773374Y-111878324D01*
X111603856Y-111765056D01*
X111415498Y-111687035D01*
X111215539Y-111647261D01*
X111011661Y-111647261D01*
X110811702Y-111687035D01*
X110623344Y-111765056D01*
X110453826Y-111878324D01*
X110309663Y-112022487D01*
X110196395Y-112192005D01*
X110118374Y-112380363D01*
X110078600Y-112580322D01*
X94446440Y-112580322D01*
X94417205Y-112509744D01*
X94303937Y-112340226D01*
X94159774Y-112196063D01*
X93990256Y-112082795D01*
X93801898Y-112004774D01*
X93601939Y-111965000D01*
X93398061Y-111965000D01*
X93198102Y-112004774D01*
X93009744Y-112082795D01*
X92840226Y-112196063D01*
X92696063Y-112340226D01*
X92582795Y-112509744D01*
X92504774Y-112698102D01*
X92465000Y-112898061D01*
X73660000Y-112898061D01*
X73660000Y-110150000D01*
X75761928Y-110150000D01*
X75761928Y-111850000D01*
X75774188Y-111974482D01*
X75810498Y-112094180D01*
X75869463Y-112204494D01*
X75948815Y-112301185D01*
X76045506Y-112380537D01*
X76155820Y-112439502D01*
X76275518Y-112475812D01*
X76400000Y-112488072D01*
X78100000Y-112488072D01*
X78224482Y-112475812D01*
X78344180Y-112439502D01*
X78454494Y-112380537D01*
X78551185Y-112301185D01*
X78630537Y-112204494D01*
X78689502Y-112094180D01*
X78725812Y-111974482D01*
X78738072Y-111850000D01*
X78738072Y-110798061D01*
X99665000Y-110798061D01*
X99665000Y-111001939D01*
X99704774Y-111201898D01*
X99782795Y-111390256D01*
X99896063Y-111559774D01*
X100040226Y-111703937D01*
X100209744Y-111817205D01*
X100398102Y-111895226D01*
X100598061Y-111935000D01*
X100801939Y-111935000D01*
X101001898Y-111895226D01*
X101190256Y-111817205D01*
X101359774Y-111703937D01*
X101503937Y-111559774D01*
X101617205Y-111390256D01*
X101695226Y-111201898D01*
X101735000Y-111001939D01*
X101735000Y-110798061D01*
X101695226Y-110598102D01*
X101617205Y-110409744D01*
X101503937Y-110240226D01*
X101359774Y-110096063D01*
X101190256Y-109982795D01*
X101001898Y-109904774D01*
X100801939Y-109865000D01*
X100598061Y-109865000D01*
X100398102Y-109904774D01*
X100209744Y-109982795D01*
X100040226Y-110096063D01*
X99896063Y-110240226D01*
X99782795Y-110409744D01*
X99704774Y-110598102D01*
X99665000Y-110798061D01*
X78738072Y-110798061D01*
X78738072Y-110150000D01*
X78725812Y-110025518D01*
X78689502Y-109905820D01*
X78630537Y-109795506D01*
X78551185Y-109698815D01*
X78454494Y-109619463D01*
X78344180Y-109560498D01*
X78271620Y-109538487D01*
X78403475Y-109406632D01*
X78565990Y-109163411D01*
X78652982Y-108953392D01*
X104770331Y-108953392D01*
X104770331Y-109157270D01*
X104810105Y-109357229D01*
X104888126Y-109545587D01*
X105001394Y-109715105D01*
X105145557Y-109859268D01*
X105315075Y-109972536D01*
X105503433Y-110050557D01*
X105703392Y-110090331D01*
X105907270Y-110090331D01*
X106107229Y-110050557D01*
X106295587Y-109972536D01*
X106433985Y-109880061D01*
X113265000Y-109880061D01*
X113265000Y-110083939D01*
X113304774Y-110283898D01*
X113382795Y-110472256D01*
X113496063Y-110641774D01*
X113640226Y-110785937D01*
X113809744Y-110899205D01*
X113998102Y-110977226D01*
X114198061Y-111017000D01*
X114401939Y-111017000D01*
X114601898Y-110977226D01*
X114790256Y-110899205D01*
X114959774Y-110785937D01*
X115103937Y-110641774D01*
X115217205Y-110472256D01*
X115252079Y-110388061D01*
X124949000Y-110388061D01*
X124949000Y-110591939D01*
X124988774Y-110791898D01*
X125066795Y-110980256D01*
X125180063Y-111149774D01*
X125324226Y-111293937D01*
X125493744Y-111407205D01*
X125682102Y-111485226D01*
X125882061Y-111525000D01*
X126085939Y-111525000D01*
X126285898Y-111485226D01*
X126474256Y-111407205D01*
X126643774Y-111293937D01*
X126787937Y-111149774D01*
X126901205Y-110980256D01*
X126979226Y-110791898D01*
X127019000Y-110591939D01*
X127019000Y-110388061D01*
X126979226Y-110188102D01*
X126901205Y-109999744D01*
X126787937Y-109830226D01*
X126643774Y-109686063D01*
X126474256Y-109572795D01*
X126285898Y-109494774D01*
X126085939Y-109455000D01*
X125882061Y-109455000D01*
X125682102Y-109494774D01*
X125493744Y-109572795D01*
X125324226Y-109686063D01*
X125180063Y-109830226D01*
X125066795Y-109999744D01*
X124988774Y-110188102D01*
X124949000Y-110388061D01*
X115252079Y-110388061D01*
X115295226Y-110283898D01*
X115335000Y-110083939D01*
X115335000Y-109880061D01*
X115295226Y-109680102D01*
X115217205Y-109491744D01*
X115103937Y-109322226D01*
X114959774Y-109178063D01*
X114790256Y-109064795D01*
X114629148Y-108998061D01*
X132965000Y-108998061D01*
X132965000Y-109201939D01*
X133004774Y-109401898D01*
X133082795Y-109590256D01*
X133196063Y-109759774D01*
X133340226Y-109903937D01*
X133509744Y-110017205D01*
X133698102Y-110095226D01*
X133898061Y-110135000D01*
X134101939Y-110135000D01*
X134301898Y-110095226D01*
X134490256Y-110017205D01*
X134659774Y-109903937D01*
X134803937Y-109759774D01*
X134917205Y-109590256D01*
X134995226Y-109401898D01*
X135035000Y-109201939D01*
X135035000Y-108998061D01*
X134995226Y-108798102D01*
X134917205Y-108609744D01*
X134803937Y-108440226D01*
X134659774Y-108296063D01*
X134490256Y-108182795D01*
X134301898Y-108104774D01*
X134101939Y-108065000D01*
X133898061Y-108065000D01*
X133698102Y-108104774D01*
X133509744Y-108182795D01*
X133340226Y-108296063D01*
X133196063Y-108440226D01*
X133082795Y-108609744D01*
X133004774Y-108798102D01*
X132965000Y-108998061D01*
X114629148Y-108998061D01*
X114601898Y-108986774D01*
X114401939Y-108947000D01*
X114198061Y-108947000D01*
X113998102Y-108986774D01*
X113809744Y-109064795D01*
X113640226Y-109178063D01*
X113496063Y-109322226D01*
X113382795Y-109491744D01*
X113304774Y-109680102D01*
X113265000Y-109880061D01*
X106433985Y-109880061D01*
X106465105Y-109859268D01*
X106609268Y-109715105D01*
X106722536Y-109545587D01*
X106800557Y-109357229D01*
X106840331Y-109157270D01*
X106840331Y-109076365D01*
X106896063Y-109159774D01*
X107040226Y-109303937D01*
X107209744Y-109417205D01*
X107398102Y-109495226D01*
X107598061Y-109535000D01*
X107801939Y-109535000D01*
X108001898Y-109495226D01*
X108190256Y-109417205D01*
X108359774Y-109303937D01*
X108503937Y-109159774D01*
X108617205Y-108990256D01*
X108695226Y-108801898D01*
X108735000Y-108601939D01*
X108735000Y-108498061D01*
X108965000Y-108498061D01*
X108965000Y-108701939D01*
X109004774Y-108901898D01*
X109082795Y-109090256D01*
X109196063Y-109259774D01*
X109340226Y-109403937D01*
X109509744Y-109517205D01*
X109698102Y-109595226D01*
X109898061Y-109635000D01*
X110101939Y-109635000D01*
X110301898Y-109595226D01*
X110490256Y-109517205D01*
X110552143Y-109475854D01*
X110592226Y-109515937D01*
X110761744Y-109629205D01*
X110950102Y-109707226D01*
X111150061Y-109747000D01*
X111353939Y-109747000D01*
X111553898Y-109707226D01*
X111742256Y-109629205D01*
X111911774Y-109515937D01*
X112055937Y-109371774D01*
X112169205Y-109202256D01*
X112247226Y-109013898D01*
X112287000Y-108813939D01*
X112287000Y-108610061D01*
X112247226Y-108410102D01*
X112169205Y-108221744D01*
X112055937Y-108052226D01*
X111911774Y-107908063D01*
X111742256Y-107794795D01*
X111553898Y-107716774D01*
X111353939Y-107677000D01*
X111150061Y-107677000D01*
X110950102Y-107716774D01*
X110761744Y-107794795D01*
X110699857Y-107836146D01*
X110659774Y-107796063D01*
X110490256Y-107682795D01*
X110301898Y-107604774D01*
X110101939Y-107565000D01*
X109898061Y-107565000D01*
X109698102Y-107604774D01*
X109509744Y-107682795D01*
X109340226Y-107796063D01*
X109196063Y-107940226D01*
X109082795Y-108109744D01*
X109004774Y-108298102D01*
X108965000Y-108498061D01*
X108735000Y-108498061D01*
X108735000Y-108398061D01*
X108695226Y-108198102D01*
X108617205Y-108009744D01*
X108503937Y-107840226D01*
X108359774Y-107696063D01*
X108190256Y-107582795D01*
X108001898Y-107504774D01*
X107801939Y-107465000D01*
X107598061Y-107465000D01*
X107398102Y-107504774D01*
X107209744Y-107582795D01*
X107040226Y-107696063D01*
X106896063Y-107840226D01*
X106782795Y-108009744D01*
X106704774Y-108198102D01*
X106665000Y-108398061D01*
X106665000Y-108478966D01*
X106609268Y-108395557D01*
X106465105Y-108251394D01*
X106295587Y-108138126D01*
X106107229Y-108060105D01*
X105907270Y-108020331D01*
X105703392Y-108020331D01*
X105503433Y-108060105D01*
X105315075Y-108138126D01*
X105145557Y-108251394D01*
X105001394Y-108395557D01*
X104888126Y-108565075D01*
X104810105Y-108753433D01*
X104770331Y-108953392D01*
X78652982Y-108953392D01*
X78677932Y-108893158D01*
X78735000Y-108606260D01*
X78735000Y-108313740D01*
X78677932Y-108026842D01*
X78565990Y-107756589D01*
X78403475Y-107513368D01*
X78196632Y-107306525D01*
X78022240Y-107190000D01*
X78196632Y-107073475D01*
X78403475Y-106866632D01*
X78565990Y-106623411D01*
X78677932Y-106353158D01*
X78735000Y-106066260D01*
X78735000Y-105773740D01*
X78677932Y-105486842D01*
X78565990Y-105216589D01*
X78520202Y-105148061D01*
X104965000Y-105148061D01*
X104965000Y-105351939D01*
X105004774Y-105551898D01*
X105082795Y-105740256D01*
X105189419Y-105899830D01*
X105182795Y-105909744D01*
X105104774Y-106098102D01*
X105065000Y-106298061D01*
X105065000Y-106501939D01*
X105104774Y-106701898D01*
X105182795Y-106890256D01*
X105296063Y-107059774D01*
X105440226Y-107203937D01*
X105609744Y-107317205D01*
X105798102Y-107395226D01*
X105998061Y-107435000D01*
X106201939Y-107435000D01*
X106401898Y-107395226D01*
X106590256Y-107317205D01*
X106759774Y-107203937D01*
X106792050Y-107171661D01*
X113787414Y-107171661D01*
X113787414Y-107375539D01*
X113827188Y-107575498D01*
X113905209Y-107763856D01*
X114018477Y-107933374D01*
X114162640Y-108077537D01*
X114332158Y-108190805D01*
X114520516Y-108268826D01*
X114720475Y-108308600D01*
X114924353Y-108308600D01*
X115124312Y-108268826D01*
X115312670Y-108190805D01*
X115482188Y-108077537D01*
X115561664Y-107998061D01*
X143765000Y-107998061D01*
X143765000Y-108201939D01*
X143804774Y-108401898D01*
X143882795Y-108590256D01*
X143996063Y-108759774D01*
X144140226Y-108903937D01*
X144309744Y-109017205D01*
X144498102Y-109095226D01*
X144698061Y-109135000D01*
X144901939Y-109135000D01*
X145091054Y-109097383D01*
X145082795Y-109109744D01*
X145004774Y-109298102D01*
X144965000Y-109498061D01*
X144965000Y-109701939D01*
X145004774Y-109901898D01*
X145082795Y-110090256D01*
X145196063Y-110259774D01*
X145340226Y-110403937D01*
X145509744Y-110517205D01*
X145698102Y-110595226D01*
X145898061Y-110635000D01*
X146101939Y-110635000D01*
X146301898Y-110595226D01*
X146490256Y-110517205D01*
X146659774Y-110403937D01*
X146803937Y-110259774D01*
X146917205Y-110090256D01*
X146995226Y-109901898D01*
X147035000Y-109701939D01*
X147035000Y-109498061D01*
X146995226Y-109298102D01*
X146917205Y-109109744D01*
X146803937Y-108940226D01*
X146659774Y-108796063D01*
X146490256Y-108682795D01*
X146301898Y-108604774D01*
X146101939Y-108565000D01*
X145898061Y-108565000D01*
X145708946Y-108602617D01*
X145717205Y-108590256D01*
X145795226Y-108401898D01*
X145835000Y-108201939D01*
X145835000Y-107998061D01*
X145795226Y-107798102D01*
X145717205Y-107609744D01*
X145603937Y-107440226D01*
X145459774Y-107296063D01*
X145290256Y-107182795D01*
X145101898Y-107104774D01*
X144901939Y-107065000D01*
X144698061Y-107065000D01*
X144498102Y-107104774D01*
X144309744Y-107182795D01*
X144140226Y-107296063D01*
X143996063Y-107440226D01*
X143882795Y-107609744D01*
X143804774Y-107798102D01*
X143765000Y-107998061D01*
X115561664Y-107998061D01*
X115626351Y-107933374D01*
X115739619Y-107763856D01*
X115817640Y-107575498D01*
X115857414Y-107375539D01*
X115857414Y-107171661D01*
X115817640Y-106971702D01*
X115739619Y-106783344D01*
X115626351Y-106613826D01*
X115590586Y-106578061D01*
X132569000Y-106578061D01*
X132569000Y-106781939D01*
X132608774Y-106981898D01*
X132686795Y-107170256D01*
X132800063Y-107339774D01*
X132944226Y-107483937D01*
X133113744Y-107597205D01*
X133302102Y-107675226D01*
X133502061Y-107715000D01*
X133705939Y-107715000D01*
X133905898Y-107675226D01*
X134094256Y-107597205D01*
X134263774Y-107483937D01*
X134407937Y-107339774D01*
X134521205Y-107170256D01*
X134599226Y-106981898D01*
X134639000Y-106781939D01*
X134639000Y-106578061D01*
X134599226Y-106378102D01*
X134521205Y-106189744D01*
X134407937Y-106020226D01*
X134263774Y-105876063D01*
X134094256Y-105762795D01*
X133905898Y-105684774D01*
X133705939Y-105645000D01*
X133502061Y-105645000D01*
X133302102Y-105684774D01*
X133113744Y-105762795D01*
X132944226Y-105876063D01*
X132800063Y-106020226D01*
X132686795Y-106189744D01*
X132608774Y-106378102D01*
X132569000Y-106578061D01*
X115590586Y-106578061D01*
X115482188Y-106469663D01*
X115312670Y-106356395D01*
X115124312Y-106278374D01*
X114924353Y-106238600D01*
X114720475Y-106238600D01*
X114520516Y-106278374D01*
X114332158Y-106356395D01*
X114162640Y-106469663D01*
X114018477Y-106613826D01*
X113905209Y-106783344D01*
X113827188Y-106971702D01*
X113787414Y-107171661D01*
X106792050Y-107171661D01*
X106903937Y-107059774D01*
X107017205Y-106890256D01*
X107095226Y-106701898D01*
X107135000Y-106501939D01*
X107135000Y-106298061D01*
X107095226Y-106098102D01*
X107017205Y-105909744D01*
X106954608Y-105816061D01*
X107423000Y-105816061D01*
X107423000Y-106019939D01*
X107462774Y-106219898D01*
X107540795Y-106408256D01*
X107654063Y-106577774D01*
X107798226Y-106721937D01*
X107967744Y-106835205D01*
X108156102Y-106913226D01*
X108356061Y-106953000D01*
X108559939Y-106953000D01*
X108759898Y-106913226D01*
X108948256Y-106835205D01*
X109117774Y-106721937D01*
X109261937Y-106577774D01*
X109375205Y-106408256D01*
X109453226Y-106219898D01*
X109493000Y-106019939D01*
X109493000Y-105816061D01*
X109453226Y-105616102D01*
X109375205Y-105427744D01*
X109261937Y-105258226D01*
X109117774Y-105114063D01*
X108948256Y-105000795D01*
X108759898Y-104922774D01*
X108559939Y-104883000D01*
X108356061Y-104883000D01*
X108156102Y-104922774D01*
X107967744Y-105000795D01*
X107798226Y-105114063D01*
X107654063Y-105258226D01*
X107540795Y-105427744D01*
X107462774Y-105616102D01*
X107423000Y-105816061D01*
X106954608Y-105816061D01*
X106910581Y-105750170D01*
X106917205Y-105740256D01*
X106995226Y-105551898D01*
X107035000Y-105351939D01*
X107035000Y-105148061D01*
X106995226Y-104948102D01*
X106917205Y-104759744D01*
X106803937Y-104590226D01*
X106659774Y-104446063D01*
X106490256Y-104332795D01*
X106301898Y-104254774D01*
X106101939Y-104215000D01*
X105898061Y-104215000D01*
X105698102Y-104254774D01*
X105509744Y-104332795D01*
X105340226Y-104446063D01*
X105196063Y-104590226D01*
X105082795Y-104759744D01*
X105004774Y-104948102D01*
X104965000Y-105148061D01*
X78520202Y-105148061D01*
X78403475Y-104973368D01*
X78196632Y-104766525D01*
X78022240Y-104650000D01*
X78196632Y-104533475D01*
X78403475Y-104326632D01*
X78565990Y-104083411D01*
X78677932Y-103813158D01*
X78735000Y-103526260D01*
X78735000Y-103498061D01*
X89365000Y-103498061D01*
X89365000Y-103701939D01*
X89404774Y-103901898D01*
X89482795Y-104090256D01*
X89596063Y-104259774D01*
X89740226Y-104403937D01*
X89909744Y-104517205D01*
X90098102Y-104595226D01*
X90298061Y-104635000D01*
X90501939Y-104635000D01*
X90701898Y-104595226D01*
X90890256Y-104517205D01*
X91059774Y-104403937D01*
X91203937Y-104259774D01*
X91317205Y-104090256D01*
X91395226Y-103901898D01*
X91435000Y-103701939D01*
X91435000Y-103498061D01*
X91415109Y-103398061D01*
X106165000Y-103398061D01*
X106165000Y-103601939D01*
X106204774Y-103801898D01*
X106282795Y-103990256D01*
X106396063Y-104159774D01*
X106540226Y-104303937D01*
X106709744Y-104417205D01*
X106898102Y-104495226D01*
X107098061Y-104535000D01*
X107301939Y-104535000D01*
X107501898Y-104495226D01*
X107690256Y-104417205D01*
X107859774Y-104303937D01*
X108003937Y-104159774D01*
X108117205Y-103990256D01*
X108155393Y-103898061D01*
X110265000Y-103898061D01*
X110265000Y-104101939D01*
X110304774Y-104301898D01*
X110382795Y-104490256D01*
X110496063Y-104659774D01*
X110640226Y-104803937D01*
X110809744Y-104917205D01*
X110998102Y-104995226D01*
X111198061Y-105035000D01*
X111401939Y-105035000D01*
X111601898Y-104995226D01*
X111790256Y-104917205D01*
X111959774Y-104803937D01*
X112103937Y-104659774D01*
X112217205Y-104490256D01*
X112295226Y-104301898D01*
X112325825Y-104148061D01*
X114965000Y-104148061D01*
X114965000Y-104351939D01*
X115004774Y-104551898D01*
X115082795Y-104740256D01*
X115196063Y-104909774D01*
X115340226Y-105053937D01*
X115509744Y-105167205D01*
X115698102Y-105245226D01*
X115898061Y-105285000D01*
X116101939Y-105285000D01*
X116301898Y-105245226D01*
X116490256Y-105167205D01*
X116659774Y-105053937D01*
X116803937Y-104909774D01*
X116917205Y-104740256D01*
X116995226Y-104551898D01*
X117035000Y-104351939D01*
X117035000Y-104148061D01*
X116995226Y-103948102D01*
X116917205Y-103759744D01*
X116803937Y-103590226D01*
X116659774Y-103446063D01*
X116490256Y-103332795D01*
X116301898Y-103254774D01*
X116101939Y-103215000D01*
X115898061Y-103215000D01*
X115698102Y-103254774D01*
X115509744Y-103332795D01*
X115340226Y-103446063D01*
X115196063Y-103590226D01*
X115082795Y-103759744D01*
X115004774Y-103948102D01*
X114965000Y-104148061D01*
X112325825Y-104148061D01*
X112335000Y-104101939D01*
X112335000Y-103898061D01*
X112295226Y-103698102D01*
X112217205Y-103509744D01*
X112103937Y-103340226D01*
X111959774Y-103196063D01*
X111790256Y-103082795D01*
X111601898Y-103004774D01*
X111401939Y-102965000D01*
X111198061Y-102965000D01*
X110998102Y-103004774D01*
X110809744Y-103082795D01*
X110640226Y-103196063D01*
X110496063Y-103340226D01*
X110382795Y-103509744D01*
X110304774Y-103698102D01*
X110265000Y-103898061D01*
X108155393Y-103898061D01*
X108195226Y-103801898D01*
X108235000Y-103601939D01*
X108235000Y-103398061D01*
X108195226Y-103198102D01*
X108117205Y-103009744D01*
X108003937Y-102840226D01*
X107931772Y-102768061D01*
X120377000Y-102768061D01*
X120377000Y-102971939D01*
X120416774Y-103171898D01*
X120494795Y-103360256D01*
X120608063Y-103529774D01*
X120752226Y-103673937D01*
X120921744Y-103787205D01*
X121110102Y-103865226D01*
X121310061Y-103905000D01*
X121513939Y-103905000D01*
X121713898Y-103865226D01*
X121902256Y-103787205D01*
X122071774Y-103673937D01*
X122215937Y-103529774D01*
X122329205Y-103360256D01*
X122407226Y-103171898D01*
X122447000Y-102971939D01*
X122447000Y-102768061D01*
X122407226Y-102568102D01*
X122336793Y-102398061D01*
X145165000Y-102398061D01*
X145165000Y-102601939D01*
X145204774Y-102801898D01*
X145282795Y-102990256D01*
X145396063Y-103159774D01*
X145540226Y-103303937D01*
X145709744Y-103417205D01*
X145898102Y-103495226D01*
X146098061Y-103535000D01*
X146301939Y-103535000D01*
X146501898Y-103495226D01*
X146690256Y-103417205D01*
X146859774Y-103303937D01*
X147003937Y-103159774D01*
X147117205Y-102990256D01*
X147195226Y-102801898D01*
X147235000Y-102601939D01*
X147235000Y-102398061D01*
X147195226Y-102198102D01*
X147117205Y-102009744D01*
X147003937Y-101840226D01*
X146859774Y-101696063D01*
X146690256Y-101582795D01*
X146501898Y-101504774D01*
X146301939Y-101465000D01*
X146098061Y-101465000D01*
X145898102Y-101504774D01*
X145709744Y-101582795D01*
X145540226Y-101696063D01*
X145396063Y-101840226D01*
X145282795Y-102009744D01*
X145204774Y-102198102D01*
X145165000Y-102398061D01*
X122336793Y-102398061D01*
X122329205Y-102379744D01*
X122215937Y-102210226D01*
X122071774Y-102066063D01*
X121902256Y-101952795D01*
X121713898Y-101874774D01*
X121513939Y-101835000D01*
X121310061Y-101835000D01*
X121110102Y-101874774D01*
X120921744Y-101952795D01*
X120752226Y-102066063D01*
X120608063Y-102210226D01*
X120494795Y-102379744D01*
X120416774Y-102568102D01*
X120377000Y-102768061D01*
X107931772Y-102768061D01*
X107859774Y-102696063D01*
X107690256Y-102582795D01*
X107501898Y-102504774D01*
X107301939Y-102465000D01*
X107098061Y-102465000D01*
X106898102Y-102504774D01*
X106709744Y-102582795D01*
X106540226Y-102696063D01*
X106396063Y-102840226D01*
X106282795Y-103009744D01*
X106204774Y-103198102D01*
X106165000Y-103398061D01*
X91415109Y-103398061D01*
X91395226Y-103298102D01*
X91317205Y-103109744D01*
X91203937Y-102940226D01*
X91059774Y-102796063D01*
X90890256Y-102682795D01*
X90701898Y-102604774D01*
X90501939Y-102565000D01*
X90298061Y-102565000D01*
X90098102Y-102604774D01*
X89909744Y-102682795D01*
X89740226Y-102796063D01*
X89596063Y-102940226D01*
X89482795Y-103109744D01*
X89404774Y-103298102D01*
X89365000Y-103498061D01*
X78735000Y-103498061D01*
X78735000Y-103233740D01*
X78677932Y-102946842D01*
X78565990Y-102676589D01*
X78403475Y-102433368D01*
X78196632Y-102226525D01*
X78022240Y-102110000D01*
X78196632Y-101993475D01*
X78403475Y-101786632D01*
X78565990Y-101543411D01*
X78584774Y-101498061D01*
X114965000Y-101498061D01*
X114965000Y-101701939D01*
X115004774Y-101901898D01*
X115082795Y-102090256D01*
X115196063Y-102259774D01*
X115340226Y-102403937D01*
X115509744Y-102517205D01*
X115698102Y-102595226D01*
X115898061Y-102635000D01*
X116101939Y-102635000D01*
X116301898Y-102595226D01*
X116490256Y-102517205D01*
X116659774Y-102403937D01*
X116803937Y-102259774D01*
X116917205Y-102090256D01*
X116995226Y-101901898D01*
X117035000Y-101701939D01*
X117035000Y-101498061D01*
X116995226Y-101298102D01*
X116917205Y-101109744D01*
X116803937Y-100940226D01*
X116659774Y-100796063D01*
X116490256Y-100682795D01*
X116301898Y-100604774D01*
X116101939Y-100565000D01*
X115898061Y-100565000D01*
X115698102Y-100604774D01*
X115509744Y-100682795D01*
X115340226Y-100796063D01*
X115196063Y-100940226D01*
X115082795Y-101109744D01*
X115004774Y-101298102D01*
X114965000Y-101498061D01*
X78584774Y-101498061D01*
X78677932Y-101273158D01*
X78735000Y-100986260D01*
X78735000Y-100693740D01*
X78677932Y-100406842D01*
X78565990Y-100136589D01*
X78403475Y-99893368D01*
X78196632Y-99686525D01*
X78022240Y-99570000D01*
X78196632Y-99453475D01*
X78403475Y-99246632D01*
X78565990Y-99003411D01*
X78603132Y-98913740D01*
X84875000Y-98913740D01*
X84875000Y-99206260D01*
X84932068Y-99493158D01*
X85044010Y-99763411D01*
X85206525Y-100006632D01*
X85413368Y-100213475D01*
X85656589Y-100375990D01*
X85926842Y-100487932D01*
X86213740Y-100545000D01*
X86506260Y-100545000D01*
X86793158Y-100487932D01*
X87063411Y-100375990D01*
X87306632Y-100213475D01*
X87513475Y-100006632D01*
X87630000Y-99832240D01*
X87746525Y-100006632D01*
X87953368Y-100213475D01*
X88196589Y-100375990D01*
X88466842Y-100487932D01*
X88753740Y-100545000D01*
X89046260Y-100545000D01*
X89333158Y-100487932D01*
X89603411Y-100375990D01*
X89846632Y-100213475D01*
X89978487Y-100081620D01*
X90000498Y-100154180D01*
X90059463Y-100264494D01*
X90138815Y-100361185D01*
X90235506Y-100440537D01*
X90345820Y-100499502D01*
X90465518Y-100535812D01*
X90590000Y-100548072D01*
X91154250Y-100545000D01*
X91313000Y-100386250D01*
X91313000Y-99187000D01*
X91567000Y-99187000D01*
X91567000Y-100386250D01*
X91725750Y-100545000D01*
X92290000Y-100548072D01*
X92414482Y-100535812D01*
X92534180Y-100499502D01*
X92644494Y-100440537D01*
X92741185Y-100361185D01*
X92792989Y-100298061D01*
X134365000Y-100298061D01*
X134365000Y-100501939D01*
X134404774Y-100701898D01*
X134482795Y-100890256D01*
X134596063Y-101059774D01*
X134740226Y-101203937D01*
X134909744Y-101317205D01*
X135098102Y-101395226D01*
X135298061Y-101435000D01*
X135501939Y-101435000D01*
X135701898Y-101395226D01*
X135890256Y-101317205D01*
X136059774Y-101203937D01*
X136203937Y-101059774D01*
X136317205Y-100890256D01*
X136395226Y-100701898D01*
X136435000Y-100501939D01*
X136435000Y-100398061D01*
X143165000Y-100398061D01*
X143165000Y-100601939D01*
X143204774Y-100801898D01*
X143282795Y-100990256D01*
X143396063Y-101159774D01*
X143540226Y-101303937D01*
X143709744Y-101417205D01*
X143898102Y-101495226D01*
X144098061Y-101535000D01*
X144301939Y-101535000D01*
X144501898Y-101495226D01*
X144690256Y-101417205D01*
X144859774Y-101303937D01*
X145003937Y-101159774D01*
X145117205Y-100990256D01*
X145195226Y-100801898D01*
X145235000Y-100601939D01*
X145235000Y-100398061D01*
X145195226Y-100198102D01*
X145117205Y-100009744D01*
X145003937Y-99840226D01*
X144859774Y-99696063D01*
X144690256Y-99582795D01*
X144501898Y-99504774D01*
X144301939Y-99465000D01*
X144098061Y-99465000D01*
X143898102Y-99504774D01*
X143709744Y-99582795D01*
X143540226Y-99696063D01*
X143396063Y-99840226D01*
X143282795Y-100009744D01*
X143204774Y-100198102D01*
X143165000Y-100398061D01*
X136435000Y-100398061D01*
X136435000Y-100298061D01*
X136395226Y-100098102D01*
X136317205Y-99909744D01*
X136203937Y-99740226D01*
X136059774Y-99596063D01*
X135890256Y-99482795D01*
X135701898Y-99404774D01*
X135501939Y-99365000D01*
X135298061Y-99365000D01*
X135098102Y-99404774D01*
X134909744Y-99482795D01*
X134740226Y-99596063D01*
X134596063Y-99740226D01*
X134482795Y-99909744D01*
X134404774Y-100098102D01*
X134365000Y-100298061D01*
X92792989Y-100298061D01*
X92820537Y-100264494D01*
X92879502Y-100154180D01*
X92915812Y-100034482D01*
X92928072Y-99910000D01*
X92925000Y-99345750D01*
X92766250Y-99187000D01*
X91567000Y-99187000D01*
X91313000Y-99187000D01*
X91293000Y-99187000D01*
X91293000Y-98933000D01*
X91313000Y-98933000D01*
X91313000Y-97733750D01*
X91567000Y-97733750D01*
X91567000Y-98933000D01*
X92766250Y-98933000D01*
X92925000Y-98774250D01*
X92925414Y-98698061D01*
X102665000Y-98698061D01*
X102665000Y-98901939D01*
X102704774Y-99101898D01*
X102782795Y-99290256D01*
X102896063Y-99459774D01*
X103040226Y-99603937D01*
X103209744Y-99717205D01*
X103398102Y-99795226D01*
X103598061Y-99835000D01*
X103801939Y-99835000D01*
X104001898Y-99795226D01*
X104190256Y-99717205D01*
X104359774Y-99603937D01*
X104503937Y-99459774D01*
X104549523Y-99391549D01*
X104665744Y-99469205D01*
X104854102Y-99547226D01*
X105054061Y-99587000D01*
X105257939Y-99587000D01*
X105457898Y-99547226D01*
X105646256Y-99469205D01*
X105815774Y-99355937D01*
X105959937Y-99211774D01*
X106073205Y-99042256D01*
X106151226Y-98853898D01*
X106191000Y-98653939D01*
X106191000Y-98450061D01*
X106151226Y-98250102D01*
X106073205Y-98061744D01*
X105959937Y-97892226D01*
X105815774Y-97748063D01*
X105646256Y-97634795D01*
X105457898Y-97556774D01*
X105257939Y-97517000D01*
X105054061Y-97517000D01*
X104854102Y-97556774D01*
X104665744Y-97634795D01*
X104496226Y-97748063D01*
X104352063Y-97892226D01*
X104306477Y-97960451D01*
X104190256Y-97882795D01*
X104001898Y-97804774D01*
X103801939Y-97765000D01*
X103598061Y-97765000D01*
X103398102Y-97804774D01*
X103209744Y-97882795D01*
X103040226Y-97996063D01*
X102896063Y-98140226D01*
X102782795Y-98309744D01*
X102704774Y-98498102D01*
X102665000Y-98698061D01*
X92925414Y-98698061D01*
X92928072Y-98210000D01*
X92915812Y-98085518D01*
X92879502Y-97965820D01*
X92820537Y-97855506D01*
X92741185Y-97758815D01*
X92644494Y-97679463D01*
X92534180Y-97620498D01*
X92414482Y-97584188D01*
X92290000Y-97571928D01*
X91725750Y-97575000D01*
X91567000Y-97733750D01*
X91313000Y-97733750D01*
X91154250Y-97575000D01*
X90590000Y-97571928D01*
X90465518Y-97584188D01*
X90345820Y-97620498D01*
X90235506Y-97679463D01*
X90138815Y-97758815D01*
X90059463Y-97855506D01*
X90000498Y-97965820D01*
X89978487Y-98038380D01*
X89846632Y-97906525D01*
X89603411Y-97744010D01*
X89333158Y-97632068D01*
X89046260Y-97575000D01*
X88753740Y-97575000D01*
X88466842Y-97632068D01*
X88196589Y-97744010D01*
X87953368Y-97906525D01*
X87746525Y-98113368D01*
X87630000Y-98287760D01*
X87513475Y-98113368D01*
X87306632Y-97906525D01*
X87063411Y-97744010D01*
X86793158Y-97632068D01*
X86506260Y-97575000D01*
X86213740Y-97575000D01*
X85926842Y-97632068D01*
X85656589Y-97744010D01*
X85413368Y-97906525D01*
X85206525Y-98113368D01*
X85044010Y-98356589D01*
X84932068Y-98626842D01*
X84875000Y-98913740D01*
X78603132Y-98913740D01*
X78677932Y-98733158D01*
X78735000Y-98446260D01*
X78735000Y-98153740D01*
X78677932Y-97866842D01*
X78565990Y-97596589D01*
X78403475Y-97353368D01*
X78196632Y-97146525D01*
X78124101Y-97098061D01*
X115065000Y-97098061D01*
X115065000Y-97301939D01*
X115104774Y-97501898D01*
X115182795Y-97690256D01*
X115296063Y-97859774D01*
X115440226Y-98003937D01*
X115609744Y-98117205D01*
X115798102Y-98195226D01*
X115998061Y-98235000D01*
X116201939Y-98235000D01*
X116401898Y-98195226D01*
X116590256Y-98117205D01*
X116759774Y-98003937D01*
X116903937Y-97859774D01*
X117017205Y-97690256D01*
X117095226Y-97501898D01*
X117135000Y-97301939D01*
X117135000Y-97098061D01*
X117095226Y-96898102D01*
X117017205Y-96709744D01*
X116903937Y-96540226D01*
X116759774Y-96396063D01*
X116590256Y-96282795D01*
X116401898Y-96204774D01*
X116201939Y-96165000D01*
X115998061Y-96165000D01*
X115798102Y-96204774D01*
X115609744Y-96282795D01*
X115440226Y-96396063D01*
X115296063Y-96540226D01*
X115182795Y-96709744D01*
X115104774Y-96898102D01*
X115065000Y-97098061D01*
X78124101Y-97098061D01*
X78014466Y-97024805D01*
X78131355Y-96955178D01*
X78347588Y-96760269D01*
X78521641Y-96526920D01*
X78646825Y-96264099D01*
X78691476Y-96116890D01*
X78570155Y-95887000D01*
X77377000Y-95887000D01*
X77377000Y-95907000D01*
X77123000Y-95907000D01*
X77123000Y-95887000D01*
X75929845Y-95887000D01*
X75808524Y-96116890D01*
X75853175Y-96264099D01*
X75978359Y-96526920D01*
X76152412Y-96760269D01*
X76368645Y-96955178D01*
X76485534Y-97024805D01*
X76303368Y-97146525D01*
X76096525Y-97353368D01*
X75934010Y-97596589D01*
X75822068Y-97866842D01*
X75765000Y-98153740D01*
X75765000Y-98446260D01*
X75822068Y-98733158D01*
X75934010Y-99003411D01*
X76096525Y-99246632D01*
X76303368Y-99453475D01*
X76477760Y-99570000D01*
X76303368Y-99686525D01*
X76096525Y-99893368D01*
X75934010Y-100136589D01*
X75822068Y-100406842D01*
X75765000Y-100693740D01*
X75765000Y-100986260D01*
X75822068Y-101273158D01*
X75934010Y-101543411D01*
X76096525Y-101786632D01*
X76303368Y-101993475D01*
X76477760Y-102110000D01*
X76303368Y-102226525D01*
X76096525Y-102433368D01*
X75934010Y-102676589D01*
X75822068Y-102946842D01*
X75765000Y-103233740D01*
X75765000Y-103526260D01*
X75822068Y-103813158D01*
X75934010Y-104083411D01*
X76096525Y-104326632D01*
X76303368Y-104533475D01*
X76477760Y-104650000D01*
X76303368Y-104766525D01*
X76096525Y-104973368D01*
X75934010Y-105216589D01*
X75822068Y-105486842D01*
X75765000Y-105773740D01*
X75765000Y-106066260D01*
X75822068Y-106353158D01*
X75934010Y-106623411D01*
X76096525Y-106866632D01*
X76303368Y-107073475D01*
X76477760Y-107190000D01*
X76303368Y-107306525D01*
X76096525Y-107513368D01*
X75934010Y-107756589D01*
X75822068Y-108026842D01*
X75765000Y-108313740D01*
X75765000Y-108606260D01*
X75822068Y-108893158D01*
X75934010Y-109163411D01*
X76096525Y-109406632D01*
X76228380Y-109538487D01*
X76155820Y-109560498D01*
X76045506Y-109619463D01*
X75948815Y-109698815D01*
X75869463Y-109795506D01*
X75810498Y-109905820D01*
X75774188Y-110025518D01*
X75761928Y-110150000D01*
X73660000Y-110150000D01*
X73660000Y-85453740D01*
X75765000Y-85453740D01*
X75765000Y-85746260D01*
X75822068Y-86033158D01*
X75934010Y-86303411D01*
X76096525Y-86546632D01*
X76303368Y-86753475D01*
X76477760Y-86870000D01*
X76303368Y-86986525D01*
X76096525Y-87193368D01*
X75934010Y-87436589D01*
X75822068Y-87706842D01*
X75765000Y-87993740D01*
X75765000Y-88286260D01*
X75822068Y-88573158D01*
X75934010Y-88843411D01*
X76096525Y-89086632D01*
X76303368Y-89293475D01*
X76477760Y-89410000D01*
X76303368Y-89526525D01*
X76096525Y-89733368D01*
X75934010Y-89976589D01*
X75822068Y-90246842D01*
X75765000Y-90533740D01*
X75765000Y-90826260D01*
X75822068Y-91113158D01*
X75934010Y-91383411D01*
X76096525Y-91626632D01*
X76303368Y-91833475D01*
X76477760Y-91950000D01*
X76303368Y-92066525D01*
X76096525Y-92273368D01*
X75934010Y-92516589D01*
X75822068Y-92786842D01*
X75765000Y-93073740D01*
X75765000Y-93366260D01*
X75822068Y-93653158D01*
X75934010Y-93923411D01*
X76096525Y-94166632D01*
X76303368Y-94373475D01*
X76485534Y-94495195D01*
X76368645Y-94564822D01*
X76152412Y-94759731D01*
X75978359Y-94993080D01*
X75853175Y-95255901D01*
X75808524Y-95403110D01*
X75929845Y-95633000D01*
X77123000Y-95633000D01*
X77123000Y-95613000D01*
X77377000Y-95613000D01*
X77377000Y-95633000D01*
X78570155Y-95633000D01*
X78691476Y-95403110D01*
X78646825Y-95255901D01*
X78521641Y-94993080D01*
X78347588Y-94759731D01*
X78131355Y-94564822D01*
X78014466Y-94495195D01*
X78196632Y-94373475D01*
X78403475Y-94166632D01*
X78565990Y-93923411D01*
X78603132Y-93833740D01*
X143295000Y-93833740D01*
X143295000Y-94126260D01*
X143352068Y-94413158D01*
X143464010Y-94683411D01*
X143626525Y-94926632D01*
X143833368Y-95133475D01*
X144007760Y-95250000D01*
X143833368Y-95366525D01*
X143626525Y-95573368D01*
X143464010Y-95816589D01*
X143352068Y-96086842D01*
X143295000Y-96373740D01*
X143295000Y-96666260D01*
X143352068Y-96953158D01*
X143464010Y-97223411D01*
X143626525Y-97466632D01*
X143833368Y-97673475D01*
X144076589Y-97835990D01*
X144346842Y-97947932D01*
X144633740Y-98005000D01*
X144926260Y-98005000D01*
X145213158Y-97947932D01*
X145483411Y-97835990D01*
X145726632Y-97673475D01*
X145933475Y-97466632D01*
X146095990Y-97223411D01*
X146207932Y-96953158D01*
X146265000Y-96666260D01*
X146265000Y-96373740D01*
X146207932Y-96086842D01*
X146095990Y-95816589D01*
X145933475Y-95573368D01*
X145726632Y-95366525D01*
X145552240Y-95250000D01*
X145726632Y-95133475D01*
X145933475Y-94926632D01*
X146095990Y-94683411D01*
X146207932Y-94413158D01*
X146265000Y-94126260D01*
X146265000Y-93833740D01*
X146207932Y-93546842D01*
X146095990Y-93276589D01*
X145933475Y-93033368D01*
X145726632Y-92826525D01*
X145544466Y-92704805D01*
X145661355Y-92635178D01*
X145877588Y-92440269D01*
X146051641Y-92206920D01*
X146176825Y-91944099D01*
X146221476Y-91796890D01*
X146100155Y-91567000D01*
X144907000Y-91567000D01*
X144907000Y-91587000D01*
X144653000Y-91587000D01*
X144653000Y-91567000D01*
X143459845Y-91567000D01*
X143338524Y-91796890D01*
X143383175Y-91944099D01*
X143508359Y-92206920D01*
X143682412Y-92440269D01*
X143898645Y-92635178D01*
X144015534Y-92704805D01*
X143833368Y-92826525D01*
X143626525Y-93033368D01*
X143464010Y-93276589D01*
X143352068Y-93546842D01*
X143295000Y-93833740D01*
X78603132Y-93833740D01*
X78677932Y-93653158D01*
X78735000Y-93366260D01*
X78735000Y-93073740D01*
X78677932Y-92786842D01*
X78565990Y-92516589D01*
X78403475Y-92273368D01*
X78196632Y-92066525D01*
X78022240Y-91950000D01*
X78196632Y-91833475D01*
X78403475Y-91626632D01*
X78565990Y-91383411D01*
X78677932Y-91113158D01*
X78734243Y-90830061D01*
X102343004Y-90830061D01*
X102343004Y-91033939D01*
X102382778Y-91233898D01*
X102460799Y-91422256D01*
X102574067Y-91591774D01*
X102718230Y-91735937D01*
X102887748Y-91849205D01*
X103076106Y-91927226D01*
X103276065Y-91967000D01*
X103479943Y-91967000D01*
X103679902Y-91927226D01*
X103868260Y-91849205D01*
X104037778Y-91735937D01*
X104181941Y-91591774D01*
X104295209Y-91422256D01*
X104373230Y-91233898D01*
X104390303Y-91148061D01*
X104965000Y-91148061D01*
X104965000Y-91351939D01*
X105004774Y-91551898D01*
X105082795Y-91740256D01*
X105196063Y-91909774D01*
X105340226Y-92053937D01*
X105509744Y-92167205D01*
X105698102Y-92245226D01*
X105898061Y-92285000D01*
X106101939Y-92285000D01*
X106301898Y-92245226D01*
X106490256Y-92167205D01*
X106659774Y-92053937D01*
X106803937Y-91909774D01*
X106917205Y-91740256D01*
X106995226Y-91551898D01*
X107035000Y-91351939D01*
X107035000Y-91148061D01*
X106995226Y-90948102D01*
X106917205Y-90759744D01*
X106809173Y-90598061D01*
X127665000Y-90598061D01*
X127665000Y-90801939D01*
X127704774Y-91001898D01*
X127782795Y-91190256D01*
X127896063Y-91359774D01*
X128040226Y-91503937D01*
X128209744Y-91617205D01*
X128398102Y-91695226D01*
X128598061Y-91735000D01*
X128801939Y-91735000D01*
X129001898Y-91695226D01*
X129190256Y-91617205D01*
X129359774Y-91503937D01*
X129503937Y-91359774D01*
X129617205Y-91190256D01*
X129695226Y-91001898D01*
X129735000Y-90801939D01*
X129735000Y-90598061D01*
X129695226Y-90398102D01*
X129617205Y-90209744D01*
X129503937Y-90040226D01*
X129359774Y-89896063D01*
X129190256Y-89782795D01*
X129001898Y-89704774D01*
X128801939Y-89665000D01*
X128598061Y-89665000D01*
X128398102Y-89704774D01*
X128209744Y-89782795D01*
X128040226Y-89896063D01*
X127896063Y-90040226D01*
X127782795Y-90209744D01*
X127704774Y-90398102D01*
X127665000Y-90598061D01*
X106809173Y-90598061D01*
X106803937Y-90590226D01*
X106659774Y-90446063D01*
X106490256Y-90332795D01*
X106301898Y-90254774D01*
X106101939Y-90215000D01*
X105898061Y-90215000D01*
X105698102Y-90254774D01*
X105509744Y-90332795D01*
X105340226Y-90446063D01*
X105196063Y-90590226D01*
X105082795Y-90759744D01*
X105004774Y-90948102D01*
X104965000Y-91148061D01*
X104390303Y-91148061D01*
X104413004Y-91033939D01*
X104413004Y-90830061D01*
X104373230Y-90630102D01*
X104295209Y-90441744D01*
X104181941Y-90272226D01*
X104037778Y-90128063D01*
X103887818Y-90027863D01*
X104051898Y-89995226D01*
X104240256Y-89917205D01*
X104409774Y-89803937D01*
X104553937Y-89659774D01*
X104667205Y-89490256D01*
X104745226Y-89301898D01*
X104785000Y-89101939D01*
X104785000Y-88898061D01*
X104745226Y-88698102D01*
X104667205Y-88509744D01*
X104553937Y-88340226D01*
X104409774Y-88196063D01*
X104240256Y-88082795D01*
X104161083Y-88050000D01*
X143291928Y-88050000D01*
X143291928Y-89750000D01*
X143304188Y-89874482D01*
X143340498Y-89994180D01*
X143399463Y-90104494D01*
X143478815Y-90201185D01*
X143575506Y-90280537D01*
X143685820Y-90339502D01*
X143766466Y-90363966D01*
X143682412Y-90439731D01*
X143508359Y-90673080D01*
X143383175Y-90935901D01*
X143338524Y-91083110D01*
X143459845Y-91313000D01*
X144653000Y-91313000D01*
X144653000Y-91293000D01*
X144907000Y-91293000D01*
X144907000Y-91313000D01*
X146100155Y-91313000D01*
X146221476Y-91083110D01*
X146176825Y-90935901D01*
X146051641Y-90673080D01*
X145877588Y-90439731D01*
X145793534Y-90363966D01*
X145874180Y-90339502D01*
X145984494Y-90280537D01*
X146081185Y-90201185D01*
X146160537Y-90104494D01*
X146219502Y-89994180D01*
X146255812Y-89874482D01*
X146268072Y-89750000D01*
X146268072Y-88050000D01*
X146255812Y-87925518D01*
X146219502Y-87805820D01*
X146160537Y-87695506D01*
X146081185Y-87598815D01*
X145984494Y-87519463D01*
X145874180Y-87460498D01*
X145754482Y-87424188D01*
X145630000Y-87411928D01*
X143930000Y-87411928D01*
X143805518Y-87424188D01*
X143685820Y-87460498D01*
X143575506Y-87519463D01*
X143478815Y-87598815D01*
X143399463Y-87695506D01*
X143340498Y-87805820D01*
X143304188Y-87925518D01*
X143291928Y-88050000D01*
X104161083Y-88050000D01*
X104051898Y-88004774D01*
X103851939Y-87965000D01*
X103648061Y-87965000D01*
X103448102Y-88004774D01*
X103259744Y-88082795D01*
X103090226Y-88196063D01*
X102946063Y-88340226D01*
X102832795Y-88509744D01*
X102754774Y-88698102D01*
X102715000Y-88898061D01*
X102715000Y-89101939D01*
X102754774Y-89301898D01*
X102832795Y-89490256D01*
X102946063Y-89659774D01*
X103090226Y-89803937D01*
X103240186Y-89904137D01*
X103076106Y-89936774D01*
X102887748Y-90014795D01*
X102718230Y-90128063D01*
X102574067Y-90272226D01*
X102460799Y-90441744D01*
X102382778Y-90630102D01*
X102343004Y-90830061D01*
X78734243Y-90830061D01*
X78735000Y-90826260D01*
X78735000Y-90533740D01*
X78677932Y-90246842D01*
X78565990Y-89976589D01*
X78403475Y-89733368D01*
X78196632Y-89526525D01*
X78022240Y-89410000D01*
X78196632Y-89293475D01*
X78403475Y-89086632D01*
X78565990Y-88843411D01*
X78677932Y-88573158D01*
X78735000Y-88286260D01*
X78735000Y-87993740D01*
X78677932Y-87706842D01*
X78565990Y-87436589D01*
X78403475Y-87193368D01*
X78196632Y-86986525D01*
X78022240Y-86870000D01*
X78196632Y-86753475D01*
X78403475Y-86546632D01*
X78565990Y-86303411D01*
X78584774Y-86258061D01*
X80753000Y-86258061D01*
X80753000Y-86461939D01*
X80792774Y-86661898D01*
X80870795Y-86850256D01*
X80984063Y-87019774D01*
X81128226Y-87163937D01*
X81297744Y-87277205D01*
X81486102Y-87355226D01*
X81686061Y-87395000D01*
X81889939Y-87395000D01*
X82089898Y-87355226D01*
X82278256Y-87277205D01*
X82447774Y-87163937D01*
X82591937Y-87019774D01*
X82705205Y-86850256D01*
X82783226Y-86661898D01*
X82823000Y-86461939D01*
X82823000Y-86258061D01*
X82783226Y-86058102D01*
X82705205Y-85869744D01*
X82591937Y-85700226D01*
X82447774Y-85556063D01*
X82278256Y-85442795D01*
X82089898Y-85364774D01*
X81889939Y-85325000D01*
X81686061Y-85325000D01*
X81486102Y-85364774D01*
X81297744Y-85442795D01*
X81128226Y-85556063D01*
X80984063Y-85700226D01*
X80870795Y-85869744D01*
X80792774Y-86058102D01*
X80753000Y-86258061D01*
X78584774Y-86258061D01*
X78677932Y-86033158D01*
X78735000Y-85746260D01*
X78735000Y-85453740D01*
X78677932Y-85166842D01*
X78565990Y-84896589D01*
X78403475Y-84653368D01*
X78196632Y-84446525D01*
X77953411Y-84284010D01*
X77706509Y-84181740D01*
X83859000Y-84181740D01*
X83859000Y-84474260D01*
X83916068Y-84761158D01*
X84028010Y-85031411D01*
X84190525Y-85274632D01*
X84397368Y-85481475D01*
X84571760Y-85598000D01*
X84397368Y-85714525D01*
X84190525Y-85921368D01*
X84028010Y-86164589D01*
X83916068Y-86434842D01*
X83859000Y-86721740D01*
X83859000Y-87014260D01*
X83916068Y-87301158D01*
X84028010Y-87571411D01*
X84190525Y-87814632D01*
X84397368Y-88021475D01*
X84640589Y-88183990D01*
X84910842Y-88295932D01*
X85197740Y-88353000D01*
X85490260Y-88353000D01*
X85777158Y-88295932D01*
X86047411Y-88183990D01*
X86290632Y-88021475D01*
X86497475Y-87814632D01*
X86614000Y-87640240D01*
X86730525Y-87814632D01*
X86937368Y-88021475D01*
X87180589Y-88183990D01*
X87450842Y-88295932D01*
X87737740Y-88353000D01*
X88030260Y-88353000D01*
X88317158Y-88295932D01*
X88587411Y-88183990D01*
X88830632Y-88021475D01*
X89037475Y-87814632D01*
X89154000Y-87640240D01*
X89270525Y-87814632D01*
X89477368Y-88021475D01*
X89720589Y-88183990D01*
X89990842Y-88295932D01*
X90277740Y-88353000D01*
X90570260Y-88353000D01*
X90857158Y-88295932D01*
X91127411Y-88183990D01*
X91370632Y-88021475D01*
X91577475Y-87814632D01*
X91694000Y-87640240D01*
X91810525Y-87814632D01*
X92017368Y-88021475D01*
X92260589Y-88183990D01*
X92530842Y-88295932D01*
X92817740Y-88353000D01*
X93110260Y-88353000D01*
X93397158Y-88295932D01*
X93667411Y-88183990D01*
X93910632Y-88021475D01*
X94117475Y-87814632D01*
X94234000Y-87640240D01*
X94350525Y-87814632D01*
X94557368Y-88021475D01*
X94774039Y-88166250D01*
X94700063Y-88240226D01*
X94586795Y-88409744D01*
X94508774Y-88598102D01*
X94469000Y-88798061D01*
X94469000Y-89001939D01*
X94508774Y-89201898D01*
X94586795Y-89390256D01*
X94700063Y-89559774D01*
X94844226Y-89703937D01*
X95013744Y-89817205D01*
X95202102Y-89895226D01*
X95402061Y-89935000D01*
X95605939Y-89935000D01*
X95805898Y-89895226D01*
X95994256Y-89817205D01*
X96163774Y-89703937D01*
X96307937Y-89559774D01*
X96421205Y-89390256D01*
X96499226Y-89201898D01*
X96539000Y-89001939D01*
X96539000Y-88798061D01*
X96499226Y-88598102D01*
X96421205Y-88409744D01*
X96307937Y-88240226D01*
X96233961Y-88166250D01*
X96450632Y-88021475D01*
X96657475Y-87814632D01*
X96819990Y-87571411D01*
X96931932Y-87301158D01*
X96989000Y-87014260D01*
X96989000Y-86721740D01*
X96931932Y-86434842D01*
X96819990Y-86164589D01*
X96657475Y-85921368D01*
X96525620Y-85789513D01*
X96598180Y-85767502D01*
X96708494Y-85708537D01*
X96805185Y-85629185D01*
X96884537Y-85532494D01*
X96943502Y-85422180D01*
X96979812Y-85302482D01*
X96992072Y-85178000D01*
X96989000Y-84613750D01*
X96830250Y-84455000D01*
X95631000Y-84455000D01*
X95631000Y-84475000D01*
X95377000Y-84475000D01*
X95377000Y-84455000D01*
X95357000Y-84455000D01*
X95357000Y-84201000D01*
X95377000Y-84201000D01*
X95377000Y-83001750D01*
X95631000Y-83001750D01*
X95631000Y-84201000D01*
X96830250Y-84201000D01*
X96989000Y-84042250D01*
X96992072Y-83478000D01*
X96979812Y-83353518D01*
X96943502Y-83233820D01*
X96884537Y-83123506D01*
X96805185Y-83026815D01*
X96708494Y-82947463D01*
X96598180Y-82888498D01*
X96478482Y-82852188D01*
X96354000Y-82839928D01*
X95789750Y-82843000D01*
X95631000Y-83001750D01*
X95377000Y-83001750D01*
X95218250Y-82843000D01*
X94654000Y-82839928D01*
X94529518Y-82852188D01*
X94409820Y-82888498D01*
X94299506Y-82947463D01*
X94202815Y-83026815D01*
X94123463Y-83123506D01*
X94064498Y-83233820D01*
X94042487Y-83306380D01*
X93910632Y-83174525D01*
X93667411Y-83012010D01*
X93397158Y-82900068D01*
X93110260Y-82843000D01*
X92817740Y-82843000D01*
X92530842Y-82900068D01*
X92260589Y-83012010D01*
X92017368Y-83174525D01*
X91810525Y-83381368D01*
X91694000Y-83555760D01*
X91577475Y-83381368D01*
X91370632Y-83174525D01*
X91127411Y-83012010D01*
X90857158Y-82900068D01*
X90570260Y-82843000D01*
X90277740Y-82843000D01*
X89990842Y-82900068D01*
X89720589Y-83012010D01*
X89477368Y-83174525D01*
X89270525Y-83381368D01*
X89154000Y-83555760D01*
X89037475Y-83381368D01*
X88830632Y-83174525D01*
X88587411Y-83012010D01*
X88317158Y-82900068D01*
X88030260Y-82843000D01*
X87737740Y-82843000D01*
X87450842Y-82900068D01*
X87180589Y-83012010D01*
X86937368Y-83174525D01*
X86730525Y-83381368D01*
X86614000Y-83555760D01*
X86497475Y-83381368D01*
X86290632Y-83174525D01*
X86047411Y-83012010D01*
X85777158Y-82900068D01*
X85490260Y-82843000D01*
X85197740Y-82843000D01*
X84910842Y-82900068D01*
X84640589Y-83012010D01*
X84397368Y-83174525D01*
X84190525Y-83381368D01*
X84028010Y-83624589D01*
X83916068Y-83894842D01*
X83859000Y-84181740D01*
X77706509Y-84181740D01*
X77683158Y-84172068D01*
X77396260Y-84115000D01*
X77103740Y-84115000D01*
X76816842Y-84172068D01*
X76546589Y-84284010D01*
X76303368Y-84446525D01*
X76096525Y-84653368D01*
X75934010Y-84896589D01*
X75822068Y-85166842D01*
X75765000Y-85453740D01*
X73660000Y-85453740D01*
X73660000Y-81432061D01*
X100819000Y-81432061D01*
X100819000Y-81635939D01*
X100858774Y-81835898D01*
X100936795Y-82024256D01*
X101050063Y-82193774D01*
X101194226Y-82337937D01*
X101363744Y-82451205D01*
X101552102Y-82529226D01*
X101752061Y-82569000D01*
X101955939Y-82569000D01*
X102155898Y-82529226D01*
X102344256Y-82451205D01*
X102513774Y-82337937D01*
X102657937Y-82193774D01*
X102771205Y-82024256D01*
X102849226Y-81835898D01*
X102889000Y-81635939D01*
X102889000Y-81432061D01*
X102849226Y-81232102D01*
X102771205Y-81043744D01*
X102657937Y-80874226D01*
X102513774Y-80730063D01*
X102344256Y-80616795D01*
X102155898Y-80538774D01*
X101955939Y-80499000D01*
X101752061Y-80499000D01*
X101552102Y-80538774D01*
X101363744Y-80616795D01*
X101194226Y-80730063D01*
X101050063Y-80874226D01*
X100936795Y-81043744D01*
X100858774Y-81232102D01*
X100819000Y-81432061D01*
X73660000Y-81432061D01*
X73660000Y-77220777D01*
X74665000Y-77220777D01*
X74665000Y-77779223D01*
X74773948Y-78326939D01*
X74987656Y-78842876D01*
X75297912Y-79307207D01*
X75692793Y-79702088D01*
X76157124Y-80012344D01*
X76673061Y-80226052D01*
X77220777Y-80335000D01*
X77779223Y-80335000D01*
X78326939Y-80226052D01*
X78481427Y-80162061D01*
X81007000Y-80162061D01*
X81007000Y-80365939D01*
X81046774Y-80565898D01*
X81124795Y-80754256D01*
X81238063Y-80923774D01*
X81382226Y-81067937D01*
X81551744Y-81181205D01*
X81740102Y-81259226D01*
X81940061Y-81299000D01*
X82143939Y-81299000D01*
X82343898Y-81259226D01*
X82532256Y-81181205D01*
X82701774Y-81067937D01*
X82845937Y-80923774D01*
X82959205Y-80754256D01*
X83037226Y-80565898D01*
X83077000Y-80365939D01*
X83077000Y-80162061D01*
X83037226Y-79962102D01*
X82959205Y-79773744D01*
X82845937Y-79604226D01*
X82701774Y-79460063D01*
X82532256Y-79346795D01*
X82343898Y-79268774D01*
X82143939Y-79229000D01*
X81940061Y-79229000D01*
X81740102Y-79268774D01*
X81551744Y-79346795D01*
X81382226Y-79460063D01*
X81238063Y-79604226D01*
X81124795Y-79773744D01*
X81046774Y-79962102D01*
X81007000Y-80162061D01*
X78481427Y-80162061D01*
X78842876Y-80012344D01*
X79307207Y-79702088D01*
X79702088Y-79307207D01*
X80012344Y-78842876D01*
X80074756Y-78692200D01*
X104210030Y-78692200D01*
X104231462Y-78909798D01*
X104294932Y-79119034D01*
X104398004Y-79311866D01*
X104536714Y-79480886D01*
X104705734Y-79619596D01*
X104898566Y-79722668D01*
X105016977Y-79758587D01*
X104982795Y-79809744D01*
X104904774Y-79998102D01*
X104865000Y-80198061D01*
X104865000Y-80401939D01*
X104904774Y-80601898D01*
X104982795Y-80790256D01*
X105096063Y-80959774D01*
X105240226Y-81103937D01*
X105409744Y-81217205D01*
X105598102Y-81295226D01*
X105798061Y-81335000D01*
X106001939Y-81335000D01*
X106187645Y-81298061D01*
X106765000Y-81298061D01*
X106765000Y-81501939D01*
X106804774Y-81701898D01*
X106882795Y-81890256D01*
X106996063Y-82059774D01*
X107140226Y-82203937D01*
X107309744Y-82317205D01*
X107498102Y-82395226D01*
X107698061Y-82435000D01*
X107901939Y-82435000D01*
X108101898Y-82395226D01*
X108290256Y-82317205D01*
X108459774Y-82203937D01*
X108603937Y-82059774D01*
X108717205Y-81890256D01*
X108795226Y-81701898D01*
X108835000Y-81501939D01*
X108835000Y-81298061D01*
X108795226Y-81098102D01*
X108717205Y-80909744D01*
X108603937Y-80740226D01*
X108459774Y-80596063D01*
X108290256Y-80482795D01*
X108101898Y-80404774D01*
X107901939Y-80365000D01*
X107698061Y-80365000D01*
X107498102Y-80404774D01*
X107309744Y-80482795D01*
X107140226Y-80596063D01*
X106996063Y-80740226D01*
X106882795Y-80909744D01*
X106804774Y-81098102D01*
X106765000Y-81298061D01*
X106187645Y-81298061D01*
X106201898Y-81295226D01*
X106390256Y-81217205D01*
X106559774Y-81103937D01*
X106703937Y-80959774D01*
X106817205Y-80790256D01*
X106895226Y-80601898D01*
X106935000Y-80401939D01*
X106935000Y-80198061D01*
X106895226Y-79998102D01*
X106817205Y-79809744D01*
X106703937Y-79640226D01*
X106559774Y-79496063D01*
X106457638Y-79427818D01*
X106552796Y-79311866D01*
X106655868Y-79119034D01*
X106719338Y-78909798D01*
X106740770Y-78692200D01*
X106719338Y-78474602D01*
X106655868Y-78265366D01*
X106552796Y-78072534D01*
X106414086Y-77903514D01*
X106245066Y-77764804D01*
X106052234Y-77661732D01*
X105921455Y-77622061D01*
X108693000Y-77622061D01*
X108693000Y-77825939D01*
X108732774Y-78025898D01*
X108810795Y-78214256D01*
X108924063Y-78383774D01*
X109068226Y-78527937D01*
X109216454Y-78626979D01*
X109210030Y-78692200D01*
X109231462Y-78909798D01*
X109294932Y-79119034D01*
X109398004Y-79311866D01*
X109536714Y-79480886D01*
X109705734Y-79619596D01*
X109898566Y-79722668D01*
X110107802Y-79786138D01*
X110270879Y-79802200D01*
X110679921Y-79802200D01*
X110842998Y-79786138D01*
X111052234Y-79722668D01*
X111245066Y-79619596D01*
X111414086Y-79480886D01*
X111552796Y-79311866D01*
X111655868Y-79119034D01*
X111719338Y-78909798D01*
X111740770Y-78692200D01*
X111719338Y-78474602D01*
X111655868Y-78265366D01*
X111552796Y-78072534D01*
X111414086Y-77903514D01*
X111245066Y-77764804D01*
X111052234Y-77661732D01*
X110921455Y-77622061D01*
X113773000Y-77622061D01*
X113773000Y-77825939D01*
X113812774Y-78025898D01*
X113890795Y-78214256D01*
X114004063Y-78383774D01*
X114148226Y-78527937D01*
X114317744Y-78641205D01*
X114506102Y-78719226D01*
X114706061Y-78759000D01*
X114909939Y-78759000D01*
X115109898Y-78719226D01*
X115298256Y-78641205D01*
X115467774Y-78527937D01*
X115611937Y-78383774D01*
X115725205Y-78214256D01*
X115803226Y-78025898D01*
X115843000Y-77825939D01*
X115843000Y-77622061D01*
X115803226Y-77422102D01*
X115725205Y-77233744D01*
X115611937Y-77064226D01*
X115467774Y-76920063D01*
X115298256Y-76806795D01*
X115109898Y-76728774D01*
X114909939Y-76689000D01*
X114706061Y-76689000D01*
X114506102Y-76728774D01*
X114317744Y-76806795D01*
X114148226Y-76920063D01*
X114004063Y-77064226D01*
X113890795Y-77233744D01*
X113812774Y-77422102D01*
X113773000Y-77622061D01*
X110921455Y-77622061D01*
X110842998Y-77598262D01*
X110756573Y-77589750D01*
X110723226Y-77422102D01*
X110645205Y-77233744D01*
X110531937Y-77064226D01*
X110387774Y-76920063D01*
X110218256Y-76806795D01*
X110029898Y-76728774D01*
X109829939Y-76689000D01*
X109626061Y-76689000D01*
X109426102Y-76728774D01*
X109237744Y-76806795D01*
X109068226Y-76920063D01*
X108924063Y-77064226D01*
X108810795Y-77233744D01*
X108732774Y-77422102D01*
X108693000Y-77622061D01*
X105921455Y-77622061D01*
X105842998Y-77598262D01*
X105679921Y-77582200D01*
X105270879Y-77582200D01*
X105107802Y-77598262D01*
X104898566Y-77661732D01*
X104705734Y-77764804D01*
X104536714Y-77903514D01*
X104398004Y-78072534D01*
X104294932Y-78265366D01*
X104231462Y-78474602D01*
X104210030Y-78692200D01*
X80074756Y-78692200D01*
X80226052Y-78326939D01*
X80335000Y-77779223D01*
X80335000Y-77220777D01*
X80226052Y-76673061D01*
X80012344Y-76157124D01*
X79702088Y-75692793D01*
X79618444Y-75609149D01*
X103395400Y-75609149D01*
X103395400Y-76375250D01*
X103411027Y-76533916D01*
X103472783Y-76737497D01*
X103573068Y-76925119D01*
X103708030Y-77089570D01*
X103872481Y-77224532D01*
X104060102Y-77324817D01*
X104263683Y-77386573D01*
X104475400Y-77407425D01*
X104687116Y-77386573D01*
X104890697Y-77324817D01*
X105078319Y-77224532D01*
X105242770Y-77089570D01*
X105377732Y-76925119D01*
X105478017Y-76737498D01*
X105539773Y-76533917D01*
X105555400Y-76375251D01*
X105555400Y-75609150D01*
X105555400Y-75609149D01*
X110395400Y-75609149D01*
X110395400Y-76375250D01*
X110411027Y-76533916D01*
X110472783Y-76737497D01*
X110573068Y-76925119D01*
X110708030Y-77089570D01*
X110872481Y-77224532D01*
X111060102Y-77324817D01*
X111263683Y-77386573D01*
X111475400Y-77407425D01*
X111687116Y-77386573D01*
X111890697Y-77324817D01*
X112078319Y-77224532D01*
X112242770Y-77089570D01*
X112377732Y-76925119D01*
X112478017Y-76737498D01*
X112539773Y-76533917D01*
X112555400Y-76375251D01*
X112555400Y-75609150D01*
X112539773Y-75450484D01*
X112478017Y-75246902D01*
X112377732Y-75059281D01*
X112242770Y-74894830D01*
X112078319Y-74759868D01*
X111890698Y-74659583D01*
X111687117Y-74597827D01*
X111475400Y-74576975D01*
X111263684Y-74597827D01*
X111060103Y-74659583D01*
X110872482Y-74759868D01*
X110708031Y-74894830D01*
X110573069Y-75059281D01*
X110472784Y-75246902D01*
X110411027Y-75450483D01*
X110395400Y-75609149D01*
X105555400Y-75609149D01*
X105539773Y-75450484D01*
X105478017Y-75246902D01*
X105377732Y-75059281D01*
X105242770Y-74894830D01*
X105078319Y-74759868D01*
X104890698Y-74659583D01*
X104687117Y-74597827D01*
X104475400Y-74576975D01*
X104263684Y-74597827D01*
X104060103Y-74659583D01*
X103872482Y-74759868D01*
X103708031Y-74894830D01*
X103573069Y-75059281D01*
X103472784Y-75246902D01*
X103411027Y-75450483D01*
X103395400Y-75609149D01*
X79618444Y-75609149D01*
X79307207Y-75297912D01*
X78842876Y-74987656D01*
X78326939Y-74773948D01*
X77779223Y-74665000D01*
X77220777Y-74665000D01*
X76673061Y-74773948D01*
X76157124Y-74987656D01*
X75692793Y-75297912D01*
X75297912Y-75692793D01*
X74987656Y-76157124D01*
X74773948Y-76673061D01*
X74665000Y-77220777D01*
X73660000Y-77220777D01*
X73660000Y-75682279D01*
X73693386Y-75341782D01*
X73782898Y-75045303D01*
X73928291Y-74771860D01*
X74124031Y-74531859D01*
X74362653Y-74334453D01*
X74635073Y-74187157D01*
X74930926Y-74095575D01*
X75269400Y-74060000D01*
X116340500Y-74060000D01*
X116322301Y-80271782D01*
G37*
G04 #@! TD.AperFunction*
M02*
