M48
; DRILL file {KiCad 5.1.10-88a1d61d58~90~ubuntu20.04.1} date Sat Nov 20 18:16:39 2021
; FORMAT={-:-/ absolute / metric / decimal}
; #@! TF.CreationDate,2021-11-20T18:16:39-05:00
; #@! TF.GenerationSoftware,Kicad,Pcbnew,5.1.10-88a1d61d58~90~ubuntu20.04.1
; #@! TF.FileFunction,Plated,1,4,PTH
FMAT,2
METRIC
T1C0.400
T2C0.500
T3C0.550
T4C0.800
T5C1.000
T6C1.700
T7C2.200
%
G90
G05
T1
X75.85Y-77.5
X75.85Y-135.0
X76.333Y-76.333
X76.333Y-78.667
X76.333Y-133.833
X76.333Y-136.167
X77.5Y-75.85
X77.5Y-79.15
X77.5Y-133.35
X77.5Y-136.65
X78.667Y-76.333
X78.667Y-78.667
X78.667Y-133.833
X78.667Y-136.167
X79.15Y-77.5
X79.15Y-135.0
X81.788Y-86.36
X82.042Y-80.264
X83.0Y-120.1
X83.9Y-119.6
X90.4Y-103.6
X93.5Y-113.0
X94.7Y-119.7
X95.504Y-88.9
X96.3Y-124.4
X97.4Y-103.3
X97.9Y-113.0
X100.7Y-110.9
X101.1Y-112.7
X101.1Y-115.2
X101.6Y-117.8
X101.75Y-116.0
X101.854Y-81.534
X102.052Y-110.952
X103.3Y-112.2
X103.378Y-90.932
X103.6Y-114.3
X103.7Y-98.8
X103.75Y-89.0
X104.0Y-81.5
X104.367Y-102.433
X105.156Y-98.552
X105.805Y-109.055
X105.9Y-80.3
X106.0Y-91.25
X106.0Y-105.25
X106.1Y-106.4
X106.1Y-114.9
X107.0Y-124.5
X107.2Y-103.5
X107.7Y-108.5
X107.8Y-81.4
X108.458Y-105.918
X108.5Y-119.4
X109.728Y-77.724
X110.0Y-108.6
X110.0Y-118.9
X110.1Y-115.7
X111.114Y-112.682
X111.252Y-108.712
X111.3Y-104.0
X111.3Y-117.0
X112.3Y-101.3
X114.0Y-118.7
X114.3Y-109.982
X114.808Y-77.724
X114.822Y-107.274
X115.316Y-80.518
X115.7Y-86.5
X116.0Y-101.6
X116.0Y-104.25
X116.1Y-97.2
X117.856Y-80.518
X117.856Y-112.776
X119.5Y-84.7
X119.6Y-119.0
X120.396Y-83.82
X121.412Y-102.87
X121.7Y-79.4
X123.0Y-119.0
X123.952Y-83.82
X124.1Y-98.7
X125.0Y-85.1
X125.984Y-110.49
X128.1Y-85.2
X128.27Y-79.248
X128.7Y-90.7
X130.7Y-116.9
X132.1Y-124.3
X132.7Y-132.5
X132.842Y-121.158
X132.9Y-100.8
X133.604Y-106.68
X133.858Y-114.046
X134.0Y-109.1
X134.2Y-125.4
X134.3Y-117.3
X135.4Y-100.4
X143.35Y-77.5
X143.35Y-135.0
X143.833Y-76.333
X143.833Y-78.667
X143.833Y-133.833
X143.833Y-136.167
X144.2Y-100.5
X144.8Y-108.1
X145.0Y-75.85
X145.0Y-79.15
X145.0Y-133.35
X145.0Y-136.65
X145.1Y-116.6
X145.1Y-124.3
X146.0Y-109.6
X146.1Y-125.1
X146.167Y-76.333
X146.167Y-78.667
X146.167Y-133.833
X146.167Y-136.167
X146.2Y-102.5
X146.3Y-117.6
X146.65Y-77.5
X146.65Y-135.0
T4
X95.885Y-132.969
X97.885Y-132.969
X99.885Y-132.969
X106.553Y-132.969
X108.553Y-132.969
X110.553Y-132.969
X117.018Y-132.969
X119.018Y-132.969
X121.018Y-132.969
T5
X77.25Y-85.6
X77.25Y-88.14
X77.25Y-90.68
X77.25Y-93.22
X77.25Y-95.76
X77.25Y-98.3
X77.25Y-100.84
X77.25Y-103.38
X77.25Y-105.92
X77.25Y-108.46
X77.25Y-111.0
X77.25Y-116.13
X77.25Y-118.67
X77.25Y-121.21
X77.25Y-123.75
X85.344Y-84.328
X85.344Y-86.868
X86.36Y-99.06
X87.884Y-84.328
X87.884Y-86.868
X88.9Y-99.06
X90.424Y-84.328
X90.424Y-86.868
X91.44Y-99.06
X92.964Y-84.328
X92.964Y-86.868
X95.504Y-84.328
X95.504Y-86.868
X144.78Y-88.9
X144.78Y-91.44
X144.78Y-93.98
X144.78Y-96.52
T6
X132.842Y-78.994
X136.802Y-78.994
T7
X77.5Y-77.5
X77.5Y-135.0
X145.0Y-77.5
X145.0Y-135.0
T2
X104.475Y-76.317G85X104.475Y-75.667
G05
X111.475Y-76.317G85X111.475Y-75.667
G05
T3
X105.625Y-78.692G85X105.325Y-78.692
G05
X110.625Y-78.692G85X110.325Y-78.692
G05
T0
M30
