G04 #@! TF.GenerationSoftware,KiCad,Pcbnew,5.1.10-88a1d61d58~90~ubuntu20.04.1*
G04 #@! TF.CreationDate,2021-11-20T18:16:27-05:00*
G04 #@! TF.ProjectId,WiFiSTMBoard,57694669-5354-44d4-926f-6172642e6b69,rev?*
G04 #@! TF.SameCoordinates,Original*
G04 #@! TF.FileFunction,Copper,L1,Top*
G04 #@! TF.FilePolarity,Positive*
%FSLAX46Y46*%
G04 Gerber Fmt 4.6, Leading zero omitted, Abs format (unit mm)*
G04 Created by KiCad (PCBNEW 5.1.10-88a1d61d58~90~ubuntu20.04.1) date 2021-11-20 18:16:27*
%MOMM*%
%LPD*%
G01*
G04 APERTURE LIST*
G04 #@! TA.AperFunction,ComponentPad*
%ADD10O,1.200000X1.800000*%
G04 #@! TD*
G04 #@! TA.AperFunction,ComponentPad*
%ADD11O,1.700000X1.700000*%
G04 #@! TD*
G04 #@! TA.AperFunction,ComponentPad*
%ADD12R,1.700000X1.700000*%
G04 #@! TD*
G04 #@! TA.AperFunction,SMDPad,CuDef*
%ADD13R,1.400000X1.200000*%
G04 #@! TD*
G04 #@! TA.AperFunction,SMDPad,CuDef*
%ADD14R,0.650000X1.060000*%
G04 #@! TD*
G04 #@! TA.AperFunction,SMDPad,CuDef*
%ADD15R,1.500000X2.000000*%
G04 #@! TD*
G04 #@! TA.AperFunction,SMDPad,CuDef*
%ADD16R,3.800000X2.000000*%
G04 #@! TD*
G04 #@! TA.AperFunction,SMDPad,CuDef*
%ADD17C,2.000000*%
G04 #@! TD*
G04 #@! TA.AperFunction,SMDPad,CuDef*
%ADD18R,1.550000X1.300000*%
G04 #@! TD*
G04 #@! TA.AperFunction,SMDPad,CuDef*
%ADD19R,0.800000X0.900000*%
G04 #@! TD*
G04 #@! TA.AperFunction,ComponentPad*
%ADD20O,0.890000X1.550000*%
G04 #@! TD*
G04 #@! TA.AperFunction,SMDPad,CuDef*
%ADD21R,1.200000X1.550000*%
G04 #@! TD*
G04 #@! TA.AperFunction,SMDPad,CuDef*
%ADD22R,1.500000X1.550000*%
G04 #@! TD*
G04 #@! TA.AperFunction,ComponentPad*
%ADD23O,1.250000X0.950000*%
G04 #@! TD*
G04 #@! TA.AperFunction,SMDPad,CuDef*
%ADD24R,0.400000X1.350000*%
G04 #@! TD*
G04 #@! TA.AperFunction,ComponentPad*
%ADD25O,3.160000X4.100000*%
G04 #@! TD*
G04 #@! TA.AperFunction,ComponentPad*
%ADD26C,0.700000*%
G04 #@! TD*
G04 #@! TA.AperFunction,ComponentPad*
%ADD27C,4.400000*%
G04 #@! TD*
G04 #@! TA.AperFunction,SMDPad,CuDef*
%ADD28R,1.200000X0.900000*%
G04 #@! TD*
G04 #@! TA.AperFunction,ViaPad*
%ADD29C,0.800000*%
G04 #@! TD*
G04 #@! TA.AperFunction,Conductor*
%ADD30C,0.500000*%
G04 #@! TD*
G04 #@! TA.AperFunction,Conductor*
%ADD31C,0.700000*%
G04 #@! TD*
G04 #@! TA.AperFunction,Conductor*
%ADD32C,0.250000*%
G04 #@! TD*
G04 #@! TA.AperFunction,Conductor*
%ADD33C,0.300000*%
G04 #@! TD*
G04 APERTURE END LIST*
D10*
X121017800Y-132969000D03*
X119017800Y-132969000D03*
G04 #@! TA.AperFunction,ComponentPad*
G36*
G01*
X116417800Y-133619001D02*
X116417800Y-132318999D01*
G75*
G02*
X116667799Y-132069000I249999J0D01*
G01*
X117367801Y-132069000D01*
G75*
G02*
X117617800Y-132318999I0J-249999D01*
G01*
X117617800Y-133619001D01*
G75*
G02*
X117367801Y-133869000I-249999J0D01*
G01*
X116667799Y-133869000D01*
G75*
G02*
X116417800Y-133619001I0J249999D01*
G01*
G37*
G04 #@! TD.AperFunction*
X110553000Y-132969000D03*
X108553000Y-132969000D03*
G04 #@! TA.AperFunction,ComponentPad*
G36*
G01*
X105953000Y-133619001D02*
X105953000Y-132318999D01*
G75*
G02*
X106202999Y-132069000I249999J0D01*
G01*
X106903001Y-132069000D01*
G75*
G02*
X107153000Y-132318999I0J-249999D01*
G01*
X107153000Y-133619001D01*
G75*
G02*
X106903001Y-133869000I-249999J0D01*
G01*
X106202999Y-133869000D01*
G75*
G02*
X105953000Y-133619001I0J249999D01*
G01*
G37*
G04 #@! TD.AperFunction*
X99885000Y-132969000D03*
X97885000Y-132969000D03*
G04 #@! TA.AperFunction,ComponentPad*
G36*
G01*
X95285000Y-133619001D02*
X95285000Y-132318999D01*
G75*
G02*
X95534999Y-132069000I249999J0D01*
G01*
X96235001Y-132069000D01*
G75*
G02*
X96485000Y-132318999I0J-249999D01*
G01*
X96485000Y-133619001D01*
G75*
G02*
X96235001Y-133869000I-249999J0D01*
G01*
X95534999Y-133869000D01*
G75*
G02*
X95285000Y-133619001I0J249999D01*
G01*
G37*
G04 #@! TD.AperFunction*
D11*
X77250000Y-116130000D03*
X77250000Y-118670000D03*
X77250000Y-121210000D03*
D12*
X77250000Y-123750000D03*
D11*
X144780000Y-96520000D03*
X144780000Y-93980000D03*
X144780000Y-91440000D03*
D12*
X144780000Y-88900000D03*
G04 #@! TA.AperFunction,SMDPad,CuDef*
G36*
G01*
X105059600Y-109173600D02*
X103734600Y-109173600D01*
G75*
G02*
X103659600Y-109098600I0J75000D01*
G01*
X103659600Y-108948600D01*
G75*
G02*
X103734600Y-108873600I75000J0D01*
G01*
X105059600Y-108873600D01*
G75*
G02*
X105134600Y-108948600I0J-75000D01*
G01*
X105134600Y-109098600D01*
G75*
G02*
X105059600Y-109173600I-75000J0D01*
G01*
G37*
G04 #@! TD.AperFunction*
G04 #@! TA.AperFunction,SMDPad,CuDef*
G36*
G01*
X105059600Y-108673600D02*
X103734600Y-108673600D01*
G75*
G02*
X103659600Y-108598600I0J75000D01*
G01*
X103659600Y-108448600D01*
G75*
G02*
X103734600Y-108373600I75000J0D01*
G01*
X105059600Y-108373600D01*
G75*
G02*
X105134600Y-108448600I0J-75000D01*
G01*
X105134600Y-108598600D01*
G75*
G02*
X105059600Y-108673600I-75000J0D01*
G01*
G37*
G04 #@! TD.AperFunction*
G04 #@! TA.AperFunction,SMDPad,CuDef*
G36*
G01*
X105059600Y-108173600D02*
X103734600Y-108173600D01*
G75*
G02*
X103659600Y-108098600I0J75000D01*
G01*
X103659600Y-107948600D01*
G75*
G02*
X103734600Y-107873600I75000J0D01*
G01*
X105059600Y-107873600D01*
G75*
G02*
X105134600Y-107948600I0J-75000D01*
G01*
X105134600Y-108098600D01*
G75*
G02*
X105059600Y-108173600I-75000J0D01*
G01*
G37*
G04 #@! TD.AperFunction*
G04 #@! TA.AperFunction,SMDPad,CuDef*
G36*
G01*
X105059600Y-107673600D02*
X103734600Y-107673600D01*
G75*
G02*
X103659600Y-107598600I0J75000D01*
G01*
X103659600Y-107448600D01*
G75*
G02*
X103734600Y-107373600I75000J0D01*
G01*
X105059600Y-107373600D01*
G75*
G02*
X105134600Y-107448600I0J-75000D01*
G01*
X105134600Y-107598600D01*
G75*
G02*
X105059600Y-107673600I-75000J0D01*
G01*
G37*
G04 #@! TD.AperFunction*
G04 #@! TA.AperFunction,SMDPad,CuDef*
G36*
G01*
X105059600Y-107173600D02*
X103734600Y-107173600D01*
G75*
G02*
X103659600Y-107098600I0J75000D01*
G01*
X103659600Y-106948600D01*
G75*
G02*
X103734600Y-106873600I75000J0D01*
G01*
X105059600Y-106873600D01*
G75*
G02*
X105134600Y-106948600I0J-75000D01*
G01*
X105134600Y-107098600D01*
G75*
G02*
X105059600Y-107173600I-75000J0D01*
G01*
G37*
G04 #@! TD.AperFunction*
G04 #@! TA.AperFunction,SMDPad,CuDef*
G36*
G01*
X105059600Y-106673600D02*
X103734600Y-106673600D01*
G75*
G02*
X103659600Y-106598600I0J75000D01*
G01*
X103659600Y-106448600D01*
G75*
G02*
X103734600Y-106373600I75000J0D01*
G01*
X105059600Y-106373600D01*
G75*
G02*
X105134600Y-106448600I0J-75000D01*
G01*
X105134600Y-106598600D01*
G75*
G02*
X105059600Y-106673600I-75000J0D01*
G01*
G37*
G04 #@! TD.AperFunction*
G04 #@! TA.AperFunction,SMDPad,CuDef*
G36*
G01*
X105059600Y-106173600D02*
X103734600Y-106173600D01*
G75*
G02*
X103659600Y-106098600I0J75000D01*
G01*
X103659600Y-105948600D01*
G75*
G02*
X103734600Y-105873600I75000J0D01*
G01*
X105059600Y-105873600D01*
G75*
G02*
X105134600Y-105948600I0J-75000D01*
G01*
X105134600Y-106098600D01*
G75*
G02*
X105059600Y-106173600I-75000J0D01*
G01*
G37*
G04 #@! TD.AperFunction*
G04 #@! TA.AperFunction,SMDPad,CuDef*
G36*
G01*
X105059600Y-105673600D02*
X103734600Y-105673600D01*
G75*
G02*
X103659600Y-105598600I0J75000D01*
G01*
X103659600Y-105448600D01*
G75*
G02*
X103734600Y-105373600I75000J0D01*
G01*
X105059600Y-105373600D01*
G75*
G02*
X105134600Y-105448600I0J-75000D01*
G01*
X105134600Y-105598600D01*
G75*
G02*
X105059600Y-105673600I-75000J0D01*
G01*
G37*
G04 #@! TD.AperFunction*
G04 #@! TA.AperFunction,SMDPad,CuDef*
G36*
G01*
X105059600Y-105173600D02*
X103734600Y-105173600D01*
G75*
G02*
X103659600Y-105098600I0J75000D01*
G01*
X103659600Y-104948600D01*
G75*
G02*
X103734600Y-104873600I75000J0D01*
G01*
X105059600Y-104873600D01*
G75*
G02*
X105134600Y-104948600I0J-75000D01*
G01*
X105134600Y-105098600D01*
G75*
G02*
X105059600Y-105173600I-75000J0D01*
G01*
G37*
G04 #@! TD.AperFunction*
G04 #@! TA.AperFunction,SMDPad,CuDef*
G36*
G01*
X105059600Y-104673600D02*
X103734600Y-104673600D01*
G75*
G02*
X103659600Y-104598600I0J75000D01*
G01*
X103659600Y-104448600D01*
G75*
G02*
X103734600Y-104373600I75000J0D01*
G01*
X105059600Y-104373600D01*
G75*
G02*
X105134600Y-104448600I0J-75000D01*
G01*
X105134600Y-104598600D01*
G75*
G02*
X105059600Y-104673600I-75000J0D01*
G01*
G37*
G04 #@! TD.AperFunction*
G04 #@! TA.AperFunction,SMDPad,CuDef*
G36*
G01*
X105059600Y-104173600D02*
X103734600Y-104173600D01*
G75*
G02*
X103659600Y-104098600I0J75000D01*
G01*
X103659600Y-103948600D01*
G75*
G02*
X103734600Y-103873600I75000J0D01*
G01*
X105059600Y-103873600D01*
G75*
G02*
X105134600Y-103948600I0J-75000D01*
G01*
X105134600Y-104098600D01*
G75*
G02*
X105059600Y-104173600I-75000J0D01*
G01*
G37*
G04 #@! TD.AperFunction*
G04 #@! TA.AperFunction,SMDPad,CuDef*
G36*
G01*
X105059600Y-103673600D02*
X103734600Y-103673600D01*
G75*
G02*
X103659600Y-103598600I0J75000D01*
G01*
X103659600Y-103448600D01*
G75*
G02*
X103734600Y-103373600I75000J0D01*
G01*
X105059600Y-103373600D01*
G75*
G02*
X105134600Y-103448600I0J-75000D01*
G01*
X105134600Y-103598600D01*
G75*
G02*
X105059600Y-103673600I-75000J0D01*
G01*
G37*
G04 #@! TD.AperFunction*
G04 #@! TA.AperFunction,SMDPad,CuDef*
G36*
G01*
X105884600Y-102848600D02*
X105734600Y-102848600D01*
G75*
G02*
X105659600Y-102773600I0J75000D01*
G01*
X105659600Y-101448600D01*
G75*
G02*
X105734600Y-101373600I75000J0D01*
G01*
X105884600Y-101373600D01*
G75*
G02*
X105959600Y-101448600I0J-75000D01*
G01*
X105959600Y-102773600D01*
G75*
G02*
X105884600Y-102848600I-75000J0D01*
G01*
G37*
G04 #@! TD.AperFunction*
G04 #@! TA.AperFunction,SMDPad,CuDef*
G36*
G01*
X106384600Y-102848600D02*
X106234600Y-102848600D01*
G75*
G02*
X106159600Y-102773600I0J75000D01*
G01*
X106159600Y-101448600D01*
G75*
G02*
X106234600Y-101373600I75000J0D01*
G01*
X106384600Y-101373600D01*
G75*
G02*
X106459600Y-101448600I0J-75000D01*
G01*
X106459600Y-102773600D01*
G75*
G02*
X106384600Y-102848600I-75000J0D01*
G01*
G37*
G04 #@! TD.AperFunction*
G04 #@! TA.AperFunction,SMDPad,CuDef*
G36*
G01*
X106884600Y-102848600D02*
X106734600Y-102848600D01*
G75*
G02*
X106659600Y-102773600I0J75000D01*
G01*
X106659600Y-101448600D01*
G75*
G02*
X106734600Y-101373600I75000J0D01*
G01*
X106884600Y-101373600D01*
G75*
G02*
X106959600Y-101448600I0J-75000D01*
G01*
X106959600Y-102773600D01*
G75*
G02*
X106884600Y-102848600I-75000J0D01*
G01*
G37*
G04 #@! TD.AperFunction*
G04 #@! TA.AperFunction,SMDPad,CuDef*
G36*
G01*
X107384600Y-102848600D02*
X107234600Y-102848600D01*
G75*
G02*
X107159600Y-102773600I0J75000D01*
G01*
X107159600Y-101448600D01*
G75*
G02*
X107234600Y-101373600I75000J0D01*
G01*
X107384600Y-101373600D01*
G75*
G02*
X107459600Y-101448600I0J-75000D01*
G01*
X107459600Y-102773600D01*
G75*
G02*
X107384600Y-102848600I-75000J0D01*
G01*
G37*
G04 #@! TD.AperFunction*
G04 #@! TA.AperFunction,SMDPad,CuDef*
G36*
G01*
X107884600Y-102848600D02*
X107734600Y-102848600D01*
G75*
G02*
X107659600Y-102773600I0J75000D01*
G01*
X107659600Y-101448600D01*
G75*
G02*
X107734600Y-101373600I75000J0D01*
G01*
X107884600Y-101373600D01*
G75*
G02*
X107959600Y-101448600I0J-75000D01*
G01*
X107959600Y-102773600D01*
G75*
G02*
X107884600Y-102848600I-75000J0D01*
G01*
G37*
G04 #@! TD.AperFunction*
G04 #@! TA.AperFunction,SMDPad,CuDef*
G36*
G01*
X108384600Y-102848600D02*
X108234600Y-102848600D01*
G75*
G02*
X108159600Y-102773600I0J75000D01*
G01*
X108159600Y-101448600D01*
G75*
G02*
X108234600Y-101373600I75000J0D01*
G01*
X108384600Y-101373600D01*
G75*
G02*
X108459600Y-101448600I0J-75000D01*
G01*
X108459600Y-102773600D01*
G75*
G02*
X108384600Y-102848600I-75000J0D01*
G01*
G37*
G04 #@! TD.AperFunction*
G04 #@! TA.AperFunction,SMDPad,CuDef*
G36*
G01*
X108884600Y-102848600D02*
X108734600Y-102848600D01*
G75*
G02*
X108659600Y-102773600I0J75000D01*
G01*
X108659600Y-101448600D01*
G75*
G02*
X108734600Y-101373600I75000J0D01*
G01*
X108884600Y-101373600D01*
G75*
G02*
X108959600Y-101448600I0J-75000D01*
G01*
X108959600Y-102773600D01*
G75*
G02*
X108884600Y-102848600I-75000J0D01*
G01*
G37*
G04 #@! TD.AperFunction*
G04 #@! TA.AperFunction,SMDPad,CuDef*
G36*
G01*
X109384600Y-102848600D02*
X109234600Y-102848600D01*
G75*
G02*
X109159600Y-102773600I0J75000D01*
G01*
X109159600Y-101448600D01*
G75*
G02*
X109234600Y-101373600I75000J0D01*
G01*
X109384600Y-101373600D01*
G75*
G02*
X109459600Y-101448600I0J-75000D01*
G01*
X109459600Y-102773600D01*
G75*
G02*
X109384600Y-102848600I-75000J0D01*
G01*
G37*
G04 #@! TD.AperFunction*
G04 #@! TA.AperFunction,SMDPad,CuDef*
G36*
G01*
X109884600Y-102848600D02*
X109734600Y-102848600D01*
G75*
G02*
X109659600Y-102773600I0J75000D01*
G01*
X109659600Y-101448600D01*
G75*
G02*
X109734600Y-101373600I75000J0D01*
G01*
X109884600Y-101373600D01*
G75*
G02*
X109959600Y-101448600I0J-75000D01*
G01*
X109959600Y-102773600D01*
G75*
G02*
X109884600Y-102848600I-75000J0D01*
G01*
G37*
G04 #@! TD.AperFunction*
G04 #@! TA.AperFunction,SMDPad,CuDef*
G36*
G01*
X110384600Y-102848600D02*
X110234600Y-102848600D01*
G75*
G02*
X110159600Y-102773600I0J75000D01*
G01*
X110159600Y-101448600D01*
G75*
G02*
X110234600Y-101373600I75000J0D01*
G01*
X110384600Y-101373600D01*
G75*
G02*
X110459600Y-101448600I0J-75000D01*
G01*
X110459600Y-102773600D01*
G75*
G02*
X110384600Y-102848600I-75000J0D01*
G01*
G37*
G04 #@! TD.AperFunction*
G04 #@! TA.AperFunction,SMDPad,CuDef*
G36*
G01*
X110884600Y-102848600D02*
X110734600Y-102848600D01*
G75*
G02*
X110659600Y-102773600I0J75000D01*
G01*
X110659600Y-101448600D01*
G75*
G02*
X110734600Y-101373600I75000J0D01*
G01*
X110884600Y-101373600D01*
G75*
G02*
X110959600Y-101448600I0J-75000D01*
G01*
X110959600Y-102773600D01*
G75*
G02*
X110884600Y-102848600I-75000J0D01*
G01*
G37*
G04 #@! TD.AperFunction*
G04 #@! TA.AperFunction,SMDPad,CuDef*
G36*
G01*
X111384600Y-102848600D02*
X111234600Y-102848600D01*
G75*
G02*
X111159600Y-102773600I0J75000D01*
G01*
X111159600Y-101448600D01*
G75*
G02*
X111234600Y-101373600I75000J0D01*
G01*
X111384600Y-101373600D01*
G75*
G02*
X111459600Y-101448600I0J-75000D01*
G01*
X111459600Y-102773600D01*
G75*
G02*
X111384600Y-102848600I-75000J0D01*
G01*
G37*
G04 #@! TD.AperFunction*
G04 #@! TA.AperFunction,SMDPad,CuDef*
G36*
G01*
X113384600Y-103673600D02*
X112059600Y-103673600D01*
G75*
G02*
X111984600Y-103598600I0J75000D01*
G01*
X111984600Y-103448600D01*
G75*
G02*
X112059600Y-103373600I75000J0D01*
G01*
X113384600Y-103373600D01*
G75*
G02*
X113459600Y-103448600I0J-75000D01*
G01*
X113459600Y-103598600D01*
G75*
G02*
X113384600Y-103673600I-75000J0D01*
G01*
G37*
G04 #@! TD.AperFunction*
G04 #@! TA.AperFunction,SMDPad,CuDef*
G36*
G01*
X113384600Y-104173600D02*
X112059600Y-104173600D01*
G75*
G02*
X111984600Y-104098600I0J75000D01*
G01*
X111984600Y-103948600D01*
G75*
G02*
X112059600Y-103873600I75000J0D01*
G01*
X113384600Y-103873600D01*
G75*
G02*
X113459600Y-103948600I0J-75000D01*
G01*
X113459600Y-104098600D01*
G75*
G02*
X113384600Y-104173600I-75000J0D01*
G01*
G37*
G04 #@! TD.AperFunction*
G04 #@! TA.AperFunction,SMDPad,CuDef*
G36*
G01*
X113384600Y-104673600D02*
X112059600Y-104673600D01*
G75*
G02*
X111984600Y-104598600I0J75000D01*
G01*
X111984600Y-104448600D01*
G75*
G02*
X112059600Y-104373600I75000J0D01*
G01*
X113384600Y-104373600D01*
G75*
G02*
X113459600Y-104448600I0J-75000D01*
G01*
X113459600Y-104598600D01*
G75*
G02*
X113384600Y-104673600I-75000J0D01*
G01*
G37*
G04 #@! TD.AperFunction*
G04 #@! TA.AperFunction,SMDPad,CuDef*
G36*
G01*
X113384600Y-105173600D02*
X112059600Y-105173600D01*
G75*
G02*
X111984600Y-105098600I0J75000D01*
G01*
X111984600Y-104948600D01*
G75*
G02*
X112059600Y-104873600I75000J0D01*
G01*
X113384600Y-104873600D01*
G75*
G02*
X113459600Y-104948600I0J-75000D01*
G01*
X113459600Y-105098600D01*
G75*
G02*
X113384600Y-105173600I-75000J0D01*
G01*
G37*
G04 #@! TD.AperFunction*
G04 #@! TA.AperFunction,SMDPad,CuDef*
G36*
G01*
X113384600Y-105673600D02*
X112059600Y-105673600D01*
G75*
G02*
X111984600Y-105598600I0J75000D01*
G01*
X111984600Y-105448600D01*
G75*
G02*
X112059600Y-105373600I75000J0D01*
G01*
X113384600Y-105373600D01*
G75*
G02*
X113459600Y-105448600I0J-75000D01*
G01*
X113459600Y-105598600D01*
G75*
G02*
X113384600Y-105673600I-75000J0D01*
G01*
G37*
G04 #@! TD.AperFunction*
G04 #@! TA.AperFunction,SMDPad,CuDef*
G36*
G01*
X113384600Y-106173600D02*
X112059600Y-106173600D01*
G75*
G02*
X111984600Y-106098600I0J75000D01*
G01*
X111984600Y-105948600D01*
G75*
G02*
X112059600Y-105873600I75000J0D01*
G01*
X113384600Y-105873600D01*
G75*
G02*
X113459600Y-105948600I0J-75000D01*
G01*
X113459600Y-106098600D01*
G75*
G02*
X113384600Y-106173600I-75000J0D01*
G01*
G37*
G04 #@! TD.AperFunction*
G04 #@! TA.AperFunction,SMDPad,CuDef*
G36*
G01*
X113384600Y-106673600D02*
X112059600Y-106673600D01*
G75*
G02*
X111984600Y-106598600I0J75000D01*
G01*
X111984600Y-106448600D01*
G75*
G02*
X112059600Y-106373600I75000J0D01*
G01*
X113384600Y-106373600D01*
G75*
G02*
X113459600Y-106448600I0J-75000D01*
G01*
X113459600Y-106598600D01*
G75*
G02*
X113384600Y-106673600I-75000J0D01*
G01*
G37*
G04 #@! TD.AperFunction*
G04 #@! TA.AperFunction,SMDPad,CuDef*
G36*
G01*
X113384600Y-107173600D02*
X112059600Y-107173600D01*
G75*
G02*
X111984600Y-107098600I0J75000D01*
G01*
X111984600Y-106948600D01*
G75*
G02*
X112059600Y-106873600I75000J0D01*
G01*
X113384600Y-106873600D01*
G75*
G02*
X113459600Y-106948600I0J-75000D01*
G01*
X113459600Y-107098600D01*
G75*
G02*
X113384600Y-107173600I-75000J0D01*
G01*
G37*
G04 #@! TD.AperFunction*
G04 #@! TA.AperFunction,SMDPad,CuDef*
G36*
G01*
X113384600Y-107673600D02*
X112059600Y-107673600D01*
G75*
G02*
X111984600Y-107598600I0J75000D01*
G01*
X111984600Y-107448600D01*
G75*
G02*
X112059600Y-107373600I75000J0D01*
G01*
X113384600Y-107373600D01*
G75*
G02*
X113459600Y-107448600I0J-75000D01*
G01*
X113459600Y-107598600D01*
G75*
G02*
X113384600Y-107673600I-75000J0D01*
G01*
G37*
G04 #@! TD.AperFunction*
G04 #@! TA.AperFunction,SMDPad,CuDef*
G36*
G01*
X113384600Y-108173600D02*
X112059600Y-108173600D01*
G75*
G02*
X111984600Y-108098600I0J75000D01*
G01*
X111984600Y-107948600D01*
G75*
G02*
X112059600Y-107873600I75000J0D01*
G01*
X113384600Y-107873600D01*
G75*
G02*
X113459600Y-107948600I0J-75000D01*
G01*
X113459600Y-108098600D01*
G75*
G02*
X113384600Y-108173600I-75000J0D01*
G01*
G37*
G04 #@! TD.AperFunction*
G04 #@! TA.AperFunction,SMDPad,CuDef*
G36*
G01*
X113384600Y-108673600D02*
X112059600Y-108673600D01*
G75*
G02*
X111984600Y-108598600I0J75000D01*
G01*
X111984600Y-108448600D01*
G75*
G02*
X112059600Y-108373600I75000J0D01*
G01*
X113384600Y-108373600D01*
G75*
G02*
X113459600Y-108448600I0J-75000D01*
G01*
X113459600Y-108598600D01*
G75*
G02*
X113384600Y-108673600I-75000J0D01*
G01*
G37*
G04 #@! TD.AperFunction*
G04 #@! TA.AperFunction,SMDPad,CuDef*
G36*
G01*
X113384600Y-109173600D02*
X112059600Y-109173600D01*
G75*
G02*
X111984600Y-109098600I0J75000D01*
G01*
X111984600Y-108948600D01*
G75*
G02*
X112059600Y-108873600I75000J0D01*
G01*
X113384600Y-108873600D01*
G75*
G02*
X113459600Y-108948600I0J-75000D01*
G01*
X113459600Y-109098600D01*
G75*
G02*
X113384600Y-109173600I-75000J0D01*
G01*
G37*
G04 #@! TD.AperFunction*
G04 #@! TA.AperFunction,SMDPad,CuDef*
G36*
G01*
X111384600Y-111173600D02*
X111234600Y-111173600D01*
G75*
G02*
X111159600Y-111098600I0J75000D01*
G01*
X111159600Y-109773600D01*
G75*
G02*
X111234600Y-109698600I75000J0D01*
G01*
X111384600Y-109698600D01*
G75*
G02*
X111459600Y-109773600I0J-75000D01*
G01*
X111459600Y-111098600D01*
G75*
G02*
X111384600Y-111173600I-75000J0D01*
G01*
G37*
G04 #@! TD.AperFunction*
G04 #@! TA.AperFunction,SMDPad,CuDef*
G36*
G01*
X110884600Y-111173600D02*
X110734600Y-111173600D01*
G75*
G02*
X110659600Y-111098600I0J75000D01*
G01*
X110659600Y-109773600D01*
G75*
G02*
X110734600Y-109698600I75000J0D01*
G01*
X110884600Y-109698600D01*
G75*
G02*
X110959600Y-109773600I0J-75000D01*
G01*
X110959600Y-111098600D01*
G75*
G02*
X110884600Y-111173600I-75000J0D01*
G01*
G37*
G04 #@! TD.AperFunction*
G04 #@! TA.AperFunction,SMDPad,CuDef*
G36*
G01*
X110384600Y-111173600D02*
X110234600Y-111173600D01*
G75*
G02*
X110159600Y-111098600I0J75000D01*
G01*
X110159600Y-109773600D01*
G75*
G02*
X110234600Y-109698600I75000J0D01*
G01*
X110384600Y-109698600D01*
G75*
G02*
X110459600Y-109773600I0J-75000D01*
G01*
X110459600Y-111098600D01*
G75*
G02*
X110384600Y-111173600I-75000J0D01*
G01*
G37*
G04 #@! TD.AperFunction*
G04 #@! TA.AperFunction,SMDPad,CuDef*
G36*
G01*
X109884600Y-111173600D02*
X109734600Y-111173600D01*
G75*
G02*
X109659600Y-111098600I0J75000D01*
G01*
X109659600Y-109773600D01*
G75*
G02*
X109734600Y-109698600I75000J0D01*
G01*
X109884600Y-109698600D01*
G75*
G02*
X109959600Y-109773600I0J-75000D01*
G01*
X109959600Y-111098600D01*
G75*
G02*
X109884600Y-111173600I-75000J0D01*
G01*
G37*
G04 #@! TD.AperFunction*
G04 #@! TA.AperFunction,SMDPad,CuDef*
G36*
G01*
X109384600Y-111173600D02*
X109234600Y-111173600D01*
G75*
G02*
X109159600Y-111098600I0J75000D01*
G01*
X109159600Y-109773600D01*
G75*
G02*
X109234600Y-109698600I75000J0D01*
G01*
X109384600Y-109698600D01*
G75*
G02*
X109459600Y-109773600I0J-75000D01*
G01*
X109459600Y-111098600D01*
G75*
G02*
X109384600Y-111173600I-75000J0D01*
G01*
G37*
G04 #@! TD.AperFunction*
G04 #@! TA.AperFunction,SMDPad,CuDef*
G36*
G01*
X108884600Y-111173600D02*
X108734600Y-111173600D01*
G75*
G02*
X108659600Y-111098600I0J75000D01*
G01*
X108659600Y-109773600D01*
G75*
G02*
X108734600Y-109698600I75000J0D01*
G01*
X108884600Y-109698600D01*
G75*
G02*
X108959600Y-109773600I0J-75000D01*
G01*
X108959600Y-111098600D01*
G75*
G02*
X108884600Y-111173600I-75000J0D01*
G01*
G37*
G04 #@! TD.AperFunction*
G04 #@! TA.AperFunction,SMDPad,CuDef*
G36*
G01*
X108384600Y-111173600D02*
X108234600Y-111173600D01*
G75*
G02*
X108159600Y-111098600I0J75000D01*
G01*
X108159600Y-109773600D01*
G75*
G02*
X108234600Y-109698600I75000J0D01*
G01*
X108384600Y-109698600D01*
G75*
G02*
X108459600Y-109773600I0J-75000D01*
G01*
X108459600Y-111098600D01*
G75*
G02*
X108384600Y-111173600I-75000J0D01*
G01*
G37*
G04 #@! TD.AperFunction*
G04 #@! TA.AperFunction,SMDPad,CuDef*
G36*
G01*
X107884600Y-111173600D02*
X107734600Y-111173600D01*
G75*
G02*
X107659600Y-111098600I0J75000D01*
G01*
X107659600Y-109773600D01*
G75*
G02*
X107734600Y-109698600I75000J0D01*
G01*
X107884600Y-109698600D01*
G75*
G02*
X107959600Y-109773600I0J-75000D01*
G01*
X107959600Y-111098600D01*
G75*
G02*
X107884600Y-111173600I-75000J0D01*
G01*
G37*
G04 #@! TD.AperFunction*
G04 #@! TA.AperFunction,SMDPad,CuDef*
G36*
G01*
X107384600Y-111173600D02*
X107234600Y-111173600D01*
G75*
G02*
X107159600Y-111098600I0J75000D01*
G01*
X107159600Y-109773600D01*
G75*
G02*
X107234600Y-109698600I75000J0D01*
G01*
X107384600Y-109698600D01*
G75*
G02*
X107459600Y-109773600I0J-75000D01*
G01*
X107459600Y-111098600D01*
G75*
G02*
X107384600Y-111173600I-75000J0D01*
G01*
G37*
G04 #@! TD.AperFunction*
G04 #@! TA.AperFunction,SMDPad,CuDef*
G36*
G01*
X106884600Y-111173600D02*
X106734600Y-111173600D01*
G75*
G02*
X106659600Y-111098600I0J75000D01*
G01*
X106659600Y-109773600D01*
G75*
G02*
X106734600Y-109698600I75000J0D01*
G01*
X106884600Y-109698600D01*
G75*
G02*
X106959600Y-109773600I0J-75000D01*
G01*
X106959600Y-111098600D01*
G75*
G02*
X106884600Y-111173600I-75000J0D01*
G01*
G37*
G04 #@! TD.AperFunction*
G04 #@! TA.AperFunction,SMDPad,CuDef*
G36*
G01*
X106384600Y-111173600D02*
X106234600Y-111173600D01*
G75*
G02*
X106159600Y-111098600I0J75000D01*
G01*
X106159600Y-109773600D01*
G75*
G02*
X106234600Y-109698600I75000J0D01*
G01*
X106384600Y-109698600D01*
G75*
G02*
X106459600Y-109773600I0J-75000D01*
G01*
X106459600Y-111098600D01*
G75*
G02*
X106384600Y-111173600I-75000J0D01*
G01*
G37*
G04 #@! TD.AperFunction*
G04 #@! TA.AperFunction,SMDPad,CuDef*
G36*
G01*
X105884600Y-111173600D02*
X105734600Y-111173600D01*
G75*
G02*
X105659600Y-111098600I0J75000D01*
G01*
X105659600Y-109773600D01*
G75*
G02*
X105734600Y-109698600I75000J0D01*
G01*
X105884600Y-109698600D01*
G75*
G02*
X105959600Y-109773600I0J-75000D01*
G01*
X105959600Y-111098600D01*
G75*
G02*
X105884600Y-111173600I-75000J0D01*
G01*
G37*
G04 #@! TD.AperFunction*
D13*
X105943400Y-116357400D03*
X108143400Y-116357400D03*
X108143400Y-118057400D03*
X105943400Y-118057400D03*
D14*
X107721400Y-84742200D03*
X108671400Y-84742200D03*
X106771400Y-84742200D03*
X106771400Y-82542200D03*
X107721400Y-82542200D03*
X108671400Y-82542200D03*
D15*
X127014000Y-90753800D03*
X122414000Y-90753800D03*
X124714000Y-90753800D03*
D16*
X124714000Y-97053800D03*
D17*
X81000000Y-119750000D03*
X81250000Y-113750000D03*
X118500000Y-101250000D03*
X141500000Y-98750000D03*
X131250000Y-89500000D03*
X119750000Y-76750000D03*
X126500000Y-76750000D03*
X112000000Y-99250000D03*
X113000000Y-120500000D03*
D18*
X135725000Y-101890000D03*
X135725000Y-106390000D03*
X143675000Y-106390000D03*
X143675000Y-101890000D03*
X135725000Y-117130000D03*
X135725000Y-121630000D03*
X143675000Y-121630000D03*
X143675000Y-117130000D03*
X135725000Y-109510000D03*
X135725000Y-114010000D03*
X143675000Y-114010000D03*
X143675000Y-109510000D03*
X135725000Y-124750000D03*
X135725000Y-129250000D03*
X143675000Y-129250000D03*
X143675000Y-124750000D03*
X85425000Y-119760000D03*
X85425000Y-124260000D03*
X93375000Y-124260000D03*
X93375000Y-119760000D03*
G04 #@! TA.AperFunction,SMDPad,CuDef*
G36*
G01*
X103627999Y-84126000D02*
X104528001Y-84126000D01*
G75*
G02*
X104778000Y-84375999I0J-249999D01*
G01*
X104778000Y-84901001D01*
G75*
G02*
X104528001Y-85151000I-249999J0D01*
G01*
X103627999Y-85151000D01*
G75*
G02*
X103378000Y-84901001I0J249999D01*
G01*
X103378000Y-84375999D01*
G75*
G02*
X103627999Y-84126000I249999J0D01*
G01*
G37*
G04 #@! TD.AperFunction*
G04 #@! TA.AperFunction,SMDPad,CuDef*
G36*
G01*
X103627999Y-82301000D02*
X104528001Y-82301000D01*
G75*
G02*
X104778000Y-82550999I0J-249999D01*
G01*
X104778000Y-83076001D01*
G75*
G02*
X104528001Y-83326000I-249999J0D01*
G01*
X103627999Y-83326000D01*
G75*
G02*
X103378000Y-83076001I0J249999D01*
G01*
X103378000Y-82550999D01*
G75*
G02*
X103627999Y-82301000I249999J0D01*
G01*
G37*
G04 #@! TD.AperFunction*
G04 #@! TA.AperFunction,SMDPad,CuDef*
G36*
G01*
X132645999Y-103270000D02*
X133546001Y-103270000D01*
G75*
G02*
X133796000Y-103519999I0J-249999D01*
G01*
X133796000Y-104045001D01*
G75*
G02*
X133546001Y-104295000I-249999J0D01*
G01*
X132645999Y-104295000D01*
G75*
G02*
X132396000Y-104045001I0J249999D01*
G01*
X132396000Y-103519999D01*
G75*
G02*
X132645999Y-103270000I249999J0D01*
G01*
G37*
G04 #@! TD.AperFunction*
G04 #@! TA.AperFunction,SMDPad,CuDef*
G36*
G01*
X132645999Y-101445000D02*
X133546001Y-101445000D01*
G75*
G02*
X133796000Y-101694999I0J-249999D01*
G01*
X133796000Y-102220001D01*
G75*
G02*
X133546001Y-102470000I-249999J0D01*
G01*
X132645999Y-102470000D01*
G75*
G02*
X132396000Y-102220001I0J249999D01*
G01*
X132396000Y-101694999D01*
G75*
G02*
X132645999Y-101445000I249999J0D01*
G01*
G37*
G04 #@! TD.AperFunction*
G04 #@! TA.AperFunction,SMDPad,CuDef*
G36*
G01*
X133242000Y-123386001D02*
X133242000Y-122485999D01*
G75*
G02*
X133491999Y-122236000I249999J0D01*
G01*
X134017001Y-122236000D01*
G75*
G02*
X134267000Y-122485999I0J-249999D01*
G01*
X134267000Y-123386001D01*
G75*
G02*
X134017001Y-123636000I-249999J0D01*
G01*
X133491999Y-123636000D01*
G75*
G02*
X133242000Y-123386001I0J249999D01*
G01*
G37*
G04 #@! TD.AperFunction*
G04 #@! TA.AperFunction,SMDPad,CuDef*
G36*
G01*
X131417000Y-123386001D02*
X131417000Y-122485999D01*
G75*
G02*
X131666999Y-122236000I249999J0D01*
G01*
X132192001Y-122236000D01*
G75*
G02*
X132442000Y-122485999I0J-249999D01*
G01*
X132442000Y-123386001D01*
G75*
G02*
X132192001Y-123636000I-249999J0D01*
G01*
X131666999Y-123636000D01*
G75*
G02*
X131417000Y-123386001I0J249999D01*
G01*
G37*
G04 #@! TD.AperFunction*
G04 #@! TA.AperFunction,SMDPad,CuDef*
G36*
G01*
X98200001Y-110687500D02*
X97299999Y-110687500D01*
G75*
G02*
X97050000Y-110437501I0J249999D01*
G01*
X97050000Y-109912499D01*
G75*
G02*
X97299999Y-109662500I249999J0D01*
G01*
X98200001Y-109662500D01*
G75*
G02*
X98450000Y-109912499I0J-249999D01*
G01*
X98450000Y-110437501D01*
G75*
G02*
X98200001Y-110687500I-249999J0D01*
G01*
G37*
G04 #@! TD.AperFunction*
G04 #@! TA.AperFunction,SMDPad,CuDef*
G36*
G01*
X98200001Y-112512500D02*
X97299999Y-112512500D01*
G75*
G02*
X97050000Y-112262501I0J249999D01*
G01*
X97050000Y-111737499D01*
G75*
G02*
X97299999Y-111487500I249999J0D01*
G01*
X98200001Y-111487500D01*
G75*
G02*
X98450000Y-111737499I0J-249999D01*
G01*
X98450000Y-112262501D01*
G75*
G02*
X98200001Y-112512500I-249999J0D01*
G01*
G37*
G04 #@! TD.AperFunction*
G04 #@! TA.AperFunction,SMDPad,CuDef*
G36*
G01*
X97299999Y-105793500D02*
X98200001Y-105793500D01*
G75*
G02*
X98450000Y-106043499I0J-249999D01*
G01*
X98450000Y-106568501D01*
G75*
G02*
X98200001Y-106818500I-249999J0D01*
G01*
X97299999Y-106818500D01*
G75*
G02*
X97050000Y-106568501I0J249999D01*
G01*
X97050000Y-106043499D01*
G75*
G02*
X97299999Y-105793500I249999J0D01*
G01*
G37*
G04 #@! TD.AperFunction*
G04 #@! TA.AperFunction,SMDPad,CuDef*
G36*
G01*
X97299999Y-103968500D02*
X98200001Y-103968500D01*
G75*
G02*
X98450000Y-104218499I0J-249999D01*
G01*
X98450000Y-104743501D01*
G75*
G02*
X98200001Y-104993500I-249999J0D01*
G01*
X97299999Y-104993500D01*
G75*
G02*
X97050000Y-104743501I0J249999D01*
G01*
X97050000Y-104218499D01*
G75*
G02*
X97299999Y-103968500I249999J0D01*
G01*
G37*
G04 #@! TD.AperFunction*
G04 #@! TA.AperFunction,SMDPad,CuDef*
G36*
G01*
X132480000Y-116020001D02*
X132480000Y-115119999D01*
G75*
G02*
X132729999Y-114870000I249999J0D01*
G01*
X133255001Y-114870000D01*
G75*
G02*
X133505000Y-115119999I0J-249999D01*
G01*
X133505000Y-116020001D01*
G75*
G02*
X133255001Y-116270000I-249999J0D01*
G01*
X132729999Y-116270000D01*
G75*
G02*
X132480000Y-116020001I0J249999D01*
G01*
G37*
G04 #@! TD.AperFunction*
G04 #@! TA.AperFunction,SMDPad,CuDef*
G36*
G01*
X130655000Y-116020001D02*
X130655000Y-115119999D01*
G75*
G02*
X130904999Y-114870000I249999J0D01*
G01*
X131430001Y-114870000D01*
G75*
G02*
X131680000Y-115119999I0J-249999D01*
G01*
X131680000Y-116020001D01*
G75*
G02*
X131430001Y-116270000I-249999J0D01*
G01*
X130904999Y-116270000D01*
G75*
G02*
X130655000Y-116020001I0J249999D01*
G01*
G37*
G04 #@! TD.AperFunction*
G04 #@! TA.AperFunction,SMDPad,CuDef*
G36*
G01*
X135123500Y-132276001D02*
X135123500Y-131375999D01*
G75*
G02*
X135373499Y-131126000I249999J0D01*
G01*
X135898501Y-131126000D01*
G75*
G02*
X136148500Y-131375999I0J-249999D01*
G01*
X136148500Y-132276001D01*
G75*
G02*
X135898501Y-132526000I-249999J0D01*
G01*
X135373499Y-132526000D01*
G75*
G02*
X135123500Y-132276001I0J249999D01*
G01*
G37*
G04 #@! TD.AperFunction*
G04 #@! TA.AperFunction,SMDPad,CuDef*
G36*
G01*
X133298500Y-132276001D02*
X133298500Y-131375999D01*
G75*
G02*
X133548499Y-131126000I249999J0D01*
G01*
X134073501Y-131126000D01*
G75*
G02*
X134323500Y-131375999I0J-249999D01*
G01*
X134323500Y-132276001D01*
G75*
G02*
X134073501Y-132526000I-249999J0D01*
G01*
X133548499Y-132526000D01*
G75*
G02*
X133298500Y-132276001I0J249999D01*
G01*
G37*
G04 #@! TD.AperFunction*
G04 #@! TA.AperFunction,SMDPad,CuDef*
G36*
G01*
X99485000Y-87397000D02*
X99485000Y-86847000D01*
G75*
G02*
X99685000Y-86647000I200000J0D01*
G01*
X100085000Y-86647000D01*
G75*
G02*
X100285000Y-86847000I0J-200000D01*
G01*
X100285000Y-87397000D01*
G75*
G02*
X100085000Y-87597000I-200000J0D01*
G01*
X99685000Y-87597000D01*
G75*
G02*
X99485000Y-87397000I0J200000D01*
G01*
G37*
G04 #@! TD.AperFunction*
G04 #@! TA.AperFunction,SMDPad,CuDef*
G36*
G01*
X97835000Y-87397000D02*
X97835000Y-86847000D01*
G75*
G02*
X98035000Y-86647000I200000J0D01*
G01*
X98435000Y-86647000D01*
G75*
G02*
X98635000Y-86847000I0J-200000D01*
G01*
X98635000Y-87397000D01*
G75*
G02*
X98435000Y-87597000I-200000J0D01*
G01*
X98035000Y-87597000D01*
G75*
G02*
X97835000Y-87397000I0J200000D01*
G01*
G37*
G04 #@! TD.AperFunction*
G04 #@! TA.AperFunction,SMDPad,CuDef*
G36*
G01*
X114944999Y-90054000D02*
X116195001Y-90054000D01*
G75*
G02*
X116445000Y-90303999I0J-249999D01*
G01*
X116445000Y-90929001D01*
G75*
G02*
X116195001Y-91179000I-249999J0D01*
G01*
X114944999Y-91179000D01*
G75*
G02*
X114695000Y-90929001I0J249999D01*
G01*
X114695000Y-90303999D01*
G75*
G02*
X114944999Y-90054000I249999J0D01*
G01*
G37*
G04 #@! TD.AperFunction*
G04 #@! TA.AperFunction,SMDPad,CuDef*
G36*
G01*
X114944999Y-87129000D02*
X116195001Y-87129000D01*
G75*
G02*
X116445000Y-87378999I0J-249999D01*
G01*
X116445000Y-88004001D01*
G75*
G02*
X116195001Y-88254000I-249999J0D01*
G01*
X114944999Y-88254000D01*
G75*
G02*
X114695000Y-88004001I0J249999D01*
G01*
X114695000Y-87378999D01*
G75*
G02*
X114944999Y-87129000I249999J0D01*
G01*
G37*
G04 #@! TD.AperFunction*
G04 #@! TA.AperFunction,SMDPad,CuDef*
G36*
G01*
X107954400Y-113925400D02*
X108504400Y-113925400D01*
G75*
G02*
X108704400Y-114125400I0J-200000D01*
G01*
X108704400Y-114525400D01*
G75*
G02*
X108504400Y-114725400I-200000J0D01*
G01*
X107954400Y-114725400D01*
G75*
G02*
X107754400Y-114525400I0J200000D01*
G01*
X107754400Y-114125400D01*
G75*
G02*
X107954400Y-113925400I200000J0D01*
G01*
G37*
G04 #@! TD.AperFunction*
G04 #@! TA.AperFunction,SMDPad,CuDef*
G36*
G01*
X107954400Y-112275400D02*
X108504400Y-112275400D01*
G75*
G02*
X108704400Y-112475400I0J-200000D01*
G01*
X108704400Y-112875400D01*
G75*
G02*
X108504400Y-113075400I-200000J0D01*
G01*
X107954400Y-113075400D01*
G75*
G02*
X107754400Y-112875400I0J200000D01*
G01*
X107754400Y-112475400D01*
G75*
G02*
X107954400Y-112275400I200000J0D01*
G01*
G37*
G04 #@! TD.AperFunction*
G04 #@! TA.AperFunction,SMDPad,CuDef*
G36*
G01*
X88449999Y-103119500D02*
X89350001Y-103119500D01*
G75*
G02*
X89600000Y-103369499I0J-249999D01*
G01*
X89600000Y-103894501D01*
G75*
G02*
X89350001Y-104144500I-249999J0D01*
G01*
X88449999Y-104144500D01*
G75*
G02*
X88200000Y-103894501I0J249999D01*
G01*
X88200000Y-103369499D01*
G75*
G02*
X88449999Y-103119500I249999J0D01*
G01*
G37*
G04 #@! TD.AperFunction*
G04 #@! TA.AperFunction,SMDPad,CuDef*
G36*
G01*
X88449999Y-101294500D02*
X89350001Y-101294500D01*
G75*
G02*
X89600000Y-101544499I0J-249999D01*
G01*
X89600000Y-102069501D01*
G75*
G02*
X89350001Y-102319500I-249999J0D01*
G01*
X88449999Y-102319500D01*
G75*
G02*
X88200000Y-102069501I0J249999D01*
G01*
X88200000Y-101544499D01*
G75*
G02*
X88449999Y-101294500I249999J0D01*
G01*
G37*
G04 #@! TD.AperFunction*
G04 #@! TA.AperFunction,SMDPad,CuDef*
G36*
G01*
X119516999Y-111328500D02*
X120767001Y-111328500D01*
G75*
G02*
X121017000Y-111578499I0J-249999D01*
G01*
X121017000Y-112203501D01*
G75*
G02*
X120767001Y-112453500I-249999J0D01*
G01*
X119516999Y-112453500D01*
G75*
G02*
X119267000Y-112203501I0J249999D01*
G01*
X119267000Y-111578499D01*
G75*
G02*
X119516999Y-111328500I249999J0D01*
G01*
G37*
G04 #@! TD.AperFunction*
G04 #@! TA.AperFunction,SMDPad,CuDef*
G36*
G01*
X119516999Y-108403500D02*
X120767001Y-108403500D01*
G75*
G02*
X121017000Y-108653499I0J-249999D01*
G01*
X121017000Y-109278501D01*
G75*
G02*
X120767001Y-109528500I-249999J0D01*
G01*
X119516999Y-109528500D01*
G75*
G02*
X119267000Y-109278501I0J249999D01*
G01*
X119267000Y-108653499D01*
G75*
G02*
X119516999Y-108403500I249999J0D01*
G01*
G37*
G04 #@! TD.AperFunction*
G04 #@! TA.AperFunction,SMDPad,CuDef*
G36*
G01*
X122056999Y-111328500D02*
X123307001Y-111328500D01*
G75*
G02*
X123557000Y-111578499I0J-249999D01*
G01*
X123557000Y-112203501D01*
G75*
G02*
X123307001Y-112453500I-249999J0D01*
G01*
X122056999Y-112453500D01*
G75*
G02*
X121807000Y-112203501I0J249999D01*
G01*
X121807000Y-111578499D01*
G75*
G02*
X122056999Y-111328500I249999J0D01*
G01*
G37*
G04 #@! TD.AperFunction*
G04 #@! TA.AperFunction,SMDPad,CuDef*
G36*
G01*
X122056999Y-108403500D02*
X123307001Y-108403500D01*
G75*
G02*
X123557000Y-108653499I0J-249999D01*
G01*
X123557000Y-109278501D01*
G75*
G02*
X123307001Y-109528500I-249999J0D01*
G01*
X122056999Y-109528500D01*
G75*
G02*
X121807000Y-109278501I0J249999D01*
G01*
X121807000Y-108653499D01*
G75*
G02*
X122056999Y-108403500I249999J0D01*
G01*
G37*
G04 #@! TD.AperFunction*
D19*
X120142000Y-82534000D03*
X119192000Y-80534000D03*
X121092000Y-80534000D03*
G04 #@! TA.AperFunction,SMDPad,CuDef*
G36*
G01*
X113794250Y-116515500D02*
X113281750Y-116515500D01*
G75*
G02*
X113063000Y-116296750I0J218750D01*
G01*
X113063000Y-115859250D01*
G75*
G02*
X113281750Y-115640500I218750J0D01*
G01*
X113794250Y-115640500D01*
G75*
G02*
X114013000Y-115859250I0J-218750D01*
G01*
X114013000Y-116296750D01*
G75*
G02*
X113794250Y-116515500I-218750J0D01*
G01*
G37*
G04 #@! TD.AperFunction*
G04 #@! TA.AperFunction,SMDPad,CuDef*
G36*
G01*
X113794250Y-118090500D02*
X113281750Y-118090500D01*
G75*
G02*
X113063000Y-117871750I0J218750D01*
G01*
X113063000Y-117434250D01*
G75*
G02*
X113281750Y-117215500I218750J0D01*
G01*
X113794250Y-117215500D01*
G75*
G02*
X114013000Y-117434250I0J-218750D01*
G01*
X114013000Y-117871750D01*
G75*
G02*
X113794250Y-118090500I-218750J0D01*
G01*
G37*
G04 #@! TD.AperFunction*
D20*
X104475400Y-75992200D03*
X111475400Y-75992200D03*
D21*
X105075400Y-75992200D03*
X110875400Y-75992200D03*
D22*
X106975400Y-75992200D03*
X108975400Y-75992200D03*
D23*
X105475400Y-78692200D03*
X110475400Y-78692200D03*
D24*
X106675400Y-78692200D03*
X107325400Y-78692200D03*
X107975400Y-78692200D03*
X108625400Y-78692200D03*
X109275400Y-78692200D03*
D11*
X77250000Y-85600000D03*
X77250000Y-88140000D03*
X77250000Y-90680000D03*
X77250000Y-93220000D03*
X77250000Y-95760000D03*
X77250000Y-98300000D03*
X77250000Y-100840000D03*
X77250000Y-103380000D03*
X77250000Y-105920000D03*
X77250000Y-108460000D03*
D12*
X77250000Y-111000000D03*
D11*
X85344000Y-86868000D03*
X85344000Y-84328000D03*
X87884000Y-86868000D03*
X87884000Y-84328000D03*
X90424000Y-86868000D03*
X90424000Y-84328000D03*
X92964000Y-86868000D03*
X92964000Y-84328000D03*
X95504000Y-86868000D03*
D12*
X95504000Y-84328000D03*
D25*
X136802000Y-78994000D03*
G04 #@! TA.AperFunction,ComponentPad*
G36*
G01*
X131262000Y-80794000D02*
X131262000Y-77194000D01*
G75*
G02*
X131512000Y-76944000I250000J0D01*
G01*
X134172000Y-76944000D01*
G75*
G02*
X134422000Y-77194000I0J-250000D01*
G01*
X134422000Y-80794000D01*
G75*
G02*
X134172000Y-81044000I-250000J0D01*
G01*
X131512000Y-81044000D01*
G75*
G02*
X131262000Y-80794000I0J250000D01*
G01*
G37*
G04 #@! TD.AperFunction*
D11*
X86360000Y-99060000D03*
X88900000Y-99060000D03*
D12*
X91440000Y-99060000D03*
D26*
X146166726Y-76333274D03*
X145000000Y-75850000D03*
X143833274Y-76333274D03*
X143350000Y-77500000D03*
X143833274Y-78666726D03*
X145000000Y-79150000D03*
X146166726Y-78666726D03*
X146650000Y-77500000D03*
D27*
X145000000Y-77500000D03*
D26*
X78666726Y-133833274D03*
X77500000Y-133350000D03*
X76333274Y-133833274D03*
X75850000Y-135000000D03*
X76333274Y-136166726D03*
X77500000Y-136650000D03*
X78666726Y-136166726D03*
X79150000Y-135000000D03*
D27*
X77500000Y-135000000D03*
D26*
X78666726Y-76333274D03*
X77500000Y-75850000D03*
X76333274Y-76333274D03*
X75850000Y-77500000D03*
X76333274Y-78666726D03*
X77500000Y-79150000D03*
X78666726Y-78666726D03*
X79150000Y-77500000D03*
D27*
X77500000Y-77500000D03*
D26*
X146166726Y-133833274D03*
X145000000Y-133350000D03*
X143833274Y-133833274D03*
X143350000Y-135000000D03*
X143833274Y-136166726D03*
X145000000Y-136650000D03*
X146166726Y-136166726D03*
X146650000Y-135000000D03*
D27*
X145000000Y-135000000D03*
G04 #@! TA.AperFunction,SMDPad,CuDef*
G36*
G01*
X127267000Y-82159000D02*
X127267000Y-80909000D01*
G75*
G02*
X127517000Y-80659000I250000J0D01*
G01*
X128267000Y-80659000D01*
G75*
G02*
X128517000Y-80909000I0J-250000D01*
G01*
X128517000Y-82159000D01*
G75*
G02*
X128267000Y-82409000I-250000J0D01*
G01*
X127517000Y-82409000D01*
G75*
G02*
X127267000Y-82159000I0J250000D01*
G01*
G37*
G04 #@! TD.AperFunction*
G04 #@! TA.AperFunction,SMDPad,CuDef*
G36*
G01*
X124467000Y-82159000D02*
X124467000Y-80909000D01*
G75*
G02*
X124717000Y-80659000I250000J0D01*
G01*
X125467000Y-80659000D01*
G75*
G02*
X125717000Y-80909000I0J-250000D01*
G01*
X125717000Y-82159000D01*
G75*
G02*
X125467000Y-82409000I-250000J0D01*
G01*
X124717000Y-82409000D01*
G75*
G02*
X124467000Y-82159000I0J250000D01*
G01*
G37*
G04 #@! TD.AperFunction*
G04 #@! TA.AperFunction,SMDPad,CuDef*
G36*
G01*
X116195000Y-93713000D02*
X114945000Y-93713000D01*
G75*
G02*
X114695000Y-93463000I0J250000D01*
G01*
X114695000Y-92713000D01*
G75*
G02*
X114945000Y-92463000I250000J0D01*
G01*
X116195000Y-92463000D01*
G75*
G02*
X116445000Y-92713000I0J-250000D01*
G01*
X116445000Y-93463000D01*
G75*
G02*
X116195000Y-93713000I-250000J0D01*
G01*
G37*
G04 #@! TD.AperFunction*
G04 #@! TA.AperFunction,SMDPad,CuDef*
G36*
G01*
X116195000Y-96513000D02*
X114945000Y-96513000D01*
G75*
G02*
X114695000Y-96263000I0J250000D01*
G01*
X114695000Y-95513000D01*
G75*
G02*
X114945000Y-95263000I250000J0D01*
G01*
X116195000Y-95263000D01*
G75*
G02*
X116445000Y-95513000I0J-250000D01*
G01*
X116445000Y-96263000D01*
G75*
G02*
X116195000Y-96513000I-250000J0D01*
G01*
G37*
G04 #@! TD.AperFunction*
D28*
X115062000Y-78614000D03*
X115062000Y-81914000D03*
G04 #@! TA.AperFunction,SMDPad,CuDef*
G36*
G01*
X120767000Y-115427000D02*
X119517000Y-115427000D01*
G75*
G02*
X119267000Y-115177000I0J250000D01*
G01*
X119267000Y-114427000D01*
G75*
G02*
X119517000Y-114177000I250000J0D01*
G01*
X120767000Y-114177000D01*
G75*
G02*
X121017000Y-114427000I0J-250000D01*
G01*
X121017000Y-115177000D01*
G75*
G02*
X120767000Y-115427000I-250000J0D01*
G01*
G37*
G04 #@! TD.AperFunction*
G04 #@! TA.AperFunction,SMDPad,CuDef*
G36*
G01*
X120767000Y-118227000D02*
X119517000Y-118227000D01*
G75*
G02*
X119267000Y-117977000I0J250000D01*
G01*
X119267000Y-117227000D01*
G75*
G02*
X119517000Y-116977000I250000J0D01*
G01*
X120767000Y-116977000D01*
G75*
G02*
X121017000Y-117227000I0J-250000D01*
G01*
X121017000Y-117977000D01*
G75*
G02*
X120767000Y-118227000I-250000J0D01*
G01*
G37*
G04 #@! TD.AperFunction*
G04 #@! TA.AperFunction,SMDPad,CuDef*
G36*
G01*
X123307000Y-115433000D02*
X122057000Y-115433000D01*
G75*
G02*
X121807000Y-115183000I0J250000D01*
G01*
X121807000Y-114433000D01*
G75*
G02*
X122057000Y-114183000I250000J0D01*
G01*
X123307000Y-114183000D01*
G75*
G02*
X123557000Y-114433000I0J-250000D01*
G01*
X123557000Y-115183000D01*
G75*
G02*
X123307000Y-115433000I-250000J0D01*
G01*
G37*
G04 #@! TD.AperFunction*
G04 #@! TA.AperFunction,SMDPad,CuDef*
G36*
G01*
X123307000Y-118233000D02*
X122057000Y-118233000D01*
G75*
G02*
X121807000Y-117983000I0J250000D01*
G01*
X121807000Y-117233000D01*
G75*
G02*
X122057000Y-116983000I250000J0D01*
G01*
X123307000Y-116983000D01*
G75*
G02*
X123557000Y-117233000I0J-250000D01*
G01*
X123557000Y-117983000D01*
G75*
G02*
X123307000Y-118233000I-250000J0D01*
G01*
G37*
G04 #@! TD.AperFunction*
G04 #@! TA.AperFunction,SMDPad,CuDef*
G36*
G01*
X146046000Y-104056000D02*
X145546000Y-104056000D01*
G75*
G02*
X145321000Y-103831000I0J225000D01*
G01*
X145321000Y-103381000D01*
G75*
G02*
X145546000Y-103156000I225000J0D01*
G01*
X146046000Y-103156000D01*
G75*
G02*
X146271000Y-103381000I0J-225000D01*
G01*
X146271000Y-103831000D01*
G75*
G02*
X146046000Y-104056000I-225000J0D01*
G01*
G37*
G04 #@! TD.AperFunction*
G04 #@! TA.AperFunction,SMDPad,CuDef*
G36*
G01*
X146046000Y-105606000D02*
X145546000Y-105606000D01*
G75*
G02*
X145321000Y-105381000I0J225000D01*
G01*
X145321000Y-104931000D01*
G75*
G02*
X145546000Y-104706000I225000J0D01*
G01*
X146046000Y-104706000D01*
G75*
G02*
X146271000Y-104931000I0J-225000D01*
G01*
X146271000Y-105381000D01*
G75*
G02*
X146046000Y-105606000I-225000J0D01*
G01*
G37*
G04 #@! TD.AperFunction*
G04 #@! TA.AperFunction,SMDPad,CuDef*
G36*
G01*
X146046000Y-119309000D02*
X145546000Y-119309000D01*
G75*
G02*
X145321000Y-119084000I0J225000D01*
G01*
X145321000Y-118634000D01*
G75*
G02*
X145546000Y-118409000I225000J0D01*
G01*
X146046000Y-118409000D01*
G75*
G02*
X146271000Y-118634000I0J-225000D01*
G01*
X146271000Y-119084000D01*
G75*
G02*
X146046000Y-119309000I-225000J0D01*
G01*
G37*
G04 #@! TD.AperFunction*
G04 #@! TA.AperFunction,SMDPad,CuDef*
G36*
G01*
X146046000Y-120859000D02*
X145546000Y-120859000D01*
G75*
G02*
X145321000Y-120634000I0J225000D01*
G01*
X145321000Y-120184000D01*
G75*
G02*
X145546000Y-119959000I225000J0D01*
G01*
X146046000Y-119959000D01*
G75*
G02*
X146271000Y-120184000I0J-225000D01*
G01*
X146271000Y-120634000D01*
G75*
G02*
X146046000Y-120859000I-225000J0D01*
G01*
G37*
G04 #@! TD.AperFunction*
G04 #@! TA.AperFunction,SMDPad,CuDef*
G36*
G01*
X146046000Y-111181000D02*
X145546000Y-111181000D01*
G75*
G02*
X145321000Y-110956000I0J225000D01*
G01*
X145321000Y-110506000D01*
G75*
G02*
X145546000Y-110281000I225000J0D01*
G01*
X146046000Y-110281000D01*
G75*
G02*
X146271000Y-110506000I0J-225000D01*
G01*
X146271000Y-110956000D01*
G75*
G02*
X146046000Y-111181000I-225000J0D01*
G01*
G37*
G04 #@! TD.AperFunction*
G04 #@! TA.AperFunction,SMDPad,CuDef*
G36*
G01*
X146046000Y-112731000D02*
X145546000Y-112731000D01*
G75*
G02*
X145321000Y-112506000I0J225000D01*
G01*
X145321000Y-112056000D01*
G75*
G02*
X145546000Y-111831000I225000J0D01*
G01*
X146046000Y-111831000D01*
G75*
G02*
X146271000Y-112056000I0J-225000D01*
G01*
X146271000Y-112506000D01*
G75*
G02*
X146046000Y-112731000I-225000J0D01*
G01*
G37*
G04 #@! TD.AperFunction*
G04 #@! TA.AperFunction,SMDPad,CuDef*
G36*
G01*
X146046000Y-126662000D02*
X145546000Y-126662000D01*
G75*
G02*
X145321000Y-126437000I0J225000D01*
G01*
X145321000Y-125987000D01*
G75*
G02*
X145546000Y-125762000I225000J0D01*
G01*
X146046000Y-125762000D01*
G75*
G02*
X146271000Y-125987000I0J-225000D01*
G01*
X146271000Y-126437000D01*
G75*
G02*
X146046000Y-126662000I-225000J0D01*
G01*
G37*
G04 #@! TD.AperFunction*
G04 #@! TA.AperFunction,SMDPad,CuDef*
G36*
G01*
X146046000Y-128212000D02*
X145546000Y-128212000D01*
G75*
G02*
X145321000Y-127987000I0J225000D01*
G01*
X145321000Y-127537000D01*
G75*
G02*
X145546000Y-127312000I225000J0D01*
G01*
X146046000Y-127312000D01*
G75*
G02*
X146271000Y-127537000I0J-225000D01*
G01*
X146271000Y-127987000D01*
G75*
G02*
X146046000Y-128212000I-225000J0D01*
G01*
G37*
G04 #@! TD.AperFunction*
G04 #@! TA.AperFunction,SMDPad,CuDef*
G36*
G01*
X127392000Y-87264001D02*
X127392000Y-85963999D01*
G75*
G02*
X127641999Y-85714000I249999J0D01*
G01*
X128292001Y-85714000D01*
G75*
G02*
X128542000Y-85963999I0J-249999D01*
G01*
X128542000Y-87264001D01*
G75*
G02*
X128292001Y-87514000I-249999J0D01*
G01*
X127641999Y-87514000D01*
G75*
G02*
X127392000Y-87264001I0J249999D01*
G01*
G37*
G04 #@! TD.AperFunction*
G04 #@! TA.AperFunction,SMDPad,CuDef*
G36*
G01*
X124442000Y-87264001D02*
X124442000Y-85963999D01*
G75*
G02*
X124691999Y-85714000I249999J0D01*
G01*
X125342001Y-85714000D01*
G75*
G02*
X125592000Y-85963999I0J-249999D01*
G01*
X125592000Y-87264001D01*
G75*
G02*
X125342001Y-87514000I-249999J0D01*
G01*
X124691999Y-87514000D01*
G75*
G02*
X124442000Y-87264001I0J249999D01*
G01*
G37*
G04 #@! TD.AperFunction*
G04 #@! TA.AperFunction,SMDPad,CuDef*
G36*
G01*
X122062001Y-85714000D02*
X120761999Y-85714000D01*
G75*
G02*
X120512000Y-85464001I0J249999D01*
G01*
X120512000Y-84813999D01*
G75*
G02*
X120761999Y-84564000I249999J0D01*
G01*
X122062001Y-84564000D01*
G75*
G02*
X122312000Y-84813999I0J-249999D01*
G01*
X122312000Y-85464001D01*
G75*
G02*
X122062001Y-85714000I-249999J0D01*
G01*
G37*
G04 #@! TD.AperFunction*
G04 #@! TA.AperFunction,SMDPad,CuDef*
G36*
G01*
X122062001Y-88664000D02*
X120761999Y-88664000D01*
G75*
G02*
X120512000Y-88414001I0J249999D01*
G01*
X120512000Y-87763999D01*
G75*
G02*
X120761999Y-87514000I249999J0D01*
G01*
X122062001Y-87514000D01*
G75*
G02*
X122312000Y-87763999I0J-249999D01*
G01*
X122312000Y-88414001D01*
G75*
G02*
X122062001Y-88664000I-249999J0D01*
G01*
G37*
G04 #@! TD.AperFunction*
G04 #@! TA.AperFunction,SMDPad,CuDef*
G36*
G01*
X109837400Y-117600000D02*
X110177400Y-117600000D01*
G75*
G02*
X110317400Y-117740000I0J-140000D01*
G01*
X110317400Y-118020000D01*
G75*
G02*
X110177400Y-118160000I-140000J0D01*
G01*
X109837400Y-118160000D01*
G75*
G02*
X109697400Y-118020000I0J140000D01*
G01*
X109697400Y-117740000D01*
G75*
G02*
X109837400Y-117600000I140000J0D01*
G01*
G37*
G04 #@! TD.AperFunction*
G04 #@! TA.AperFunction,SMDPad,CuDef*
G36*
G01*
X109837400Y-116640000D02*
X110177400Y-116640000D01*
G75*
G02*
X110317400Y-116780000I0J-140000D01*
G01*
X110317400Y-117060000D01*
G75*
G02*
X110177400Y-117200000I-140000J0D01*
G01*
X109837400Y-117200000D01*
G75*
G02*
X109697400Y-117060000I0J140000D01*
G01*
X109697400Y-116780000D01*
G75*
G02*
X109837400Y-116640000I140000J0D01*
G01*
G37*
G04 #@! TD.AperFunction*
G04 #@! TA.AperFunction,SMDPad,CuDef*
G36*
G01*
X104208400Y-117455400D02*
X103868400Y-117455400D01*
G75*
G02*
X103728400Y-117315400I0J140000D01*
G01*
X103728400Y-117035400D01*
G75*
G02*
X103868400Y-116895400I140000J0D01*
G01*
X104208400Y-116895400D01*
G75*
G02*
X104348400Y-117035400I0J-140000D01*
G01*
X104348400Y-117315400D01*
G75*
G02*
X104208400Y-117455400I-140000J0D01*
G01*
G37*
G04 #@! TD.AperFunction*
G04 #@! TA.AperFunction,SMDPad,CuDef*
G36*
G01*
X104208400Y-118415400D02*
X103868400Y-118415400D01*
G75*
G02*
X103728400Y-118275400I0J140000D01*
G01*
X103728400Y-117995400D01*
G75*
G02*
X103868400Y-117855400I140000J0D01*
G01*
X104208400Y-117855400D01*
G75*
G02*
X104348400Y-117995400I0J-140000D01*
G01*
X104348400Y-118275400D01*
G75*
G02*
X104208400Y-118415400I-140000J0D01*
G01*
G37*
G04 #@! TD.AperFunction*
G04 #@! TA.AperFunction,SMDPad,CuDef*
G36*
G01*
X82800000Y-122348000D02*
X83300000Y-122348000D01*
G75*
G02*
X83525000Y-122573000I0J-225000D01*
G01*
X83525000Y-123023000D01*
G75*
G02*
X83300000Y-123248000I-225000J0D01*
G01*
X82800000Y-123248000D01*
G75*
G02*
X82575000Y-123023000I0J225000D01*
G01*
X82575000Y-122573000D01*
G75*
G02*
X82800000Y-122348000I225000J0D01*
G01*
G37*
G04 #@! TD.AperFunction*
G04 #@! TA.AperFunction,SMDPad,CuDef*
G36*
G01*
X82800000Y-120798000D02*
X83300000Y-120798000D01*
G75*
G02*
X83525000Y-121023000I0J-225000D01*
G01*
X83525000Y-121473000D01*
G75*
G02*
X83300000Y-121698000I-225000J0D01*
G01*
X82800000Y-121698000D01*
G75*
G02*
X82575000Y-121473000I0J225000D01*
G01*
X82575000Y-121023000D01*
G75*
G02*
X82800000Y-120798000I225000J0D01*
G01*
G37*
G04 #@! TD.AperFunction*
G04 #@! TA.AperFunction,SMDPad,CuDef*
G36*
G01*
X104144000Y-112860000D02*
X104644000Y-112860000D01*
G75*
G02*
X104869000Y-113085000I0J-225000D01*
G01*
X104869000Y-113535000D01*
G75*
G02*
X104644000Y-113760000I-225000J0D01*
G01*
X104144000Y-113760000D01*
G75*
G02*
X103919000Y-113535000I0J225000D01*
G01*
X103919000Y-113085000D01*
G75*
G02*
X104144000Y-112860000I225000J0D01*
G01*
G37*
G04 #@! TD.AperFunction*
G04 #@! TA.AperFunction,SMDPad,CuDef*
G36*
G01*
X104144000Y-111310000D02*
X104644000Y-111310000D01*
G75*
G02*
X104869000Y-111535000I0J-225000D01*
G01*
X104869000Y-111985000D01*
G75*
G02*
X104644000Y-112210000I-225000J0D01*
G01*
X104144000Y-112210000D01*
G75*
G02*
X103919000Y-111985000I0J225000D01*
G01*
X103919000Y-111535000D01*
G75*
G02*
X104144000Y-111310000I225000J0D01*
G01*
G37*
G04 #@! TD.AperFunction*
G04 #@! TA.AperFunction,SMDPad,CuDef*
G36*
G01*
X101275000Y-109732000D02*
X101275000Y-110232000D01*
G75*
G02*
X101050000Y-110457000I-225000J0D01*
G01*
X100600000Y-110457000D01*
G75*
G02*
X100375000Y-110232000I0J225000D01*
G01*
X100375000Y-109732000D01*
G75*
G02*
X100600000Y-109507000I225000J0D01*
G01*
X101050000Y-109507000D01*
G75*
G02*
X101275000Y-109732000I0J-225000D01*
G01*
G37*
G04 #@! TD.AperFunction*
G04 #@! TA.AperFunction,SMDPad,CuDef*
G36*
G01*
X102825000Y-109732000D02*
X102825000Y-110232000D01*
G75*
G02*
X102600000Y-110457000I-225000J0D01*
G01*
X102150000Y-110457000D01*
G75*
G02*
X101925000Y-110232000I0J225000D01*
G01*
X101925000Y-109732000D01*
G75*
G02*
X102150000Y-109507000I225000J0D01*
G01*
X102600000Y-109507000D01*
G75*
G02*
X102825000Y-109732000I0J-225000D01*
G01*
G37*
G04 #@! TD.AperFunction*
G04 #@! TA.AperFunction,SMDPad,CuDef*
G36*
G01*
X104771000Y-100513000D02*
X104271000Y-100513000D01*
G75*
G02*
X104046000Y-100288000I0J225000D01*
G01*
X104046000Y-99838000D01*
G75*
G02*
X104271000Y-99613000I225000J0D01*
G01*
X104771000Y-99613000D01*
G75*
G02*
X104996000Y-99838000I0J-225000D01*
G01*
X104996000Y-100288000D01*
G75*
G02*
X104771000Y-100513000I-225000J0D01*
G01*
G37*
G04 #@! TD.AperFunction*
G04 #@! TA.AperFunction,SMDPad,CuDef*
G36*
G01*
X104771000Y-102063000D02*
X104271000Y-102063000D01*
G75*
G02*
X104046000Y-101838000I0J225000D01*
G01*
X104046000Y-101388000D01*
G75*
G02*
X104271000Y-101163000I225000J0D01*
G01*
X104771000Y-101163000D01*
G75*
G02*
X104996000Y-101388000I0J-225000D01*
G01*
X104996000Y-101838000D01*
G75*
G02*
X104771000Y-102063000I-225000J0D01*
G01*
G37*
G04 #@! TD.AperFunction*
G04 #@! TA.AperFunction,SMDPad,CuDef*
G36*
G01*
X114384000Y-102358000D02*
X114384000Y-101858000D01*
G75*
G02*
X114609000Y-101633000I225000J0D01*
G01*
X115059000Y-101633000D01*
G75*
G02*
X115284000Y-101858000I0J-225000D01*
G01*
X115284000Y-102358000D01*
G75*
G02*
X115059000Y-102583000I-225000J0D01*
G01*
X114609000Y-102583000D01*
G75*
G02*
X114384000Y-102358000I0J225000D01*
G01*
G37*
G04 #@! TD.AperFunction*
G04 #@! TA.AperFunction,SMDPad,CuDef*
G36*
G01*
X112834000Y-102358000D02*
X112834000Y-101858000D01*
G75*
G02*
X113059000Y-101633000I225000J0D01*
G01*
X113509000Y-101633000D01*
G75*
G02*
X113734000Y-101858000I0J-225000D01*
G01*
X113734000Y-102358000D01*
G75*
G02*
X113509000Y-102583000I-225000J0D01*
G01*
X113059000Y-102583000D01*
G75*
G02*
X112834000Y-102358000I0J225000D01*
G01*
G37*
G04 #@! TD.AperFunction*
G04 #@! TA.AperFunction,SMDPad,CuDef*
G36*
G01*
X102112000Y-114371000D02*
X102612000Y-114371000D01*
G75*
G02*
X102837000Y-114596000I0J-225000D01*
G01*
X102837000Y-115046000D01*
G75*
G02*
X102612000Y-115271000I-225000J0D01*
G01*
X102112000Y-115271000D01*
G75*
G02*
X101887000Y-115046000I0J225000D01*
G01*
X101887000Y-114596000D01*
G75*
G02*
X102112000Y-114371000I225000J0D01*
G01*
G37*
G04 #@! TD.AperFunction*
G04 #@! TA.AperFunction,SMDPad,CuDef*
G36*
G01*
X102112000Y-112821000D02*
X102612000Y-112821000D01*
G75*
G02*
X102837000Y-113046000I0J-225000D01*
G01*
X102837000Y-113496000D01*
G75*
G02*
X102612000Y-113721000I-225000J0D01*
G01*
X102112000Y-113721000D01*
G75*
G02*
X101887000Y-113496000I0J225000D01*
G01*
X101887000Y-113046000D01*
G75*
G02*
X102112000Y-112821000I225000J0D01*
G01*
G37*
G04 #@! TD.AperFunction*
G04 #@! TA.AperFunction,SMDPad,CuDef*
G36*
G01*
X111510000Y-115400000D02*
X112010000Y-115400000D01*
G75*
G02*
X112235000Y-115625000I0J-225000D01*
G01*
X112235000Y-116075000D01*
G75*
G02*
X112010000Y-116300000I-225000J0D01*
G01*
X111510000Y-116300000D01*
G75*
G02*
X111285000Y-116075000I0J225000D01*
G01*
X111285000Y-115625000D01*
G75*
G02*
X111510000Y-115400000I225000J0D01*
G01*
G37*
G04 #@! TD.AperFunction*
G04 #@! TA.AperFunction,SMDPad,CuDef*
G36*
G01*
X111510000Y-113850000D02*
X112010000Y-113850000D01*
G75*
G02*
X112235000Y-114075000I0J-225000D01*
G01*
X112235000Y-114525000D01*
G75*
G02*
X112010000Y-114750000I-225000J0D01*
G01*
X111510000Y-114750000D01*
G75*
G02*
X111285000Y-114525000I0J225000D01*
G01*
X111285000Y-114075000D01*
G75*
G02*
X111510000Y-113850000I225000J0D01*
G01*
G37*
G04 #@! TD.AperFunction*
G04 #@! TA.AperFunction,SMDPad,CuDef*
G36*
G01*
X109732000Y-114358000D02*
X110232000Y-114358000D01*
G75*
G02*
X110457000Y-114583000I0J-225000D01*
G01*
X110457000Y-115033000D01*
G75*
G02*
X110232000Y-115258000I-225000J0D01*
G01*
X109732000Y-115258000D01*
G75*
G02*
X109507000Y-115033000I0J225000D01*
G01*
X109507000Y-114583000D01*
G75*
G02*
X109732000Y-114358000I225000J0D01*
G01*
G37*
G04 #@! TD.AperFunction*
G04 #@! TA.AperFunction,SMDPad,CuDef*
G36*
G01*
X109732000Y-112808000D02*
X110232000Y-112808000D01*
G75*
G02*
X110457000Y-113033000I0J-225000D01*
G01*
X110457000Y-113483000D01*
G75*
G02*
X110232000Y-113708000I-225000J0D01*
G01*
X109732000Y-113708000D01*
G75*
G02*
X109507000Y-113483000I0J225000D01*
G01*
X109507000Y-113033000D01*
G75*
G02*
X109732000Y-112808000I225000J0D01*
G01*
G37*
G04 #@! TD.AperFunction*
D29*
X116000000Y-101600000D03*
X128100000Y-85200000D03*
X128700000Y-90700000D03*
X101600000Y-117800000D03*
X101100000Y-115200000D03*
X107200000Y-103500000D03*
X111300000Y-104000000D03*
X101100000Y-112700000D03*
X123000000Y-119000000D03*
X119600000Y-119000000D03*
X110000000Y-118900000D03*
X108500000Y-119400000D03*
X107800000Y-81400000D03*
X116100000Y-97200000D03*
X105900000Y-80300000D03*
X121700000Y-79400000D03*
X146300000Y-117600000D03*
X146100000Y-125100000D03*
X145100000Y-124300000D03*
X134200000Y-125400000D03*
X146000000Y-109600000D03*
X146200000Y-102500000D03*
X135400000Y-100400000D03*
X144200000Y-100500000D03*
X144800000Y-108100000D03*
X134000000Y-109100000D03*
X134300000Y-117300000D03*
X145100000Y-116600000D03*
X119500000Y-84700000D03*
X115700000Y-86500000D03*
X83000000Y-120100000D03*
X83900000Y-119600000D03*
X94700000Y-119700000D03*
X132700000Y-132500000D03*
X132100000Y-124300000D03*
X130700000Y-116900000D03*
X110100000Y-115700000D03*
X114000000Y-118700000D03*
X132900000Y-100800000D03*
X124100000Y-98700000D03*
X104000000Y-81500000D03*
X125000000Y-85100000D03*
X100700000Y-110900000D03*
X110000000Y-108600000D03*
X111300000Y-117000000D03*
X106100000Y-114900000D03*
X103600000Y-114300000D03*
X103700000Y-98800000D03*
X97900000Y-113000000D03*
X112300000Y-101300000D03*
X103300000Y-112200006D03*
X102051817Y-110951813D03*
X97400000Y-103299992D03*
X104367088Y-102432912D03*
X81788000Y-86360000D03*
X82042000Y-80264000D03*
X101854000Y-81534000D03*
X105156000Y-98552000D03*
X108458000Y-105918000D03*
X96300000Y-124400000D03*
X107700000Y-108500000D03*
X117856000Y-80518000D03*
X115316000Y-80518000D03*
X114808000Y-77724000D03*
X109728000Y-77724000D03*
X128270000Y-79248000D03*
X123952000Y-83820000D03*
X120396000Y-83820000D03*
X111113600Y-112682261D03*
X107000000Y-124500000D03*
X95504000Y-88900000D03*
X103378004Y-90932000D03*
X121412000Y-102870000D03*
X116000000Y-104250000D03*
X106100000Y-106400000D03*
X90400000Y-103600000D03*
X103750000Y-89000000D03*
X106000000Y-91250000D03*
X114300000Y-109982000D03*
X125984000Y-110490000D03*
X133858000Y-114046000D03*
X117856000Y-112776000D03*
X132842000Y-121158000D03*
X111252000Y-108712000D03*
X133604000Y-106680000D03*
X114822414Y-107273600D03*
X105805331Y-109055331D03*
X93500000Y-113000000D03*
X101750000Y-116000000D03*
X106000000Y-105250000D03*
D30*
X94640000Y-119760000D02*
X94700000Y-119700000D01*
X93375000Y-119760000D02*
X94640000Y-119760000D01*
X84060000Y-119760000D02*
X83900000Y-119600000D01*
X85425000Y-119760000D02*
X84060000Y-119760000D01*
X83050000Y-120150000D02*
X83000000Y-120100000D01*
X83050000Y-121248000D02*
X83050000Y-120150000D01*
X100825000Y-110775000D02*
X100700000Y-110900000D01*
X100825000Y-109982000D02*
X100825000Y-110775000D01*
X109982000Y-115582000D02*
X110100000Y-115700000D01*
X109982000Y-114808000D02*
X109982000Y-115582000D01*
X119939000Y-85139000D02*
X119500000Y-84700000D01*
X121412000Y-85139000D02*
X119939000Y-85139000D01*
X135725000Y-100725000D02*
X135400000Y-100400000D01*
X135725000Y-101890000D02*
X135725000Y-100725000D01*
X143675000Y-101025000D02*
X144200000Y-100500000D01*
X143675000Y-101890000D02*
X143675000Y-101025000D01*
X145796000Y-102904000D02*
X146200000Y-102500000D01*
X145796000Y-103606000D02*
X145796000Y-102904000D01*
X145796000Y-109804000D02*
X146000000Y-109600000D01*
X145796000Y-110731000D02*
X145796000Y-109804000D01*
D31*
X143675000Y-109225000D02*
X144800000Y-108100000D01*
X143675000Y-109510000D02*
X143675000Y-109225000D01*
X134410000Y-109510000D02*
X134000000Y-109100000D01*
X135725000Y-109510000D02*
X134410000Y-109510000D01*
X144570000Y-117130000D02*
X145100000Y-116600000D01*
X143675000Y-117130000D02*
X144570000Y-117130000D01*
X134470000Y-117130000D02*
X134300000Y-117300000D01*
X135725000Y-117130000D02*
X134470000Y-117130000D01*
X134850000Y-124750000D02*
X134200000Y-125400000D01*
X135725000Y-124750000D02*
X134850000Y-124750000D01*
X144650000Y-124750000D02*
X145100000Y-124300000D01*
X143675000Y-124750000D02*
X144650000Y-124750000D01*
X145796000Y-125404000D02*
X146100000Y-125100000D01*
X145796000Y-126212000D02*
X145796000Y-125404000D01*
X145796000Y-118104000D02*
X146300000Y-117600000D01*
X145796000Y-118859000D02*
X145796000Y-118104000D01*
D30*
X121092000Y-80008000D02*
X121700000Y-79400000D01*
X121092000Y-80534000D02*
X121092000Y-80008000D01*
X106675400Y-79524600D02*
X105900000Y-80300000D01*
X106675400Y-78692200D02*
X106675400Y-79524600D01*
X115570000Y-96670000D02*
X116100000Y-97200000D01*
X115570000Y-95888000D02*
X115570000Y-96670000D01*
X107721400Y-81478600D02*
X107800000Y-81400000D01*
X107721400Y-82542200D02*
X107721400Y-81478600D01*
X108143400Y-119043400D02*
X108500000Y-119400000D01*
X108143400Y-118057400D02*
X108143400Y-119043400D01*
X110007400Y-118892600D02*
X110000000Y-118900000D01*
X110007400Y-117880000D02*
X110007400Y-118892600D01*
X120142000Y-118458000D02*
X119600000Y-119000000D01*
X120142000Y-117602000D02*
X120142000Y-118458000D01*
X122682000Y-118682000D02*
X123000000Y-119000000D01*
X122682000Y-117608000D02*
X122682000Y-118682000D01*
D32*
X102258410Y-108548590D02*
X100825000Y-109982000D01*
X104251410Y-108548590D02*
X102258410Y-108548590D01*
X104276400Y-108523600D02*
X104251410Y-108548590D01*
X104397100Y-108523600D02*
X104276400Y-108523600D01*
X111323600Y-104023600D02*
X111300000Y-104000000D01*
X112722100Y-104023600D02*
X111323600Y-104023600D01*
X107100000Y-103500000D02*
X107200000Y-103500000D01*
X106773610Y-103173610D02*
X107100000Y-103500000D01*
X106568908Y-103173610D02*
X106773610Y-103173610D01*
X106309600Y-102914302D02*
X106568908Y-103173610D01*
X106309600Y-102111100D02*
X106309600Y-102914302D01*
X101479000Y-114821000D02*
X101100000Y-115200000D01*
X102362000Y-114821000D02*
X101479000Y-114821000D01*
D30*
X128646200Y-90753800D02*
X128700000Y-90700000D01*
X127014000Y-90753800D02*
X128646200Y-90753800D01*
X127967000Y-85333000D02*
X128100000Y-85200000D01*
X127967000Y-86614000D02*
X127967000Y-85333000D01*
X115492000Y-102108000D02*
X116000000Y-101600000D01*
X114834000Y-102108000D02*
X115492000Y-102108000D01*
D32*
X109309600Y-109290400D02*
X110000000Y-108600000D01*
X109309600Y-110436100D02*
X109309600Y-109290400D01*
D30*
X111760000Y-116540000D02*
X111300000Y-117000000D01*
X111760000Y-115850000D02*
X111760000Y-116540000D01*
X105943400Y-116357400D02*
X105943400Y-115056600D01*
X105943400Y-115056600D02*
X106100000Y-114900000D01*
X104038400Y-117175400D02*
X103231030Y-117175400D01*
X103231030Y-117175400D02*
X103106419Y-117300011D01*
X103106419Y-117300011D02*
X102100000Y-117300011D01*
D32*
X104394000Y-113310000D02*
X103600000Y-114104000D01*
X103600000Y-114104000D02*
X103600000Y-114300000D01*
D30*
X104521000Y-100063000D02*
X104521000Y-99621000D01*
X104521000Y-99621000D02*
X103700000Y-98800000D01*
D33*
X102099989Y-117300011D02*
X102100000Y-117300011D01*
X101600000Y-117800000D02*
X102099989Y-117300011D01*
X109809600Y-110436100D02*
X109809600Y-111932400D01*
D30*
X109709591Y-112082133D02*
X109709591Y-111932400D01*
X109982000Y-112354542D02*
X109709591Y-112082133D01*
X109982000Y-113258000D02*
X109982000Y-112354542D01*
X111024000Y-114300000D02*
X111760000Y-114300000D01*
X109982000Y-113258000D02*
X111024000Y-114300000D01*
X113538000Y-116078000D02*
X111760000Y-114300000D01*
D32*
X112485001Y-119985001D02*
X113000000Y-120500000D01*
X112485001Y-117130999D02*
X112485001Y-119985001D01*
X113538000Y-116078000D02*
X112485001Y-117130999D01*
D30*
X105709590Y-110490000D02*
X105709590Y-110436100D01*
X104521000Y-101613000D02*
X104661000Y-101613000D01*
X104661000Y-101613000D02*
X105156000Y-102108000D01*
X105156000Y-102108000D02*
X105664000Y-102108000D01*
D31*
X125017000Y-90450800D02*
X124714000Y-90753800D01*
X125017000Y-86614000D02*
X125017000Y-90450800D01*
D30*
X104439590Y-111760000D02*
X104449795Y-111749795D01*
X104394000Y-111760000D02*
X104439590Y-111760000D01*
X102375000Y-109982000D02*
X102375000Y-109982000D01*
X104397100Y-109216900D02*
X104397100Y-109123610D01*
X103632000Y-109982000D02*
X104397100Y-109216900D01*
X112822110Y-103423590D02*
X112722100Y-103423590D01*
X113284000Y-102961700D02*
X112822110Y-103423590D01*
X113284000Y-102108000D02*
X113284000Y-102108000D01*
X126903000Y-88500000D02*
X125017000Y-86614000D01*
X113284000Y-100534000D02*
X112000000Y-99250000D01*
X113284000Y-102108000D02*
X113284000Y-100534000D01*
X130250001Y-88500001D02*
X131250000Y-89500000D01*
X126903000Y-88500000D02*
X130250001Y-88500001D01*
X113284000Y-102108000D02*
X113284000Y-102961700D01*
X97750000Y-112850000D02*
X97900000Y-113000000D01*
X97750000Y-112000000D02*
X97750000Y-112850000D01*
X113538000Y-118238000D02*
X114000000Y-118700000D01*
X113538000Y-117653000D02*
X113538000Y-118238000D01*
X131167500Y-116432500D02*
X130700000Y-116900000D01*
X131167500Y-115570000D02*
X131167500Y-116432500D01*
X131929500Y-124129500D02*
X132100000Y-124300000D01*
X131929500Y-122936000D02*
X131929500Y-124129500D01*
X133374000Y-131826000D02*
X132700000Y-132500000D01*
X133811000Y-131826000D02*
X133374000Y-131826000D01*
X133096000Y-100996000D02*
X132900000Y-100800000D01*
X133096000Y-101957500D02*
X133096000Y-100996000D01*
X124714000Y-98086000D02*
X124100000Y-98700000D01*
X124714000Y-97053800D02*
X124714000Y-98086000D01*
X104078000Y-81722000D02*
X104100000Y-81700000D01*
X104078000Y-82813500D02*
X104078000Y-81722000D01*
X115570000Y-86630000D02*
X115700000Y-86500000D01*
X115570000Y-87691500D02*
X115570000Y-86630000D01*
X104449795Y-111749795D02*
X105709590Y-110490000D01*
D32*
X101671000Y-113271000D02*
X101100000Y-112700000D01*
X102362000Y-113271000D02*
X101671000Y-113271000D01*
D30*
X125017000Y-85117000D02*
X125000000Y-85100000D01*
X125017000Y-86614000D02*
X125017000Y-85117000D01*
X113108000Y-102108000D02*
X112300000Y-101300000D01*
X113284000Y-102108000D02*
X113108000Y-102108000D01*
X102375000Y-109982000D02*
X103632000Y-109982000D01*
D32*
X103740006Y-111760000D02*
X103300000Y-112200006D01*
X104394000Y-111760000D02*
X103740006Y-111760000D01*
D30*
X102375000Y-110628630D02*
X102051817Y-110951813D01*
X102375000Y-109982000D02*
X102375000Y-110628630D01*
X97750000Y-104481000D02*
X97750000Y-103649992D01*
X97750000Y-103649992D02*
X97400000Y-103299992D01*
X104521000Y-101613000D02*
X104521000Y-102279000D01*
X104521000Y-102279000D02*
X104367088Y-102432912D01*
D32*
X108809600Y-109063600D02*
X108809600Y-110436100D01*
X108458000Y-108712000D02*
X108809600Y-109063600D01*
D33*
X81788000Y-80518000D02*
X82042000Y-80264000D01*
X81788000Y-86360000D02*
X81788000Y-80518000D01*
X101854000Y-81534000D02*
X101854000Y-85344000D01*
X105156000Y-88646000D02*
X105156000Y-98552000D01*
X101854000Y-85344000D02*
X105156000Y-88646000D01*
X83963000Y-122798000D02*
X85425000Y-124260000D01*
X83050000Y-122798000D02*
X83963000Y-122798000D01*
D30*
X85425000Y-124260000D02*
X93375000Y-124260000D01*
D32*
X96160000Y-124260000D02*
X96300000Y-124400000D01*
X93375000Y-124260000D02*
X96160000Y-124260000D01*
X108416000Y-108500000D02*
X108458000Y-108542000D01*
X107700000Y-108500000D02*
X108416000Y-108500000D01*
D33*
X108458000Y-108542000D02*
X108458000Y-108712000D01*
X108458000Y-105918000D02*
X108458000Y-108542000D01*
X104116400Y-118057400D02*
X104038400Y-118135400D01*
X105943400Y-118057400D02*
X104116400Y-118057400D01*
D32*
X107809600Y-111690400D02*
X107809600Y-110436100D01*
X107118399Y-112381601D02*
X107809600Y-111690400D01*
X107118399Y-117832401D02*
X107118399Y-112381601D01*
X106893400Y-118057400D02*
X107118399Y-117832401D01*
X105943400Y-118057400D02*
X106893400Y-118057400D01*
D33*
X108229400Y-116271400D02*
X108143400Y-116357400D01*
X108229400Y-114325400D02*
X108229400Y-116271400D01*
X108171400Y-116385400D02*
X108143400Y-116357400D01*
D30*
X109444800Y-116357400D02*
X110007400Y-116920000D01*
X108143400Y-116357400D02*
X109444800Y-116357400D01*
D31*
X117872000Y-80534000D02*
X117856000Y-80518000D01*
X119192000Y-80534000D02*
X117872000Y-80534000D01*
X115316000Y-81660000D02*
X115062000Y-81914000D01*
X115316000Y-80518000D02*
X115316000Y-81660000D01*
X119192000Y-80534000D02*
X119192000Y-80706000D01*
X119192000Y-80706000D02*
X118110000Y-81788000D01*
X118110000Y-81788000D02*
X118110000Y-86614000D01*
X119585000Y-88089000D02*
X121412000Y-88089000D01*
X118110000Y-86614000D02*
X119585000Y-88089000D01*
X122414000Y-90753800D02*
X122414000Y-90156000D01*
X121412000Y-89154000D02*
X121412000Y-88089000D01*
X122414000Y-90156000D02*
X121412000Y-89154000D01*
D30*
X119192000Y-77308000D02*
X119750000Y-76750000D01*
X119192000Y-80534000D02*
X119192000Y-77308000D01*
D33*
X122682000Y-111891000D02*
X122682000Y-114808000D01*
X120142000Y-111891000D02*
X120142000Y-114802000D01*
D30*
X109275400Y-78692200D02*
X109275400Y-81335400D01*
X109275400Y-81335400D02*
X109728000Y-81788000D01*
X107986399Y-83762199D02*
X107721400Y-84027198D01*
X109116403Y-83762199D02*
X107986399Y-83762199D01*
X107721400Y-84027198D02*
X107721400Y-84742200D01*
X109728000Y-83150602D02*
X109116403Y-83762199D01*
X109728000Y-81788000D02*
X109728000Y-83150602D01*
D31*
X115062000Y-77978000D02*
X114808000Y-77724000D01*
X115062000Y-78614000D02*
X115062000Y-77978000D01*
X109375401Y-78076599D02*
X109375401Y-78192616D01*
X109728000Y-77724000D02*
X109375401Y-78076599D01*
D33*
X115570000Y-90616500D02*
X115570000Y-93088000D01*
D31*
X128270000Y-81156000D02*
X127892000Y-81534000D01*
X128270000Y-79248000D02*
X128270000Y-81156000D01*
D30*
X126500000Y-80142000D02*
X127892000Y-81534000D01*
X126500000Y-76750000D02*
X126500000Y-80142000D01*
D31*
X125092000Y-82680000D02*
X123952000Y-83820000D01*
X125092000Y-81534000D02*
X125092000Y-82680000D01*
X120396000Y-82788000D02*
X120142000Y-82534000D01*
X120396000Y-83820000D02*
X120396000Y-82788000D01*
D33*
X88900000Y-101807000D02*
X88900000Y-99060000D01*
X110309600Y-110436100D02*
X110309600Y-111833600D01*
X110582009Y-112150670D02*
X111113600Y-112682261D01*
X110582009Y-112106009D02*
X110582009Y-112150670D01*
X110309600Y-111833600D02*
X110582009Y-112106009D01*
X97885000Y-132969000D02*
X97885000Y-131769000D01*
X97885000Y-131769000D02*
X105154000Y-124500000D01*
X105154000Y-124500000D02*
X107000000Y-124500000D01*
X114808000Y-126714000D02*
X108553000Y-132969000D01*
X114808000Y-115221998D02*
X114808000Y-126714000D01*
X111612001Y-112025999D02*
X114808000Y-115221998D01*
X111517999Y-112025999D02*
X111612001Y-112025999D01*
X110809600Y-111317600D02*
X111517999Y-112025999D01*
X110809600Y-110436100D02*
X110809600Y-111317600D01*
X104397100Y-104523600D02*
X103523600Y-104523600D01*
X103523600Y-104523600D02*
X101500000Y-102500000D01*
X101500000Y-102500000D02*
X101500000Y-98250000D01*
X101500000Y-98250000D02*
X94250000Y-91000000D01*
X94250000Y-91000000D02*
X91750000Y-91000000D01*
X90424000Y-89674000D02*
X90424000Y-86868000D01*
X91750000Y-91000000D02*
X90424000Y-89674000D01*
X92964000Y-86868000D02*
X94996000Y-88900000D01*
X94996000Y-88900000D02*
X95504000Y-88900000D01*
X102700000Y-91610004D02*
X103378004Y-90932000D01*
X102700000Y-101826500D02*
X102700000Y-91610004D01*
X104397100Y-103523600D02*
X102700000Y-101826500D01*
X95758000Y-87122000D02*
X95504000Y-86868000D01*
X98235000Y-87122000D02*
X95758000Y-87122000D01*
D32*
X113662400Y-104523600D02*
X112722100Y-104523600D01*
X114250000Y-103936000D02*
X113662400Y-104523600D01*
X114250000Y-103568166D02*
X114250000Y-103936000D01*
X114453166Y-103365000D02*
X114250000Y-103568166D01*
X120917000Y-103365000D02*
X114453166Y-103365000D01*
X121412000Y-102870000D02*
X120917000Y-103365000D01*
X120120000Y-102870000D02*
X121412000Y-102870000D01*
X118500000Y-101250000D02*
X120120000Y-102870000D01*
X114572410Y-104250000D02*
X116000000Y-104250000D01*
X113798810Y-105023600D02*
X114572410Y-104250000D01*
X112722100Y-105023600D02*
X113798810Y-105023600D01*
D30*
X142550000Y-98750000D02*
X144780000Y-96520000D01*
X141500000Y-98750000D02*
X142550000Y-98750000D01*
D33*
X99901400Y-108023600D02*
X97750000Y-110175000D01*
X104397100Y-108023600D02*
X99901400Y-108023600D01*
X94075000Y-110175000D02*
X97750000Y-110175000D01*
X86250000Y-118000000D02*
X94075000Y-110175000D01*
X77920000Y-118000000D02*
X86250000Y-118000000D01*
X77250000Y-118670000D02*
X77920000Y-118000000D01*
D32*
X78330000Y-119750000D02*
X77250000Y-118670000D01*
X81000000Y-119750000D02*
X78330000Y-119750000D01*
D33*
X86120000Y-116130000D02*
X77250000Y-116130000D01*
X95944000Y-106306000D02*
X86120000Y-116130000D01*
X101056000Y-106306000D02*
X100806000Y-106306000D01*
X101056000Y-106306000D02*
X100852000Y-106306000D01*
X100852000Y-106306000D02*
X97750000Y-106306000D01*
X95944000Y-106306000D02*
X97750000Y-106306000D01*
X104397100Y-107523600D02*
X103023600Y-107523600D01*
X103023600Y-107523600D02*
X101806000Y-106306000D01*
X101806000Y-106306000D02*
X101056000Y-106306000D01*
D32*
X79630000Y-113750000D02*
X77250000Y-116130000D01*
X81250000Y-113750000D02*
X79630000Y-113750000D01*
D30*
X105475400Y-76392200D02*
X105075400Y-75992200D01*
X105475400Y-78692200D02*
X105475400Y-76392200D01*
X110875400Y-75992200D02*
X108975400Y-75992200D01*
X106975400Y-75992200D02*
X108975400Y-75992200D01*
X106975400Y-75992200D02*
X105075400Y-75992200D01*
X110875400Y-78292200D02*
X110475400Y-78692200D01*
X110875400Y-75992200D02*
X110875400Y-78292200D01*
D33*
X107975400Y-79667200D02*
X106870600Y-80772000D01*
X107975400Y-78692200D02*
X107975400Y-79667200D01*
X106870600Y-82443000D02*
X106771400Y-82542200D01*
X106870600Y-80772000D02*
X106870600Y-82443000D01*
D30*
X106771400Y-82542200D02*
X106771400Y-82928600D01*
X105061500Y-84638500D02*
X104078000Y-84638500D01*
X106771400Y-82928600D02*
X105061500Y-84638500D01*
D33*
X108625400Y-79161400D02*
X108671400Y-79207400D01*
X108671400Y-79207400D02*
X108671400Y-82542200D01*
X108625400Y-78692200D02*
X108625400Y-79161400D01*
X112722100Y-106523600D02*
X115667600Y-106523600D01*
X118110000Y-108966000D02*
X120142000Y-108966000D01*
X115667600Y-106523600D02*
X118110000Y-108966000D01*
X105476400Y-107023600D02*
X106100000Y-106400000D01*
X104397100Y-107023600D02*
X105476400Y-107023600D01*
X88932000Y-103600000D02*
X88900000Y-103632000D01*
X90400000Y-103600000D02*
X88932000Y-103600000D01*
X108309600Y-112595200D02*
X108229400Y-112675400D01*
X108309600Y-110436100D02*
X108309600Y-112595200D01*
X106809600Y-101166720D02*
X106172000Y-100529120D01*
X106809600Y-102111100D02*
X106809600Y-101166720D01*
D32*
X101872000Y-87122000D02*
X103750000Y-89000000D01*
X99885000Y-87122000D02*
X101872000Y-87122000D01*
X106000000Y-100357120D02*
X106172000Y-100529120D01*
X106000000Y-91250000D02*
X106000000Y-100357120D01*
D33*
X107309600Y-100959600D02*
X107309600Y-102111100D01*
X106771400Y-100421400D02*
X107309600Y-100959600D01*
X106771400Y-84742200D02*
X106771400Y-100421400D01*
X107809600Y-102111100D02*
X107809600Y-97930400D01*
X107809600Y-97930400D02*
X108712000Y-97028000D01*
X108712000Y-84782800D02*
X108671400Y-84742200D01*
X108712000Y-97028000D02*
X108712000Y-84782800D01*
X119739600Y-106023600D02*
X122682000Y-108966000D01*
X112722100Y-106023600D02*
X119739600Y-106023600D01*
X135725000Y-129250000D02*
X143675000Y-129250000D01*
X113341600Y-109023600D02*
X114300000Y-109982000D01*
X112722100Y-109023600D02*
X113341600Y-109023600D01*
X125984000Y-119509000D02*
X135725000Y-129250000D01*
X125984000Y-110490000D02*
X125984000Y-119509000D01*
D30*
X135636000Y-129339000D02*
X135725000Y-129250000D01*
X135636000Y-131826000D02*
X135636000Y-129339000D01*
D33*
X145163000Y-127762000D02*
X143675000Y-129250000D01*
X145796000Y-127762000D02*
X145163000Y-127762000D01*
X135725000Y-114010000D02*
X143675000Y-114010000D01*
X133894000Y-114010000D02*
X133858000Y-114046000D01*
X135725000Y-114010000D02*
X133894000Y-114010000D01*
X117602000Y-109728000D02*
X115897610Y-108023610D01*
X117602000Y-112522000D02*
X117602000Y-109728000D01*
X117856000Y-112776000D02*
X117602000Y-112522000D01*
D30*
X134165000Y-115570000D02*
X135725000Y-114010000D01*
X132992500Y-115570000D02*
X134165000Y-115570000D01*
D33*
X145404000Y-112281000D02*
X143675000Y-114010000D01*
X145796000Y-112281000D02*
X145404000Y-112281000D01*
D32*
X112722110Y-108023610D02*
X112722100Y-108023600D01*
X113726390Y-108023610D02*
X112722110Y-108023610D01*
D33*
X115897610Y-108023610D02*
X113726390Y-108023610D01*
X113726390Y-108023610D02*
X113538000Y-108023610D01*
X135725000Y-121630000D02*
X143675000Y-121630000D01*
X133314000Y-121630000D02*
X132842000Y-121158000D01*
X135725000Y-121630000D02*
X133314000Y-121630000D01*
X111440400Y-108523600D02*
X111252000Y-108712000D01*
X112722100Y-108523600D02*
X111440400Y-108523600D01*
D30*
X134419000Y-122936000D02*
X135725000Y-121630000D01*
X133754500Y-122936000D02*
X134419000Y-122936000D01*
D33*
X144896000Y-120409000D02*
X143675000Y-121630000D01*
X145796000Y-120409000D02*
X144896000Y-120409000D01*
X135725000Y-106390000D02*
X143675000Y-106390000D01*
X133894000Y-106390000D02*
X133604000Y-106680000D01*
X135725000Y-106390000D02*
X133894000Y-106390000D01*
X112722100Y-107523600D02*
X114572414Y-107523600D01*
X114572414Y-107523600D02*
X114822414Y-107273600D01*
D30*
X133117500Y-103782500D02*
X135725000Y-106390000D01*
X133096000Y-103782500D02*
X133117500Y-103782500D01*
D33*
X144909000Y-105156000D02*
X143675000Y-106390000D01*
X145796000Y-105156000D02*
X144909000Y-105156000D01*
D32*
X106732033Y-109055331D02*
X105805331Y-109055331D01*
X107309600Y-109632898D02*
X106732033Y-109055331D01*
X107309600Y-110436100D02*
X107309600Y-109632898D01*
X105998911Y-113594333D02*
X103093244Y-116500000D01*
X105998912Y-112531323D02*
X105998911Y-113594333D01*
X106834590Y-110456790D02*
X106834590Y-111695645D01*
X106834590Y-111695645D02*
X105998912Y-112531323D01*
X106813900Y-110436100D02*
X106834590Y-110456790D01*
X106809600Y-110436100D02*
X106813900Y-110436100D01*
X97225001Y-116725001D02*
X93500000Y-113000000D01*
X102868243Y-116725001D02*
X97225001Y-116725001D01*
X103093244Y-116500000D02*
X102868243Y-116725001D01*
X106309600Y-111239302D02*
X105548902Y-112000000D01*
X106309600Y-110436100D02*
X106309600Y-111239302D01*
X105548902Y-113407932D02*
X102956834Y-116000000D01*
X105548902Y-112000000D02*
X105548902Y-113407932D01*
X102956834Y-116000000D02*
X101750000Y-116000000D01*
D33*
X77250000Y-103380000D02*
X84630000Y-96000000D01*
X84630000Y-96000000D02*
X93750000Y-96000000D01*
X93750000Y-96000000D02*
X99250000Y-101500000D01*
X99250000Y-101500000D02*
X99250000Y-104250000D01*
X103523600Y-106023600D02*
X104397100Y-106023600D01*
X103305990Y-105805990D02*
X103523600Y-106023600D01*
X100805990Y-105805990D02*
X103305990Y-105805990D01*
X99250000Y-104250000D02*
X100805990Y-105805990D01*
D32*
X105726400Y-105523600D02*
X106000000Y-105250000D01*
X104397100Y-105523600D02*
X105726400Y-105523600D01*
D33*
X101273600Y-105023600D02*
X104397100Y-105023600D01*
X100250000Y-104000000D02*
X101273600Y-105023600D01*
X100250000Y-100250000D02*
X100250000Y-104000000D01*
X94500000Y-94500000D02*
X100250000Y-100250000D01*
X84250000Y-94500000D02*
X94500000Y-94500000D01*
X80450000Y-98300000D02*
X84250000Y-94500000D01*
X77250000Y-98300000D02*
X80450000Y-98300000D01*
X119017800Y-128669800D02*
X119017800Y-132969000D01*
X116332000Y-125984000D02*
X119017800Y-128669800D01*
X116332000Y-115062000D02*
X116332000Y-125984000D01*
X111706100Y-110436100D02*
X116332000Y-115062000D01*
X111309600Y-110436100D02*
X111706100Y-110436100D01*
M02*
